<?xml version="1.0" encoding="UTF-8"?>
<svg id="Ebene_1" xmlns="http://www.w3.org/2000/svg" version="1.1" viewBox="0 0 395 600">
  <!-- Generator: Adobe Illustrator 29.6.1, SVG Export Plug-In . SVG Version: 2.1.1 Build 9)  -->
  <defs>
    <style>
      .st0, .st1 {
        isolation: isolate;
      }

      .st2 {
        fill: #fff;
      }

      .st3 {
        stroke-width: 13.9px;
      }

      .st3, .st4, .st5 {
        fill: none;
        stroke: #b9c7ca;
      }

      .st4 {
        stroke-width: 11.9px;
      }

      .st5 {
        stroke-width: 12.4px;
      }

      .st6 {
        fill: #b9c7ca;
      }

      .st1 {
        font-family: ArialMT-Condensed, 'Arial MT';
        font-size: 10px;
      }
    </style>
  </defs>
  <g class="st0">
    <text class="st1" transform="translate(20 534.3)"><tspan x="0" y="0">a</tspan></text>
    <text class="st1" transform="translate(25.5 534.3)"><tspan x="0" y="0">r</tspan></text>
    <text class="st1" transform="translate(29.7 534.3)"><tspan x="0" y="0">t</tspan></text>
    <text class="st1" transform="translate(33.5 534.3)"><tspan x="0" y="0">w</tspan></text>
    <text class="st1" transform="translate(41.1 534.3)"><tspan x="0" y="0">or</tspan></text>
    <text class="st1" transform="translate(51.3 534.3)"><tspan x="0" y="0">k</tspan></text>
    <text class="st1" transform="translate(57 534.3)"><tspan x="0" y="0">s..</tspan></text>
  </g>
  <rect class="st6" y="0" width="395" height="600"/>
  <g>
    <path class="st5" d="M135.2,107.7v22.6h10.5v-17.1l16.6-17.2,21.9,34.3h12.4l-26.6-40.7,24.1-24.9h-13.5l-8.7,9.2M145.8,55.3v-15.3h-10.5v22.6M154.5,92.2l-8.7,9.2v-15.3"/>
    <path class="st5" d="M260,82l7-17.2h-11.1l-5.4,13.4M221.8,114.7l7,16.6c-2.4,5.9-4.7,9.9-7,12.2s-5.1,3.4-8.4,3.4-4.8-.2-7.4-.6v8.8c2.6.7,5.2,1.1,7.8,1.1,4.1,0,7.6-.7,10.5-2.2s5.5-3.8,7.7-7.1c2.3-3.2,4.6-7.6,6.9-13.2l7-17.2M217.9,78.2l-5.5-13.4h-11.5l7,16.6M239.7,105l-5.4,13.4-5.5-13.4"/>
    <path class="st5" d="M276.2,113.9v16.4h10.5v-16.4M286.7,81.1v-16.4h-10.5v16.4"/>
    <path class="st5" d="M286.9,40.8c1.4,1.4,2,3.1,2,5.3s-.7,4-2,5.4c-1.4,1.4-3.2,2-5.5,2s-4.1-.7-5.5-2c-1.4-1.4-2-3.2-2-5.4s.7-3.9,2-5.3c1.4-1.4,3.2-2,5.5-2s4.1.7,5.5,2,2,3.1,2,5.3-.7,4-2,5.4c-1.4,1.4-3.2,2-5.5,2s-4.1-.7-5.5-2c-1.4-1.4-2-3.2-2-5.4s.7-3.9,2-5.3c1.4-1.4,3.2-2,5.5-2s4.1.7,5.5,2M286.9,40.8c1.4,1.4,2,3.1,2,5.3s-.7,4-2,5.4c-1.4,1.4-3.2,2-5.5,2s-4.1-.7-5.5-2c-1.4-1.4-2-3.2-2-5.4s.7-3.9,2-5.3c1.4-1.4,3.2-2,5.5-2s4.1.7,5.5,2"/>
    <path class="st5" d="M333.7,102.4l-5.4,12.6-5.4-12.6M354,81.1l7.2-16.4h-11.3l-5.4,12.6M316.9,113.9l7.1,16.4h8.4l7.2-16.4M312.2,77.3l-5.4-12.6h-11.4l7.1,16.4"/>
    <path class="st2" d="M381,406.2c-4,2-8.7,3-14,3s-8.8-1-11.3-3-3.8-4.5-3.8-7.7c0-6.8,6-10.6,17.9-11.6l23.9-1.9c0,4.7-1.1,8.9-3.3,12.6-2.2,3.7-5.4,6.5-9.4,8.5M396.6,355.5c-4.7-4.1-12.1-6.2-22.2-6.2s-16.7,2-21.6,6.1c-4.9,4-7.7,9.7-8.2,17.1h10.6c.6-4.6,2.4-8.1,5.5-10.5s7.8-3.6,14.2-3.6,11.1,1.3,14,3.9,4.3,6.7,4.3,12.3v2.4l-24.5,1.7c-9.9.7-17,2.8-21.2,6.2-4.2,3.4-6.4,8-6.4,13.7s2.1,10.2,6.3,13.7c4.2,3.4,10.4,5.1,18.6,5.1s14-1.9,19-5.6c5-3.8,8.3-8.4,9.8-13.8l2.1,18.2h6.8v-42.2c0-8.2-2.4-14.3-7.1-18.4M329.3,326.6c1.4,1.4,2,3.1,2,5.3s-.7,4-2,5.4-3.2,2-5.5,2-4.1-.7-5.5-2c-1.4-1.4-2-3.2-2-5.4s.7-3.9,2-5.3,3.2-2,5.5-2,4.1.7,5.5,2M329.1,350.5h-10.5v65.6h10.5v-65.6ZM296.9,356.8c-4.5-5-10.8-7.5-18.9-7.5s-11.9,1.6-16.3,4.9-7.5,8.2-9.3,14.8l-2-18.4h-6.8v65.6h10.5v-29.9c0-9.4,1.8-16.4,5.5-20.9,3.7-4.5,8.8-6.7,15.5-6.7s10.9,1.7,13.7,5c2.8,3.3,4.2,9.1,4.2,17.3v35.3h10.5v-36.8c0-10-2.2-17.5-6.7-22.5M221.6,356.8c-4.5-5-10.8-7.5-18.9-7.5s-11.9,1.6-16.3,4.9-7.5,8.2-9.3,14.8l-2-18.4h-6.8v65.6h10.5v-29.9c0-9.4,1.8-16.4,5.5-20.9s8.8-6.7,15.5-6.7,10.9,1.7,13.7,5,4.2,9.1,4.2,17.3v35.3h10.5v-36.8c0-10-2.2-17.5-6.7-22.5M101.9,378c1.5-13.3,8.9-19.9,22.3-19.9s11.3,1.7,14.9,5c3.6,3.3,5.6,8.3,6.1,14.9,0,0-43.3,0-43.3,0ZM155.4,386.4c.3-1.9.5-4,.5-6.4,0-6.1-1.3-11.5-3.9-16.1-2.6-4.6-6.3-8.2-11-10.8-4.7-2.6-10.3-3.8-16.8-3.8s-12.6,1.3-17.6,4-8.8,6.5-11.5,11.4-4,10.8-4,17.4v2.2c0,6.7,1.3,12.5,4,17.4s6.5,8.8,11.4,11.4,10.7,4,17.3,4,16.2-2.1,21.2-6.2c5.1-4.2,8.3-9.5,9.6-16h-10.8c-1.4,4-3.6,7.2-6.6,9.5s-7.4,3.5-13.2,3.5c-13.8,0-21.2-7.2-22.3-21.7h53.6v.2ZM79.4,326.6c1.4,1.4,2,3.1,2,5.3s-.7,4-2,5.4c-1.4,1.4-3.2,2-5.5,2s-4.1-.7-5.5-2c-1.4-1.4-2-3.2-2-5.4s.7-3.9,2-5.3c1.4-1.4,3.2-2,5.5-2s4.1.7,5.5,2M79.2,350.5h-10.5v65.6h10.5v-65.6ZM40.1,402c-3.8,4.1-9.3,6.1-16.5,6.1s-12.7-2.1-16.6-6.2c-3.9-4.2-5.8-10.3-5.8-18.3s1.9-14.5,5.8-18.7c3.9-4.2,9.4-6.3,16.6-6.3s12.8,2.1,16.6,6.2c3.8,4.2,5.7,10.4,5.7,18.7s-1.9,14.3-5.8,18.4M42.1,353.3c-4.5-2.7-9.5-4-15.2-4s-11.2,1.4-15.7,4.1c-4.5,2.8-7.9,6.7-10.1,11.7v-39.4h-10.5v90.3H-2.5l2-18.2c2,6.1,5.4,10.9,10.2,14.3,4.8,3.4,10.6,5.1,17.3,5.1s10.7-1.3,15.2-4,8-6.5,10.6-11.5c2.6-5,3.8-10.8,3.8-17.4v-2.2c0-6.6-1.3-12.4-3.8-17.4-2.6-5-6.1-8.8-10.6-11.5"/>
    <path class="st4" d="M-9.3,393.5v22.6H-2.5l2-18.2c2,6.1,5.4,10.9,10.2,14.3,4.8,3.4,10.6,5.1,17.3,5.1s10.7-1.3,15.2-4,8-6.5,10.6-11.5c2.6-5,3.8-10.8,3.8-17.4v-2.2c0-6.6-1.3-12.4-3.8-17.4-2.6-5-6.1-8.8-10.6-11.5s-9.5-4-15.2-4-11.2,1.4-15.7,4.1c-4.5,2.8-7.9,6.7-10.1,11.7v-39.4h-10.5v22.6"/>
    <path class="st4" d="M40.1,402c-3.8,4.1-9.3,6.1-16.5,6.1s-12.7-2.1-16.6-6.2c-3.9-4.2-5.8-10.2-5.8-18.3s1.9-14.5,5.8-18.7c3.9-4.2,9.4-6.3,16.6-6.3s12.8,2.1,16.6,6.2c3.8,4.2,5.7,10.4,5.7,18.7s-1.9,14.3-5.8,18.4-9.3,6.1-16.5,6.1-12.7-2.1-16.6-6.2c-3.9-4.2-5.8-10.2-5.8-18.3s1.9-14.5,5.8-18.7c3.9-4.2,9.4-6.3,16.6-6.3s12.8,2.1,16.6,6.2c3.8,4.2,5.7,10.4,5.7,18.7s-1.9,14.3-5.8,18.4M40.1,402c-3.8,4.1-9.3,6.1-16.5,6.1s-12.7-2.1-16.6-6.2c-3.9-4.2-5.8-10.2-5.8-18.3s1.9-14.5,5.8-18.7c3.9-4.2,9.4-6.3,16.6-6.3s12.8,2.1,16.6,6.2c3.8,4.2,5.7,10.4,5.7,18.7s-1.9,14.3-5.8,18.4"/>
    <path class="st4" d="M68.7,399.7v16.4h10.5v-16.4M79.2,366.9v-16.4h-10.5v16.4"/>
    <path class="st4" d="M79.4,326.6c1.4,1.4,2,3.1,2,5.3s-.7,4-2,5.4c-1.4,1.4-3.2,2-5.5,2s-4.1-.7-5.5-2c-1.4-1.4-2-3.2-2-5.4s.7-3.9,2-5.3c1.4-1.4,3.2-2,5.5-2s4.1.7,5.5,2,2,3.1,2,5.3-.7,4-2,5.4c-1.4,1.4-3.2,2-5.5,2s-4.1-.7-5.5-2c-1.4-1.4-2-3.2-2-5.4s.7-3.9,2-5.3c1.4-1.4,3.2-2,5.5-2s4.1.7,5.5,2M79.4,326.6c1.4,1.4,2,3.1,2,5.3s-.7,4-2,5.4c-1.4,1.4-3.2,2-5.5,2s-4.1-.7-5.5-2c-1.4-1.4-2-3.2-2-5.4s.7-3.9,2-5.3c1.4-1.4,3.2-2,5.5-2s4.1.7,5.5,2"/>
    <path class="st4" d="M142,386.4h13.4c.3-1.9.5-4,.5-6.4,0-6.1-1.3-11.5-3.9-16.1-2.6-4.6-6.3-8.2-11-10.8-4.7-2.6-10.3-3.8-16.8-3.8s-12.6,1.3-17.6,4-8.8,6.5-11.5,11.4c-2.7,5-4,10.8-4,17.4v2.2c0,6.7,1.3,12.5,4,17.4,2.7,5,6.5,8.8,11.4,11.4,4.9,2.7,10.7,4,17.3,4s16.1-2.1,21.2-6.2c5.1-4.2,8.3-9.5,9.6-16h-10.8c-1.4,4-3.6,7.2-6.6,9.5s-7.4,3.5-13.2,3.5c-13.8,0-21.2-7.2-22.3-21.7h13.4"/>
    <path class="st4" d="M101.9,378c1.5-13.3,8.9-19.9,22.3-19.9s11.3,1.7,14.9,5,5.6,8.3,6.1,14.9h-43.3c1.5-13.3,8.9-19.9,22.3-19.9s11.3,1.7,14.9,5,5.6,8.3,6.1,14.9h-43.3M101.9,378c1.5-13.3,8.9-19.9,22.3-19.9s11.3,1.7,14.9,5,5.6,8.3,6.1,14.9h-43.3"/>
    <path class="st4" d="M168.2,399.7v16.4h10.5v-29.9c0-9.4,1.8-16.4,5.5-20.9s8.8-6.7,15.5-6.7,10.9,1.7,13.7,5,4.2,9.1,4.2,17.3v35.3h10.5v-36.8c0-10-2.2-17.5-6.7-22.5s-10.8-7.5-18.9-7.5-11.9,1.6-16.3,4.9c-4.4,3.3-7.5,8.2-9.3,14.8l-2-18.4h-6.8v16.4"/>
    <path class="st4" d="M243.5,399.7v16.4h10.5v-29.9c0-9.4,1.8-16.4,5.5-20.9,3.7-4.5,8.8-6.7,15.5-6.7s10.9,1.7,13.7,5c2.8,3.3,4.2,9.1,4.2,17.3v35.3h10.5v-36.8c0-10-2.2-17.5-6.7-22.5s-10.8-7.5-18.9-7.5-11.9,1.6-16.3,4.9-7.5,8.2-9.3,14.8l-2-18.4h-6.8v16.4"/>
    <path class="st4" d="M318.6,399.7v16.4h10.5v-16.4M329.1,366.9v-16.4h-10.5v16.4"/>
    <path class="st4" d="M329.3,326.6c1.4,1.4,2,3.1,2,5.3s-.7,4-2,5.4c-1.4,1.4-3.2,2-5.5,2s-4.1-.7-5.5-2-2-3.2-2-5.4.7-3.9,2-5.3c1.4-1.4,3.2-2,5.5-2s4.1.7,5.5,2,2,3.1,2,5.3-.7,4-2,5.4c-1.4,1.4-3.2,2-5.5,2s-4.1-.7-5.5-2-2-3.2-2-5.4.7-3.9,2-5.3c1.4-1.4,3.2-2,5.5-2s4.1.7,5.5,2M329.3,326.6c1.4,1.4,2,3.1,2,5.3s-.7,4-2,5.4c-1.4,1.4-3.2,2-5.5,2s-4.1-.7-5.5-2-2-3.2-2-5.4.7-3.9,2-5.3c1.4-1.4,3.2-2,5.5-2s4.1.7,5.5,2"/>
    <path class="st4" d="M396.6,355.5c-4.7-4.1-12.1-6.2-22.2-6.2s-16.7,2-21.6,6.1c-4.9,4-7.7,9.7-8.2,17.1h10.6c.6-4.6,2.4-8.1,5.5-10.5s7.8-3.6,14.2-3.6,11.1,1.3,14,3.9,4.3,6.7,4.3,12.3v2.4l-24.5,1.7c-9.9.7-17,2.8-21.2,6.2-4.2,3.4-6.4,8-6.4,13.7s2.1,10.3,6.3,13.7c4.2,3.4,10.4,5.1,18.6,5.1s14-1.9,19-5.6c5-3.8,8.3-8.4,9.8-13.8l2.1,18.2h6.8v-42.2c0-8.2-2.4-14.3-7.1-18.4s-12.1-6.2-22.2-6.2-16.7,2-21.6,6.1c-4.9,4-7.7,9.7-8.2,17.1h10.6c.6-4.6,2.4-8.1,5.5-10.5s7.8-3.6,14.2-3.6,11.1,1.3,14,3.9,4.3,6.7,4.3,12.3v2.4l-24.5,1.7c-9.9.7-17,2.8-21.2,6.2-4.2,3.4-6.4,8-6.4,13.7s2.1,10.3,6.3,13.7c4.2,3.4,10.4,5.1,18.6,5.1s14-1.9,19-5.6c5-3.8,8.3-8.4,9.8-13.8l2.1,18.2h6.8v-42.2c0-8.2-2.4-14.3-7.1-18.4M396.6,355.5c-4.7-4.1-12.1-6.2-22.2-6.2s-16.7,2-21.6,6.1c-4.9,4-7.7,9.7-8.2,17.1h10.6c.6-4.6,2.4-8.1,5.5-10.5s7.8-3.6,14.2-3.6,11.1,1.3,14,3.9,4.3,6.7,4.3,12.3v2.4l-24.5,1.7c-9.9.7-17,2.8-21.2,6.2-4.2,3.4-6.4,8-6.4,13.7s2.1,10.3,6.3,13.7c4.2,3.4,10.4,5.1,18.6,5.1s14-1.9,19-5.6c5-3.8,8.3-8.4,9.8-13.8l2.1,18.2h6.8v-42.2c0-8.2-2.4-14.3-7.1-18.4"/>
    <path class="st4" d="M381,406.2c-4,2-8.7,3-14,3s-8.8-1-11.3-3-3.8-4.5-3.8-7.7c0-6.8,6-10.6,17.9-11.6l23.9-1.9c0,4.7-1.1,8.9-3.3,12.6-2.2,3.7-5.4,6.5-9.4,8.5s-8.7,3-14,3-8.8-1-11.3-3-3.8-4.5-3.8-7.7c0-6.8,6-10.6,17.9-11.6l23.9-1.9c0,4.7-1.1,8.9-3.3,12.6-2.2,3.7-5.4,6.5-9.4,8.5M381,406.2c-4,2-8.7,3-14,3s-8.8-1-11.3-3-3.8-4.5-3.8-7.7c0-6.8,6-10.6,17.9-11.6l23.9-1.9c0,4.7-1.1,8.9-3.3,12.6-2.2,3.7-5.4,6.5-9.4,8.5"/>
    <path class="st2" d="M397.2,136.2c1.4,1.4,2,3.1,2,5.3s-.7,4-2,5.4c-1.4,1.4-3.2,2-5.5,2s-4.1-.7-5.5-2c-1.4-1.4-2-3.2-2-5.4s.7-3.9,2-5.3c1.4-1.4,3.2-2,5.5-2s4.1.7,5.5,2M397,160.1h-10.5v65.6h10.5v-65.6ZM364.8,166.4c-4.5-5-10.8-7.5-18.9-7.5s-11.9,1.6-16.3,4.9c-4.4,3.3-7.5,8.2-9.3,14.8l-2-18.4h-6.8v65.6h10.5v-29.9c0-9.4,1.8-16.4,5.5-20.9s8.8-6.7,15.5-6.7,10.9,1.7,13.7,5c2.8,3.3,4.2,9.1,4.2,17.3v35.3h10.5v-36.8c0-10-2.2-17.5-6.7-22.5M289.5,166.4c-4.5-5-10.8-7.5-18.9-7.5s-11.9,1.6-16.3,4.9c-4.4,3.3-7.5,8.2-9.3,14.8l-2-18.4h-6.8v65.6h10.5v-29.9c0-9.4,1.8-16.4,5.5-20.9s8.8-6.7,15.5-6.7,10.9,1.7,13.7,5c2.8,3.3,4.2,9.1,4.2,17.3v35.3h10.5v-36.8c0-10-2.2-17.5-6.7-22.5M169.8,187.6c1.5-13.3,8.9-19.9,22.3-19.9s11.3,1.7,14.9,5c3.6,3.3,5.6,8.3,6.1,14.9h-43.3ZM223.3,196c.3-1.9.5-4,.5-6.4,0-6.1-1.3-11.5-3.9-16.1-2.6-4.6-6.3-8.2-11-10.8s-10.3-3.8-16.8-3.8-12.6,1.3-17.6,4-8.8,6.5-11.5,11.4c-2.7,5-4,10.8-4,17.4v2.2c0,6.7,1.3,12.5,4,17.4,2.7,5,6.5,8.8,11.4,11.4,4.9,2.7,10.7,4,17.3,4s16.2-2.1,21.2-6.2c5.1-4.2,8.3-9.5,9.6-16h-10.8c-1.4,4-3.6,7.2-6.6,9.5s-7.4,3.5-13.2,3.5c-13.8,0-21.2-7.2-22.3-21.7h53.6v.2ZM147.3,136.2c1.4,1.4,2,3.1,2,5.3s-.7,4-2,5.4c-1.4,1.4-3.2,2-5.5,2s-4.1-.7-5.5-2c-1.4-1.4-2-3.2-2-5.4s.7-3.9,2-5.3c1.4-1.4,3.2-2,5.5-2s4.1.7,5.5,2M147.1,160.1h-10.5v65.6h10.5v-65.6ZM108.1,211.5c-3.8,4.1-9.3,6.1-16.5,6.1s-12.7-2.1-16.6-6.2c-3.9-4.2-5.8-10.3-5.8-18.3s1.9-14.5,5.8-18.7,9.4-6.3,16.6-6.3,12.8,2.1,16.6,6.2c3.8,4.2,5.7,10.4,5.7,18.7s-1.9,14.3-5.8,18.4M110,162.9c-4.5-2.7-9.5-4-15.2-4s-11.2,1.4-15.7,4.1c-4.5,2.8-7.9,6.7-10.1,11.7v-39.4h-10.5v90.3h6.8l2-18.2c2,6.1,5.4,10.9,10.2,14.3,4.8,3.4,10.6,5.1,17.3,5.1s10.7-1.3,15.2-4,8-6.5,10.6-11.5,3.8-10.8,3.8-17.4v-2.2c0-6.6-1.3-12.4-3.8-17.4-2.6-5-6.1-8.8-10.6-11.5"/>
    <path class="st4" d="M58.6,203.1v22.6h6.8l2-18.2c2,6.1,5.4,10.9,10.2,14.3,4.8,3.4,10.6,5.1,17.3,5.1s10.7-1.3,15.2-4,8-6.5,10.6-11.5,3.8-10.8,3.8-17.4v-2.2c0-6.6-1.3-12.4-3.8-17.4-2.6-5-6.1-8.8-10.6-11.5s-9.5-4-15.2-4-11.2,1.4-15.7,4.1c-4.5,2.8-7.9,6.7-10.1,11.7v-39.4h-10.5v22.6"/>
    <path class="st4" d="M108.1,211.5c-3.8,4.1-9.3,6.1-16.5,6.1s-12.7-2.1-16.6-6.2c-3.9-4.2-5.8-10.2-5.8-18.3s1.9-14.5,5.8-18.7,9.4-6.3,16.6-6.3,12.8,2.1,16.6,6.2c3.8,4.2,5.7,10.4,5.7,18.7s-1.9,14.3-5.8,18.4-9.3,6.1-16.5,6.1-12.7-2.1-16.6-6.2c-3.9-4.2-5.8-10.2-5.8-18.3s1.9-14.5,5.8-18.7,9.4-6.3,16.6-6.3,12.8,2.1,16.6,6.2c3.8,4.2,5.7,10.4,5.7,18.7s-1.9,14.3-5.8,18.4M108.1,211.5c-3.8,4.1-9.3,6.1-16.5,6.1s-12.7-2.1-16.6-6.2c-3.9-4.2-5.8-10.2-5.8-18.3s1.9-14.5,5.8-18.7,9.4-6.3,16.6-6.3,12.8,2.1,16.6,6.2c3.8,4.2,5.7,10.4,5.7,18.7s-1.9,14.3-5.8,18.4"/>
    <path class="st4" d="M136.6,209.3v16.4h10.5v-16.4M147.1,176.5v-16.4h-10.5v16.4"/>
    <path class="st4" d="M147.3,136.2c1.4,1.4,2,3.1,2,5.3s-.7,4-2,5.4c-1.4,1.4-3.2,2-5.5,2s-4.1-.7-5.5-2-2-3.2-2-5.4.7-3.9,2-5.3c1.4-1.4,3.2-2,5.5-2s4.1.7,5.5,2,2,3.1,2,5.3-.7,4-2,5.4c-1.4,1.4-3.2,2-5.5,2s-4.1-.7-5.5-2-2-3.2-2-5.4.7-3.9,2-5.3c1.4-1.4,3.2-2,5.5-2s4.1.7,5.5,2M147.3,136.2c1.4,1.4,2,3.1,2,5.3s-.7,4-2,5.4c-1.4,1.4-3.2,2-5.5,2s-4.1-.7-5.5-2-2-3.2-2-5.4.7-3.9,2-5.3c1.4-1.4,3.2-2,5.5-2s4.1.7,5.5,2"/>
    <path class="st4" d="M209.9,196h13.4c.3-1.9.5-4,.5-6.4,0-6.1-1.3-11.5-3.9-16.1-2.6-4.6-6.3-8.2-11-10.8s-10.3-3.8-16.8-3.8-12.6,1.3-17.6,4-8.8,6.5-11.5,11.4c-2.7,5-4,10.8-4,17.4v2.2c0,6.7,1.3,12.5,4,17.4,2.7,5,6.5,8.8,11.4,11.4,4.9,2.7,10.7,4,17.3,4s16.1-2.1,21.2-6.2c5.1-4.2,8.3-9.5,9.6-16h-10.8c-1.4,4-3.6,7.2-6.6,9.5s-7.4,3.5-13.2,3.5c-13.8,0-21.2-7.2-22.3-21.7h13.4"/>
    <path class="st4" d="M169.8,187.6c1.5-13.3,8.9-19.9,22.3-19.9s11.3,1.7,14.9,5c3.6,3.3,5.6,8.3,6.1,14.9h-43.3c1.5-13.3,8.9-19.9,22.3-19.9s11.3,1.7,14.9,5c3.6,3.3,5.6,8.3,6.1,14.9h-43.3M169.8,187.6c1.5-13.3,8.9-19.9,22.3-19.9s11.3,1.7,14.9,5c3.6,3.3,5.6,8.3,6.1,14.9h-43.3"/>
    <path class="st4" d="M236.2,209.3v16.4h10.5v-29.9c0-9.4,1.8-16.4,5.5-20.9s8.8-6.7,15.5-6.7,10.9,1.7,13.7,5c2.8,3.3,4.2,9.1,4.2,17.3v35.3h10.5v-36.8c0-10-2.2-17.5-6.7-22.5s-10.8-7.5-18.9-7.5-11.9,1.6-16.3,4.9c-4.4,3.3-7.5,8.2-9.3,14.8l-2-18.4h-6.8v16.4"/>
    <path class="st4" d="M311.5,209.3v16.4h10.5v-29.9c0-9.4,1.8-16.4,5.5-20.9s8.8-6.7,15.5-6.7,10.9,1.7,13.7,5c2.8,3.3,4.2,9.1,4.2,17.3v35.3h10.5v-36.8c0-10-2.2-17.5-6.7-22.5s-10.8-7.5-18.9-7.5-11.9,1.6-16.3,4.9c-4.4,3.3-7.5,8.2-9.3,14.8l-2-18.4h-6.8v16.4"/>
    <path class="st4" d="M386.5,209.3v16.4h10.5v-16.4M397,176.5v-16.4h-10.5v16.4"/>
    <path class="st4" d="M397.2,136.2c1.4,1.4,2,3.1,2,5.3s-.7,4-2,5.4c-1.4,1.4-3.2,2-5.5,2s-4.1-.7-5.5-2-2-3.2-2-5.4.7-3.9,2-5.3c1.4-1.4,3.2-2,5.5-2s4.1.7,5.5,2,2,3.1,2,5.3-.7,4-2,5.4c-1.4,1.4-3.2,2-5.5,2s-4.1-.7-5.5-2-2-3.2-2-5.4.7-3.9,2-5.3c1.4-1.4,3.2-2,5.5-2s4.1.7,5.5,2M397.2,136.2c1.4,1.4,2,3.1,2,5.3s-.7,4-2,5.4c-1.4,1.4-3.2,2-5.5,2s-4.1-.7-5.5-2-2-3.2-2-5.4.7-3.9,2-5.3c1.4-1.4,3.2-2,5.5-2s4.1.7,5.5,2"/>
    <path class="st2" d="M346.3,49.3v24.9h-36.4v-24.9h-9.8v60.8h9.8v-27.3h36.4v27.3h9.8v-60.8s-9.8,0-9.8,0ZM259.7,111.2c18.8,0,28.1-9.8,29.8-23.3h-10.1c-2.3,9-8.1,14.7-19.9,14.7s-20.4-6.9-21.2-19.7h27v-8.5h-26.7c1.4-11.6,8.7-17.7,20.7-17.7s17.1,5.9,19,13.1h10c-1.4-12.2-10.4-21.7-28.8-21.7s-31,11.1-31,30.5v2.1c0,19.4,11.1,30.5,31.2,30.5M212.6,38.8c4.9,0,7-2.1,7-6.9s-2.1-6.8-7-6.8-7,2.1-7,6.8,2.1,6.9,7,6.9M207.7,110.1h9.8v-60.8h-9.8v60.8ZM166.6,102.6c-13.3,0-20.9-7.6-20.9-21.6v-2.1c0-14,7.6-21.6,20.9-21.6s20.9,7.6,20.9,21.6v2.1c0,14-7.6,21.6-20.9,21.6M166.7,111.2c19.5,0,30.6-11.1,30.6-30.5v-2.1c0-18.8-10.4-29.3-28.2-29.3s-21.6,5.5-24.9,16.1c.5-20.7,6.7-26.7,21.7-27.8l17.3-1.1c4.8-.3,8.4-1.1,10-2.2v-9.4h-.3c-1.7,1.5-5.1,2.3-10.3,2.6l-17.7,1.1c-20.2,1.3-30,11.2-30,41.8v3.1c0,26.6,11.1,37.6,31.8,37.6"/>
    <path class="st3" d="M152.8,109c4,1.5,8.6,2.2,13.9,2.2,19.5,0,30.6-11.1,30.6-30.5v-2.1c0-18.8-10.4-29.3-28.2-29.3s-21.6,5.5-24.9,16.1c.5-20.7,6.7-26.7,21.7-27.8l17.3-1.1c4.8-.3,8.4-1.1,10-2.2v-9.4h-.3c-1.7,1.5-5,2.3-10.3,2.6l-17.7,1.1c-5.5.3-10.3,1.3-14.2,3.2M135.9,55.9c-.6,4.3-1,9.1-1,14.6v3.1c0,5.3.4,10,1.3,14.1"/>
    <path class="st3" d="M166.6,102.6c-13.3,0-20.9-7.6-20.9-21.6v-2.1c0-14,7.6-21.6,20.9-21.6s20.9,7.6,20.9,21.6v2.1c0,14-7.6,21.6-20.9,21.6s-20.9-7.6-20.9-21.6v-2.1c0-14,7.6-21.6,20.9-21.6s20.9,7.6,20.9,21.6v2.1c0,14-7.6,21.6-20.9,21.6M166.6,102.6c-13.3,0-20.9-7.6-20.9-21.6v-2.1c0-14,7.6-21.6,20.9-21.6s20.9,7.6,20.9,21.6v2.1c0,14-7.6,21.6-20.9,21.6"/>
    <path class="st3" d="M207.7,94.9v15.2h9.8v-15.2M217.5,64.5v-15.2h-9.8v15.2"/>
    <path class="st3" d="M212.6,38.8c4.9,0,7-2.1,7-6.9s-2.1-6.8-7-6.8-7,2.1-7,6.8,2.1,6.9,7,6.9,7-2.1,7-6.9-2.1-6.8-7-6.8-7,2.1-7,6.8,2.1,6.9,7,6.9M212.6,38.8c4.9,0,7-2.1,7-6.9s-2.1-6.8-7-6.8-7,2.1-7,6.8,2.1,6.9,7,6.9"/>
    <path class="st3" d="M259.7,111.2c18.8,0,28.1-9.8,29.8-23.3h-10.1c-2.3,9-8.1,14.7-19.9,14.7s-20.4-6.9-21.2-19.7h27v-8.5h-26.7c1.4-11.6,8.7-17.7,20.7-17.7s17.1,5.9,19.1,13.1h10c-1.4-12.2-10.4-21.7-28.8-21.7s-31,11.1-31,30.5v2.1c0,19.4,11.1,30.5,31.2,30.5s28.1-9.8,29.8-23.3h-10.1c-2.3,9-8.1,14.7-19.9,14.7s-20.4-6.9-21.2-19.7h27v-8.5h-26.7c1.4-11.6,8.7-17.7,20.7-17.7s17.1,5.9,19.1,13.1h10c-1.4-12.2-10.4-21.7-28.8-21.7s-31,11.1-31,30.5v2.1c0,19.4,11.1,30.5,31.2,30.5M259.7,111.2c18.8,0,28.1-9.8,29.8-23.3h-10.1c-2.3,9-8.1,14.7-19.9,14.7s-20.4-6.9-21.2-19.7h27v-8.5h-26.7c1.4-11.6,8.7-17.7,20.7-17.7s17.1,5.9,19.1,13.1h10c-1.4-12.2-10.4-21.7-28.8-21.7s-31,11.1-31,30.5v2.1c0,19.4,11.1,30.5,31.2,30.5"/>
    <path class="st3" d="M356.1,64.5v-15.2h-9.8v24.9h-36.4v-24.9h-9.8v15.2M300.2,94.9v15.2h9.8v-27.3h36.4v27.3h9.8v-15.2"/>
    <path class="st2" d="M321.4,131l-.9,26.1c-.7,21.3-5.4,25.9-12.3,25.9h-1.7v8.8h2.3c13.3,0,20.2-6.2,21-33.7l.6-18.5h30.1v52.2h9.8v-60.8h-48.9ZM262.5,184.8c-8.7,0-12.3-3.3-12.3-8.5s2.8-7.3,11-9.1l10.6-2.2c9.5-2,14.9-6.3,16.8-10.1v7c0,12.2-11.4,22.8-26.1,22.8M272.3,129.8c-18.8,0-27.5,8.3-29.7,22.1h10.1c2.2-8.7,8.3-13.5,19.1-13.5s15.3,4.5,15.3,10.4-3.3,8.3-17.3,9.8l-10.4,1.1c-13.4,1.5-18.9,7.3-18.9,16.6s6.5,16.5,18.9,16.5,24.8-7.7,29.6-18.9v17.8h9.5v-39.1c0-15.4-8.8-22.8-26.1-22.8M218.6,131v24.9h-36.4v-24.9h-9.8v60.8h9.8v-27.3h36.4v27.3h9.8v-60.8h-9.8ZM132.1,192.9c18.8,0,28.1-9.8,29.8-23.3h-10.1c-2.3,9-8.1,14.7-19.9,14.7s-20.4-6.9-21.2-19.7h27v-8.5h-26.7c1.4-11.6,8.7-17.7,20.7-17.7s17.1,5.9,19,13.1h10c-1.4-12.2-10.4-21.7-28.8-21.7s-31,11.1-31,30.5v2.1c0,19.4,11.1,30.5,31.2,30.5M84.9,120.5c4.9,0,7-2.1,7-6.9s-2.1-6.8-7-6.8-7,2.1-7,6.8,2.1,6.9,7,6.9M80.1,191.8h9.8v-60.8h-9.8v60.8ZM38.9,184.3c-13.3,0-20.9-7.6-20.9-21.6v-2.1c0-14,7.6-21.6,20.9-21.6s20.9,7.6,20.9,21.6v2.1c0,14-7.6,21.6-20.9,21.6M39,192.9c19.5,0,30.6-11.1,30.6-30.5v-2.1c0-18.8-10.4-29.3-28.2-29.3s-21.6,5.5-24.9,16.1c.5-20.7,6.7-26.7,21.7-27.8l17.3-1.1c4.8-.3,8.4-1.1,10-2.2v-9.4h-.3c-1.7,1.5-5,2.3-10.3,2.6l-17.7,1.1c-20.2,1.3-30,11.2-30,41.8v3.1c0,26.6,11.1,37.6,31.8,37.6"/>
    <path class="st3" d="M25.1,190.7c4,1.5,8.6,2.2,13.9,2.2,19.5,0,30.6-11.1,30.6-30.5v-2.1c0-18.8-10.4-29.3-28.2-29.3s-21.6,5.5-24.9,16.1c.5-20.7,6.7-26.7,21.7-27.8l17.3-1.1c4.8-.3,8.4-1.1,10-2.2v-9.4h-.3c-1.7,1.5-5,2.3-10.3,2.6l-17.7,1.1c-5.5.3-10.3,1.3-14.2,3.2M8.2,137.5c-.6,4.3-1,9.1-1,14.6v3.1c0,5.3.4,10,1.3,14.1"/>
    <path class="st3" d="M38.9,184.3c-13.3,0-20.9-7.6-20.9-21.6v-2.1c0-14,7.6-21.6,20.9-21.6s20.9,7.6,20.9,21.6v2.1c0,14-7.6,21.6-20.9,21.6s-20.9-7.6-20.9-21.6v-2.1c0-14,7.6-21.6,20.9-21.6s20.9,7.6,20.9,21.6v2.1c0,14-7.6,21.6-20.9,21.6M38.9,184.3c-13.3,0-20.9-7.6-20.9-21.6v-2.1c0-14,7.6-21.6,20.9-21.6s20.9,7.6,20.9,21.6v2.1c0,14-7.6,21.6-20.9,21.6"/>
    <path class="st3" d="M80.1,176.6v15.2h9.8v-15.2M89.8,146.2v-15.2h-9.8v15.2"/>
    <path class="st3" d="M84.9,120.5c4.9,0,7-2.1,7-6.9s-2.1-6.8-7-6.8-7,2.1-7,6.8,2.1,6.9,7,6.9,7-2.1,7-6.9-2.1-6.8-7-6.8-7,2.1-7,6.8,2.1,6.9,7,6.9M84.9,120.5c4.9,0,7-2.1,7-6.9s-2.1-6.8-7-6.8-7,2.1-7,6.8,2.1,6.9,7,6.9"/>
    <path class="st3" d="M132.1,192.9c18.8,0,28.1-9.8,29.8-23.3h-10.1c-2.3,9-8.1,14.7-19.9,14.7s-20.4-6.9-21.2-19.7h27v-8.5h-26.7c1.4-11.6,8.7-17.7,20.7-17.7s17.1,5.9,19.1,13.1h10c-1.4-12.2-10.4-21.7-28.8-21.7s-31,11.1-31,30.5v2.1c0,19.4,11.1,30.5,31.2,30.5s28.1-9.8,29.8-23.3h-10.1c-2.3,9-8.1,14.7-19.9,14.7s-20.4-6.9-21.2-19.7h27v-8.5h-26.7c1.4-11.6,8.7-17.7,20.7-17.7s17.1,5.9,19.1,13.1h10c-1.4-12.2-10.4-21.7-28.8-21.7s-31,11.1-31,30.5v2.1c0,19.4,11.1,30.5,31.2,30.5M132.1,192.9c18.8,0,28.1-9.8,29.8-23.3h-10.1c-2.3,9-8.1,14.7-19.9,14.7s-20.4-6.9-21.2-19.7h27v-8.5h-26.7c1.4-11.6,8.7-17.7,20.7-17.7s17.1,5.9,19.1,13.1h10c-1.4-12.2-10.4-21.7-28.8-21.7s-31,11.1-31,30.5v2.1c0,19.4,11.1,30.5,31.2,30.5"/>
    <path class="st3" d="M228.4,146.2v-15.2h-9.8v24.9h-36.4v-24.9h-9.8v15.2M172.5,176.6v15.2h9.8v-27.3h36.4v27.3h9.8v-15.2"/>
    <path class="st3" d="M272.3,129.8c-18.8,0-27.5,8.3-29.7,22.1h10.1c2.2-8.7,8.3-13.5,19-13.5s15.3,4.5,15.3,10.4-3.3,8.3-17.3,9.8l-10.4,1.1c-13.4,1.5-18.9,7.3-18.9,16.6s6.5,16.5,18.9,16.5,24.8-7.7,29.6-18.9v17.8h9.5v-39.1c0-15.4-8.8-22.8-26.1-22.8s-27.5,8.3-29.7,22.1h10.1c2.2-8.7,8.3-13.5,19-13.5s15.3,4.5,15.3,10.4-3.3,8.3-17.3,9.8l-10.4,1.1c-13.4,1.5-18.9,7.3-18.9,16.6s6.5,16.5,18.9,16.5,24.8-7.7,29.6-18.9v17.8h9.5v-39.1c0-15.4-8.8-22.8-26.1-22.8M272.3,129.8c-18.8,0-27.5,8.3-29.7,22.1h10.1c2.2-8.7,8.3-13.5,19-13.5s15.3,4.5,15.3,10.4-3.3,8.3-17.3,9.8l-10.4,1.1c-13.4,1.5-18.9,7.3-18.9,16.6s6.5,16.5,18.9,16.5,24.8-7.7,29.6-18.9v17.8h9.5v-39.1c0-15.4-8.8-22.8-26.1-22.8"/>
    <path class="st3" d="M262.5,184.8c-8.7,0-12.3-3.3-12.3-8.5s2.8-7.3,11-9.1l10.6-2.2c9.5-2,14.9-6.3,16.8-10.1v7c0,12.2-11.4,22.8-26.1,22.8s-12.3-3.3-12.3-8.5,2.8-7.3,11-9.1l10.6-2.2c9.5-2,14.9-6.3,16.8-10.1v7c0,12.2-11.4,22.8-26.1,22.8M262.5,184.8c-8.7,0-12.3-3.3-12.3-8.5s2.8-7.3,11-9.1l10.6-2.2c9.5-2,14.9-6.3,16.8-10.1v7c0,12.2-11.4,22.8-26.1,22.8"/>
    <path class="st3" d="M370.2,146.2v-15.2h-48.8l-.9,26.1c-.7,21.3-5.4,25.9-12.3,25.9h-1.7v8.8h2.3c13.3,0,20.2-6.2,21-33.7l.6-18.5h30.1v52.2h9.8v-15.2"/>
    <path class="st3" d="M380.4,210.7c-.6,4.3-1,9.1-1,14.6v3.1c0,5.3.4,10,1.3,14.1"/>
    <path class="st2" d="M223.5,311.1c1.1-12.1,8.5-18.2,20.5-18.2s18.8,6.2,20,18.2h-40.5ZM273.3,327h-10.1c-2.2,6.3-7.2,12-19.1,12s-20.3-6.9-20.9-20.1h50.8v-3.9c0-19.4-11.1-30.5-30-30.5s-30.8,11.1-30.8,30.5v2.1c0,19.4,11.1,30.5,30.8,30.5s27.3-9.6,29.1-20.7M153.1,285.7l-.9,26.1c-.7,21.3-5.4,25.9-12.3,25.9h-1.7v8.8h2.3c13.3,0,20.2-6.2,21-33.7l.6-18.5h30.1v52.2h9.8v-60.8h-48.9ZM94.2,339.5c-8.7,0-12.3-3.3-12.3-8.5s2.8-7.3,11-9.1l10.6-2.2c9.5-2,14.9-6.3,16.8-10.1v7c0,12.2-11.4,22.8-26.1,22.8M103.9,284.6c-18.8,0-27.5,8.3-29.7,22.1h10.1c2.2-8.7,8.3-13.5,19.1-13.5s15.3,4.5,15.3,10.4-3.3,8.3-17.3,9.8l-10.4,1.1c-13.4,1.5-18.9,7.3-18.9,16.6s6.5,16.5,18.9,16.5,24.8-7.7,29.6-18.9v17.8h9.5v-39.1c0-15.4-8.8-22.8-26.1-22.8M50.3,285.7v24.9H13.9v-24.9H4.2v60.8h9.8v-27.3h36.4v27.3h9.8v-60.8h-9.9Z"/>
    <path class="st3" d="M60.1,300.9v-15.2h-9.8v24.9H13.9v-24.9H4.2v15.2M4.2,331.3v15.2h9.8v-27.3h36.4v27.3h9.8v-15.2"/>
    <path class="st3" d="M103.9,284.6c-18.8,0-27.5,8.3-29.7,22.1h10.1c2.2-8.7,8.3-13.5,19.1-13.5s15.3,4.5,15.3,10.4-3.3,8.3-17.3,9.8l-10.4,1.1c-13.4,1.5-18.9,7.3-18.9,16.6s6.5,16.5,18.9,16.5,24.8-7.7,29.6-18.9v17.8h9.5v-39.1c0-15.4-8.8-22.8-26.1-22.8s-27.5,8.3-29.7,22.1h10.1c2.2-8.7,8.3-13.5,19.1-13.5s15.3,4.5,15.3,10.4-3.3,8.3-17.3,9.8l-10.4,1.1c-13.4,1.5-18.9,7.3-18.9,16.6s6.5,16.5,18.9,16.5,24.8-7.7,29.6-18.9v17.8h9.5v-39.1c0-15.4-8.8-22.8-26.1-22.8M103.9,284.6c-18.8,0-27.5,8.3-29.7,22.1h10.1c2.2-8.7,8.3-13.5,19.1-13.5s15.3,4.5,15.3,10.4-3.3,8.3-17.3,9.8l-10.4,1.1c-13.4,1.5-18.9,7.3-18.9,16.6s6.5,16.5,18.9,16.5,24.8-7.7,29.6-18.9v17.8h9.5v-39.1c0-15.4-8.8-22.8-26.1-22.8"/>
    <path class="st3" d="M94.2,339.5c-8.7,0-12.3-3.3-12.3-8.5s2.8-7.3,11-9.1l10.6-2.2c9.5-2,14.9-6.3,16.8-10.1v7c0,12.2-11.4,22.8-26.1,22.8s-12.3-3.3-12.3-8.5,2.8-7.3,11-9.1l10.6-2.2c9.5-2,14.9-6.3,16.8-10.1v7c0,12.2-11.4,22.8-26.1,22.8M94.2,339.5c-8.7,0-12.3-3.3-12.3-8.5s2.8-7.3,11-9.1l10.6-2.2c9.5-2,14.9-6.3,16.8-10.1v7c0,12.2-11.4,22.8-26.1,22.8"/>
    <path class="st3" d="M201.9,300.9v-15.2h-48.8l-.9,26.1c-.7,21.3-5.4,25.9-12.3,25.9h-1.7v8.8h2.3c13.3,0,20.2-6.2,21-33.7l.6-18.5h30.1v52.2h9.8v-15.2"/>
    <path class="st3" d="M273.3,327h-10.1c-2.2,6.3-7.2,12-19.1,12s-20.3-6.9-20.9-20.1h50.8v-3.9c0-19.4-11.1-30.5-30-30.5s-30.8,11.1-30.8,30.5v2.1c0,19.4,11.1,30.5,30.8,30.5s27.3-9.6,29.1-20.7h-10.1c-2.2,6.3-7.2,12-19.1,12s-20.3-6.9-20.9-20.1h50.8v-3.9c0-19.4-11.1-30.5-30-30.5s-30.8,11.1-30.8,30.5v2.1c0,19.4,11.1,30.5,30.8,30.5s27.3-9.6,29.1-20.7M273.3,327h-10.1c-2.2,6.3-7.2,12-19.1,12s-20.3-6.9-20.9-20.1h50.8v-3.9c0-19.4-11.1-30.5-30-30.5s-30.8,11.1-30.8,30.5v2.1c0,19.4,11.1,30.5,30.8,30.5s27.3-9.6,29.1-20.7"/>
    <path class="st3" d="M223.5,311.1c1.1-12,8.5-18.2,20.5-18.2s18.8,6.2,20,18.2h-40.5c1.1-12,8.5-18.2,20.5-18.2s18.8,6.2,20,18.2h-40.5M223.5,311.1c1.1-12,8.5-18.2,20.5-18.2s18.8,6.2,20,18.2h-40.5"/>
  </g>
</svg>