<?xml version="1.0" encoding="UTF-8"?>
<svg id="Ebene_1" xmlns="http://www.w3.org/2000/svg" xmlns:xlink="http://www.w3.org/1999/xlink" version="1.1" viewBox="0 0 395 600">
  <!-- Generator: Adobe Illustrator 29.5.1, SVG Export Plug-In . SVG Version: 2.1.0 Build 141)  -->
  <defs>
    <style>
      .st0, .st1, .st2, .st3, .st4, .st5, .st6 {
        fill: none;
      }

      .st7 {
        font-family: CyGrotesk-KeyMedium, 'CyGrotesk KeyMedium';
        font-size: 10px;
        font-weight: 500;
      }

      .st8 {
        font-family: CyGrotesk-KeyRegular, 'CyGrotesk KeyRegular';
      }

      .st8, .st9 {
        font-size: 26.3px;
      }

      .st10 {
        clip-path: url(#clippath-1);
      }

      .st11 {
        fill: #fff;
      }

      .st9 {
        font-family: CyGrotesk-KeyBold, 'CyGrotesk KeyBold';
        font-weight: 700;
      }

      .st1, .st2, .st3 {
        stroke: #b9c7ca;
      }

      .st1, .st6 {
        stroke-width: 13.9px;
      }

      .st2, .st4 {
        stroke-width: 11.9px;
      }

      .st3, .st5 {
        stroke-width: 12.4px;
      }

      .st12 {
        fill: #e96223;
      }

      .st13 {
        letter-spacing: 0em;
      }

      .st14 {
        letter-spacing: 0em;
      }

      .st15 {
        fill: #b9c7ca;
      }

      .st16 {
        clip-path: url(#clippath);
      }

      .st4, .st5, .st6 {
        stroke: #e96223;
      }

      .st17 {
        letter-spacing: 0em;
      }
    </style>
    <clipPath id="clippath">
      <rect class="st0" width="800" height="600"/>
    </clipPath>
    <clipPath id="clippath-1">
      <rect class="st0" width="800" height="600"/>
    </clipPath>
  </defs>
  <text class="st9" transform="translate(711 30.6)"><tspan x="0" y="0">en </tspan></text>
  <text class="st8" transform="translate(751.7 30.6)"><tspan x="0" y="0">ua</tspan></text>
  <text class="st7" transform="translate(20 534.3)"><tspan x="0" y="0">a</tspan><tspan class="st17" x="5.5" y="0">r</tspan><tspan x="9.7" y="0">t</tspan><tspan class="st14" x="13.5" y="0">w</tspan><tspan x="21.1" y="0">or</tspan><tspan class="st13" x="31.3" y="0">k</tspan><tspan x="37" y="0">s..</tspan></text>
  <rect class="st15" width="799.9" height="600"/>
  <g class="st16">
    <path class="st3" d="M135.2,107.7v22.6h10.5v-17.1l16.6-17.2,21.9,34.3h12.4l-26.6-40.7,24.1-24.9h-13.5l-8.7,9.2M145.8,55.3v-15.3h-10.5v22.6M154.5,92.2l-8.7,9.2v-15.3"/>
    <path class="st3" d="M260,82l7-17.2h-11.1l-5.4,13.4M221.8,114.7l7,16.6c-2.4,5.9-4.7,9.9-7,12.2-2.3,2.3-5.1,3.4-8.4,3.4s-4.8-.2-7.4-.6v8.8c2.6.7,5.2,1.1,7.8,1.1,4.1,0,7.6-.7,10.5-2.2,2.9-1.5,5.5-3.8,7.7-7.1,2.3-3.2,4.6-7.6,6.9-13.2l7-17.2M217.9,78.2l-5.5-13.4h-11.5l7,16.6M239.7,105l-5.4,13.4-5.5-13.4"/>
    <path class="st3" d="M276.2,113.9v16.4h10.5v-16.4M286.7,81.1v-16.4h-10.5v16.4"/>
    <path class="st3" d="M286.9,40.8c1.4,1.4,2,3.1,2,5.3s-.7,4-2,5.4c-1.4,1.4-3.2,2-5.5,2s-4.1-.7-5.5-2c-1.4-1.4-2-3.2-2-5.4s.7-3.9,2-5.3c1.4-1.4,3.2-2,5.5-2s4.1.7,5.5,2,2,3.1,2,5.3-.7,4-2,5.4c-1.4,1.4-3.2,2-5.5,2s-4.1-.7-5.5-2c-1.4-1.4-2-3.2-2-5.4s.7-3.9,2-5.3c1.4-1.4,3.2-2,5.5-2s4.1.7,5.5,2M286.9,40.8c1.4,1.4,2,3.1,2,5.3s-.7,4-2,5.4c-1.4,1.4-3.2,2-5.5,2s-4.1-.7-5.5-2c-1.4-1.4-2-3.2-2-5.4s.7-3.9,2-5.3c1.4-1.4,3.2-2,5.5-2s4.1.7,5.5,2"/>
    <path class="st3" d="M333.7,102.4l-5.4,12.6-5.4-12.6M354,81.1l7.2-16.4h-11.3l-5.4,12.6M316.9,113.9l7.1,16.4h8.4l7.2-16.4M312.2,77.3l-5.4-12.6h-11.4l7.1,16.4"/>
    <path class="st11" d="M887.3,242.9l-21.5-50.2h-11.4l28.6,65.6h8.4l28.7-65.6h-11.3l-21.5,50.2ZM845.8,168.7c1.4,1.4,2,3.1,2,5.3s-.7,4-2,5.4c-1.4,1.4-3.2,2-5.5,2s-4.1-.7-5.5-2c-1.4-1.4-2-3.2-2-5.4s.7-3.9,2-5.3c1.4-1.4,3.2-2,5.5-2s4.1.7,5.5,2M845.6,192.7h-10.5v65.6h10.5v-65.6ZM814.8,192.7l-21.5,53.7-21.9-53.7h-11.5l27.8,66.6c-2.4,5.9-4.7,9.9-7,12.2-2.3,2.3-5.1,3.4-8.4,3.4s-4.8-.2-7.4-.6v8.8c2.6.7,5.2,1.1,7.8,1.1,4.1,0,7.6-.7,10.5-2.2,2.9-1.5,5.5-3.8,7.7-7.1,2.3-3.2,4.6-7.6,6.9-13.2l28.1-68.9h-11.1ZM755.6,258.3l-26.6-40.7,24.1-24.9h-13.5l-34.9,36.6v-61.4h-10.5v90.3h10.5v-17.1l16.6-17.2,21.9,34.3h12.4Z"/>
    <path class="st3" d="M694.2,235.7v22.6h10.5v-17.1l16.6-17.2,21.9,34.3h12.4l-26.6-40.7,24.1-24.9h-13.5l-8.7,9.2M704.7,183.3v-15.3h-10.5v22.6M713.4,220.1l-8.7,9.2v-15.3"/>
    <path class="st3" d="M819,209.9l7-17.2h-11.1l-5.4,13.4M780.8,242.6l7,16.6c-2.4,5.9-4.7,9.9-7,12.2-2.3,2.3-5.1,3.4-8.4,3.4s-4.8-.2-7.4-.6v8.8c2.6.7,5.2,1.1,7.8,1.1,4.1,0,7.6-.7,10.5-2.2,2.9-1.5,5.5-3.8,7.7-7.1,2.3-3.2,4.6-7.6,6.9-13.2l7-17.2M776.9,206.1l-5.5-13.4h-11.5l7,16.6M798.7,233l-5.4,13.4-5.5-13.4"/>
    <path class="st3" d="M835.1,241.9v16.4h10.5v-16.4M845.6,209.1v-16.4h-10.5v16.4"/>
    <path class="st3" d="M845.8,168.7c1.4,1.4,2,3.1,2,5.3s-.7,4-2,5.4c-1.4,1.4-3.2,2-5.5,2s-4.1-.7-5.5-2c-1.4-1.4-2-3.2-2-5.4s.7-3.9,2-5.3c1.4-1.4,3.2-2,5.5-2s4.1.7,5.5,2,2,3.1,2,5.3-.7,4-2,5.4c-1.4,1.4-3.2,2-5.5,2s-4.1-.7-5.5-2c-1.4-1.4-2-3.2-2-5.4s.7-3.9,2-5.3c1.4-1.4,3.2-2,5.5-2s4.1.7,5.5,2M845.8,168.7c1.4,1.4,2,3.1,2,5.3s-.7,4-2,5.4c-1.4,1.4-3.2,2-5.5,2s-4.1-.7-5.5-2c-1.4-1.4-2-3.2-2-5.4s.7-3.9,2-5.3c1.4-1.4,3.2-2,5.5-2s4.1.7,5.5,2"/>
    <path class="st3" d="M892.7,230.4l-5.4,12.6-5.4-12.6M912.9,209.1l7.2-16.4h-11.3l-5.4,12.6M875.8,241.9l7.1,16.4h8.4l7.2-16.4M871.1,205.2l-5.4-12.6h-11.4l7.1,16.4"/>
    <path class="st11" d="M429.7,325.8h-10.5v90.3h10.5v-90.3ZM381,406.2c-4,2-8.7,3-14,3s-8.8-1-11.3-3c-2.5-2-3.8-4.5-3.8-7.7,0-6.8,6-10.6,17.9-11.6l23.9-1.9c0,4.7-1.1,8.9-3.3,12.6-2.2,3.7-5.4,6.5-9.4,8.5M396.6,355.5c-4.7-4.1-12.1-6.2-22.2-6.2s-16.7,2-21.6,6.1c-4.9,4-7.7,9.7-8.2,17.1h10.6c.6-4.6,2.4-8.1,5.5-10.5,3.1-2.4,7.8-3.6,14.2-3.6s11.1,1.3,14,3.9c2.9,2.6,4.3,6.7,4.3,12.3v2.4l-24.5,1.7c-9.9.7-17,2.8-21.2,6.2-4.2,3.4-6.4,8-6.4,13.7s2.1,10.2,6.3,13.7c4.2,3.4,10.4,5.1,18.6,5.1s14-1.9,19-5.6c5-3.8,8.3-8.4,9.8-13.8l2.1,18.2h6.8v-42.2c0-8.2-2.4-14.3-7.1-18.4M329.3,326.6c1.4,1.4,2,3.1,2,5.3s-.7,4-2,5.4-3.2,2-5.5,2-4.1-.7-5.5-2c-1.4-1.4-2-3.2-2-5.4s.7-3.9,2-5.3,3.2-2,5.5-2,4.1.7,5.5,2M329.1,350.5h-10.5v65.6h10.5v-65.6ZM296.9,356.8c-4.5-5-10.8-7.5-18.9-7.5s-11.9,1.6-16.3,4.9-7.5,8.2-9.3,14.8l-2-18.4h-6.8v65.6h10.5v-29.9c0-9.4,1.8-16.4,5.5-20.9,3.7-4.5,8.8-6.7,15.5-6.7s10.9,1.7,13.7,5c2.8,3.3,4.2,9.1,4.2,17.3v35.3h10.5v-36.8c0-10-2.2-17.5-6.7-22.5M221.6,356.8c-4.5-5-10.8-7.5-18.9-7.5s-11.9,1.6-16.3,4.9-7.5,8.2-9.3,14.8l-2-18.4h-6.8v65.6h10.5v-29.9c0-9.4,1.8-16.4,5.5-20.9,3.7-4.5,8.8-6.7,15.5-6.7s10.9,1.7,13.7,5c2.8,3.3,4.2,9.1,4.2,17.3v35.3h10.5v-36.8c0-10-2.2-17.5-6.7-22.5M101.9,378c1.5-13.3,8.9-19.9,22.3-19.9s11.3,1.7,14.9,5c3.6,3.3,5.6,8.3,6.1,14.9h-43.3ZM155.4,386.4c.3-1.9.5-4,.5-6.4,0-6.1-1.3-11.5-3.9-16.1-2.6-4.6-6.3-8.2-11-10.8-4.7-2.6-10.3-3.8-16.8-3.8s-12.6,1.3-17.6,4c-5,2.7-8.8,6.5-11.5,11.4-2.7,4.9-4,10.8-4,17.4v2.2c0,6.7,1.3,12.5,4,17.4,2.7,4.9,6.5,8.8,11.4,11.4s10.7,4,17.3,4,16.2-2.1,21.2-6.2c5.1-4.2,8.3-9.5,9.6-16h-10.8c-1.4,4-3.6,7.2-6.6,9.5-3,2.3-7.4,3.5-13.2,3.5-13.8,0-21.2-7.2-22.3-21.7h53.6ZM79.4,326.6c1.4,1.4,2,3.1,2,5.3s-.7,4-2,5.4c-1.4,1.4-3.2,2-5.5,2s-4.1-.7-5.5-2c-1.4-1.4-2-3.2-2-5.4s.7-3.9,2-5.3c1.4-1.4,3.2-2,5.5-2s4.1.7,5.5,2M79.2,350.5h-10.5v65.6h10.5v-65.6ZM40.1,402c-3.8,4.1-9.3,6.1-16.5,6.1s-12.7-2.1-16.6-6.2c-3.9-4.2-5.8-10.3-5.8-18.3s1.9-14.5,5.8-18.7c3.9-4.2,9.4-6.3,16.6-6.3s12.8,2.1,16.6,6.2c3.8,4.2,5.7,10.4,5.7,18.7s-1.9,14.3-5.8,18.4M42.1,353.3c-4.5-2.7-9.5-4-15.2-4s-11.2,1.4-15.7,4.1c-4.5,2.8-7.9,6.7-10.1,11.7v-39.4h-10.5v90.3H-2.5l2-18.2c2,6.1,5.4,10.9,10.2,14.3,4.8,3.4,10.6,5.1,17.3,5.1s10.7-1.3,15.2-4,8-6.5,10.6-11.5c2.6-5,3.8-10.8,3.8-17.4v-2.2c0-6.6-1.3-12.4-3.8-17.4-2.6-5-6.1-8.8-10.6-11.5"/>
    <path class="st2" d="M-9.3,393.5v22.6H-2.5l2-18.2c2,6.1,5.4,10.9,10.2,14.3,4.8,3.4,10.6,5.1,17.3,5.1s10.7-1.3,15.2-4c4.5-2.7,8-6.5,10.6-11.5,2.6-5,3.8-10.8,3.8-17.4v-2.2c0-6.6-1.3-12.4-3.8-17.4-2.6-5-6.1-8.8-10.6-11.5-4.5-2.7-9.5-4-15.2-4s-11.2,1.4-15.7,4.1c-4.5,2.8-7.9,6.7-10.1,11.7v-39.4h-10.5v22.6"/>
    <path class="st2" d="M40.1,402c-3.8,4.1-9.3,6.1-16.5,6.1s-12.7-2.1-16.6-6.2c-3.9-4.2-5.8-10.2-5.8-18.3s1.9-14.5,5.8-18.7c3.9-4.2,9.4-6.3,16.6-6.3s12.8,2.1,16.6,6.2c3.8,4.2,5.7,10.4,5.7,18.7s-1.9,14.3-5.8,18.4-9.3,6.1-16.5,6.1-12.7-2.1-16.6-6.2c-3.9-4.2-5.8-10.2-5.8-18.3s1.9-14.5,5.8-18.7c3.9-4.2,9.4-6.3,16.6-6.3s12.8,2.1,16.6,6.2c3.8,4.2,5.7,10.4,5.7,18.7s-1.9,14.3-5.8,18.4M40.1,402c-3.8,4.1-9.3,6.1-16.5,6.1s-12.7-2.1-16.6-6.2c-3.9-4.2-5.8-10.2-5.8-18.3s1.9-14.5,5.8-18.7c3.9-4.2,9.4-6.3,16.6-6.3s12.8,2.1,16.6,6.2c3.8,4.2,5.7,10.4,5.7,18.7s-1.9,14.3-5.8,18.4"/>
    <path class="st2" d="M68.7,399.7v16.4h10.5v-16.4M79.2,366.9v-16.4h-10.5v16.4"/>
    <path class="st2" d="M79.4,326.6c1.4,1.4,2,3.1,2,5.3s-.7,4-2,5.4c-1.4,1.4-3.2,2-5.5,2s-4.1-.7-5.5-2c-1.4-1.4-2-3.2-2-5.4s.7-3.9,2-5.3c1.4-1.4,3.2-2,5.5-2s4.1.7,5.5,2,2,3.1,2,5.3-.7,4-2,5.4c-1.4,1.4-3.2,2-5.5,2s-4.1-.7-5.5-2c-1.4-1.4-2-3.2-2-5.4s.7-3.9,2-5.3c1.4-1.4,3.2-2,5.5-2s4.1.7,5.5,2M79.4,326.6c1.4,1.4,2,3.1,2,5.3s-.7,4-2,5.4c-1.4,1.4-3.2,2-5.5,2s-4.1-.7-5.5-2c-1.4-1.4-2-3.2-2-5.4s.7-3.9,2-5.3c1.4-1.4,3.2-2,5.5-2s4.1.7,5.5,2"/>
    <path class="st2" d="M142,386.4h13.4c.3-1.9.5-4,.5-6.4,0-6.1-1.3-11.5-3.9-16.1-2.6-4.6-6.3-8.2-11-10.8-4.7-2.6-10.3-3.8-16.8-3.8s-12.6,1.3-17.6,4c-5,2.7-8.8,6.5-11.5,11.4-2.7,5-4,10.8-4,17.4v2.2c0,6.7,1.3,12.5,4,17.4,2.7,5,6.5,8.8,11.4,11.4,4.9,2.7,10.7,4,17.3,4s16.1-2.1,21.2-6.2c5.1-4.2,8.3-9.5,9.6-16h-10.8c-1.4,4-3.6,7.2-6.6,9.5-3,2.3-7.4,3.5-13.2,3.5-13.8,0-21.2-7.2-22.3-21.7h13.4"/>
    <path class="st2" d="M101.9,378c1.5-13.3,8.9-19.9,22.3-19.9s11.3,1.7,14.9,5,5.6,8.3,6.1,14.9h-43.3c1.5-13.3,8.9-19.9,22.3-19.9s11.3,1.7,14.9,5,5.6,8.3,6.1,14.9h-43.3M101.9,378c1.5-13.3,8.9-19.9,22.3-19.9s11.3,1.7,14.9,5,5.6,8.3,6.1,14.9h-43.3"/>
    <path class="st2" d="M168.2,399.7v16.4h10.5v-29.9c0-9.4,1.8-16.4,5.5-20.9,3.7-4.5,8.8-6.7,15.5-6.7s10.9,1.7,13.7,5c2.8,3.3,4.2,9.1,4.2,17.3v35.3h10.5v-36.8c0-10-2.2-17.5-6.7-22.5-4.5-5-10.8-7.5-18.9-7.5s-11.9,1.6-16.3,4.9c-4.4,3.3-7.5,8.2-9.3,14.8l-2-18.4h-6.8v16.4"/>
    <path class="st2" d="M243.5,399.7v16.4h10.5v-29.9c0-9.4,1.8-16.4,5.5-20.9,3.7-4.5,8.8-6.7,15.5-6.7s10.9,1.7,13.7,5c2.8,3.3,4.2,9.1,4.2,17.3v35.3h10.5v-36.8c0-10-2.2-17.5-6.7-22.5-4.5-5-10.8-7.5-18.9-7.5s-11.9,1.6-16.3,4.9c-4.4,3.3-7.5,8.2-9.3,14.8l-2-18.4h-6.8v16.4"/>
    <path class="st2" d="M318.6,399.7v16.4h10.5v-16.4M329.1,366.9v-16.4h-10.5v16.4"/>
    <path class="st2" d="M329.3,326.6c1.4,1.4,2,3.1,2,5.3s-.7,4-2,5.4c-1.4,1.4-3.2,2-5.5,2s-4.1-.7-5.5-2-2-3.2-2-5.4.7-3.9,2-5.3c1.4-1.4,3.2-2,5.5-2s4.1.7,5.5,2,2,3.1,2,5.3-.7,4-2,5.4c-1.4,1.4-3.2,2-5.5,2s-4.1-.7-5.5-2-2-3.2-2-5.4.7-3.9,2-5.3c1.4-1.4,3.2-2,5.5-2s4.1.7,5.5,2M329.3,326.6c1.4,1.4,2,3.1,2,5.3s-.7,4-2,5.4c-1.4,1.4-3.2,2-5.5,2s-4.1-.7-5.5-2-2-3.2-2-5.4.7-3.9,2-5.3c1.4-1.4,3.2-2,5.5-2s4.1.7,5.5,2"/>
    <path class="st2" d="M396.6,355.5c-4.7-4.1-12.1-6.2-22.2-6.2s-16.7,2-21.6,6.1c-4.9,4-7.7,9.7-8.2,17.1h10.6c.6-4.6,2.4-8.1,5.5-10.5,3.1-2.4,7.8-3.6,14.2-3.6s11.1,1.3,14,3.9c2.9,2.6,4.3,6.7,4.3,12.3v2.4l-24.5,1.7c-9.9.7-17,2.8-21.2,6.2-4.2,3.4-6.4,8-6.4,13.7s2.1,10.3,6.3,13.7c4.2,3.4,10.4,5.1,18.6,5.1s14-1.9,19-5.6c5-3.8,8.3-8.4,9.8-13.8l2.1,18.2h6.8v-42.2c0-8.2-2.4-14.3-7.1-18.4s-12.1-6.2-22.2-6.2-16.7,2-21.6,6.1c-4.9,4-7.7,9.7-8.2,17.1h10.6c.6-4.6,2.4-8.1,5.5-10.5,3.1-2.4,7.8-3.6,14.2-3.6s11.1,1.3,14,3.9c2.9,2.6,4.3,6.7,4.3,12.3v2.4l-24.5,1.7c-9.9.7-17,2.8-21.2,6.2-4.2,3.4-6.4,8-6.4,13.7s2.1,10.3,6.3,13.7c4.2,3.4,10.4,5.1,18.6,5.1s14-1.9,19-5.6c5-3.8,8.3-8.4,9.8-13.8l2.1,18.2h6.8v-42.2c0-8.2-2.4-14.3-7.1-18.4M396.6,355.5c-4.7-4.1-12.1-6.2-22.2-6.2s-16.7,2-21.6,6.1c-4.9,4-7.7,9.7-8.2,17.1h10.6c.6-4.6,2.4-8.1,5.5-10.5,3.1-2.4,7.8-3.6,14.2-3.6s11.1,1.3,14,3.9c2.9,2.6,4.3,6.7,4.3,12.3v2.4l-24.5,1.7c-9.9.7-17,2.8-21.2,6.2-4.2,3.4-6.4,8-6.4,13.7s2.1,10.3,6.3,13.7c4.2,3.4,10.4,5.1,18.6,5.1s14-1.9,19-5.6c5-3.8,8.3-8.4,9.8-13.8l2.1,18.2h6.8v-42.2c0-8.2-2.4-14.3-7.1-18.4"/>
    <path class="st2" d="M381,406.2c-4,2-8.7,3-14,3s-8.8-1-11.3-3c-2.5-2-3.8-4.5-3.8-7.7,0-6.8,6-10.6,17.9-11.6l23.9-1.9c0,4.7-1.1,8.9-3.3,12.6-2.2,3.7-5.4,6.5-9.4,8.5-4,2-8.7,3-14,3s-8.8-1-11.3-3c-2.5-2-3.8-4.5-3.8-7.7,0-6.8,6-10.6,17.9-11.6l23.9-1.9c0,4.7-1.1,8.9-3.3,12.6-2.2,3.7-5.4,6.5-9.4,8.5M381,406.2c-4,2-8.7,3-14,3s-8.8-1-11.3-3c-2.5-2-3.8-4.5-3.8-7.7,0-6.8,6-10.6,17.9-11.6l23.9-1.9c0,4.7-1.1,8.9-3.3,12.6-2.2,3.7-5.4,6.5-9.4,8.5"/>
    <path class="st2" d="M429.7,348.4v-22.6h-10.5v22.6M419.1,393.5v22.6h10.5v-22.6"/>
    <path class="st11" d="M497.6,135.4h-10.5v90.3h10.5v-90.3ZM448.9,215.7c-4,2-8.7,3-14,3s-8.8-1-11.3-3c-2.5-2-3.8-4.5-3.8-7.7,0-6.8,6-10.6,17.9-11.6l23.9-1.9c0,4.7-1.1,8.9-3.3,12.6-2.2,3.7-5.4,6.5-9.4,8.5M464.5,165c-4.7-4.1-12.1-6.2-22.2-6.2s-16.7,2-21.6,6.1c-4.9,4-7.7,9.7-8.2,17.1h10.6c.6-4.6,2.4-8.1,5.5-10.5,3.1-2.4,7.8-3.6,14.2-3.6s11.1,1.3,14,3.9c2.9,2.6,4.3,6.7,4.3,12.3v2.4l-24.5,1.7c-9.9.7-17,2.8-21.2,6.2-4.2,3.4-6.4,8-6.4,13.7s2.1,10.2,6.3,13.7c4.2,3.4,10.4,5.1,18.6,5.1s14-1.9,19-5.6c5-3.8,8.3-8.4,9.8-13.8l2.1,18.2h6.8v-42.2c0-8.2-2.4-14.3-7.1-18.4M397.2,136.2c1.4,1.4,2,3.1,2,5.3s-.7,4-2,5.4c-1.4,1.4-3.2,2-5.5,2s-4.1-.7-5.5-2c-1.4-1.4-2-3.2-2-5.4s.7-3.9,2-5.3c1.4-1.4,3.2-2,5.5-2s4.1.7,5.5,2M397,160.1h-10.5v65.6h10.5v-65.6ZM364.8,166.4c-4.5-5-10.8-7.5-18.9-7.5s-11.9,1.6-16.3,4.9c-4.4,3.3-7.5,8.2-9.3,14.8l-2-18.4h-6.8v65.6h10.5v-29.9c0-9.4,1.8-16.4,5.5-20.9,3.7-4.5,8.8-6.7,15.5-6.7s10.9,1.7,13.7,5c2.8,3.3,4.2,9.1,4.2,17.3v35.3h10.5v-36.8c0-10-2.2-17.5-6.7-22.5M289.5,166.4c-4.5-5-10.8-7.5-18.9-7.5s-11.9,1.6-16.3,4.9c-4.4,3.3-7.5,8.2-9.3,14.8l-2-18.4h-6.8v65.6h10.5v-29.9c0-9.4,1.8-16.4,5.5-20.9,3.7-4.5,8.8-6.7,15.5-6.7s10.9,1.7,13.7,5c2.8,3.3,4.2,9.1,4.2,17.3v35.3h10.5v-36.8c0-10-2.2-17.5-6.7-22.5M169.8,187.6c1.5-13.3,8.9-19.9,22.3-19.9s11.3,1.7,14.9,5c3.6,3.3,5.6,8.3,6.1,14.9h-43.3ZM223.3,196c.3-1.9.5-4,.5-6.4,0-6.1-1.3-11.5-3.9-16.1-2.6-4.6-6.3-8.2-11-10.8-4.7-2.6-10.3-3.8-16.8-3.8s-12.6,1.3-17.6,4c-5,2.7-8.8,6.5-11.5,11.4-2.7,5-4,10.8-4,17.4v2.2c0,6.7,1.3,12.5,4,17.4,2.7,5,6.5,8.8,11.4,11.4,4.9,2.7,10.7,4,17.3,4s16.2-2.1,21.2-6.2c5.1-4.2,8.3-9.5,9.6-16h-10.8c-1.4,4-3.6,7.2-6.6,9.5-3,2.3-7.4,3.5-13.2,3.5-13.8,0-21.2-7.2-22.3-21.7h53.6ZM147.3,136.2c1.4,1.4,2,3.1,2,5.3s-.7,4-2,5.4c-1.4,1.4-3.2,2-5.5,2s-4.1-.7-5.5-2c-1.4-1.4-2-3.2-2-5.4s.7-3.9,2-5.3c1.4-1.4,3.2-2,5.5-2s4.1.7,5.5,2M147.1,160.1h-10.5v65.6h10.5v-65.6ZM108.1,211.5c-3.8,4.1-9.3,6.1-16.5,6.1s-12.7-2.1-16.6-6.2c-3.9-4.2-5.8-10.3-5.8-18.3s1.9-14.5,5.8-18.7c3.9-4.2,9.4-6.3,16.6-6.3s12.8,2.1,16.6,6.2c3.8,4.2,5.7,10.4,5.7,18.7s-1.9,14.3-5.8,18.4M110,162.9c-4.5-2.7-9.5-4-15.2-4s-11.2,1.4-15.7,4.1c-4.5,2.8-7.9,6.7-10.1,11.7v-39.4h-10.5v90.3h6.8l2-18.2c2,6.1,5.4,10.9,10.2,14.3,4.8,3.4,10.6,5.1,17.3,5.1s10.7-1.3,15.2-4,8-6.5,10.6-11.5c2.6-5,3.8-10.8,3.8-17.4v-2.2c0-6.6-1.3-12.4-3.8-17.4-2.6-5-6.1-8.8-10.6-11.5"/>
    <path class="st2" d="M58.6,203.1v22.6h6.8l2-18.2c2,6.1,5.4,10.9,10.2,14.3,4.8,3.4,10.6,5.1,17.3,5.1s10.7-1.3,15.2-4,8-6.5,10.6-11.5c2.6-5,3.8-10.8,3.8-17.4v-2.2c0-6.6-1.3-12.4-3.8-17.4-2.6-5-6.1-8.8-10.6-11.5-4.5-2.7-9.5-4-15.2-4s-11.2,1.4-15.7,4.1c-4.5,2.8-7.9,6.7-10.1,11.7v-39.4h-10.5v22.6"/>
    <path class="st2" d="M108.1,211.5c-3.8,4.1-9.3,6.1-16.5,6.1s-12.7-2.1-16.6-6.2c-3.9-4.2-5.8-10.2-5.8-18.3s1.9-14.5,5.8-18.7c3.9-4.2,9.4-6.3,16.6-6.3s12.8,2.1,16.6,6.2c3.8,4.2,5.7,10.4,5.7,18.7s-1.9,14.3-5.8,18.4-9.3,6.1-16.5,6.1-12.7-2.1-16.6-6.2c-3.9-4.2-5.8-10.2-5.8-18.3s1.9-14.5,5.8-18.7c3.9-4.2,9.4-6.3,16.6-6.3s12.8,2.1,16.6,6.2c3.8,4.2,5.7,10.4,5.7,18.7s-1.9,14.3-5.8,18.4M108.1,211.5c-3.8,4.1-9.3,6.1-16.5,6.1s-12.7-2.1-16.6-6.2c-3.9-4.2-5.8-10.2-5.8-18.3s1.9-14.5,5.8-18.7c3.9-4.2,9.4-6.3,16.6-6.3s12.8,2.1,16.6,6.2c3.8,4.2,5.7,10.4,5.7,18.7s-1.9,14.3-5.8,18.4"/>
    <path class="st2" d="M136.6,209.3v16.4h10.5v-16.4M147.1,176.5v-16.4h-10.5v16.4"/>
    <path class="st2" d="M147.3,136.2c1.4,1.4,2,3.1,2,5.3s-.7,4-2,5.4c-1.4,1.4-3.2,2-5.5,2s-4.1-.7-5.5-2-2-3.2-2-5.4.7-3.9,2-5.3c1.4-1.4,3.2-2,5.5-2s4.1.7,5.5,2,2,3.1,2,5.3-.7,4-2,5.4c-1.4,1.4-3.2,2-5.5,2s-4.1-.7-5.5-2-2-3.2-2-5.4.7-3.9,2-5.3c1.4-1.4,3.2-2,5.5-2s4.1.7,5.5,2M147.3,136.2c1.4,1.4,2,3.1,2,5.3s-.7,4-2,5.4c-1.4,1.4-3.2,2-5.5,2s-4.1-.7-5.5-2-2-3.2-2-5.4.7-3.9,2-5.3c1.4-1.4,3.2-2,5.5-2s4.1.7,5.5,2"/>
    <path class="st2" d="M209.9,196h13.4c.3-1.9.5-4,.5-6.4,0-6.1-1.3-11.5-3.9-16.1-2.6-4.6-6.3-8.2-11-10.8-4.7-2.6-10.3-3.8-16.8-3.8s-12.6,1.3-17.6,4c-5,2.7-8.8,6.5-11.5,11.4-2.7,5-4,10.8-4,17.4v2.2c0,6.7,1.3,12.5,4,17.4,2.7,5,6.5,8.8,11.4,11.4,4.9,2.7,10.7,4,17.3,4s16.1-2.1,21.2-6.2c5.1-4.2,8.3-9.5,9.6-16h-10.8c-1.4,4-3.6,7.2-6.6,9.5-3,2.3-7.4,3.5-13.2,3.5-13.8,0-21.2-7.2-22.3-21.7h13.4"/>
    <path class="st2" d="M169.8,187.6c1.5-13.3,8.9-19.9,22.3-19.9s11.3,1.7,14.9,5c3.6,3.3,5.6,8.3,6.1,14.9h-43.3c1.5-13.3,8.9-19.9,22.3-19.9s11.3,1.7,14.9,5c3.6,3.3,5.6,8.3,6.1,14.9h-43.3M169.8,187.6c1.5-13.3,8.9-19.9,22.3-19.9s11.3,1.7,14.9,5c3.6,3.3,5.6,8.3,6.1,14.9h-43.3"/>
    <path class="st2" d="M236.2,209.3v16.4h10.5v-29.9c0-9.4,1.8-16.4,5.5-20.9,3.7-4.5,8.8-6.7,15.5-6.7s10.9,1.7,13.7,5c2.8,3.3,4.2,9.1,4.2,17.3v35.3h10.5v-36.8c0-10-2.2-17.5-6.7-22.5-4.5-5-10.8-7.5-18.9-7.5s-11.9,1.6-16.3,4.9c-4.4,3.3-7.5,8.2-9.3,14.8l-2-18.4h-6.8v16.4"/>
    <path class="st2" d="M311.5,209.3v16.4h10.5v-29.9c0-9.4,1.8-16.4,5.5-20.9,3.7-4.5,8.8-6.7,15.5-6.7s10.9,1.7,13.7,5c2.8,3.3,4.2,9.1,4.2,17.3v35.3h10.5v-36.8c0-10-2.2-17.5-6.7-22.5-4.5-5-10.8-7.5-18.9-7.5s-11.9,1.6-16.3,4.9c-4.4,3.3-7.5,8.2-9.3,14.8l-2-18.4h-6.8v16.4"/>
    <path class="st2" d="M386.5,209.3v16.4h10.5v-16.4M397,176.5v-16.4h-10.5v16.4"/>
    <path class="st2" d="M397.2,136.2c1.4,1.4,2,3.1,2,5.3s-.7,4-2,5.4c-1.4,1.4-3.2,2-5.5,2s-4.1-.7-5.5-2-2-3.2-2-5.4.7-3.9,2-5.3c1.4-1.4,3.2-2,5.5-2s4.1.7,5.5,2,2,3.1,2,5.3-.7,4-2,5.4c-1.4,1.4-3.2,2-5.5,2s-4.1-.7-5.5-2-2-3.2-2-5.4.7-3.9,2-5.3c1.4-1.4,3.2-2,5.5-2s4.1.7,5.5,2M397.2,136.2c1.4,1.4,2,3.1,2,5.3s-.7,4-2,5.4c-1.4,1.4-3.2,2-5.5,2s-4.1-.7-5.5-2-2-3.2-2-5.4.7-3.9,2-5.3c1.4-1.4,3.2-2,5.5-2s4.1.7,5.5,2"/>
    <path class="st2" d="M464.5,165c-4.7-4.1-12.1-6.2-22.2-6.2s-16.7,2-21.6,6.1c-4.9,4-7.7,9.7-8.2,17.1h10.6c.6-4.6,2.4-8.1,5.5-10.5,3.1-2.4,7.8-3.6,14.2-3.6s11.1,1.3,14,3.9c2.9,2.6,4.3,6.7,4.3,12.3v2.4l-24.5,1.7c-9.9.7-17,2.8-21.2,6.2-4.2,3.4-6.4,8-6.4,13.7s2.1,10.3,6.3,13.7c4.2,3.4,10.4,5.1,18.6,5.1s14-1.9,19-5.6c5-3.8,8.3-8.4,9.8-13.8l2.1,18.2h6.8v-42.2c0-8.2-2.4-14.3-7.1-18.4s-12.1-6.2-22.2-6.2-16.7,2-21.6,6.1c-4.9,4-7.7,9.7-8.2,17.1h10.6c.6-4.6,2.4-8.1,5.5-10.5,3.1-2.4,7.8-3.6,14.2-3.6s11.1,1.3,14,3.9c2.9,2.6,4.3,6.7,4.3,12.3v2.4l-24.5,1.7c-9.9.7-17,2.8-21.2,6.2-4.2,3.4-6.4,8-6.4,13.7s2.1,10.3,6.3,13.7c4.2,3.4,10.4,5.1,18.6,5.1s14-1.9,19-5.6c5-3.8,8.3-8.4,9.8-13.8l2.1,18.2h6.8v-42.2c0-8.2-2.4-14.3-7.1-18.4M464.5,165c-4.7-4.1-12.1-6.2-22.2-6.2s-16.7,2-21.6,6.1c-4.9,4-7.7,9.7-8.2,17.1h10.6c.6-4.6,2.4-8.1,5.5-10.5,3.1-2.4,7.8-3.6,14.2-3.6s11.1,1.3,14,3.9c2.9,2.6,4.3,6.7,4.3,12.3v2.4l-24.5,1.7c-9.9.7-17,2.8-21.2,6.2-4.2,3.4-6.4,8-6.4,13.7s2.1,10.3,6.3,13.7c4.2,3.4,10.4,5.1,18.6,5.1s14-1.9,19-5.6c5-3.8,8.3-8.4,9.8-13.8l2.1,18.2h6.8v-42.2c0-8.2-2.4-14.3-7.1-18.4"/>
    <path class="st2" d="M448.9,215.7c-4,2-8.7,3-14,3s-8.8-1-11.3-3c-2.5-2-3.8-4.5-3.8-7.7,0-6.8,6-10.6,17.9-11.6l23.9-1.9c0,4.7-1.1,8.9-3.3,12.6-2.2,3.7-5.4,6.5-9.4,8.5-4,2-8.7,3-14,3s-8.8-1-11.3-3c-2.5-2-3.8-4.5-3.8-7.7,0-6.8,6-10.6,17.9-11.6l23.9-1.9c0,4.7-1.1,8.9-3.3,12.6-2.2,3.7-5.4,6.5-9.4,8.5M448.9,215.7c-4,2-8.7,3-14,3s-8.8-1-11.3-3c-2.5-2-3.8-4.5-3.8-7.7,0-6.8,6-10.6,17.9-11.6l23.9-1.9c0,4.7-1.1,8.9-3.3,12.6-2.2,3.7-5.4,6.5-9.4,8.5"/>
    <path class="st2" d="M497.6,157.9v-22.6h-10.5v22.6M487.1,203.1v22.6h10.5v-22.6"/>
    <path class="st11" d="M519.5,74.6c1.1-12,8.5-18.2,20.5-18.2s18.8,6.2,20,18.2h-40.5ZM569.3,90.6h-10.1c-2.2,6.3-7.2,12.1-19.1,12.1s-20.3-6.9-20.9-20.1h50.8v-3.9c0-19.4-11.1-30.5-30-30.5s-30.8,11.1-30.8,30.5v2.1c0,19.4,11.1,30.5,30.8,30.5s27.3-9.6,29.1-20.7M449.1,49.3l-.9,26.1c-.7,21.3-5.4,25.9-12.3,25.9h-1.7v8.8h2.3c13.3,0,20.2-6.2,21-33.7l.6-18.5h30.1v52.2h9.8v-60.8h-48.8ZM390.2,103.1c-8.7,0-12.3-3.3-12.3-8.5s2.8-7.3,11-9.1l10.6-2.2c9.5-2,14.9-6.3,16.8-10.1v7c0,12.2-11.4,22.8-26.1,22.8M399.9,48.1c-18.8,0-27.5,8.3-29.7,22.1h10.1c2.2-8.7,8.3-13.5,19.1-13.5s15.3,4.5,15.3,10.4-3.3,8.3-17.3,9.8l-10.4,1.1c-13.4,1.5-18.9,7.3-18.9,16.6s6.5,16.5,18.9,16.5,24.8-7.7,29.6-18.9v17.8h9.5v-39.1c0-15.4-8.8-22.8-26.1-22.8M346.3,49.3v24.9h-36.4v-24.9h-9.8v60.8h9.8v-27.3h36.4v27.3h9.8v-60.8h-9.8ZM259.7,111.2c18.8,0,28.1-9.8,29.8-23.3h-10.1c-2.3,9-8.1,14.7-19.9,14.7s-20.4-6.9-21.2-19.7h27v-8.5h-26.7c1.4-11.6,8.7-17.7,20.7-17.7s17.1,5.9,19,13.1h10c-1.4-12.2-10.4-21.7-28.8-21.7s-31,11.1-31,30.5v2.1c0,19.4,11.1,30.5,31.2,30.5M212.6,38.8c4.9,0,7-2.1,7-6.9s-2.1-6.8-7-6.8-7,2.1-7,6.8,2.1,6.9,7,6.9M207.7,110.1h9.8v-60.8h-9.8v60.8ZM166.6,102.6c-13.3,0-20.9-7.6-20.9-21.6v-2.1c0-14,7.6-21.6,20.9-21.6s20.9,7.6,20.9,21.6v2.1c0,14-7.6,21.6-20.9,21.6M166.7,111.2c19.5,0,30.6-11.1,30.6-30.5v-2.1c0-18.8-10.4-29.3-28.2-29.3s-21.6,5.5-24.9,16.1c.5-20.7,6.7-26.7,21.7-27.8l17.3-1.1c4.8-.3,8.4-1.1,10-2.2v-9.4h-.3c-1.7,1.5-5.1,2.3-10.3,2.6l-17.7,1.1c-20.2,1.3-30,11.2-30,41.8v3.1c0,26.6,11.1,37.6,31.8,37.6"/>
    <path class="st1" d="M152.8,109c4,1.5,8.6,2.2,13.9,2.2,19.5,0,30.6-11.1,30.6-30.5v-2.1c0-18.8-10.4-29.3-28.2-29.3s-21.6,5.5-24.9,16.1c.5-20.7,6.7-26.7,21.7-27.8l17.3-1.1c4.8-.3,8.4-1.1,10-2.2v-9.4h-.3c-1.7,1.5-5,2.3-10.3,2.6l-17.7,1.1c-5.5.3-10.3,1.3-14.2,3.2M135.9,55.9c-.6,4.3-1,9.1-1,14.6v3.1c0,5.3.4,10,1.3,14.1"/>
    <path class="st1" d="M166.6,102.6c-13.3,0-20.9-7.6-20.9-21.6v-2.1c0-14,7.6-21.6,20.9-21.6s20.9,7.6,20.9,21.6v2.1c0,14-7.6,21.6-20.9,21.6s-20.9-7.6-20.9-21.6v-2.1c0-14,7.6-21.6,20.9-21.6s20.9,7.6,20.9,21.6v2.1c0,14-7.6,21.6-20.9,21.6M166.6,102.6c-13.3,0-20.9-7.6-20.9-21.6v-2.1c0-14,7.6-21.6,20.9-21.6s20.9,7.6,20.9,21.6v2.1c0,14-7.6,21.6-20.9,21.6"/>
    <path class="st1" d="M207.7,94.9v15.2h9.8v-15.2M217.5,64.5v-15.2h-9.8v15.2"/>
    <path class="st1" d="M212.6,38.8c4.9,0,7-2.1,7-6.9s-2.1-6.8-7-6.8-7,2.1-7,6.8,2.1,6.9,7,6.9,7-2.1,7-6.9-2.1-6.8-7-6.8-7,2.1-7,6.8,2.1,6.9,7,6.9M212.6,38.8c4.9,0,7-2.1,7-6.9s-2.1-6.8-7-6.8-7,2.1-7,6.8,2.1,6.9,7,6.9"/>
    <path class="st1" d="M259.7,111.2c18.8,0,28.1-9.8,29.8-23.3h-10.1c-2.3,9-8.1,14.7-19.9,14.7s-20.4-6.9-21.2-19.7h27v-8.5h-26.7c1.4-11.6,8.7-17.7,20.7-17.7s17.1,5.9,19.1,13.1h10c-1.4-12.2-10.4-21.7-28.8-21.7s-31,11.1-31,30.5v2.1c0,19.4,11.1,30.5,31.2,30.5s28.1-9.8,29.8-23.3h-10.1c-2.3,9-8.1,14.7-19.9,14.7s-20.4-6.9-21.2-19.7h27v-8.5h-26.7c1.4-11.6,8.7-17.7,20.7-17.7s17.1,5.9,19.1,13.1h10c-1.4-12.2-10.4-21.7-28.8-21.7s-31,11.1-31,30.5v2.1c0,19.4,11.1,30.5,31.2,30.5M259.7,111.2c18.8,0,28.1-9.8,29.8-23.3h-10.1c-2.3,9-8.1,14.7-19.9,14.7s-20.4-6.9-21.2-19.7h27v-8.5h-26.7c1.4-11.6,8.7-17.7,20.7-17.7s17.1,5.9,19.1,13.1h10c-1.4-12.2-10.4-21.7-28.8-21.7s-31,11.1-31,30.5v2.1c0,19.4,11.1,30.5,31.2,30.5"/>
    <path class="st1" d="M356.1,64.5v-15.2h-9.8v24.9h-36.4v-24.9h-9.8v15.2M300.2,94.9v15.2h9.8v-27.3h36.4v27.3h9.8v-15.2"/>
    <path class="st1" d="M399.9,48.1c-18.8,0-27.5,8.3-29.7,22.1h10.1c2.2-8.7,8.3-13.5,19-13.5s15.3,4.5,15.3,10.4-3.3,8.3-17.3,9.8l-10.4,1.1c-13.4,1.5-18.9,7.3-18.9,16.6s6.5,16.5,18.9,16.5,24.8-7.7,29.6-18.9v17.8h9.5v-39.1c0-15.4-8.8-22.8-26.1-22.8s-27.5,8.3-29.7,22.1h10.1c2.2-8.7,8.3-13.5,19-13.5s15.3,4.5,15.3,10.4-3.3,8.3-17.3,9.8l-10.4,1.1c-13.4,1.5-18.9,7.3-18.9,16.6s6.5,16.5,18.9,16.5,24.8-7.7,29.6-18.9v17.8h9.5v-39.1c0-15.4-8.8-22.8-26.1-22.8M399.9,48.1c-18.8,0-27.5,8.3-29.7,22.1h10.1c2.2-8.7,8.3-13.5,19-13.5s15.3,4.5,15.3,10.4-3.3,8.3-17.3,9.8l-10.4,1.1c-13.4,1.5-18.9,7.3-18.9,16.6s6.5,16.5,18.9,16.5,24.8-7.7,29.6-18.9v17.8h9.5v-39.1c0-15.4-8.8-22.8-26.1-22.8"/>
    <path class="st1" d="M390.2,103.1c-8.7,0-12.3-3.3-12.3-8.5s2.8-7.3,11-9.1l10.6-2.2c9.5-2,14.9-6.3,16.8-10.1v7c0,12.2-11.4,22.8-26.1,22.8s-12.3-3.3-12.3-8.5,2.8-7.3,11-9.1l10.6-2.2c9.5-2,14.9-6.3,16.8-10.1v7c0,12.2-11.4,22.8-26.1,22.8M390.2,103.1c-8.7,0-12.3-3.3-12.3-8.5s2.8-7.3,11-9.1l10.6-2.2c9.5-2,14.9-6.3,16.8-10.1v7c0,12.2-11.4,22.8-26.1,22.8"/>
    <path class="st1" d="M497.9,64.5v-15.2h-48.8l-.9,26.1c-.7,21.3-5.4,25.9-12.3,25.9h-1.7v8.8h2.3c13.3,0,20.2-6.2,21-33.7l.6-18.5h30.1v52.2h9.8v-15.2"/>
    <path class="st1" d="M569.3,90.6h-10.1c-2.2,6.3-7.2,12-19,12s-20.3-6.9-20.9-20.1h50.8v-3.9c0-19.4-11.1-30.5-30-30.5s-30.8,11.1-30.8,30.5v2.1c0,19.4,11.1,30.5,30.8,30.5s27.3-9.6,29.1-20.7h-10.1c-2.2,6.3-7.2,12-19,12s-20.3-6.9-20.9-20.1h50.8v-3.9c0-19.4-11.1-30.5-30-30.5s-30.8,11.1-30.8,30.5v2.1c0,19.4,11.1,30.5,30.8,30.5s27.3-9.6,29.1-20.7M569.3,90.6h-10.1c-2.2,6.3-7.2,12-19,12s-20.3-6.9-20.9-20.1h50.8v-3.9c0-19.4-11.1-30.5-30-30.5s-30.8,11.1-30.8,30.5v2.1c0,19.4,11.1,30.5,30.8,30.5s27.3-9.6,29.1-20.7"/>
    <path class="st1" d="M519.5,74.6c1.1-12,8.5-18.2,20.5-18.2s18.8,6.2,20,18.2h-40.5c1.1-12,8.5-18.2,20.5-18.2s18.8,6.2,20,18.2h-40.5M519.5,74.6c1.1-12,8.5-18.2,20.5-18.2s18.8,6.2,20,18.2h-40.5"/>
    <path class="st11" d="M391.8,156.3c1.1-12,8.5-18.2,20.5-18.2s18.8,6.2,20,18.2h-40.5ZM441.6,172.3h-10.1c-2.2,6.3-7.2,12.1-19.1,12.1s-20.3-6.9-20.9-20.1h50.8v-3.9c0-19.4-11.1-30.5-30-30.5s-30.8,11.1-30.8,30.5v2.1c0,19.4,11.1,30.5,30.8,30.5s27.3-9.6,29.1-20.7M321.4,131l-.9,26.1c-.7,21.3-5.4,25.9-12.3,25.9h-1.7v8.8h2.3c13.3,0,20.2-6.2,21-33.7l.6-18.5h30.1v52.2h9.8v-60.8h-48.8ZM262.5,184.8c-8.7,0-12.3-3.3-12.3-8.5s2.8-7.3,11-9.1l10.6-2.2c9.5-2,14.9-6.3,16.8-10.1v7c0,12.2-11.4,22.8-26.1,22.8M272.3,129.8c-18.8,0-27.5,8.3-29.7,22.1h10.1c2.2-8.7,8.3-13.5,19.1-13.5s15.3,4.5,15.3,10.4-3.3,8.3-17.3,9.8l-10.4,1.1c-13.4,1.5-18.9,7.3-18.9,16.6s6.5,16.5,18.9,16.5,24.8-7.7,29.6-18.9v17.8h9.5v-39.1c0-15.4-8.8-22.8-26.1-22.8M218.6,131v24.9h-36.4v-24.9h-9.8v60.8h9.8v-27.3h36.4v27.3h9.8v-60.8h-9.8ZM132.1,192.9c18.8,0,28.1-9.8,29.8-23.3h-10.1c-2.3,9-8.1,14.7-19.9,14.7s-20.4-6.9-21.2-19.7h27v-8.5h-26.7c1.4-11.6,8.7-17.7,20.7-17.7s17.1,5.9,19,13.1h10c-1.4-12.2-10.4-21.7-28.8-21.7s-31,11.1-31,30.5v2.1c0,19.4,11.1,30.5,31.2,30.5M84.9,120.5c4.9,0,7-2.1,7-6.9s-2.1-6.8-7-6.8-7,2.1-7,6.8,2.1,6.9,7,6.9M80.1,191.8h9.8v-60.8h-9.8v60.8ZM38.9,184.3c-13.3,0-20.9-7.6-20.9-21.6v-2.1c0-14,7.6-21.6,20.9-21.6s20.9,7.6,20.9,21.6v2.1c0,14-7.6,21.6-20.9,21.6M39,192.9c19.5,0,30.6-11.1,30.6-30.5v-2.1c0-18.8-10.4-29.3-28.2-29.3s-21.6,5.5-24.9,16.1c.5-20.7,6.7-26.7,21.7-27.8l17.3-1.1c4.8-.3,8.4-1.1,10-2.2v-9.4h-.3c-1.7,1.5-5,2.3-10.3,2.6l-17.7,1.1c-20.2,1.3-30,11.2-30,41.8v3.1c0,26.6,11.1,37.6,31.8,37.6"/>
    <path class="st1" d="M25.1,190.7c4,1.5,8.6,2.2,13.9,2.2,19.5,0,30.6-11.1,30.6-30.5v-2.1c0-18.8-10.4-29.3-28.2-29.3s-21.6,5.5-24.9,16.1c.5-20.7,6.7-26.7,21.7-27.8l17.3-1.1c4.8-.3,8.4-1.1,10-2.2v-9.4h-.3c-1.7,1.5-5,2.3-10.3,2.6l-17.7,1.1c-5.5.3-10.3,1.3-14.2,3.2M8.2,137.5c-.6,4.3-1,9.1-1,14.6v3.1c0,5.3.4,10,1.3,14.1"/>
    <path class="st1" d="M38.9,184.3c-13.3,0-20.9-7.6-20.9-21.6v-2.1c0-14,7.6-21.6,20.9-21.6s20.9,7.6,20.9,21.6v2.1c0,14-7.6,21.6-20.9,21.6s-20.9-7.6-20.9-21.6v-2.1c0-14,7.6-21.6,20.9-21.6s20.9,7.6,20.9,21.6v2.1c0,14-7.6,21.6-20.9,21.6M38.9,184.3c-13.3,0-20.9-7.6-20.9-21.6v-2.1c0-14,7.6-21.6,20.9-21.6s20.9,7.6,20.9,21.6v2.1c0,14-7.6,21.6-20.9,21.6"/>
    <path class="st1" d="M80.1,176.6v15.2h9.8v-15.2M89.8,146.2v-15.2h-9.8v15.2"/>
    <path class="st1" d="M84.9,120.5c4.9,0,7-2.1,7-6.9s-2.1-6.8-7-6.8-7,2.1-7,6.8,2.1,6.9,7,6.9,7-2.1,7-6.9-2.1-6.8-7-6.8-7,2.1-7,6.8,2.1,6.9,7,6.9M84.9,120.5c4.9,0,7-2.1,7-6.9s-2.1-6.8-7-6.8-7,2.1-7,6.8,2.1,6.9,7,6.9"/>
    <path class="st1" d="M132.1,192.9c18.8,0,28.1-9.8,29.8-23.3h-10.1c-2.3,9-8.1,14.7-19.9,14.7s-20.4-6.9-21.2-19.7h27v-8.5h-26.7c1.4-11.6,8.7-17.7,20.7-17.7s17.1,5.9,19.1,13.1h10c-1.4-12.2-10.4-21.7-28.8-21.7s-31,11.1-31,30.5v2.1c0,19.4,11.1,30.5,31.2,30.5s28.1-9.8,29.8-23.3h-10.1c-2.3,9-8.1,14.7-19.9,14.7s-20.4-6.9-21.2-19.7h27v-8.5h-26.7c1.4-11.6,8.7-17.7,20.7-17.7s17.1,5.9,19.1,13.1h10c-1.4-12.2-10.4-21.7-28.8-21.7s-31,11.1-31,30.5v2.1c0,19.4,11.1,30.5,31.2,30.5M132.1,192.9c18.8,0,28.1-9.8,29.8-23.3h-10.1c-2.3,9-8.1,14.7-19.9,14.7s-20.4-6.9-21.2-19.7h27v-8.5h-26.7c1.4-11.6,8.7-17.7,20.7-17.7s17.1,5.9,19.1,13.1h10c-1.4-12.2-10.4-21.7-28.8-21.7s-31,11.1-31,30.5v2.1c0,19.4,11.1,30.5,31.2,30.5"/>
    <path class="st1" d="M228.4,146.2v-15.2h-9.8v24.9h-36.4v-24.9h-9.8v15.2M172.5,176.6v15.2h9.8v-27.3h36.4v27.3h9.8v-15.2"/>
    <path class="st1" d="M272.3,129.8c-18.8,0-27.5,8.3-29.7,22.1h10.1c2.2-8.7,8.3-13.5,19-13.5s15.3,4.5,15.3,10.4-3.3,8.3-17.3,9.8l-10.4,1.1c-13.4,1.5-18.9,7.3-18.9,16.6s6.5,16.5,18.9,16.5,24.8-7.7,29.6-18.9v17.8h9.5v-39.1c0-15.4-8.8-22.8-26.1-22.8s-27.5,8.3-29.7,22.1h10.1c2.2-8.7,8.3-13.5,19-13.5s15.3,4.5,15.3,10.4-3.3,8.3-17.3,9.8l-10.4,1.1c-13.4,1.5-18.9,7.3-18.9,16.6s6.5,16.5,18.9,16.5,24.8-7.7,29.6-18.9v17.8h9.5v-39.1c0-15.4-8.8-22.8-26.1-22.8M272.3,129.8c-18.8,0-27.5,8.3-29.7,22.1h10.1c2.2-8.7,8.3-13.5,19-13.5s15.3,4.5,15.3,10.4-3.3,8.3-17.3,9.8l-10.4,1.1c-13.4,1.5-18.9,7.3-18.9,16.6s6.5,16.5,18.9,16.5,24.8-7.7,29.6-18.9v17.8h9.5v-39.1c0-15.4-8.8-22.8-26.1-22.8"/>
    <path class="st1" d="M262.5,184.8c-8.7,0-12.3-3.3-12.3-8.5s2.8-7.3,11-9.1l10.6-2.2c9.5-2,14.9-6.3,16.8-10.1v7c0,12.2-11.4,22.8-26.1,22.8s-12.3-3.3-12.3-8.5,2.8-7.3,11-9.1l10.6-2.2c9.5-2,14.9-6.3,16.8-10.1v7c0,12.2-11.4,22.8-26.1,22.8M262.5,184.8c-8.7,0-12.3-3.3-12.3-8.5s2.8-7.3,11-9.1l10.6-2.2c9.5-2,14.9-6.3,16.8-10.1v7c0,12.2-11.4,22.8-26.1,22.8"/>
    <path class="st1" d="M370.2,146.2v-15.2h-48.8l-.9,26.1c-.7,21.3-5.4,25.9-12.3,25.9h-1.7v8.8h2.3c13.3,0,20.2-6.2,21-33.7l.6-18.5h30.1v52.2h9.8v-15.2"/>
    <path class="st1" d="M441.6,172.3h-10.1c-2.2,6.3-7.2,12-19,12s-20.3-6.9-20.9-20.1h50.8v-3.9c0-19.4-11.1-30.5-30-30.5s-30.8,11.1-30.8,30.5v2.1c0,19.4,11.1,30.5,30.8,30.5s27.3-9.6,29.1-20.7h-10.1c-2.2,6.3-7.2,12-19,12s-20.3-6.9-20.9-20.1h50.8v-3.9c0-19.4-11.1-30.5-30-30.5s-30.8,11.1-30.8,30.5v2.1c0,19.4,11.1,30.5,30.8,30.5s27.3-9.6,29.1-20.7M441.6,172.3h-10.1c-2.2,6.3-7.2,12-19,12s-20.3-6.9-20.9-20.1h50.8v-3.9c0-19.4-11.1-30.5-30-30.5s-30.8,11.1-30.8,30.5v2.1c0,19.4,11.1,30.5,30.8,30.5s27.3-9.6,29.1-20.7"/>
    <path class="st1" d="M391.8,156.3c1.1-12,8.5-18.2,20.5-18.2s18.8,6.2,20,18.2h-40.5c1.1-12,8.5-18.2,20.5-18.2s18.8,6.2,20,18.2h-40.5M391.8,156.3c1.1-12,8.5-18.2,20.5-18.2s18.8,6.2,20,18.2h-40.5"/>
    <path class="st11" d="M764,229.5c1.1-12,8.5-18.2,20.5-18.2s18.8,6.2,20,18.2h-40.5ZM813.8,245.5h-10.1c-2.2,6.3-7.2,12.1-19,12.1s-20.3-6.9-20.9-20.1h50.8v-3.9c0-19.4-11.1-30.5-30-30.5s-30.8,11.1-30.8,30.5v2.1c0,19.4,11.1,30.5,30.8,30.5s27.3-9.6,29.1-20.7M693.6,204.2l-.9,26.1c-.7,21.3-5.4,25.9-12.3,25.9h-1.7v8.8h2.3c13.3,0,20.2-6.2,21-33.7l.6-18.5h30.1v52.2h9.8v-60.8h-48.8ZM634.7,258c-8.7,0-12.3-3.3-12.3-8.5s2.8-7.3,11-9.1l10.6-2.2c9.5-2,14.9-6.3,16.8-10.1v7c0,12.2-11.4,22.8-26.1,22.8M644.4,203c-18.8,0-27.5,8.3-29.7,22.1h10.1c2.2-8.7,8.3-13.5,19.1-13.5s15.3,4.5,15.3,10.4-3.3,8.3-17.3,9.8l-10.4,1.1c-13.4,1.5-18.9,7.3-18.9,16.6s6.5,16.5,18.9,16.5,24.8-7.7,29.6-18.9v17.8h9.5v-39.1c0-15.4-8.8-22.8-26-22.8M590.8,204.2v24.9h-36.4v-24.9h-9.8v60.8h9.8v-27.3h36.4v27.3h9.8v-60.8h-9.8ZM504.3,266.1c18.8,0,28.1-9.8,29.8-23.3h-10.1c-2.3,9-8.1,14.7-19.9,14.7s-20.4-6.9-21.2-19.7h27v-8.5h-26.7c1.4-11.6,8.7-17.7,20.7-17.7s17.1,5.9,19.1,13.1h10c-1.4-12.2-10.4-21.7-28.8-21.7s-31,11.1-31,30.5v2.1c0,19.4,11.1,30.5,31.2,30.5M457.1,193.7c4.9,0,7-2.1,7-6.9s-2.1-6.8-7-6.8-7,2.1-7,6.8,2.1,6.9,7,6.9M452.3,265h9.8v-60.8h-9.8v60.8ZM411.1,257.5c-13.3,0-20.9-7.6-20.9-21.6v-2.1c0-14,7.6-21.6,20.9-21.6s20.9,7.6,20.9,21.6v2.1c0,14-7.6,21.6-20.9,21.6M411.2,266.1c19.5,0,30.6-11.1,30.6-30.5v-2.1c0-18.8-10.4-29.3-28.2-29.3s-21.6,5.5-24.9,16.1c.5-20.7,6.7-26.7,21.7-27.8l17.3-1.1c4.8-.3,8.4-1.1,10-2.2v-9.4h-.3c-1.7,1.5-5,2.3-10.3,2.6l-17.7,1.1c-20.2,1.3-30,11.2-30,41.8v3.1c0,26.6,11.1,37.6,31.8,37.6"/>
    <path class="st1" d="M397.3,263.9c4,1.5,8.6,2.2,13.9,2.2,19.5,0,30.6-11.1,30.6-30.5v-2.1c0-18.8-10.4-29.3-28.2-29.3s-21.6,5.5-24.9,16.1c.5-20.7,6.7-26.7,21.7-27.8l17.3-1.1c4.8-.3,8.4-1.1,10-2.2v-9.4h-.3c-1.7,1.5-5,2.3-10.3,2.6l-17.7,1.1c-5.5.3-10.3,1.3-14.2,3.2M380.4,210.7c-.6,4.3-1,9.1-1,14.6v3.1c0,5.3.4,10,1.3,14.1"/>
    <path class="st1" d="M411.1,257.5c-13.3,0-20.9-7.6-20.9-21.6v-2.1c0-14,7.6-21.6,20.9-21.6s20.9,7.6,20.9,21.6v2.1c0,14-7.6,21.6-20.9,21.6s-20.9-7.6-20.9-21.6v-2.1c0-14,7.6-21.6,20.9-21.6s20.9,7.6,20.9,21.6v2.1c0,14-7.6,21.6-20.9,21.6M411.1,257.5c-13.3,0-20.9-7.6-20.9-21.6v-2.1c0-14,7.6-21.6,20.9-21.6s20.9,7.6,20.9,21.6v2.1c0,14-7.6,21.6-20.9,21.6"/>
    <path class="st1" d="M452.3,249.8v15.2h9.8v-15.2M462,219.4v-15.2h-9.8v15.2"/>
    <path class="st1" d="M457.1,193.7c4.9,0,7-2.1,7-6.9s-2.1-6.8-7-6.8-7,2.1-7,6.8,2.1,6.9,7,6.9,7-2.1,7-6.9-2.1-6.8-7-6.8-7,2.1-7,6.8,2.1,6.9,7,6.9M457.1,193.7c4.9,0,7-2.1,7-6.9s-2.1-6.8-7-6.8-7,2.1-7,6.8,2.1,6.9,7,6.9"/>
    <path class="st1" d="M504.3,266.1c18.8,0,28.1-9.8,29.8-23.3h-10.1c-2.3,9-8.1,14.7-19.9,14.7s-20.4-6.9-21.2-19.7h27v-8.5h-26.7c1.4-11.6,8.7-17.7,20.7-17.7s17.1,5.9,19,13.1h10c-1.4-12.2-10.4-21.7-28.8-21.7s-31,11.1-31,30.5v2.1c0,19.4,11.1,30.5,31.2,30.5s28.1-9.8,29.8-23.3h-10.1c-2.3,9-8.1,14.7-19.9,14.7s-20.4-6.9-21.2-19.7h27v-8.5h-26.7c1.4-11.6,8.7-17.7,20.7-17.7s17.1,5.9,19,13.1h10c-1.4-12.2-10.4-21.7-28.8-21.7s-31,11.1-31,30.5v2.1c0,19.4,11.1,30.5,31.2,30.5M504.3,266.1c18.8,0,28.1-9.8,29.8-23.3h-10.1c-2.3,9-8.1,14.7-19.9,14.7s-20.4-6.9-21.2-19.7h27v-8.5h-26.7c1.4-11.6,8.7-17.7,20.7-17.7s17.1,5.9,19,13.1h10c-1.4-12.2-10.4-21.7-28.8-21.7s-31,11.1-31,30.5v2.1c0,19.4,11.1,30.5,31.2,30.5"/>
    <path class="st1" d="M600.6,219.4v-15.2h-9.8v24.9h-36.4v-24.9h-9.8v15.2M544.7,249.8v15.2h9.8v-27.3h36.4v27.3h9.8v-15.2"/>
    <path class="st1" d="M644.4,203c-18.8,0-27.5,8.3-29.7,22.1h10.1c2.2-8.7,8.3-13.5,19.1-13.5s15.3,4.5,15.3,10.4-3.3,8.3-17.3,9.8l-10.4,1.1c-13.4,1.5-18.9,7.3-18.9,16.6s6.5,16.5,18.9,16.5,24.8-7.7,29.6-18.9v17.8h9.5v-39.1c0-15.4-8.8-22.8-26.1-22.8s-27.5,8.3-29.7,22.1h10.1c2.2-8.7,8.3-13.5,19.1-13.5s15.3,4.5,15.3,10.4-3.3,8.3-17.3,9.8l-10.4,1.1c-13.4,1.5-18.9,7.3-18.9,16.6s6.5,16.5,18.9,16.5,24.8-7.7,29.6-18.9v17.8h9.5v-39.1c0-15.4-8.8-22.8-26.1-22.8M644.4,203c-18.8,0-27.5,8.3-29.7,22.1h10.1c2.2-8.7,8.3-13.5,19.1-13.5s15.3,4.5,15.3,10.4-3.3,8.3-17.3,9.8l-10.4,1.1c-13.4,1.5-18.9,7.3-18.9,16.6s6.5,16.5,18.9,16.5,24.8-7.7,29.6-18.9v17.8h9.5v-39.1c0-15.4-8.8-22.8-26.1-22.8"/>
    <path class="st1" d="M634.7,258c-8.7,0-12.3-3.3-12.3-8.5s2.8-7.3,11-9.1l10.6-2.2c9.5-2,14.9-6.3,16.8-10.1v7c0,12.2-11.4,22.8-26.1,22.8s-12.3-3.3-12.3-8.5,2.8-7.3,11-9.1l10.6-2.2c9.5-2,14.9-6.3,16.8-10.1v7c0,12.2-11.4,22.8-26.1,22.8M634.7,258c-8.7,0-12.3-3.3-12.3-8.5s2.8-7.3,11-9.1l10.6-2.2c9.5-2,14.9-6.3,16.8-10.1v7c0,12.2-11.4,22.8-26.1,22.8"/>
    <path class="st1" d="M742.4,219.4v-15.2h-48.8l-.9,26.1c-.7,21.3-5.4,25.9-12.3,25.9h-1.7v8.8h2.3c13.3,0,20.2-6.2,21-33.7l.6-18.5h30.1v52.2h9.8v-15.2"/>
    <path class="st1" d="M813.8,245.5h-10.1c-2.2,6.3-7.2,12-19,12s-20.3-6.9-20.9-20.1h50.8v-3.9c0-19.4-11.1-30.5-30-30.5s-30.8,11.1-30.8,30.5v2.1c0,19.4,11.1,30.5,30.8,30.5s27.3-9.6,29.1-20.7h-10.1c-2.2,6.3-7.2,12-19,12s-20.3-6.9-20.9-20.1h50.8v-3.9c0-19.4-11.1-30.5-30-30.5s-30.8,11.1-30.8,30.5v2.1c0,19.4,11.1,30.5,30.8,30.5s27.3-9.6,29.1-20.7M813.8,245.5h-10.1c-2.2,6.3-7.2,12-19,12s-20.3-6.9-20.9-20.1h50.8v-3.9c0-19.4-11.1-30.5-30-30.5s-30.8,11.1-30.8,30.5v2.1c0,19.4,11.1,30.5,30.8,30.5s27.3-9.6,29.1-20.7"/>
    <path class="st1" d="M764,229.5c1.1-12,8.5-18.2,20.5-18.2s18.8,6.2,20,18.2h-40.5c1.1-12,8.5-18.2,20.5-18.2s18.8,6.2,20,18.2h-40.5M764,229.5c1.1-12,8.5-18.2,20.5-18.2s18.8,6.2,20,18.2h-40.5"/>
    <path class="st11" d="M1101.5,153.2c1.1-12,8.5-18.2,20.5-18.2s18.8,6.2,20,18.2h-40.5ZM1151.3,169.1h-10.1c-2.2,6.3-7.2,12.1-19.1,12.1s-20.3-6.9-20.9-20.1h50.8v-3.9c0-19.4-11.1-30.5-30-30.5s-30.8,11.1-30.8,30.5v2.1c0,19.4,11.1,30.5,30.8,30.5s27.3-9.6,29.2-20.7M1031.1,127.8l-.9,26.1c-.7,21.3-5.4,25.9-12.3,25.9h-1.7v8.8h2.3c13.3,0,20.2-6.2,21-33.7l.6-18.5h30.1v52.2h9.8v-60.8h-48.8ZM972.2,181.6c-8.7,0-12.3-3.3-12.3-8.5s2.8-7.3,11-9.1l10.6-2.2c9.5-2,14.9-6.3,16.8-10.1v7c0,12.2-11.4,22.8-26.1,22.8M981.9,126.6c-18.8,0-27.5,8.3-29.7,22.1h10.1c2.2-8.7,8.3-13.5,19.1-13.5s15.3,4.5,15.3,10.4-3.3,8.3-17.3,9.8l-10.4,1.1c-13.4,1.5-18.9,7.3-18.9,16.6s6.5,16.5,18.9,16.5,24.8-7.7,29.6-18.9v17.8h9.5v-39.1c0-15.4-8.8-22.8-26-22.8M928.3,127.8v24.9h-36.4v-24.9h-9.8v60.8h9.8v-27.3h36.4v27.3h9.8v-60.8h-9.8ZM841.7,189.8c18.8,0,28.1-9.8,29.8-23.3h-10.1c-2.3,9-8.1,14.7-19.9,14.7s-20.4-6.9-21.2-19.7h27v-8.5h-26.7c1.4-11.6,8.7-17.7,20.7-17.7s17.1,5.9,19,13.1h10c-1.4-12.2-10.4-21.7-28.8-21.7s-31,11.1-31,30.5v2.1c0,19.4,11.1,30.5,31.2,30.5M794.6,117.3c4.9,0,7-2.1,7-6.9s-2.1-6.8-7-6.8-7,2.1-7,6.8,2.1,6.9,7,6.9M789.7,188.6h9.8v-60.8h-9.8v60.8ZM748.6,181.2c-13.3,0-20.9-7.6-20.9-21.6v-2.1c0-14,7.6-21.6,20.9-21.6s20.9,7.6,20.9,21.6v2.1c0,14-7.6,21.6-20.9,21.6M748.7,189.8c19.5,0,30.6-11.1,30.6-30.5v-2.1c0-18.8-10.4-29.3-28.2-29.3s-21.6,5.5-24.9,16.1c.5-20.7,6.7-26.7,21.7-27.8l17.3-1.1c4.8-.3,8.4-1.1,10-2.2v-9.4h-.3c-1.7,1.5-5,2.3-10.3,2.6l-17.7,1.1c-20.2,1.3-30,11.2-30,41.8v3.1c0,26.6,11.1,37.6,31.8,37.6"/>
    <path class="st1" d="M734.8,187.5c4,1.5,8.6,2.2,13.9,2.2,19.5,0,30.6-11.1,30.6-30.5v-2.1c0-18.8-10.4-29.3-28.2-29.3s-21.6,5.5-24.9,16.1c.5-20.7,6.7-26.7,21.7-27.8l17.3-1.1c4.8-.3,8.4-1.1,10-2.2v-9.4h-.3c-1.7,1.5-5,2.3-10.3,2.6l-17.7,1.1c-5.5.3-10.3,1.3-14.2,3.2M717.9,134.4c-.6,4.3-1,9.1-1,14.6v3.1c0,5.3.4,10,1.3,14.1"/>
    <path class="st1" d="M748.6,181.2c-13.3,0-20.9-7.6-20.9-21.6v-2.1c0-14,7.6-21.6,20.9-21.6s20.9,7.6,20.9,21.6v2.1c0,14-7.6,21.6-20.9,21.6s-20.9-7.6-20.9-21.6v-2.1c0-14,7.6-21.6,20.9-21.6s20.9,7.6,20.9,21.6v2.1c0,14-7.6,21.6-20.9,21.6M748.6,181.2c-13.3,0-20.9-7.6-20.9-21.6v-2.1c0-14,7.6-21.6,20.9-21.6s20.9,7.6,20.9,21.6v2.1c0,14-7.6,21.6-20.9,21.6"/>
    <path class="st1" d="M789.7,173.4v15.2h9.8v-15.2M799.5,143v-15.2h-9.8v15.2"/>
    <path class="st1" d="M794.6,117.3c4.9,0,7-2.1,7-6.9s-2.1-6.8-7-6.8-7,2.1-7,6.8,2.1,6.9,7,6.9,7-2.1,7-6.9-2.1-6.8-7-6.8-7,2.1-7,6.8,2.1,6.9,7,6.9M794.6,117.3c4.9,0,7-2.1,7-6.9s-2.1-6.8-7-6.8-7,2.1-7,6.8,2.1,6.9,7,6.9"/>
    <path class="st1" d="M841.7,189.8c18.8,0,28.1-9.8,29.8-23.3h-10.1c-2.3,9-8.1,14.7-19.9,14.7s-20.4-6.9-21.2-19.7h27v-8.5h-26.7c1.4-11.6,8.7-17.7,20.7-17.7s17.1,5.9,19,13.1h10c-1.4-12.2-10.4-21.7-28.8-21.7s-31,11.1-31,30.5v2.1c0,19.4,11.1,30.5,31.2,30.5s28.1-9.8,29.8-23.3h-10.1c-2.3,9-8.1,14.7-19.9,14.7s-20.4-6.9-21.2-19.7h27v-8.5h-26.7c1.4-11.6,8.7-17.7,20.7-17.7s17.1,5.9,19,13.1h10c-1.4-12.2-10.4-21.7-28.8-21.7s-31,11.1-31,30.5v2.1c0,19.4,11.1,30.5,31.2,30.5M841.7,189.8c18.8,0,28.1-9.8,29.8-23.3h-10.1c-2.3,9-8.1,14.7-19.9,14.7s-20.4-6.9-21.2-19.7h27v-8.5h-26.7c1.4-11.6,8.7-17.7,20.7-17.7s17.1,5.9,19,13.1h10c-1.4-12.2-10.4-21.7-28.8-21.7s-31,11.1-31,30.5v2.1c0,19.4,11.1,30.5,31.2,30.5"/>
    <path class="st1" d="M938.1,143v-15.2h-9.8v24.9h-36.4v-24.9h-9.8v15.2M882.2,173.4v15.2h9.8v-27.3h36.4v27.3h9.8v-15.2"/>
    <path class="st1" d="M981.9,126.6c-18.8,0-27.5,8.3-29.7,22.1h10.1c2.2-8.7,8.3-13.5,19.1-13.5s15.3,4.5,15.3,10.4-3.3,8.3-17.3,9.8l-10.4,1.1c-13.4,1.5-18.9,7.3-18.9,16.6s6.5,16.5,18.9,16.5,24.8-7.7,29.6-18.9v17.8h9.5v-39.1c0-15.4-8.8-22.8-26.1-22.8s-27.5,8.3-29.7,22.1h10.1c2.2-8.7,8.3-13.5,19.1-13.5s15.3,4.5,15.3,10.4-3.3,8.3-17.3,9.8l-10.4,1.1c-13.4,1.5-18.9,7.3-18.9,16.6s6.5,16.5,18.9,16.5,24.8-7.7,29.6-18.9v17.8h9.5v-39.1c0-15.4-8.8-22.8-26.1-22.8M981.9,126.6c-18.8,0-27.5,8.3-29.7,22.1h10.1c2.2-8.7,8.3-13.5,19.1-13.5s15.3,4.5,15.3,10.4-3.3,8.3-17.3,9.8l-10.4,1.1c-13.4,1.5-18.9,7.3-18.9,16.6s6.5,16.5,18.9,16.5,24.8-7.7,29.6-18.9v17.8h9.5v-39.1c0-15.4-8.8-22.8-26.1-22.8"/>
    <path class="st1" d="M972.2,181.6c-8.7,0-12.3-3.3-12.3-8.5s2.8-7.3,11-9.1l10.6-2.2c9.5-2,14.9-6.3,16.8-10.1v7c0,12.2-11.4,22.8-26.1,22.8s-12.3-3.3-12.3-8.5,2.8-7.3,11-9.1l10.6-2.2c9.5-2,14.9-6.3,16.8-10.1v7c0,12.2-11.4,22.8-26.1,22.8M972.2,181.6c-8.7,0-12.3-3.3-12.3-8.5s2.8-7.3,11-9.1l10.6-2.2c9.5-2,14.9-6.3,16.8-10.1v7c0,12.2-11.4,22.8-26.1,22.8"/>
    <path class="st1" d="M1079.9,143v-15.2h-48.8l-.9,26.1c-.7,21.3-5.4,25.9-12.3,25.9h-1.7v8.8h2.3c13.3,0,20.2-6.2,21-33.7l.6-18.5h30.1v52.2h9.8v-15.2"/>
    <path class="st1" d="M1151.3,169.1h-10.1c-2.2,6.3-7.2,12-19.1,12s-20.3-6.9-20.9-20.1h50.8v-3.9c0-19.4-11.1-30.5-30-30.5s-30.8,11.1-30.8,30.5v2.1c0,19.4,11.1,30.5,30.8,30.5s27.3-9.6,29.1-20.7h-10.1c-2.2,6.3-7.2,12-19.1,12s-20.3-6.9-20.9-20.1h50.8v-3.9c0-19.4-11.1-30.5-30-30.5s-30.8,11.1-30.8,30.5v2.1c0,19.4,11.1,30.5,30.8,30.5s27.3-9.6,29.1-20.7M1151.3,169.1h-10.1c-2.2,6.3-7.2,12-19.1,12s-20.3-6.9-20.9-20.1h50.8v-3.9c0-19.4-11.1-30.5-30-30.5s-30.8,11.1-30.8,30.5v2.1c0,19.4,11.1,30.5,30.8,30.5s27.3-9.6,29.1-20.7"/>
    <path class="st1" d="M1101.5,153.2c1.1-12,8.5-18.2,20.5-18.2s18.8,6.2,20,18.2h-40.5c1.1-12,8.5-18.2,20.5-18.2s18.8,6.2,20,18.2h-40.5M1101.5,153.2c1.1-12,8.5-18.2,20.5-18.2s18.8,6.2,20,18.2h-40.5"/>
    <path class="st11" d="M223.5,311.1c1.1-12.1,8.5-18.2,20.5-18.2s18.8,6.2,20,18.2h-40.5ZM273.3,327h-10.1c-2.2,6.3-7.2,12-19.1,12s-20.3-6.9-20.9-20.1h50.8v-3.9c0-19.4-11.1-30.5-30-30.5s-30.8,11.1-30.8,30.5v2.1c0,19.4,11.1,30.5,30.8,30.5s27.3-9.6,29.1-20.7M153.1,285.7l-.9,26.1c-.7,21.3-5.4,25.9-12.3,25.9h-1.7v8.8h2.3c13.3,0,20.2-6.2,21-33.7l.6-18.5h30.1v52.2h9.8v-60.8h-48.8ZM94.2,339.5c-8.7,0-12.3-3.3-12.3-8.5s2.8-7.3,11-9.1l10.6-2.2c9.5-2,14.9-6.3,16.8-10.1v7c0,12.2-11.4,22.8-26.1,22.8M103.9,284.6c-18.8,0-27.5,8.3-29.7,22.1h10.1c2.2-8.7,8.3-13.5,19.1-13.5s15.3,4.5,15.3,10.4-3.3,8.3-17.3,9.8l-10.4,1.1c-13.4,1.5-18.9,7.3-18.9,16.6s6.5,16.5,18.9,16.5,24.8-7.7,29.6-18.9v17.8h9.5v-39.1c0-15.4-8.8-22.8-26.1-22.8M50.3,285.7v24.9H13.9v-24.9H4.2v60.8h9.8v-27.3h36.4v27.3h9.8v-60.8h-9.8ZM-36.3,347.7c18.8,0,28.1-9.8,29.8-23.3h-10.1c-2.3,9-8.1,14.7-19.9,14.7s-20.4-6.9-21.2-19.7h27v-8.5h-26.7c1.4-11.6,8.7-17.7,20.7-17.7s17.1,5.9,19,13.1H-7.7c-1.4-12.2-10.4-21.7-28.8-21.7s-31,11.1-31,30.5v2.1c0,19.4,11.1,30.5,31.2,30.5M-83.4,275.3c4.9,0,7-2.1,7-6.9s-2.1-6.8-7-6.8-7,2.1-7,6.8,2.1,6.9,7,6.9M-88.3,346.5h9.8v-60.8h-9.8v60.8ZM-129.4,339.1c-13.3,0-20.9-7.6-20.9-21.6v-2.1c0-14,7.6-21.6,20.9-21.6s20.9,7.6,20.9,21.6v2.1c0,14-7.6,21.6-20.9,21.6M-129.3,347.7c19.5,0,30.6-11.1,30.6-30.5v-2.1c0-18.8-10.4-29.3-28.2-29.3s-21.6,5.5-24.9,16.1c.5-20.7,6.7-26.7,21.7-27.8l17.3-1.1c4.8-.3,8.4-1.1,10-2.2v-9.4h-.3c-1.7,1.5-5.1,2.3-10.3,2.6l-17.7,1.1c-20.2,1.3-30,11.2-30,41.8v3.1c0,26.6,11.1,37.6,31.8,37.6"/>
    <path class="st1" d="M-143.2,345.5c4,1.5,8.6,2.2,13.9,2.2,19.5,0,30.6-11.1,30.6-30.5v-2.1c0-18.8-10.4-29.3-28.2-29.3s-21.6,5.5-24.9,16.1c.5-20.7,6.7-26.7,21.7-27.8l17.3-1.1c4.8-.3,8.4-1.1,10-2.2v-9.4h-.3c-1.7,1.5-5,2.3-10.3,2.6l-17.7,1.1c-5.5.3-10.3,1.3-14.2,3.2M-160.1,292.3c-.6,4.3-1,9.1-1,14.6v3.1c0,5.3.4,10,1.3,14.1"/>
    <path class="st1" d="M-129.4,339.1c-13.3,0-20.9-7.6-20.9-21.6v-2.1c0-14,7.6-21.6,20.9-21.6s20.9,7.6,20.9,21.6v2.1c0,14-7.6,21.6-20.9,21.6s-20.9-7.6-20.9-21.6v-2.1c0-14,7.6-21.6,20.9-21.6s20.9,7.6,20.9,21.6v2.1c0,14-7.6,21.6-20.9,21.6M-129.4,339.1c-13.3,0-20.9-7.6-20.9-21.6v-2.1c0-14,7.6-21.6,20.9-21.6s20.9,7.6,20.9,21.6v2.1c0,14-7.6,21.6-20.9,21.6"/>
    <path class="st1" d="M-88.3,331.3v15.2h9.8v-15.2M-78.5,300.9v-15.2h-9.8v15.2"/>
    <path class="st1" d="M-83.4,275.3c4.9,0,7-2.1,7-6.9s-2.1-6.8-7-6.8-7,2.1-7,6.8,2.1,6.9,7,6.9,7-2.1,7-6.9-2.1-6.8-7-6.8-7,2.1-7,6.8,2.1,6.9,7,6.9M-83.4,275.3c4.9,0,7-2.1,7-6.9s-2.1-6.8-7-6.8-7,2.1-7,6.8,2.1,6.9,7,6.9"/>
    <path class="st1" d="M-36.3,347.7c18.8,0,28.1-9.8,29.8-23.3h-10.1c-2.3,9-8.1,14.7-19.9,14.7s-20.4-6.9-21.2-19.7h27v-8.5h-26.7c1.4-11.6,8.7-17.7,20.7-17.7s17.1,5.9,19,13.1H-7.7c-1.4-12.2-10.4-21.7-28.8-21.7s-31,11.1-31,30.5v2.1c0,19.4,11.1,30.5,31.2,30.5s28.1-9.8,29.8-23.3h-10.1c-2.3,9-8.1,14.7-19.9,14.7s-20.4-6.9-21.2-19.7h27v-8.5h-26.7c1.4-11.6,8.7-17.7,20.7-17.7s17.1,5.9,19,13.1H-7.7c-1.4-12.2-10.4-21.7-28.8-21.7s-31,11.1-31,30.5v2.1c0,19.4,11.1,30.5,31.2,30.5M-36.3,347.7c18.8,0,28.1-9.8,29.8-23.3h-10.1c-2.3,9-8.1,14.7-19.9,14.7s-20.4-6.9-21.2-19.7h27v-8.5h-26.7c1.4-11.6,8.7-17.7,20.7-17.7s17.1,5.9,19,13.1H-7.7c-1.4-12.2-10.4-21.7-28.8-21.7s-31,11.1-31,30.5v2.1c0,19.4,11.1,30.5,31.2,30.5"/>
    <path class="st1" d="M60.1,300.9v-15.2h-9.8v24.9H13.9v-24.9H4.2v15.2M4.2,331.3v15.2h9.8v-27.3h36.4v27.3h9.8v-15.2"/>
    <path class="st1" d="M103.9,284.6c-18.8,0-27.5,8.3-29.7,22.1h10.1c2.2-8.7,8.3-13.5,19.1-13.5s15.3,4.5,15.3,10.4-3.3,8.3-17.3,9.8l-10.4,1.1c-13.4,1.5-18.9,7.3-18.9,16.6s6.5,16.5,18.9,16.5,24.8-7.7,29.6-18.9v17.8h9.5v-39.1c0-15.4-8.8-22.8-26.1-22.8s-27.5,8.3-29.7,22.1h10.1c2.2-8.7,8.3-13.5,19.1-13.5s15.3,4.5,15.3,10.4-3.3,8.3-17.3,9.8l-10.4,1.1c-13.4,1.5-18.9,7.3-18.9,16.6s6.5,16.5,18.9,16.5,24.8-7.7,29.6-18.9v17.8h9.5v-39.1c0-15.4-8.8-22.8-26.1-22.8M103.9,284.6c-18.8,0-27.5,8.3-29.7,22.1h10.1c2.2-8.7,8.3-13.5,19.1-13.5s15.3,4.5,15.3,10.4-3.3,8.3-17.3,9.8l-10.4,1.1c-13.4,1.5-18.9,7.3-18.9,16.6s6.5,16.5,18.9,16.5,24.8-7.7,29.6-18.9v17.8h9.5v-39.1c0-15.4-8.8-22.8-26.1-22.8"/>
    <path class="st1" d="M94.2,339.5c-8.7,0-12.3-3.3-12.3-8.5s2.8-7.3,11-9.1l10.6-2.2c9.5-2,14.9-6.3,16.8-10.1v7c0,12.2-11.4,22.8-26.1,22.8s-12.3-3.3-12.3-8.5,2.8-7.3,11-9.1l10.6-2.2c9.5-2,14.9-6.3,16.8-10.1v7c0,12.2-11.4,22.8-26.1,22.8M94.2,339.5c-8.7,0-12.3-3.3-12.3-8.5s2.8-7.3,11-9.1l10.6-2.2c9.5-2,14.9-6.3,16.8-10.1v7c0,12.2-11.4,22.8-26.1,22.8"/>
    <path class="st1" d="M201.9,300.9v-15.2h-48.8l-.9,26.1c-.7,21.3-5.4,25.9-12.3,25.9h-1.7v8.8h2.3c13.3,0,20.2-6.2,21-33.7l.6-18.5h30.1v52.2h9.8v-15.2"/>
    <path class="st1" d="M273.3,327h-10.1c-2.2,6.3-7.2,12-19.1,12s-20.3-6.9-20.9-20.1h50.8v-3.9c0-19.4-11.1-30.5-30-30.5s-30.8,11.1-30.8,30.5v2.1c0,19.4,11.1,30.5,30.8,30.5s27.3-9.6,29.1-20.7h-10.1c-2.2,6.3-7.2,12-19.1,12s-20.3-6.9-20.9-20.1h50.8v-3.9c0-19.4-11.1-30.5-30-30.5s-30.8,11.1-30.8,30.5v2.1c0,19.4,11.1,30.5,30.8,30.5s27.3-9.6,29.1-20.7M273.3,327h-10.1c-2.2,6.3-7.2,12-19.1,12s-20.3-6.9-20.9-20.1h50.8v-3.9c0-19.4-11.1-30.5-30-30.5s-30.8,11.1-30.8,30.5v2.1c0,19.4,11.1,30.5,30.8,30.5s27.3-9.6,29.1-20.7"/>
    <path class="st1" d="M223.5,311.1c1.1-12,8.5-18.2,20.5-18.2s18.8,6.2,20,18.2h-40.5c1.1-12,8.5-18.2,20.5-18.2s18.8,6.2,20,18.2h-40.5M223.5,311.1c1.1-12,8.5-18.2,20.5-18.2s18.8,6.2,20,18.2h-40.5"/>
    <path class="st11" d="M809.9,103.2c1.1-12,8.5-18.2,20.5-18.2s18.8,6.2,20,18.2h-40.5ZM859.7,119.1h-10.1c-2.2,6.3-7.2,12.1-19,12.1s-20.3-6.9-20.9-20.1h50.8v-3.9c0-19.4-11.1-30.5-30-30.5s-30.8,11.1-30.8,30.5v2.1c0,19.4,11.1,30.5,30.8,30.5s27.3-9.6,29.1-20.7M739.5,77.8l-.9,26.1c-.7,21.3-5.4,25.9-12.3,25.9h-1.7v8.8h2.3c13.3,0,20.2-6.2,21-33.7l.6-18.5h30.1v52.2h9.8v-60.8h-48.8ZM680.6,131.6c-8.7,0-12.3-3.3-12.3-8.5s2.8-7.3,11-9.1l10.6-2.2c9.5-2,14.9-6.3,16.8-10.1v7c0,12.2-11.4,22.8-26.1,22.8M690.3,76.7c-18.8,0-27.5,8.3-29.7,22.1h10.1c2.2-8.7,8.3-13.5,19.1-13.5s15.3,4.5,15.3,10.4-3.3,8.3-17.3,9.8l-10.4,1.1c-13.4,1.5-18.9,7.3-18.9,16.6s6.5,16.5,18.9,16.5,24.8-7.7,29.6-18.9v17.8h9.5v-39.1c0-15.4-8.8-22.8-26-22.8M636.7,77.8v24.9h-36.4v-24.9h-9.8v60.8h9.8v-27.3h36.4v27.3h9.8v-60.8h-9.8ZM550.1,139.8c18.8,0,28.1-9.8,29.8-23.3h-10.1c-2.3,9-8.1,14.7-19.9,14.7s-20.4-6.9-21.2-19.7h27v-8.5h-26.7c1.4-11.6,8.7-17.7,20.7-17.7s17.1,5.9,19.1,13.1h10c-1.4-12.2-10.4-21.7-28.8-21.7s-31,11.1-31,30.5v2.1c0,19.4,11.1,30.5,31.2,30.5M503,67.4c4.9,0,7-2.1,7-6.9s-2.1-6.8-7-6.8-7,2.1-7,6.8,2.1,6.9,7,6.9M498.1,138.6h9.8v-60.8h-9.8v60.8ZM457,131.2c-13.3,0-20.9-7.6-20.9-21.6v-2.1c0-14,7.6-21.6,20.9-21.6s20.9,7.6,20.9,21.6v2.1c0,14-7.6,21.6-20.9,21.6M457.1,139.8c19.5,0,30.6-11.1,30.6-30.5v-2.1c0-18.8-10.4-29.3-28.2-29.3s-21.6,5.5-24.9,16.1c.5-20.7,6.7-26.7,21.7-27.8l17.3-1.1c4.8-.3,8.4-1.1,10-2.2v-9.4h-.3c-1.7,1.5-5,2.3-10.3,2.6l-17.7,1.1c-20.2,1.3-30,11.2-30,41.8v3.1c0,26.6,11.1,37.6,31.8,37.6"/>
    <path class="st1" d="M443.2,137.6c4,1.5,8.6,2.2,13.9,2.2,19.5,0,30.6-11.1,30.6-30.5v-2.1c0-18.8-10.4-29.3-28.2-29.3s-21.6,5.5-24.9,16.1c.5-20.7,6.7-26.7,21.7-27.8l17.3-1.1c4.8-.3,8.4-1.1,10-2.2v-9.4h-.3c-1.7,1.5-5,2.3-10.3,2.6l-17.7,1.1c-5.5.3-10.3,1.3-14.2,3.2M426.3,84.4c-.6,4.3-1,9.1-1,14.6v3.1c0,5.3.4,10,1.3,14.1"/>
    <path class="st1" d="M457,131.2c-13.3,0-20.9-7.6-20.9-21.6v-2.1c0-14,7.6-21.6,20.9-21.6s20.9,7.6,20.9,21.6v2.1c0,14-7.6,21.6-20.9,21.6s-20.9-7.6-20.9-21.6v-2.1c0-14,7.6-21.6,20.9-21.6s20.9,7.6,20.9,21.6v2.1c0,14-7.6,21.6-20.9,21.6M457,131.2c-13.3,0-20.9-7.6-20.9-21.6v-2.1c0-14,7.6-21.6,20.9-21.6s20.9,7.6,20.9,21.6v2.1c0,14-7.6,21.6-20.9,21.6"/>
    <path class="st1" d="M498.1,123.4v15.2h9.8v-15.2M507.9,93v-15.2h-9.8v15.2"/>
    <path class="st1" d="M503,67.4c4.9,0,7-2.1,7-6.9s-2.1-6.8-7-6.8-7,2.1-7,6.8,2.1,6.9,7,6.9,7-2.1,7-6.9-2.1-6.8-7-6.8-7,2.1-7,6.8,2.1,6.9,7,6.9M503,67.4c4.9,0,7-2.1,7-6.9s-2.1-6.8-7-6.8-7,2.1-7,6.8,2.1,6.9,7,6.9"/>
    <path class="st1" d="M550.1,139.8c18.8,0,28.1-9.8,29.8-23.3h-10.1c-2.3,9-8.1,14.7-19.9,14.7s-20.4-6.9-21.2-19.7h27v-8.5h-26.7c1.4-11.6,8.7-17.7,20.7-17.7s17.1,5.9,19,13.1h10c-1.4-12.2-10.4-21.7-28.8-21.7s-31,11.1-31,30.5v2.1c0,19.4,11.1,30.5,31.2,30.5s28.1-9.8,29.8-23.3h-10.1c-2.3,9-8.1,14.7-19.9,14.7s-20.4-6.9-21.2-19.7h27v-8.5h-26.7c1.4-11.6,8.7-17.7,20.7-17.7s17.1,5.9,19,13.1h10c-1.4-12.2-10.4-21.7-28.8-21.7s-31,11.1-31,30.5v2.1c0,19.4,11.1,30.5,31.2,30.5M550.1,139.8c18.8,0,28.1-9.8,29.8-23.3h-10.1c-2.3,9-8.1,14.7-19.9,14.7s-20.4-6.9-21.2-19.7h27v-8.5h-26.7c1.4-11.6,8.7-17.7,20.7-17.7s17.1,5.9,19,13.1h10c-1.4-12.2-10.4-21.7-28.8-21.7s-31,11.1-31,30.5v2.1c0,19.4,11.1,30.5,31.2,30.5"/>
    <path class="st1" d="M646.5,93v-15.2h-9.8v24.9h-36.4v-24.9h-9.8v15.2M590.6,123.4v15.2h9.8v-27.3h36.4v27.3h9.8v-15.2"/>
    <path class="st1" d="M690.3,76.7c-18.8,0-27.5,8.3-29.7,22.1h10.1c2.2-8.7,8.3-13.5,19.1-13.5s15.3,4.5,15.3,10.4-3.3,8.3-17.3,9.8l-10.4,1.1c-13.4,1.5-18.9,7.3-18.9,16.6s6.5,16.5,18.9,16.5,24.8-7.7,29.6-18.9v17.8h9.5v-39.1c0-15.4-8.8-22.8-26.1-22.8s-27.5,8.3-29.7,22.1h10.1c2.2-8.7,8.3-13.5,19.1-13.5s15.3,4.5,15.3,10.4-3.3,8.3-17.3,9.8l-10.4,1.1c-13.4,1.5-18.9,7.3-18.9,16.6s6.5,16.5,18.9,16.5,24.8-7.7,29.6-18.9v17.8h9.5v-39.1c0-15.4-8.8-22.8-26.1-22.8M690.3,76.7c-18.8,0-27.5,8.3-29.7,22.1h10.1c2.2-8.7,8.3-13.5,19.1-13.5s15.3,4.5,15.3,10.4-3.3,8.3-17.3,9.8l-10.4,1.1c-13.4,1.5-18.9,7.3-18.9,16.6s6.5,16.5,18.9,16.5,24.8-7.7,29.6-18.9v17.8h9.5v-39.1c0-15.4-8.8-22.8-26.1-22.8"/>
    <path class="st1" d="M680.6,131.6c-8.7,0-12.3-3.3-12.3-8.5s2.8-7.3,11-9.1l10.6-2.2c9.5-2,14.9-6.3,16.8-10.1v7c0,12.2-11.4,22.8-26.1,22.8s-12.3-3.3-12.3-8.5,2.8-7.3,11-9.1l10.6-2.2c9.5-2,14.9-6.3,16.8-10.1v7c0,12.2-11.4,22.8-26.1,22.8M680.6,131.6c-8.7,0-12.3-3.3-12.3-8.5s2.8-7.3,11-9.1l10.6-2.2c9.5-2,14.9-6.3,16.8-10.1v7c0,12.2-11.4,22.8-26.1,22.8"/>
    <path class="st1" d="M788.2,93v-15.2h-48.8l-.9,26.1c-.7,21.3-5.4,25.9-12.3,25.9h-1.7v8.8h2.3c13.3,0,20.2-6.2,21-33.7l.6-18.5h30.1v52.2h9.8v-15.2"/>
    <path class="st1" d="M859.7,119.1h-10.1c-2.2,6.3-7.2,12-19,12s-20.3-6.9-20.9-20.1h50.8v-3.9c0-19.4-11.1-30.5-30-30.5s-30.8,11.1-30.8,30.5v2.1c0,19.4,11.1,30.5,30.8,30.5s27.3-9.6,29.1-20.7h-10.1c-2.2,6.3-7.2,12-19,12s-20.3-6.9-20.9-20.1h50.8v-3.9c0-19.4-11.1-30.5-30-30.5s-30.8,11.1-30.8,30.5v2.1c0,19.4,11.1,30.5,30.8,30.5s27.3-9.6,29.1-20.7M859.7,119.1h-10.1c-2.2,6.3-7.2,12-19,12s-20.3-6.9-20.9-20.1h50.8v-3.9c0-19.4-11.1-30.5-30-30.5s-30.8,11.1-30.8,30.5v2.1c0,19.4,11.1,30.5,30.8,30.5s27.3-9.6,29.1-20.7"/>
    <path class="st1" d="M809.9,103.2c1.1-12,8.5-18.2,20.5-18.2s18.8,6.2,20,18.2h-40.5c1.1-12,8.5-18.2,20.5-18.2s18.8,6.2,20,18.2h-40.5M809.9,103.2c1.1-12,8.5-18.2,20.5-18.2s18.8,6.2,20,18.2h-40.5"/>
    <path class="st11" d="M1017.5,103.2c1.1-12,8.5-18.2,20.5-18.2s18.8,6.2,20,18.2h-40.5ZM1067.3,119.1h-10.1c-2.2,6.3-7.2,12.1-19.1,12.1s-20.3-6.9-20.9-20.1h50.8v-3.9c0-19.4-11.1-30.5-30-30.5s-30.8,11.1-30.8,30.5v2.1c0,19.4,11.1,30.5,30.8,30.5s27.3-9.6,29.2-20.7M947.1,77.8l-.9,26.1c-.7,21.3-5.4,25.9-12.3,25.9h-1.7v8.8h2.3c13.3,0,20.2-6.2,21-33.7l.6-18.5h30.1v52.2h9.8v-60.8h-48.8ZM888.2,131.6c-8.7,0-12.3-3.3-12.3-8.5s2.8-7.3,11-9.1l10.6-2.2c9.5-2,14.9-6.3,16.8-10.1v7c0,12.2-11.4,22.8-26.1,22.8M897.9,76.7c-18.8,0-27.5,8.3-29.7,22.1h10.1c2.2-8.7,8.3-13.5,19.1-13.5s15.3,4.5,15.3,10.4-3.3,8.3-17.3,9.8l-10.4,1.1c-13.4,1.5-18.9,7.3-18.9,16.6s6.5,16.5,18.9,16.5,24.8-7.7,29.6-18.9v17.8h9.5v-39.1c0-15.4-8.8-22.8-26-22.8M844.3,77.8v24.9h-36.4v-24.9h-9.8v60.8h9.8v-27.3h36.4v27.3h9.8v-60.8h-9.8ZM757.7,139.8c18.8,0,28.1-9.8,29.8-23.3h-10.1c-2.3,9-8.1,14.7-19.9,14.7s-20.4-6.9-21.2-19.7h27v-8.5h-26.7c1.4-11.6,8.7-17.7,20.7-17.7s17.1,5.9,19,13.1h10c-1.4-12.2-10.4-21.7-28.8-21.7s-31,11.1-31,30.5v2.1c0,19.4,11.1,30.5,31.2,30.5M710.6,67.4c4.9,0,7-2.1,7-6.9s-2.1-6.8-7-6.8-7,2.1-7,6.8,2.1,6.9,7,6.9M705.7,138.6h9.8v-60.8h-9.8v60.8ZM664.6,131.2c-13.3,0-20.9-7.6-20.9-21.6v-2.1c0-14,7.6-21.6,20.9-21.6s20.9,7.6,20.9,21.6v2.1c0,14-7.6,21.6-20.9,21.6M664.7,139.8c19.5,0,30.6-11.1,30.6-30.5v-2.1c0-18.8-10.4-29.3-28.2-29.3s-21.6,5.5-24.9,16.1c.5-20.7,6.7-26.7,21.7-27.8l17.3-1.1c4.8-.3,8.4-1.1,10-2.2v-9.4h-.3c-1.7,1.5-5,2.3-10.3,2.6l-17.7,1.1c-20.2,1.3-30,11.2-30,41.8v3.1c0,26.6,11.1,37.6,31.8,37.6"/>
    <path class="st1" d="M650.8,137.6c4,1.5,8.6,2.2,13.9,2.2,19.5,0,30.6-11.1,30.6-30.5v-2.1c0-18.8-10.4-29.3-28.2-29.3s-21.6,5.5-24.9,16.1c.5-20.7,6.7-26.7,21.7-27.8l17.3-1.1c4.8-.3,8.4-1.1,10-2.2v-9.4h-.3c-1.7,1.5-5,2.3-10.3,2.6l-17.7,1.1c-5.5.3-10.3,1.3-14.2,3.2M633.9,84.4c-.6,4.3-1,9.1-1,14.6v3.1c0,5.3.4,10,1.3,14.1"/>
    <path class="st1" d="M664.6,131.2c-13.3,0-20.9-7.6-20.9-21.6v-2.1c0-14,7.6-21.6,20.9-21.6s20.9,7.6,20.9,21.6v2.1c0,14-7.6,21.6-20.9,21.6s-20.9-7.6-20.9-21.6v-2.1c0-14,7.6-21.6,20.9-21.6s20.9,7.6,20.9,21.6v2.1c0,14-7.6,21.6-20.9,21.6M664.6,131.2c-13.3,0-20.9-7.6-20.9-21.6v-2.1c0-14,7.6-21.6,20.9-21.6s20.9,7.6,20.9,21.6v2.1c0,14-7.6,21.6-20.9,21.6"/>
    <path class="st1" d="M705.7,123.4v15.2h9.8v-15.2M715.5,93v-15.2h-9.8v15.2"/>
    <path class="st1" d="M710.6,67.4c4.9,0,7-2.1,7-6.9s-2.1-6.8-7-6.8-7,2.1-7,6.8,2.1,6.9,7,6.9,7-2.1,7-6.9-2.1-6.8-7-6.8-7,2.1-7,6.8,2.1,6.9,7,6.9M710.6,67.4c4.9,0,7-2.1,7-6.9s-2.1-6.8-7-6.8-7,2.1-7,6.8,2.1,6.9,7,6.9"/>
    <path class="st1" d="M757.7,139.8c18.8,0,28.1-9.8,29.8-23.3h-10.1c-2.3,9-8.1,14.7-19.9,14.7s-20.4-6.9-21.2-19.7h27v-8.5h-26.7c1.4-11.6,8.7-17.7,20.7-17.7s17.1,5.9,19,13.1h10c-1.4-12.2-10.4-21.7-28.8-21.7s-31,11.1-31,30.5v2.1c0,19.4,11.1,30.5,31.2,30.5s28.1-9.8,29.8-23.3h-10.1c-2.3,9-8.1,14.7-19.9,14.7s-20.4-6.9-21.2-19.7h27v-8.5h-26.7c1.4-11.6,8.7-17.7,20.7-17.7s17.1,5.9,19,13.1h10c-1.4-12.2-10.4-21.7-28.8-21.7s-31,11.1-31,30.5v2.1c0,19.4,11.1,30.5,31.2,30.5M757.7,139.8c18.8,0,28.1-9.8,29.8-23.3h-10.1c-2.3,9-8.1,14.7-19.9,14.7s-20.4-6.9-21.2-19.7h27v-8.5h-26.7c1.4-11.6,8.7-17.7,20.7-17.7s17.1,5.9,19,13.1h10c-1.4-12.2-10.4-21.7-28.8-21.7s-31,11.1-31,30.5v2.1c0,19.4,11.1,30.5,31.2,30.5"/>
    <path class="st1" d="M854.1,93v-15.2h-9.8v24.9h-36.4v-24.9h-9.8v15.2M798.2,123.4v15.2h9.8v-27.3h36.4v27.3h9.8v-15.2"/>
    <path class="st1" d="M897.9,76.7c-18.8,0-27.5,8.3-29.7,22.1h10.1c2.2-8.7,8.3-13.5,19.1-13.5s15.3,4.5,15.3,10.4-3.3,8.3-17.3,9.8l-10.4,1.1c-13.4,1.5-18.9,7.3-18.9,16.6s6.5,16.5,18.9,16.5,24.8-7.7,29.6-18.9v17.8h9.5v-39.1c0-15.4-8.8-22.8-26.1-22.8s-27.5,8.3-29.7,22.1h10.1c2.2-8.7,8.3-13.5,19.1-13.5s15.3,4.5,15.3,10.4-3.3,8.3-17.3,9.8l-10.4,1.1c-13.4,1.5-18.9,7.3-18.9,16.6s6.5,16.5,18.9,16.5,24.8-7.7,29.6-18.9v17.8h9.5v-39.1c0-15.4-8.8-22.8-26.1-22.8M897.9,76.7c-18.8,0-27.5,8.3-29.7,22.1h10.1c2.2-8.7,8.3-13.5,19.1-13.5s15.3,4.5,15.3,10.4-3.3,8.3-17.3,9.8l-10.4,1.1c-13.4,1.5-18.9,7.3-18.9,16.6s6.5,16.5,18.9,16.5,24.8-7.7,29.6-18.9v17.8h9.5v-39.1c0-15.4-8.8-22.8-26.1-22.8"/>
    <path class="st1" d="M888.2,131.6c-8.7,0-12.3-3.3-12.3-8.5s2.8-7.3,11-9.1l10.6-2.2c9.5-2,14.9-6.3,16.8-10.1v7c0,12.2-11.4,22.8-26.1,22.8s-12.3-3.3-12.3-8.5,2.8-7.3,11-9.1l10.6-2.2c9.5-2,14.9-6.3,16.8-10.1v7c0,12.2-11.4,22.8-26.1,22.8M888.2,131.6c-8.7,0-12.3-3.3-12.3-8.5s2.8-7.3,11-9.1l10.6-2.2c9.5-2,14.9-6.3,16.8-10.1v7c0,12.2-11.4,22.8-26.1,22.8"/>
    <path class="st1" d="M995.9,93v-15.2h-48.8l-.9,26.1c-.7,21.3-5.4,25.9-12.3,25.9h-1.7v8.8h2.3c13.3,0,20.2-6.2,21-33.7l.6-18.5h30.1v52.2h9.8v-15.2"/>
    <path class="st1" d="M1067.3,119.1h-10.1c-2.2,6.3-7.2,12-19.1,12s-20.3-6.9-20.9-20.1h50.8v-3.9c0-19.4-11.1-30.5-30-30.5s-30.8,11.1-30.8,30.5v2.1c0,19.4,11.1,30.5,30.8,30.5s27.3-9.6,29.1-20.7h-10.1c-2.2,6.3-7.2,12-19.1,12s-20.3-6.9-20.9-20.1h50.8v-3.9c0-19.4-11.1-30.5-30-30.5s-30.8,11.1-30.8,30.5v2.1c0,19.4,11.1,30.5,30.8,30.5s27.3-9.6,29.1-20.7M1067.3,119.1h-10.1c-2.2,6.3-7.2,12-19.1,12s-20.3-6.9-20.9-20.1h50.8v-3.9c0-19.4-11.1-30.5-30-30.5s-30.8,11.1-30.8,30.5v2.1c0,19.4,11.1,30.5,30.8,30.5s27.3-9.6,29.1-20.7"/>
    <path class="st1" d="M1017.5,103.2c1.1-12,8.5-18.2,20.5-18.2s18.8,6.2,20,18.2h-40.5c1.1-12,8.5-18.2,20.5-18.2s18.8,6.2,20,18.2h-40.5M1017.5,103.2c1.1-12,8.5-18.2,20.5-18.2s18.8,6.2,20,18.2h-40.5"/>
    <path class="st11" d="M1126.2,574.7c1.1-12,8.5-18.2,20.5-18.2s18.8,6.2,20,18.2h-40.5ZM1176,590.7h-10.1c-2.2,6.3-7.2,12-19.1,12s-20.3-6.9-20.9-20.1h50.8v-3.9c0-19.4-11.1-30.5-30-30.5s-30.8,11.1-30.8,30.5v2.1c0,19.4,11.1,30.5,30.8,30.5s27.3-9.6,29.1-20.7M1055.7,549.4l-.9,26.1c-.7,21.3-5.4,25.9-12.3,25.9h-1.7v8.8h2.3c13.3,0,20.2-6.2,21-33.7l.6-18.5h30.1v52.2h9.8v-60.8h-48.8ZM996.8,603.2c-8.7,0-12.3-3.3-12.3-8.5s2.8-7.3,11-9.1l10.6-2.2c9.5-2,14.9-6.3,16.8-10.1v7c0,12.2-11.4,22.8-26.1,22.8M1006.6,548.2c-18.8,0-27.5,8.3-29.7,22.1h10.1c2.2-8.7,8.3-13.5,19.1-13.5s15.3,4.5,15.3,10.4-3.3,8.3-17.3,9.8l-10.4,1.1c-13.4,1.5-18.9,7.3-18.9,16.6s6.5,16.5,18.9,16.5,24.8-7.7,29.6-18.9v17.8h9.5v-39.1c0-15.4-8.8-22.8-26-22.8M953,549.4v24.9h-36.4v-24.9h-9.8v60.8h9.8v-27.3h36.4v27.3h9.8v-60.8h-9.8ZM866.4,611.4c18.8,0,28.1-9.8,29.8-23.3h-10.1c-2.3,9-8.1,14.7-19.9,14.7s-20.4-6.9-21.2-19.7h27v-8.5h-26.7c1.4-11.6,8.7-17.7,20.7-17.7s17.1,5.9,19,13.1h10c-1.4-12.2-10.4-21.7-28.8-21.7s-31,11.1-31,30.5v2.1c0,19.4,11.1,30.5,31.2,30.5M819.2,538.9c4.9,0,7-2.1,7-6.9s-2.1-6.8-7-6.8-7,2.1-7,6.8,2.1,6.9,7,6.9M814.4,610.2h9.8v-60.8h-9.8v60.8ZM773.3,602.7c-13.3,0-20.9-7.6-20.9-21.6v-2.1c0-14,7.6-21.6,20.9-21.6s20.9,7.6,20.9,21.6v2.1c0,14-7.6,21.6-20.9,21.6M773.4,611.4c19.5,0,30.6-11.1,30.6-30.5v-2.1c0-18.8-10.4-29.3-28.2-29.3s-21.6,5.5-24.9,16.1c.5-20.7,6.7-26.7,21.7-27.8l17.3-1.1c4.8-.3,8.4-1.1,10-2.2v-9.4h-.3c-1.7,1.5-5,2.3-10.3,2.6l-17.7,1.1c-20.2,1.3-30,11.2-30,41.8v3.1c0,26.6,11.1,37.6,31.8,37.6"/>
    <path class="st1" d="M759.5,609.1c4,1.5,8.6,2.2,13.9,2.2,19.5,0,30.6-11.1,30.6-30.5v-2.1c0-18.8-10.4-29.3-28.2-29.3s-21.6,5.5-24.9,16.1c.5-20.7,6.7-26.7,21.7-27.8l17.3-1.1c4.8-.3,8.4-1.1,10-2.2v-9.4h-.3c-1.7,1.5-5,2.3-10.3,2.6l-17.7,1.1c-5.5.3-10.3,1.3-14.2,3.2M742.6,556c-.6,4.3-1,9.1-1,14.6v3.1c0,5.3.4,10,1.3,14.1"/>
    <path class="st1" d="M773.3,602.7c-13.3,0-20.9-7.6-20.9-21.6v-2.1c0-14,7.6-21.6,20.9-21.6s20.9,7.6,20.9,21.6v2.1c0,14-7.6,21.6-20.9,21.6s-20.9-7.6-20.9-21.6v-2.1c0-14,7.6-21.6,20.9-21.6s20.9,7.6,20.9,21.6v2.1c0,14-7.6,21.6-20.9,21.6M773.3,602.7c-13.3,0-20.9-7.6-20.9-21.6v-2.1c0-14,7.6-21.6,20.9-21.6s20.9,7.6,20.9,21.6v2.1c0,14-7.6,21.6-20.9,21.6"/>
    <path class="st1" d="M814.4,595v15.2h9.8v-15.2M824.2,564.6v-15.2h-9.8v15.2"/>
    <path class="st1" d="M819.2,538.9c4.9,0,7-2.1,7-6.9s-2.1-6.8-7-6.8-7,2.1-7,6.8,2.1,6.9,7,6.9,7-2.1,7-6.9-2.1-6.8-7-6.8-7,2.1-7,6.8,2.1,6.9,7,6.9M819.2,538.9c4.9,0,7-2.1,7-6.9s-2.1-6.8-7-6.8-7,2.1-7,6.8,2.1,6.9,7,6.9"/>
    <path class="st1" d="M866.4,611.4c18.8,0,28.1-9.8,29.8-23.3h-10.1c-2.3,9-8.1,14.7-19.9,14.7s-20.4-6.9-21.2-19.7h27v-8.5h-26.7c1.4-11.6,8.7-17.7,20.7-17.7s17.1,5.9,19,13.1h10c-1.4-12.2-10.4-21.7-28.8-21.7s-31,11.1-31,30.5v2.1c0,19.4,11.1,30.5,31.2,30.5s28.1-9.8,29.8-23.3h-10.1c-2.3,9-8.1,14.7-19.9,14.7s-20.4-6.9-21.2-19.7h27v-8.5h-26.7c1.4-11.6,8.7-17.7,20.7-17.7s17.1,5.9,19,13.1h10c-1.4-12.2-10.4-21.7-28.8-21.7s-31,11.1-31,30.5v2.1c0,19.4,11.1,30.5,31.2,30.5M866.4,611.4c18.8,0,28.1-9.8,29.8-23.3h-10.1c-2.3,9-8.1,14.7-19.9,14.7s-20.4-6.9-21.2-19.7h27v-8.5h-26.7c1.4-11.6,8.7-17.7,20.7-17.7s17.1,5.9,19,13.1h10c-1.4-12.2-10.4-21.7-28.8-21.7s-31,11.1-31,30.5v2.1c0,19.4,11.1,30.5,31.2,30.5"/>
    <path class="st1" d="M962.7,564.6v-15.2h-9.8v24.9h-36.4v-24.9h-9.8v15.2M906.8,595v15.2h9.8v-27.3h36.4v27.3h9.8v-15.2"/>
    <path class="st1" d="M1006.6,548.2c-18.8,0-27.5,8.3-29.7,22.1h10.1c2.2-8.7,8.3-13.5,19.1-13.5s15.3,4.5,15.3,10.4-3.3,8.3-17.3,9.8l-10.4,1.1c-13.4,1.5-18.9,7.3-18.9,16.6s6.5,16.5,18.9,16.5,24.8-7.7,29.6-18.9v17.8h9.5v-39.1c0-15.4-8.8-22.8-26.1-22.8s-27.5,8.3-29.7,22.1h10.1c2.2-8.7,8.3-13.5,19.1-13.5s15.3,4.5,15.3,10.4-3.3,8.3-17.3,9.8l-10.4,1.1c-13.4,1.5-18.9,7.3-18.9,16.6s6.5,16.5,18.9,16.5,24.8-7.7,29.6-18.9v17.8h9.5v-39.1c0-15.4-8.8-22.8-26.1-22.8M1006.6,548.2c-18.8,0-27.5,8.3-29.7,22.1h10.1c2.2-8.7,8.3-13.5,19.1-13.5s15.3,4.5,15.3,10.4-3.3,8.3-17.3,9.8l-10.4,1.1c-13.4,1.5-18.9,7.3-18.9,16.6s6.5,16.5,18.9,16.5,24.8-7.7,29.6-18.9v17.8h9.5v-39.1c0-15.4-8.8-22.8-26.1-22.8"/>
    <path class="st1" d="M996.8,603.2c-8.7,0-12.3-3.3-12.3-8.5s2.8-7.3,11-9.1l10.6-2.2c9.5-2,14.9-6.3,16.8-10.1v7c0,12.2-11.4,22.8-26.1,22.8s-12.3-3.3-12.3-8.5,2.8-7.3,11-9.1l10.6-2.2c9.5-2,14.9-6.3,16.8-10.1v7c0,12.2-11.4,22.8-26.1,22.8M996.8,603.2c-8.7,0-12.3-3.3-12.3-8.5s2.8-7.3,11-9.1l10.6-2.2c9.5-2,14.9-6.3,16.8-10.1v7c0,12.2-11.4,22.8-26.1,22.8"/>
    <path class="st1" d="M1104.5,564.6v-15.2h-48.8l-.9,26.1c-.7,21.3-5.4,25.9-12.3,25.9h-1.7v8.8h2.3c13.3,0,20.2-6.2,21-33.7l.6-18.5h30.1v52.2h9.8v-15.2"/>
    <path class="st1" d="M1176,590.7h-10.1c-2.2,6.3-7.2,12.1-19.1,12.1s-20.3-6.9-20.9-20.1h50.8v-3.9c0-19.4-11.1-30.5-30-30.5s-30.8,11.1-30.8,30.5v2.1c0,19.4,11.1,30.5,30.8,30.5s27.3-9.6,29.1-20.7h-10.1c-2.2,6.3-7.2,12.1-19.1,12.1s-20.3-6.9-20.9-20.1h50.8v-3.9c0-19.4-11.1-30.5-30-30.5s-30.8,11.1-30.8,30.5v2.1c0,19.4,11.1,30.5,30.8,30.5s27.3-9.6,29.1-20.7M1176,590.7h-10.1c-2.2,6.3-7.2,12.1-19.1,12.1s-20.3-6.9-20.9-20.1h50.8v-3.9c0-19.4-11.1-30.5-30-30.5s-30.8,11.1-30.8,30.5v2.1c0,19.4,11.1,30.5,30.8,30.5s27.3-9.6,29.1-20.7"/>
    <path class="st1" d="M1126.2,574.7c1.1-12.1,8.5-18.2,20.5-18.2s18.8,6.2,20,18.2h-40.5c1.1-12.1,8.5-18.2,20.5-18.2s18.8,6.2,20,18.2h-40.5M1126.2,574.7c1.1-12.1,8.5-18.2,20.5-18.2s18.8,6.2,20,18.2h-40.5"/>
  </g>
  <rect class="st12" x="396" width="404" height="600"/>
  <g class="st10">
    <path class="st5" d="M717.7,71.9v22.6h10.5v-17.1l16.6-17.2,21.9,34.3h12.4l-26.6-40.7,24.1-24.9h-13.5l-8.7,9.2M728.2,19.5V4.1h-10.5v22.6M736.9,56.4l-8.7,9.2v-15.3"/>
    <path class="st5" d="M842.4,46.1l7-17.2h-11.1l-5.4,13.4M804.2,78.8l7,16.6c-2.4,5.9-4.7,9.9-7,12.2-2.3,2.3-5.1,3.4-8.4,3.4s-4.8-.2-7.4-.6v8.8c2.6.7,5.2,1.1,7.8,1.1,4.1,0,7.6-.7,10.5-2.2,2.9-1.5,5.5-3.8,7.7-7.1,2.3-3.2,4.6-7.6,6.9-13.2l7-17.2M800.3,42.3l-5.5-13.4h-11.5l7,16.6M822.2,69.2l-5.4,13.4-5.5-13.4"/>
    <path class="st5" d="M858.6,78.1v16.4h10.5v-16.4M869.1,45.3v-16.4h-10.5v16.4"/>
    <path class="st5" d="M869.3,4.9c1.4,1.4,2,3.1,2,5.3s-.7,4-2,5.4c-1.4,1.4-3.2,2-5.5,2s-4.1-.7-5.5-2c-1.4-1.4-2-3.2-2-5.4s.7-3.9,2-5.3c1.4-1.4,3.2-2,5.5-2s4.1.7,5.5,2,2,3.1,2,5.3-.7,4-2,5.4c-1.4,1.4-3.2,2-5.5,2s-4.1-.7-5.5-2c-1.4-1.4-2-3.2-2-5.4s.7-3.9,2-5.3c1.4-1.4,3.2-2,5.5-2s4.1.7,5.5,2M869.3,4.9c1.4,1.4,2,3.1,2,5.3s-.7,4-2,5.4c-1.4,1.4-3.2,2-5.5,2s-4.1-.7-5.5-2c-1.4-1.4-2-3.2-2-5.4s.7-3.9,2-5.3c1.4-1.4,3.2-2,5.5-2s4.1.7,5.5,2"/>
    <path class="st5" d="M916.1,66.6l-5.4,12.6-5.4-12.6M936.4,45.3l7.2-16.4h-11.3l-5.4,12.6M899.3,78.1l7.1,16.4h8.4l7.2-16.4M894.6,41.5l-5.4-12.6h-11.4l7.1,16.4"/>
    <path class="st11" d="M1012.1,289.9h-10.5v90.3h10.5v-90.3ZM963.4,370.3c-4,2-8.7,3-14,3s-8.8-1-11.3-3c-2.5-2-3.8-4.5-3.8-7.7,0-6.8,6-10.6,17.9-11.6l23.9-1.9c0,4.7-1.1,8.9-3.3,12.6-2.2,3.7-5.4,6.5-9.4,8.5M979,319.6c-4.7-4.1-12.1-6.2-22.2-6.2s-16.7,2-21.6,6.1c-4.9,4-7.7,9.7-8.2,17.1h10.6c.6-4.6,2.4-8.1,5.5-10.5,3.1-2.4,7.8-3.6,14.2-3.6s11.1,1.3,14,3.9c2.9,2.6,4.3,6.7,4.3,12.3v2.4l-24.5,1.7c-9.9.7-17,2.8-21.2,6.2-4.2,3.4-6.4,8-6.4,13.7s2.1,10.2,6.3,13.7c4.2,3.4,10.4,5.1,18.6,5.1s14-1.9,19-5.6c5-3.8,8.3-8.4,9.8-13.8l2.1,18.2h6.8v-42.2c0-8.2-2.4-14.3-7.1-18.4M911.7,290.7c1.4,1.4,2,3.1,2,5.3s-.7,4-2,5.4c-1.4,1.4-3.2,2-5.5,2s-4.1-.7-5.5-2c-1.4-1.4-2-3.2-2-5.4s.7-3.9,2-5.3c1.4-1.4,3.2-2,5.5-2s4.1.7,5.5,2M911.5,314.7h-10.5v65.6h10.5v-65.6ZM879.3,321c-4.5-5-10.8-7.5-18.9-7.5s-11.9,1.6-16.3,4.9c-4.4,3.3-7.5,8.2-9.3,14.8l-2-18.4h-6.8v65.6h10.5v-29.9c0-9.4,1.8-16.4,5.5-20.9s8.8-6.7,15.5-6.7,10.9,1.7,13.7,5c2.8,3.3,4.2,9.1,4.2,17.3v35.3h10.5v-36.8c0-10-2.2-17.5-6.7-22.5M804,321c-4.5-5-10.8-7.5-18.9-7.5s-11.9,1.6-16.3,4.9c-4.4,3.3-7.5,8.2-9.3,14.8l-2-18.4h-6.8v65.6h10.5v-29.9c0-9.4,1.8-16.4,5.5-20.9,3.7-4.5,8.8-6.7,15.5-6.7s10.9,1.7,13.7,5c2.8,3.3,4.2,9.1,4.2,17.3v35.3h10.5v-36.8c0-10-2.2-17.5-6.7-22.5M684.3,342.2c1.5-13.3,8.9-19.9,22.3-19.9s11.3,1.7,14.9,5c3.6,3.3,5.6,8.3,6.1,14.9h-43.3ZM737.8,350.6c.3-1.9.5-4,.5-6.4,0-6.1-1.3-11.5-3.9-16.1-2.6-4.6-6.3-8.2-11-10.8-4.7-2.6-10.3-3.8-16.8-3.8s-12.6,1.3-17.6,4c-5,2.7-8.8,6.5-11.5,11.4-2.7,5-4,10.8-4,17.4v2.2c0,6.7,1.3,12.5,4,17.4,2.7,5,6.5,8.8,11.4,11.4s10.7,4,17.3,4,16.2-2.1,21.2-6.2c5.1-4.2,8.3-9.5,9.6-16h-10.8c-1.4,4-3.6,7.2-6.6,9.5s-7.4,3.5-13.2,3.5c-13.8,0-21.2-7.2-22.3-21.7h53.6ZM661.8,290.7c1.4,1.4,2,3.1,2,5.3s-.7,4-2,5.4c-1.4,1.4-3.2,2-5.5,2s-4.1-.7-5.5-2c-1.4-1.4-2-3.2-2-5.4s.7-3.9,2-5.3c1.4-1.4,3.2-2,5.5-2s4.1.7,5.5,2M661.6,314.7h-10.5v65.6h10.5v-65.6ZM622.6,366.1c-3.8,4.1-9.3,6.1-16.5,6.1s-12.7-2.1-16.6-6.2c-3.9-4.2-5.8-10.3-5.8-18.3s1.9-14.5,5.8-18.7c3.9-4.2,9.4-6.3,16.6-6.3s12.8,2.1,16.6,6.2c3.8,4.2,5.7,10.4,5.7,18.7s-1.9,14.3-5.8,18.4M624.5,317.5c-4.5-2.7-9.5-4-15.2-4s-11.2,1.4-15.7,4.1c-4.5,2.8-7.9,6.7-10.1,11.7v-39.4h-10.5v90.3h6.8l2-18.2c2,6.1,5.4,10.9,10.2,14.3,4.8,3.4,10.6,5.1,17.3,5.1s10.7-1.3,15.2-4,8-6.5,10.6-11.5c2.6-5,3.8-10.8,3.8-17.4v-2.2c0-6.6-1.3-12.4-3.8-17.4-2.6-5-6.1-8.8-10.6-11.5"/>
    <path class="st4" d="M573.1,357.7v22.6h6.8l2-18.2c2,6.1,5.4,10.9,10.2,14.3,4.8,3.4,10.6,5.1,17.3,5.1s10.7-1.3,15.2-4c4.5-2.7,8-6.5,10.6-11.5,2.6-5,3.8-10.8,3.8-17.4v-2.2c0-6.6-1.3-12.4-3.8-17.4-2.6-5-6.1-8.8-10.6-11.5-4.5-2.7-9.5-4-15.2-4s-11.2,1.4-15.7,4.1c-4.5,2.8-7.9,6.7-10.1,11.7v-39.4h-10.5v22.6"/>
    <path class="st4" d="M622.6,366.1c-3.8,4.1-9.3,6.1-16.5,6.1s-12.7-2.1-16.6-6.2c-3.9-4.2-5.8-10.2-5.8-18.3s1.9-14.5,5.8-18.7c3.9-4.2,9.4-6.3,16.6-6.3s12.8,2.1,16.6,6.2c3.8,4.2,5.7,10.4,5.7,18.7s-1.9,14.3-5.8,18.4-9.3,6.1-16.5,6.1-12.7-2.1-16.6-6.2c-3.9-4.2-5.8-10.2-5.8-18.3s1.9-14.5,5.8-18.7c3.9-4.2,9.4-6.3,16.6-6.3s12.8,2.1,16.6,6.2c3.8,4.2,5.7,10.4,5.7,18.7s-1.9,14.3-5.8,18.4M622.6,366.1c-3.8,4.1-9.3,6.1-16.5,6.1s-12.7-2.1-16.6-6.2c-3.9-4.2-5.8-10.2-5.8-18.3s1.9-14.5,5.8-18.7c3.9-4.2,9.4-6.3,16.6-6.3s12.8,2.1,16.6,6.2c3.8,4.2,5.7,10.4,5.7,18.7s-1.9,14.3-5.8,18.4"/>
    <path class="st4" d="M651.1,363.9v16.4h10.5v-16.4M661.6,331.1v-16.4h-10.5v16.4"/>
    <path class="st4" d="M661.8,290.7c1.4,1.4,2,3.1,2,5.3s-.7,4-2,5.4c-1.4,1.4-3.2,2-5.5,2s-4.1-.7-5.5-2c-1.4-1.4-2-3.2-2-5.4s.7-3.9,2-5.3c1.4-1.4,3.2-2,5.5-2s4.1.7,5.5,2,2,3.1,2,5.3-.7,4-2,5.4c-1.4,1.4-3.2,2-5.5,2s-4.1-.7-5.5-2c-1.4-1.4-2-3.2-2-5.4s.7-3.9,2-5.3c1.4-1.4,3.2-2,5.5-2s4.1.7,5.5,2M661.8,290.7c1.4,1.4,2,3.1,2,5.3s-.7,4-2,5.4c-1.4,1.4-3.2,2-5.5,2s-4.1-.7-5.5-2c-1.4-1.4-2-3.2-2-5.4s.7-3.9,2-5.3c1.4-1.4,3.2-2,5.5-2s4.1.7,5.5,2"/>
    <path class="st4" d="M724.4,350.6h13.4c.3-1.9.5-4,.5-6.4,0-6.1-1.3-11.5-3.9-16.1-2.6-4.6-6.3-8.2-11-10.8-4.7-2.6-10.3-3.8-16.8-3.8s-12.6,1.3-17.6,4c-5,2.7-8.8,6.5-11.5,11.4-2.7,5-4,10.8-4,17.4v2.2c0,6.7,1.3,12.5,4,17.4,2.7,5,6.5,8.8,11.4,11.4,5,2.7,10.7,4,17.3,4s16.1-2.1,21.2-6.2c5.1-4.2,8.3-9.5,9.6-16h-10.8c-1.4,4-3.6,7.2-6.6,9.5-3,2.3-7.4,3.5-13.2,3.5-13.8,0-21.2-7.2-22.3-21.7h13.4"/>
    <path class="st4" d="M684.3,342.2c1.5-13.3,8.9-19.9,22.3-19.9s11.3,1.7,14.9,5c3.6,3.3,5.6,8.3,6.1,14.9h-43.3c1.5-13.3,8.9-19.9,22.3-19.9s11.3,1.7,14.9,5c3.6,3.3,5.6,8.3,6.1,14.9h-43.3M684.3,342.2c1.5-13.3,8.9-19.9,22.3-19.9s11.3,1.7,14.9,5c3.6,3.3,5.6,8.3,6.1,14.9h-43.3"/>
    <path class="st4" d="M750.6,363.9v16.4h10.5v-29.9c0-9.4,1.8-16.4,5.5-20.9,3.7-4.5,8.8-6.7,15.5-6.7s10.9,1.7,13.7,5,4.2,9.1,4.2,17.3v35.3h10.5v-36.8c0-10-2.2-17.5-6.7-22.5-4.5-5-10.8-7.5-18.9-7.5s-11.9,1.6-16.3,4.9c-4.4,3.3-7.5,8.2-9.3,14.8l-2-18.4h-6.8v16.4"/>
    <path class="st4" d="M825.9,363.9v16.4h10.5v-29.9c0-9.4,1.8-16.4,5.5-20.9,3.7-4.5,8.8-6.7,15.5-6.7s10.9,1.7,13.7,5c2.8,3.3,4.2,9.1,4.2,17.3v35.3h10.5v-36.8c0-10-2.2-17.5-6.7-22.5-4.5-5-10.8-7.5-18.9-7.5s-11.9,1.6-16.3,4.9c-4.4,3.3-7.5,8.2-9.3,14.8l-2-18.4h-6.8v16.4"/>
    <path class="st4" d="M901,363.9v16.4h10.5v-16.4M911.5,331.1v-16.4h-10.5v16.4"/>
    <path class="st4" d="M911.7,290.7c1.4,1.4,2,3.1,2,5.3s-.7,4-2,5.4c-1.4,1.4-3.2,2-5.5,2s-4.1-.7-5.5-2c-1.4-1.4-2-3.2-2-5.4s.7-3.9,2-5.3c1.4-1.4,3.2-2,5.5-2s4.1.7,5.5,2,2,3.1,2,5.3-.7,4-2,5.4c-1.4,1.4-3.2,2-5.5,2s-4.1-.7-5.5-2c-1.4-1.4-2-3.2-2-5.4s.7-3.9,2-5.3c1.4-1.4,3.2-2,5.5-2s4.1.7,5.5,2M911.7,290.7c1.4,1.4,2,3.1,2,5.3s-.7,4-2,5.4c-1.4,1.4-3.2,2-5.5,2s-4.1-.7-5.5-2c-1.4-1.4-2-3.2-2-5.4s.7-3.9,2-5.3c1.4-1.4,3.2-2,5.5-2s4.1.7,5.5,2"/>
    <path class="st4" d="M979,319.6c-4.7-4.1-12.1-6.2-22.2-6.2s-16.7,2-21.6,6.1c-4.9,4-7.7,9.7-8.2,17.1h10.6c.6-4.6,2.4-8.1,5.5-10.5,3.1-2.4,7.8-3.6,14.2-3.6s11.1,1.3,14,3.9c2.9,2.6,4.3,6.7,4.3,12.3v2.4l-24.5,1.7c-9.9.7-17,2.8-21.2,6.2-4.2,3.4-6.4,8-6.4,13.7s2.1,10.3,6.3,13.7c4.2,3.4,10.4,5.1,18.6,5.1s14-1.9,19-5.6c5-3.8,8.3-8.4,9.8-13.8l2.1,18.2h6.8v-42.2c0-8.2-2.4-14.3-7.1-18.4s-12.1-6.2-22.2-6.2-16.7,2-21.6,6.1c-4.9,4-7.7,9.7-8.2,17.1h10.6c.6-4.6,2.4-8.1,5.5-10.5,3.1-2.4,7.8-3.6,14.2-3.6s11.1,1.3,14,3.9c2.9,2.6,4.3,6.7,4.3,12.3v2.4l-24.5,1.7c-9.9.7-17,2.8-21.2,6.2-4.2,3.4-6.4,8-6.4,13.7s2.1,10.3,6.3,13.7c4.2,3.4,10.4,5.1,18.6,5.1s14-1.9,19-5.6c5-3.8,8.3-8.4,9.8-13.8l2.1,18.2h6.8v-42.2c0-8.2-2.4-14.3-7.1-18.4M979,319.6c-4.7-4.1-12.1-6.2-22.2-6.2s-16.7,2-21.6,6.1c-4.9,4-7.7,9.7-8.2,17.1h10.6c.6-4.6,2.4-8.1,5.5-10.5,3.1-2.4,7.8-3.6,14.2-3.6s11.1,1.3,14,3.9c2.9,2.6,4.3,6.7,4.3,12.3v2.4l-24.5,1.7c-9.9.7-17,2.8-21.2,6.2-4.2,3.4-6.4,8-6.4,13.7s2.1,10.3,6.3,13.7c4.2,3.4,10.4,5.1,18.6,5.1s14-1.9,19-5.6c5-3.8,8.3-8.4,9.8-13.8l2.1,18.2h6.8v-42.2c0-8.2-2.4-14.3-7.1-18.4"/>
    <path class="st4" d="M963.4,370.3c-4,2-8.7,3-14,3s-8.8-1-11.3-3c-2.5-2-3.8-4.5-3.8-7.7,0-6.8,6-10.6,17.9-11.6l23.9-1.9c0,4.7-1.1,8.9-3.3,12.6-2.2,3.7-5.4,6.5-9.4,8.5s-8.7,3-14,3-8.8-1-11.3-3c-2.5-2-3.8-4.5-3.8-7.7,0-6.8,6-10.6,17.9-11.6l23.9-1.9c0,4.7-1.1,8.9-3.3,12.6-2.2,3.7-5.4,6.5-9.4,8.5M963.4,370.3c-4,2-8.7,3-14,3s-8.8-1-11.3-3c-2.5-2-3.8-4.5-3.8-7.7,0-6.8,6-10.6,17.9-11.6l23.9-1.9c0,4.7-1.1,8.9-3.3,12.6-2.2,3.7-5.4,6.5-9.4,8.5"/>
    <path class="st4" d="M1012.1,312.5v-22.6h-10.5v22.6M1001.5,357.7v22.6h10.5v-22.6"/>
    <path class="st11" d="M1080,99.5h-10.5v90.3h10.5v-90.3ZM1031.3,179.9c-4,2-8.7,3-14,3s-8.8-1-11.3-3c-2.5-2-3.8-4.5-3.8-7.7,0-6.8,6-10.6,17.9-11.6l23.9-1.9c0,4.7-1.1,8.9-3.3,12.6-2.2,3.7-5.4,6.5-9.4,8.5M1046.9,129.2c-4.7-4.1-12.1-6.2-22.2-6.2s-16.7,2-21.6,6.1c-4.9,4-7.7,9.7-8.2,17.1h10.6c.6-4.6,2.4-8.1,5.5-10.5,3.1-2.4,7.8-3.6,14.2-3.6s11.1,1.3,14,3.9c2.9,2.6,4.3,6.7,4.3,12.3v2.4l-24.5,1.7c-9.9.7-17,2.8-21.2,6.2-4.2,3.4-6.4,8-6.4,13.7s2.1,10.2,6.3,13.7c4.2,3.4,10.4,5.1,18.6,5.1s14-1.9,19-5.6c5-3.8,8.3-8.4,9.8-13.8l2.1,18.2h6.8v-42.2c0-8.2-2.4-14.3-7.1-18.4M979.6,100.3c1.4,1.4,2,3.1,2,5.3s-.7,4-2,5.4c-1.4,1.4-3.2,2-5.5,2s-4.1-.7-5.5-2c-1.4-1.4-2-3.2-2-5.4s.7-3.9,2-5.3c1.4-1.4,3.2-2,5.5-2s4.1.7,5.5,2M979.4,124.3h-10.5v65.6h10.5v-65.6ZM947.2,130.6c-4.5-5-10.8-7.5-18.9-7.5s-11.9,1.6-16.3,4.9c-4.4,3.3-7.5,8.2-9.3,14.8l-2-18.4h-6.8v65.6h10.5v-29.9c0-9.4,1.8-16.4,5.5-20.9s8.8-6.7,15.5-6.7,10.9,1.7,13.7,5c2.8,3.3,4.2,9.1,4.2,17.3v35.3h10.5v-36.8c0-10-2.2-17.5-6.7-22.5M871.9,130.6c-4.5-5-10.8-7.5-18.9-7.5s-11.9,1.6-16.3,4.9c-4.4,3.3-7.5,8.2-9.3,14.8l-2-18.4h-6.8v65.6h10.5v-29.9c0-9.4,1.8-16.4,5.5-20.9,3.7-4.5,8.8-6.7,15.5-6.7s10.9,1.7,13.7,5c2.8,3.3,4.2,9.1,4.2,17.3v35.3h10.5v-36.8c0-10-2.2-17.5-6.7-22.5M752.2,151.7c1.5-13.3,8.9-19.9,22.3-19.9s11.3,1.7,14.9,5c3.6,3.3,5.6,8.3,6.1,14.9h-43.3ZM805.7,160.1c.3-1.9.5-4,.5-6.4,0-6.1-1.3-11.5-3.9-16.1-2.6-4.6-6.3-8.2-11-10.8-4.7-2.6-10.3-3.8-16.8-3.8s-12.6,1.3-17.6,4c-5,2.7-8.8,6.5-11.5,11.4-2.7,5-4,10.8-4,17.4v2.2c0,6.7,1.3,12.5,4,17.4,2.7,5,6.5,8.8,11.4,11.4s10.7,4,17.3,4,16.2-2.1,21.2-6.2c5.1-4.2,8.3-9.5,9.6-16h-10.8c-1.4,4-3.6,7.2-6.6,9.5s-7.4,3.5-13.2,3.5c-13.8,0-21.2-7.2-22.3-21.7h53.6ZM729.7,100.3c1.4,1.4,2,3.1,2,5.3s-.7,4-2,5.4c-1.4,1.4-3.2,2-5.5,2s-4.1-.7-5.5-2c-1.4-1.4-2-3.2-2-5.4s.7-3.9,2-5.3c1.4-1.4,3.2-2,5.5-2s4.1.7,5.5,2M729.5,124.3h-10.5v65.6h10.5v-65.6ZM690.5,175.7c-3.8,4.1-9.3,6.1-16.5,6.1s-12.7-2.1-16.6-6.2c-3.9-4.2-5.8-10.3-5.8-18.3s1.9-14.5,5.8-18.7c3.9-4.2,9.4-6.3,16.6-6.3s12.8,2.1,16.6,6.2c3.8,4.2,5.7,10.4,5.7,18.7s-1.9,14.3-5.8,18.4M692.5,127c-4.5-2.7-9.5-4-15.2-4s-11.2,1.4-15.7,4.1c-4.5,2.8-7.9,6.7-10.1,11.7v-39.4h-10.5v90.3h6.8l2-18.2c2,6.1,5.4,10.9,10.2,14.3,4.8,3.4,10.6,5.1,17.3,5.1s10.7-1.3,15.2-4,8-6.5,10.6-11.5c2.6-5,3.8-10.8,3.8-17.4v-2.2c0-6.6-1.3-12.4-3.8-17.4-2.6-5-6.1-8.8-10.6-11.5"/>
    <path class="st4" d="M641,167.3v22.6h6.8l2-18.2c2,6.1,5.4,10.9,10.2,14.3,4.8,3.4,10.6,5.1,17.3,5.1s10.7-1.3,15.2-4c4.5-2.7,8-6.5,10.6-11.5,2.6-5,3.8-10.8,3.8-17.4v-2.2c0-6.6-1.3-12.4-3.8-17.4-2.6-5-6.1-8.8-10.6-11.5-4.5-2.7-9.5-4-15.2-4s-11.2,1.4-15.7,4.1c-4.5,2.8-7.9,6.7-10.1,11.7v-39.4h-10.5v22.6"/>
    <path class="st4" d="M690.5,175.7c-3.8,4.1-9.3,6.1-16.5,6.1s-12.7-2.1-16.6-6.2c-3.9-4.2-5.8-10.2-5.8-18.3s1.9-14.5,5.8-18.7c3.9-4.2,9.4-6.3,16.6-6.3s12.8,2.1,16.6,6.2,5.7,10.4,5.7,18.7-1.9,14.3-5.8,18.4-9.3,6.1-16.5,6.1-12.7-2.1-16.6-6.2c-3.9-4.2-5.8-10.2-5.8-18.3s1.9-14.5,5.8-18.7c3.9-4.2,9.4-6.3,16.6-6.3s12.8,2.1,16.6,6.2,5.7,10.4,5.7,18.7-1.9,14.3-5.8,18.4M690.5,175.7c-3.8,4.1-9.3,6.1-16.5,6.1s-12.7-2.1-16.6-6.2c-3.9-4.2-5.8-10.2-5.8-18.3s1.9-14.5,5.8-18.7c3.9-4.2,9.4-6.3,16.6-6.3s12.8,2.1,16.6,6.2,5.7,10.4,5.7,18.7-1.9,14.3-5.8,18.4"/>
    <path class="st4" d="M719,173.4v16.4h10.5v-16.4M729.5,140.7v-16.4h-10.5v16.4"/>
    <path class="st4" d="M729.7,100.3c1.4,1.4,2,3.1,2,5.3s-.7,4-2,5.4c-1.4,1.4-3.2,2-5.5,2s-4.1-.7-5.5-2c-1.4-1.4-2-3.2-2-5.4s.7-3.9,2-5.3c1.4-1.4,3.2-2,5.5-2s4.1.7,5.5,2,2,3.1,2,5.3-.7,4-2,5.4c-1.4,1.4-3.2,2-5.5,2s-4.1-.7-5.5-2c-1.4-1.4-2-3.2-2-5.4s.7-3.9,2-5.3c1.4-1.4,3.2-2,5.5-2s4.1.7,5.5,2M729.7,100.3c1.4,1.4,2,3.1,2,5.3s-.7,4-2,5.4c-1.4,1.4-3.2,2-5.5,2s-4.1-.7-5.5-2c-1.4-1.4-2-3.2-2-5.4s.7-3.9,2-5.3c1.4-1.4,3.2-2,5.5-2s4.1.7,5.5,2"/>
    <path class="st4" d="M792.3,160.1h13.4c.3-1.9.5-4,.5-6.4,0-6.1-1.3-11.5-3.9-16.1-2.6-4.6-6.3-8.2-11-10.8-4.7-2.6-10.3-3.8-16.8-3.8s-12.6,1.3-17.6,4c-5,2.7-8.8,6.5-11.5,11.4-2.7,5-4,10.8-4,17.4v2.2c0,6.7,1.3,12.5,4,17.4,2.7,5,6.5,8.8,11.4,11.4,5,2.7,10.7,4,17.3,4s16.1-2.1,21.2-6.2c5.1-4.2,8.3-9.5,9.6-16h-10.8c-1.4,4-3.6,7.2-6.6,9.5-3,2.3-7.4,3.5-13.2,3.5-13.8,0-21.2-7.2-22.3-21.7h13.4"/>
    <path class="st4" d="M752.2,151.7c1.5-13.3,8.9-19.9,22.3-19.9s11.3,1.7,14.9,5c3.6,3.3,5.6,8.3,6.1,14.9h-43.3c1.5-13.3,8.9-19.9,22.3-19.9s11.3,1.7,14.9,5c3.6,3.3,5.6,8.3,6.1,14.9h-43.3M752.2,151.7c1.5-13.3,8.9-19.9,22.3-19.9s11.3,1.7,14.9,5c3.6,3.3,5.6,8.3,6.1,14.9h-43.3"/>
    <path class="st4" d="M818.6,173.4v16.4h10.5v-29.9c0-9.4,1.8-16.4,5.5-20.9,3.7-4.5,8.8-6.7,15.5-6.7s10.9,1.7,13.7,5c2.8,3.3,4.2,9.1,4.2,17.3v35.3h10.5v-36.8c0-10-2.2-17.5-6.7-22.5-4.5-5-10.8-7.5-18.9-7.5s-11.9,1.6-16.3,4.9c-4.4,3.3-7.5,8.2-9.3,14.8l-2-18.4h-6.8v16.4"/>
    <path class="st4" d="M893.9,173.4v16.4h10.5v-29.9c0-9.4,1.8-16.4,5.5-20.9,3.7-4.5,8.8-6.7,15.5-6.7s10.9,1.7,13.7,5,4.2,9.1,4.2,17.3v35.3h10.5v-36.8c0-10-2.2-17.5-6.7-22.5-4.5-5-10.8-7.5-18.9-7.5s-11.9,1.6-16.3,4.9c-4.4,3.3-7.5,8.2-9.3,14.8l-2-18.4h-6.8v16.4"/>
    <path class="st4" d="M968.9,173.4v16.4h10.5v-16.4M979.4,140.7v-16.4h-10.5v16.4"/>
    <path class="st4" d="M979.6,100.3c1.4,1.4,2,3.1,2,5.3s-.7,4-2,5.4c-1.4,1.4-3.2,2-5.5,2s-4.1-.7-5.5-2c-1.4-1.4-2-3.2-2-5.4s.7-3.9,2-5.3c1.4-1.4,3.2-2,5.5-2s4.1.7,5.5,2,2,3.1,2,5.3-.7,4-2,5.4c-1.4,1.4-3.2,2-5.5,2s-4.1-.7-5.5-2c-1.4-1.4-2-3.2-2-5.4s.7-3.9,2-5.3c1.4-1.4,3.2-2,5.5-2s4.1.7,5.5,2M979.6,100.3c1.4,1.4,2,3.1,2,5.3s-.7,4-2,5.4c-1.4,1.4-3.2,2-5.5,2s-4.1-.7-5.5-2c-1.4-1.4-2-3.2-2-5.4s.7-3.9,2-5.3c1.4-1.4,3.2-2,5.5-2s4.1.7,5.5,2"/>
    <path class="st4" d="M1046.9,129.2c-4.7-4.1-12.1-6.2-22.2-6.2s-16.7,2-21.6,6.1c-4.9,4-7.7,9.7-8.2,17.1h10.6c.6-4.6,2.4-8.1,5.5-10.5,3.1-2.4,7.8-3.6,14.2-3.6s11.1,1.3,14,3.9c2.9,2.6,4.3,6.7,4.3,12.3v2.4l-24.5,1.7c-9.9.7-17,2.8-21.2,6.2-4.2,3.4-6.4,8-6.4,13.7s2.1,10.3,6.3,13.7c4.2,3.4,10.4,5.1,18.6,5.1s14-1.9,19-5.6c5-3.8,8.3-8.4,9.8-13.8l2.1,18.2h6.8v-42.2c0-8.2-2.4-14.3-7.1-18.4s-12.1-6.2-22.2-6.2-16.7,2-21.6,6.1c-4.9,4-7.7,9.7-8.2,17.1h10.6c.6-4.6,2.4-8.1,5.5-10.5,3.1-2.4,7.8-3.6,14.2-3.6s11.1,1.3,14,3.9c2.9,2.6,4.3,6.7,4.3,12.3v2.4l-24.5,1.7c-9.9.7-17,2.8-21.2,6.2-4.2,3.4-6.4,8-6.4,13.7s2.1,10.3,6.3,13.7c4.2,3.4,10.4,5.1,18.6,5.1s14-1.9,19-5.6c5-3.8,8.3-8.4,9.8-13.8l2.1,18.2h6.8v-42.2c0-8.2-2.4-14.3-7.1-18.4M1046.9,129.2c-4.7-4.1-12.1-6.2-22.2-6.2s-16.7,2-21.6,6.1c-4.9,4-7.7,9.7-8.2,17.1h10.6c.6-4.6,2.4-8.1,5.5-10.5,3.1-2.4,7.8-3.6,14.2-3.6s11.1,1.3,14,3.9c2.9,2.6,4.3,6.7,4.3,12.3v2.4l-24.5,1.7c-9.9.7-17,2.8-21.2,6.2-4.2,3.4-6.4,8-6.4,13.7s2.1,10.3,6.3,13.7c4.2,3.4,10.4,5.1,18.6,5.1s14-1.9,19-5.6c5-3.8,8.3-8.4,9.8-13.8l2.1,18.2h6.8v-42.2c0-8.2-2.4-14.3-7.1-18.4"/>
    <path class="st4" d="M1031.3,179.9c-4,2-8.7,3-14,3s-8.8-1-11.3-3c-2.5-2-3.8-4.5-3.8-7.7,0-6.8,6-10.6,17.9-11.6l23.9-1.9c0,4.7-1.1,8.9-3.3,12.6-2.2,3.7-5.4,6.5-9.4,8.5-4,2-8.7,3-14,3s-8.8-1-11.3-3c-2.5-2-3.8-4.5-3.8-7.7,0-6.8,6-10.6,17.9-11.6l23.9-1.9c0,4.7-1.1,8.9-3.3,12.6-2.2,3.7-5.4,6.5-9.4,8.5M1031.3,179.9c-4,2-8.7,3-14,3s-8.8-1-11.3-3c-2.5-2-3.8-4.5-3.8-7.7,0-6.8,6-10.6,17.9-11.6l23.9-1.9c0,4.7-1.1,8.9-3.3,12.6-2.2,3.7-5.4,6.5-9.4,8.5"/>
    <path class="st4" d="M1080,122.1v-22.6h-10.5v22.6M1069.5,167.3v22.6h10.5v-22.6"/>
    <path class="st11" d="M994.9,103.1c1.1-12,8.5-18.2,20.5-18.2s18.8,6.2,20,18.2h-40.5ZM1044.7,119h-10.1c-2.2,6.3-7.2,12.1-19.1,12.1s-20.3-6.9-20.9-20.1h50.8v-3.9c0-19.4-11.1-30.5-30-30.5s-30.8,11.1-30.8,30.5v2.1c0,19.4,11.1,30.5,30.8,30.5s27.3-9.6,29.1-20.7M924.5,77.7l-.9,26.1c-.7,21.3-5.4,25.9-12.3,25.9h-1.7v8.8h2.3c13.3,0,20.2-6.2,21-33.7l.6-18.5h30.1v52.2h9.8v-60.8h-48.8ZM865.6,131.5c-8.7,0-12.3-3.3-12.3-8.5s2.8-7.3,11-9.1l10.6-2.2c9.5-2,14.9-6.3,16.8-10.1v7c0,12.2-11.4,22.8-26.1,22.8M875.4,76.6c-18.8,0-27.5,8.3-29.7,22.1h10.1c2.2-8.7,8.3-13.5,19.1-13.5s15.3,4.5,15.3,10.4-3.3,8.3-17.3,9.8l-10.4,1.1c-13.4,1.5-18.9,7.3-18.9,16.6s6.5,16.5,18.9,16.5,24.8-7.7,29.6-18.9v17.8h9.5v-39.1c0-15.4-8.8-22.8-26-22.8M821.8,77.7v24.9h-36.4v-24.9h-9.8v60.8h9.8v-27.3h36.4v27.3h9.8v-60.8h-9.8ZM735.2,139.7c18.8,0,28.1-9.8,29.8-23.3h-10.1c-2.3,9-8.1,14.7-19.9,14.7s-20.4-6.9-21.2-19.7h27v-8.5h-26.7c1.4-11.6,8.7-17.7,20.7-17.7s17.1,5.9,19.1,13.1h10c-1.4-12.2-10.4-21.7-28.8-21.7s-31,11.1-31,30.5v2.1c0,19.4,11.1,30.5,31.2,30.5M688,67.3c4.9,0,7-2.1,7-6.9s-2.1-6.8-7-6.8-7,2.1-7,6.8,2.1,6.9,7,6.9M683.2,138.5h9.8v-60.8h-9.8v60.8ZM642.1,131.1c-13.3,0-20.9-7.6-20.9-21.6v-2.1c0-14,7.6-21.6,20.9-21.6s20.9,7.6,20.9,21.6v2.1c0,14-7.6,21.6-20.9,21.6M642.2,139.7c19.5,0,30.6-11.1,30.6-30.5v-2.1c0-18.8-10.4-29.3-28.2-29.3s-21.6,5.5-24.9,16.1c.5-20.7,6.7-26.7,21.7-27.8l17.3-1.1c4.8-.3,8.4-1.1,10-2.2v-9.4h-.3c-1.7,1.5-5,2.3-10.3,2.6l-17.7,1.1c-20.2,1.3-30,11.2-30,41.8v3.1c0,26.6,11.1,37.6,31.8,37.6"/>
    <path class="st6" d="M628.3,137.5c4,1.5,8.6,2.2,13.9,2.2,19.5,0,30.6-11.1,30.6-30.5v-2.1c0-18.8-10.4-29.3-28.2-29.3s-21.6,5.5-24.9,16.1c.5-20.7,6.7-26.7,21.7-27.8l17.3-1.1c4.8-.3,8.4-1.1,10-2.2v-9.4h-.3c-1.7,1.5-5,2.3-10.3,2.6l-17.7,1.1c-5.5.3-10.3,1.3-14.2,3.2M611.3,84.3c-.6,4.3-1,9.1-1,14.6v3.1c0,5.3.4,10,1.3,14.1"/>
    <path class="st6" d="M642.1,131.1c-13.3,0-20.9-7.6-20.9-21.6v-2.1c0-14,7.6-21.6,20.9-21.6s20.9,7.6,20.9,21.6v2.1c0,14-7.6,21.6-20.9,21.6s-20.9-7.6-20.9-21.6v-2.1c0-14,7.6-21.6,20.9-21.6s20.9,7.6,20.9,21.6v2.1c0,14-7.6,21.6-20.9,21.6M642.1,131.1c-13.3,0-20.9-7.6-20.9-21.6v-2.1c0-14,7.6-21.6,20.9-21.6s20.9,7.6,20.9,21.6v2.1c0,14-7.6,21.6-20.9,21.6"/>
    <path class="st6" d="M683.2,123.3v15.2h9.8v-15.2M692.9,92.9v-15.2h-9.8v15.2"/>
    <path class="st6" d="M688,67.3c4.9,0,7-2.1,7-6.9s-2.1-6.8-7-6.8-7,2.1-7,6.8,2.1,6.9,7,6.9,7-2.1,7-6.9-2.1-6.8-7-6.8-7,2.1-7,6.8,2.1,6.9,7,6.9M688,67.3c4.9,0,7-2.1,7-6.9s-2.1-6.8-7-6.8-7,2.1-7,6.8,2.1,6.9,7,6.9"/>
    <path class="st6" d="M735.2,139.7c18.8,0,28.1-9.8,29.8-23.3h-10.1c-2.3,9-8.1,14.7-19.9,14.7s-20.4-6.9-21.2-19.7h27v-8.5h-26.7c1.4-11.6,8.7-17.7,20.7-17.7s17.1,5.9,19,13.1h10c-1.4-12.2-10.4-21.7-28.8-21.7s-31,11.1-31,30.5v2.1c0,19.4,11.1,30.5,31.2,30.5s28.1-9.8,29.8-23.3h-10.1c-2.3,9-8.1,14.7-19.9,14.7s-20.4-6.9-21.2-19.7h27v-8.5h-26.7c1.4-11.6,8.7-17.7,20.7-17.7s17.1,5.9,19,13.1h10c-1.4-12.2-10.4-21.7-28.8-21.7s-31,11.1-31,30.5v2.1c0,19.4,11.1,30.5,31.2,30.5M735.2,139.7c18.8,0,28.1-9.8,29.8-23.3h-10.1c-2.3,9-8.1,14.7-19.9,14.7s-20.4-6.9-21.2-19.7h27v-8.5h-26.7c1.4-11.6,8.7-17.7,20.7-17.7s17.1,5.9,19,13.1h10c-1.4-12.2-10.4-21.7-28.8-21.7s-31,11.1-31,30.5v2.1c0,19.4,11.1,30.5,31.2,30.5"/>
    <path class="st6" d="M831.5,92.9v-15.2h-9.8v24.9h-36.4v-24.9h-9.8v15.2M775.6,123.3v15.2h9.8v-27.3h36.4v27.3h9.8v-15.2"/>
    <path class="st6" d="M875.4,76.6c-18.8,0-27.5,8.3-29.7,22.1h10.1c2.2-8.7,8.3-13.5,19.1-13.5s15.3,4.5,15.3,10.4-3.3,8.3-17.3,9.8l-10.4,1.1c-13.4,1.5-18.9,7.3-18.9,16.6s6.5,16.5,18.9,16.5,24.8-7.7,29.6-18.9v17.8h9.5v-39.1c0-15.4-8.8-22.8-26.1-22.8s-27.5,8.3-29.7,22.1h10.1c2.2-8.7,8.3-13.5,19.1-13.5s15.3,4.5,15.3,10.4-3.3,8.3-17.3,9.8l-10.4,1.1c-13.4,1.5-18.9,7.3-18.9,16.6s6.5,16.5,18.9,16.5,24.8-7.7,29.6-18.9v17.8h9.5v-39.1c0-15.4-8.8-22.8-26.1-22.8M875.4,76.6c-18.8,0-27.5,8.3-29.7,22.1h10.1c2.2-8.7,8.3-13.5,19.1-13.5s15.3,4.5,15.3,10.4-3.3,8.3-17.3,9.8l-10.4,1.1c-13.4,1.5-18.9,7.3-18.9,16.6s6.5,16.5,18.9,16.5,24.8-7.7,29.6-18.9v17.8h9.5v-39.1c0-15.4-8.8-22.8-26.1-22.8"/>
    <path class="st6" d="M865.6,131.5c-8.7,0-12.3-3.3-12.3-8.5s2.8-7.3,11-9.1l10.6-2.2c9.5-2,14.9-6.3,16.8-10.1v7c0,12.2-11.4,22.8-26.1,22.8s-12.3-3.3-12.3-8.5,2.8-7.3,11-9.1l10.6-2.2c9.5-2,14.9-6.3,16.8-10.1v7c0,12.2-11.4,22.8-26.1,22.8M865.6,131.5c-8.7,0-12.3-3.3-12.3-8.5s2.8-7.3,11-9.1l10.6-2.2c9.5-2,14.9-6.3,16.8-10.1v7c0,12.2-11.4,22.8-26.1,22.8"/>
    <path class="st6" d="M973.3,92.9v-15.2h-48.8l-.9,26.1c-.7,21.3-5.4,25.9-12.3,25.9h-1.7v8.8h2.3c13.3,0,20.2-6.2,21-33.7l.6-18.5h30.1v52.2h9.8v-15.2"/>
    <path class="st6" d="M1044.7,119h-10.1c-2.2,6.3-7.2,12-19,12s-20.3-6.9-20.9-20.1h50.8v-3.9c0-19.4-11.1-30.5-30-30.5s-30.8,11.1-30.8,30.5v2.1c0,19.4,11.1,30.5,30.8,30.5s27.3-9.6,29.1-20.7h-10.1c-2.2,6.3-7.2,12-19,12s-20.3-6.9-20.9-20.1h50.8v-3.9c0-19.4-11.1-30.5-30-30.5s-30.8,11.1-30.8,30.5v2.1c0,19.4,11.1,30.5,30.8,30.5s27.3-9.6,29.1-20.7M1044.7,119h-10.1c-2.2,6.3-7.2,12-19,12s-20.3-6.9-20.9-20.1h50.8v-3.9c0-19.4-11.1-30.5-30-30.5s-30.8,11.1-30.8,30.5v2.1c0,19.4,11.1,30.5,30.8,30.5s27.3-9.6,29.1-20.7"/>
    <path class="st6" d="M994.9,103.1c1.1-12,8.5-18.2,20.5-18.2s18.8,6.2,20,18.2h-40.5c1.1-12,8.5-18.2,20.5-18.2s18.8,6.2,20,18.2h-40.5M994.9,103.1c1.1-12,8.5-18.2,20.5-18.2s18.8,6.2,20,18.2h-40.5"/>
    <path class="st11" d="M872,134.6c1.1-12,8.5-18.2,20.5-18.2s18.8,6.2,20,18.2h-40.5ZM921.8,150.6h-10.1c-2.2,6.3-7.2,12.1-19,12.1s-20.3-6.9-20.9-20.1h50.8v-3.9c0-19.4-11.1-30.5-30-30.5s-30.8,11.1-30.8,30.5v2.1c0,19.4,11.1,30.5,30.8,30.5s27.3-9.6,29.1-20.7M801.6,109.3l-.9,26.1c-.7,21.3-5.4,25.9-12.3,25.9h-1.7v8.8h2.3c13.3,0,20.2-6.2,21-33.7l.6-18.5h30.1v52.2h9.8v-60.8h-48.8ZM742.7,163.1c-8.7,0-12.3-3.3-12.3-8.5s2.8-7.3,11-9.1l10.6-2.2c9.5-2,14.9-6.3,16.8-10.1v7c0,12.2-11.4,22.8-26.1,22.8M752.5,108.1c-18.8,0-27.5,8.3-29.7,22.1h10.1c2.2-8.7,8.3-13.5,19.1-13.5s15.3,4.5,15.3,10.4-3.3,8.3-17.3,9.8l-10.4,1.1c-13.4,1.5-18.9,7.3-18.9,16.6s6.5,16.5,18.9,16.5,24.8-7.7,29.6-18.9v17.8h9.5v-39.1c0-15.4-8.8-22.8-26-22.8M698.8,109.3v24.9h-36.4v-24.9h-9.8v60.8h9.8v-27.3h36.4v27.3h9.8v-60.8h-9.8ZM612.3,171.2c18.8,0,28.1-9.8,29.8-23.3h-10.1c-2.3,9-8.1,14.7-19.9,14.7s-20.4-6.9-21.2-19.7h27v-8.5h-26.7c1.4-11.6,8.7-17.7,20.7-17.7s17.1,5.9,19.1,13.1h10c-1.4-12.2-10.4-21.7-28.8-21.7s-31,11.1-31,30.5v2.1c0,19.4,11.1,30.5,31.2,30.5M565.1,98.8c4.9,0,7-2.1,7-6.9s-2.1-6.8-7-6.8-7,2.1-7,6.8,2.1,6.9,7,6.9M560.3,170.1h9.8v-60.8h-9.8v60.8ZM519.1,162.6c-13.3,0-20.9-7.6-20.9-21.6v-2.1c0-14,7.6-21.6,20.9-21.6s20.9,7.6,20.9,21.6v2.1c0,14-7.6,21.6-20.9,21.6M519.2,171.2c19.5,0,30.6-11.1,30.6-30.5v-2.1c0-18.8-10.4-29.3-28.2-29.3s-21.6,5.5-24.9,16.1c.5-20.7,6.7-26.7,21.7-27.8l17.3-1.1c4.8-.3,8.4-1.1,10-2.2v-9.4h-.3c-1.7,1.5-5,2.3-10.3,2.6l-17.7,1.1c-20.2,1.3-30,11.2-30,41.8v3.1c0,26.6,11.1,37.6,31.8,37.6"/>
    <path class="st6" d="M505.3,169c4,1.5,8.6,2.2,13.9,2.2,19.5,0,30.6-11.1,30.6-30.5v-2.1c0-18.8-10.4-29.3-28.2-29.3s-21.6,5.5-24.9,16.1c.5-20.7,6.7-26.7,21.7-27.8l17.3-1.1c4.8-.3,8.4-1.1,10-2.2v-9.4h-.3c-1.7,1.5-5,2.3-10.3,2.6l-17.7,1.1c-5.5.3-10.3,1.3-14.2,3.2M488.4,115.9c-.6,4.3-1,9.1-1,14.6v3.1c0,5.3.4,10,1.3,14.1"/>
    <path class="st6" d="M519.1,162.6c-13.3,0-20.9-7.6-20.9-21.6v-2.1c0-14,7.6-21.6,20.9-21.6s20.9,7.6,20.9,21.6v2.1c0,14-7.6,21.6-20.9,21.6s-20.9-7.6-20.9-21.6v-2.1c0-14,7.6-21.6,20.9-21.6s20.9,7.6,20.9,21.6v2.1c0,14-7.6,21.6-20.9,21.6M519.1,162.6c-13.3,0-20.9-7.6-20.9-21.6v-2.1c0-14,7.6-21.6,20.9-21.6s20.9,7.6,20.9,21.6v2.1c0,14-7.6,21.6-20.9,21.6"/>
    <path class="st6" d="M560.3,154.9v15.2h9.8v-15.2M570,124.5v-15.2h-9.8v15.2"/>
    <path class="st6" d="M565.1,98.8c4.9,0,7-2.1,7-6.9s-2.1-6.8-7-6.8-7,2.1-7,6.8,2.1,6.9,7,6.9,7-2.1,7-6.9-2.1-6.8-7-6.8-7,2.1-7,6.8,2.1,6.9,7,6.9M565.1,98.8c4.9,0,7-2.1,7-6.9s-2.1-6.8-7-6.8-7,2.1-7,6.8,2.1,6.9,7,6.9"/>
    <path class="st6" d="M612.3,171.2c18.8,0,28.1-9.8,29.8-23.3h-10.1c-2.3,9-8.1,14.7-19.9,14.7s-20.4-6.9-21.2-19.7h27v-8.5h-26.7c1.4-11.6,8.7-17.7,20.7-17.7s17.1,5.9,19,13.1h10c-1.4-12.2-10.4-21.7-28.8-21.7s-31,11.1-31,30.5v2.1c0,19.4,11.1,30.5,31.2,30.5s28.1-9.8,29.8-23.3h-10.1c-2.3,9-8.1,14.7-19.9,14.7s-20.4-6.9-21.2-19.7h27v-8.5h-26.7c1.4-11.6,8.7-17.7,20.7-17.7s17.1,5.9,19,13.1h10c-1.4-12.2-10.4-21.7-28.8-21.7s-31,11.1-31,30.5v2.1c0,19.4,11.1,30.5,31.2,30.5M612.3,171.2c18.8,0,28.1-9.8,29.8-23.3h-10.1c-2.3,9-8.1,14.7-19.9,14.7s-20.4-6.9-21.2-19.7h27v-8.5h-26.7c1.4-11.6,8.7-17.7,20.7-17.7s17.1,5.9,19,13.1h10c-1.4-12.2-10.4-21.7-28.8-21.7s-31,11.1-31,30.5v2.1c0,19.4,11.1,30.5,31.2,30.5"/>
    <path class="st6" d="M708.6,124.5v-15.2h-9.8v24.9h-36.4v-24.9h-9.8v15.2M652.7,154.9v15.2h9.8v-27.3h36.4v27.3h9.8v-15.2"/>
    <path class="st6" d="M752.5,108.1c-18.8,0-27.5,8.3-29.7,22.1h10.1c2.2-8.7,8.3-13.5,19.1-13.5s15.3,4.5,15.3,10.4-3.3,8.3-17.3,9.8l-10.4,1.1c-13.4,1.5-18.9,7.3-18.9,16.6s6.5,16.5,18.9,16.5,24.8-7.7,29.6-18.9v17.8h9.5v-39.1c0-15.4-8.8-22.8-26.1-22.8s-27.5,8.3-29.7,22.1h10.1c2.2-8.7,8.3-13.5,19.1-13.5s15.3,4.5,15.3,10.4-3.3,8.3-17.3,9.8l-10.4,1.1c-13.4,1.5-18.9,7.3-18.9,16.6s6.5,16.5,18.9,16.5,24.8-7.7,29.6-18.9v17.8h9.5v-39.1c0-15.4-8.8-22.8-26.1-22.8M752.5,108.1c-18.8,0-27.5,8.3-29.7,22.1h10.1c2.2-8.7,8.3-13.5,19.1-13.5s15.3,4.5,15.3,10.4-3.3,8.3-17.3,9.8l-10.4,1.1c-13.4,1.5-18.9,7.3-18.9,16.6s6.5,16.5,18.9,16.5,24.8-7.7,29.6-18.9v17.8h9.5v-39.1c0-15.4-8.8-22.8-26.1-22.8"/>
    <path class="st6" d="M742.7,163.1c-8.7,0-12.3-3.3-12.3-8.5s2.8-7.3,11-9.1l10.6-2.2c9.5-2,14.9-6.3,16.8-10.1v7c0,12.2-11.4,22.8-26.1,22.8s-12.3-3.3-12.3-8.5,2.8-7.3,11-9.1l10.6-2.2c9.5-2,14.9-6.3,16.8-10.1v7c0,12.2-11.4,22.8-26.1,22.8M742.7,163.1c-8.7,0-12.3-3.3-12.3-8.5s2.8-7.3,11-9.1l10.6-2.2c9.5-2,14.9-6.3,16.8-10.1v7c0,12.2-11.4,22.8-26.1,22.8"/>
    <path class="st6" d="M850.4,124.5v-15.2h-48.8l-.9,26.1c-.7,21.3-5.4,25.9-12.3,25.9h-1.7v8.8h2.3c13.3,0,20.2-6.2,21-33.7l.6-18.5h30.1v52.2h9.8v-15.2"/>
    <path class="st6" d="M921.8,150.6h-10.1c-2.2,6.3-7.2,12-19,12s-20.3-6.9-20.9-20.1h50.8v-3.9c0-19.4-11.1-30.5-30-30.5s-30.8,11.1-30.8,30.5v2.1c0,19.4,11.1,30.5,30.8,30.5s27.3-9.6,29.1-20.7h-10.1c-2.2,6.3-7.2,12-19,12s-20.3-6.9-20.9-20.1h50.8v-3.9c0-19.4-11.1-30.5-30-30.5s-30.8,11.1-30.8,30.5v2.1c0,19.4,11.1,30.5,30.8,30.5s27.3-9.6,29.1-20.7M921.8,150.6h-10.1c-2.2,6.3-7.2,12-19,12s-20.3-6.9-20.9-20.1h50.8v-3.9c0-19.4-11.1-30.5-30-30.5s-30.8,11.1-30.8,30.5v2.1c0,19.4,11.1,30.5,30.8,30.5s27.3-9.6,29.1-20.7"/>
    <path class="st6" d="M872,134.6c1.1-12,8.5-18.2,20.5-18.2s18.8,6.2,20,18.2h-40.5c1.1-12,8.5-18.2,20.5-18.2s18.8,6.2,20,18.2h-40.5M872,134.6c1.1-12,8.5-18.2,20.5-18.2s18.8,6.2,20,18.2h-40.5"/>
  </g>
</svg>