<?xml version="1.0" encoding="UTF-8"?>
<svg id="Ebene_1" xmlns="http://www.w3.org/2000/svg" xmlns:xlink="http://www.w3.org/1999/xlink" version="1.1" viewBox="0 0 401 600">
  <!-- Generator: Adobe Illustrator 29.6.1, SVG Export Plug-In . SVG Version: 2.1.1 Build 9)  -->
  <defs>
    <style>
      .st0, .st1, .st2, .st3, .st4, .st5, .st6 {
        fill: none;
      }

      .st7, .st8, .st9 {
        isolation: isolate;
      }

      .st10 {
        clip-path: url(#clippath-1);
      }

      .st11 {
        fill: #fff;
      }

      .st1, .st2, .st3 {
        stroke: #b9c7ca;
      }

      .st1, .st6 {
        stroke-width: 13.9px;
      }

      .st2, .st4 {
        stroke-width: 11.9px;
      }

      .st3, .st5 {
        stroke-width: 12.4px;
      }

      .st8 {
        font-size: 26.3px;
      }

      .st8, .st9 {
        font-family: ArialMT-Condensed, 'Arial MT';
      }

      .st12 {
        fill: #e96223;
      }

      .st13 {
        clip-path: url(#clippath);
      }

      .st9 {
        font-size: 10px;
      }

      .st4, .st5, .st6 {
        stroke: #e96223;
      }
    </style>
    <clipPath id="clippath">
      <rect class="st0" x="-397" y="0" width="800" height="600"/>
    </clipPath>
    <clipPath id="clippath-1">
      <rect class="st0" x="-397" y="0" width="800" height="600"/>
    </clipPath>
  </defs>
  <g class="st7">
    <text class="st8" transform="translate(314 30.6)"><tspan x="0" y="0">en</tspan></text>
  </g>
  <g class="st7">
    <text class="st8" transform="translate(354.7 30.6)"><tspan x="0" y="0">ua</tspan></text>
  </g>
  <g class="st7">
    <text class="st9" transform="translate(-377 534.3)"><tspan x="0" y="0">a</tspan></text>
    <text class="st9" transform="translate(-371.5 534.3)"><tspan x="0" y="0">r</tspan></text>
    <text class="st9" transform="translate(-367.3 534.3)"><tspan x="0" y="0">t</tspan></text>
    <text class="st9" transform="translate(-363.5 534.3)"><tspan x="0" y="0">w</tspan></text>
    <text class="st9" transform="translate(-355.9 534.3)"><tspan x="0" y="0">or</tspan></text>
    <text class="st9" transform="translate(-345.7 534.3)"><tspan x="0" y="0">k</tspan></text>
    <text class="st9" transform="translate(-340 534.3)"><tspan x="0" y="0">s..</tspan></text>
  </g>
  <g class="st13">
    <g>
      <path class="st11" d="M358.6,258.3l-26.6-40.7,24.1-24.9h-13.5l-34.9,36.6v-61.4h-10.5v90.3h10.5v-17.1l16.6-17.2,21.9,34.3h12.4Z"/>
      <path class="st3" d="M297.2,235.7v22.6h10.5v-17.1l16.6-17.2,21.9,34.3h12.4l-26.6-40.7,24.1-24.9h-13.5l-8.7,9.2M307.7,183.3v-15.3h-10.5v22.6M316.4,220.1l-8.7,9.2v-15.3"/>
      <path class="st3" d="M383.8,242.6l7,16.6c-2.4,5.9-4.7,9.9-7,12.2-2.3,2.3-5.1,3.4-8.4,3.4s-4.8-.2-7.4-.6v8.8c2.6.7,5.2,1.1,7.8,1.1,4.1,0,7.6-.7,10.5-2.2s5.5-3.8,7.7-7.1c2.3-3.2,4.6-7.6,6.9-13.2l7-17.2M379.9,206.1l-5.5-13.4h-11.5l7,16.6M401.7,233l-5.4,13.4-5.5-13.4"/>
      <path class="st11" d="M32.7,325.8h-10.5v90.3h10.5v-90.3Z"/>
      <path class="st2" d="M32.7,348.4v-22.6h-10.5v22.6M22.1,393.5v22.6h10.5v-22.6"/>
      <path class="st11" d="M100.6,135.4h-10.5v90.3h10.5v-90.3ZM51.9,215.7c-4,2-8.7,3-14,3s-8.8-1-11.3-3-3.8-4.5-3.8-7.7c0-6.8,6-10.6,17.9-11.6l23.9-1.9c0,4.7-1.1,8.9-3.3,12.6-2.2,3.7-5.4,6.5-9.4,8.5M67.5,165c-4.7-4.1-12.1-6.2-22.2-6.2s-16.7,2-21.6,6.1c-4.9,4-7.7,9.7-8.2,17.1h10.6c.6-4.6,2.4-8.1,5.5-10.5,3.1-2.4,7.8-3.6,14.2-3.6s11.1,1.3,14,3.9c2.9,2.6,4.3,6.7,4.3,12.3v2.4l-24.5,1.7c-9.9.7-17,2.8-21.2,6.2-4.2,3.4-6.4,8-6.4,13.7s2.1,10.2,6.3,13.7c4.2,3.4,10.4,5.1,18.6,5.1s14-1.9,19-5.6c5-3.8,8.3-8.4,9.8-13.8l2.1,18.2h6.8v-42.2c0-8.2-2.4-14.3-7.1-18.4M.2,136.2c1.4,1.4,2,3.1,2,5.3s-.7,4-2,5.4c-1.4,1.4-3.2,2-5.5,2s-4.1-.7-5.5-2c-1.4-1.4-2-3.2-2-5.4s.7-3.9,2-5.3c1.4-1.4,3.2-2,5.5-2s4.1.7,5.5,2M0,160.1h-10.5v65.6H0v-65.6Z"/>
      <path class="st2" d="M-10.5,209.3v16.4H0v-16.4M0,176.5v-16.4h-10.5v16.4"/>
      <path class="st2" d="M.2,136.2c1.4,1.4,2,3.1,2,5.3s-.7,4-2,5.4c-1.4,1.4-3.2,2-5.5,2s-4.1-.7-5.5-2-2-3.2-2-5.4.7-3.9,2-5.3c1.4-1.4,3.2-2,5.5-2s4.1.7,5.5,2,2,3.1,2,5.3-.7,4-2,5.4c-1.4,1.4-3.2,2-5.5,2s-4.1-.7-5.5-2-2-3.2-2-5.4.7-3.9,2-5.3c1.4-1.4,3.2-2,5.5-2s4.1.7,5.5,2M.2,136.2c1.4,1.4,2,3.1,2,5.3s-.7,4-2,5.4c-1.4,1.4-3.2,2-5.5,2s-4.1-.7-5.5-2-2-3.2-2-5.4.7-3.9,2-5.3c1.4-1.4,3.2-2,5.5-2s4.1.7,5.5,2"/>
      <path class="st2" d="M67.5,165c-4.7-4.1-12.1-6.2-22.2-6.2s-16.7,2-21.6,6.1c-4.9,4-7.7,9.7-8.2,17.1h10.6c.6-4.6,2.4-8.1,5.5-10.5,3.1-2.4,7.8-3.6,14.2-3.6s11.1,1.3,14,3.9c2.9,2.6,4.3,6.7,4.3,12.3v2.4l-24.5,1.7c-9.9.7-17,2.8-21.2,6.2-4.2,3.4-6.4,8-6.4,13.7s2.1,10.3,6.3,13.7,10.4,5.1,18.6,5.1,14-1.9,19-5.6c5-3.8,8.3-8.4,9.8-13.8l2.1,18.2h6.8v-42.2c0-8.2-2.4-14.3-7.1-18.4s-12.1-6.2-22.2-6.2-16.7,2-21.6,6.1c-4.9,4-7.7,9.7-8.2,17.1h10.6c.6-4.6,2.4-8.1,5.5-10.5,3.1-2.4,7.8-3.6,14.2-3.6s11.1,1.3,14,3.9c2.9,2.6,4.3,6.7,4.3,12.3v2.4l-24.5,1.7c-9.9.7-17,2.8-21.2,6.2-4.2,3.4-6.4,8-6.4,13.7s2.1,10.3,6.3,13.7,10.4,5.1,18.6,5.1,14-1.9,19-5.6c5-3.8,8.3-8.4,9.8-13.8l2.1,18.2h6.8v-42.2c0-8.2-2.4-14.3-7.1-18.4M67.5,165c-4.7-4.1-12.1-6.2-22.2-6.2s-16.7,2-21.6,6.1c-4.9,4-7.7,9.7-8.2,17.1h10.6c.6-4.6,2.4-8.1,5.5-10.5,3.1-2.4,7.8-3.6,14.2-3.6s11.1,1.3,14,3.9c2.9,2.6,4.3,6.7,4.3,12.3v2.4l-24.5,1.7c-9.9.7-17,2.8-21.2,6.2-4.2,3.4-6.4,8-6.4,13.7s2.1,10.3,6.3,13.7,10.4,5.1,18.6,5.1,14-1.9,19-5.6c5-3.8,8.3-8.4,9.8-13.8l2.1,18.2h6.8v-42.2c0-8.2-2.4-14.3-7.1-18.4"/>
      <path class="st2" d="M51.9,215.7c-4,2-8.7,3-14,3s-8.8-1-11.3-3-3.8-4.5-3.8-7.7c0-6.8,6-10.6,17.9-11.6l23.9-1.9c0,4.7-1.1,8.9-3.3,12.6-2.2,3.7-5.4,6.5-9.4,8.5-4,2-8.7,3-14,3s-8.8-1-11.3-3-3.8-4.5-3.8-7.7c0-6.8,6-10.6,17.9-11.6l23.9-1.9c0,4.7-1.1,8.9-3.3,12.6-2.2,3.7-5.4,6.5-9.4,8.5M51.9,215.7c-4,2-8.7,3-14,3s-8.8-1-11.3-3-3.8-4.5-3.8-7.7c0-6.8,6-10.6,17.9-11.6l23.9-1.9c0,4.7-1.1,8.9-3.3,12.6-2.2,3.7-5.4,6.5-9.4,8.5"/>
      <path class="st2" d="M100.6,157.9v-22.6h-10.5v22.6M90.1,203.1v22.6h10.5v-22.6"/>
      <path class="st11" d="M122.5,74.6c1.1-12,8.5-18.2,20.5-18.2s18.8,6.2,20,18.2h-40.5ZM172.3,90.6h-10.1c-2.2,6.3-7.2,12.1-19.1,12.1s-20.3-6.9-20.9-20.1h50.8v-3.9c0-19.4-11.1-30.5-30-30.5s-30.8,11.1-30.8,30.5v2.1c0,19.4,11.1,30.5,30.8,30.5s27.3-9.6,29.1-20.7M52.1,49.3l-.9,26.1c-.7,21.3-5.4,25.9-12.3,25.9h-1.7v8.8h2.3c13.3,0,20.2-6.2,21-33.7l.6-18.5h30.1v52.2h9.8v-60.8h-48.9ZM-6.8,103.1c-8.7,0-12.3-3.3-12.3-8.5s2.8-7.3,11-9.1l10.6-2.2c9.5-2,14.9-6.3,16.8-10.1v7c0,12.2-11.4,22.8-26.1,22.8M2.9,48.1c-18.8,0-27.5,8.3-29.7,22.1h10.1c2.2-8.7,8.3-13.5,19.1-13.5s15.3,4.5,15.3,10.4-3.3,8.3-17.3,9.8l-10.4,1.1c-13.4,1.5-18.9,7.3-18.9,16.6s6.5,16.5,18.9,16.5,24.8-7.7,29.6-18.9v17.8h9.5v-39.1c0-15.4-8.8-22.8-26.1-22.8"/>
      <path class="st1" d="M2.9,48.1c-18.8,0-27.5,8.3-29.7,22.1h10.1c2.2-8.7,8.3-13.5,19-13.5s15.3,4.5,15.3,10.4-3.3,8.3-17.3,9.8l-10.4,1.1c-13.4,1.5-18.9,7.3-18.9,16.6s6.5,16.5,18.9,16.5,24.8-7.7,29.6-18.9v17.8h9.5v-39.1c0-15.4-8.8-22.8-26.1-22.8s-27.5,8.3-29.7,22.1h10.1c2.2-8.7,8.3-13.5,19-13.5s15.3,4.5,15.3,10.4-3.3,8.3-17.3,9.8l-10.4,1.1c-13.4,1.5-18.9,7.3-18.9,16.6s6.5,16.5,18.9,16.5,24.8-7.7,29.6-18.9v17.8h9.5v-39.1c0-15.4-8.8-22.8-26.1-22.8M2.9,48.1c-18.8,0-27.5,8.3-29.7,22.1h10.1c2.2-8.7,8.3-13.5,19-13.5s15.3,4.5,15.3,10.4-3.3,8.3-17.3,9.8l-10.4,1.1c-13.4,1.5-18.9,7.3-18.9,16.6s6.5,16.5,18.9,16.5,24.8-7.7,29.6-18.9v17.8h9.5v-39.1c0-15.4-8.8-22.8-26.1-22.8"/>
      <path class="st1" d="M-6.8,103.1c-8.7,0-12.3-3.3-12.3-8.5s2.8-7.3,11-9.1l10.6-2.2c9.5-2,14.9-6.3,16.8-10.1v7c0,12.2-11.4,22.8-26.1,22.8s-12.3-3.3-12.3-8.5,2.8-7.3,11-9.1l10.6-2.2c9.5-2,14.9-6.3,16.8-10.1v7c0,12.2-11.4,22.8-26.1,22.8M-6.8,103.1c-8.7,0-12.3-3.3-12.3-8.5s2.8-7.3,11-9.1l10.6-2.2c9.5-2,14.9-6.3,16.8-10.1v7c0,12.2-11.4,22.8-26.1,22.8"/>
      <path class="st1" d="M100.9,64.5v-15.2h-48.8l-.9,26.1c-.7,21.3-5.4,25.9-12.3,25.9h-1.7v8.8h2.3c13.3,0,20.2-6.2,21-33.7l.6-18.5h30.1v52.2h9.8v-15.2"/>
      <path class="st1" d="M172.3,90.6h-10.1c-2.2,6.3-7.2,12-19,12s-20.3-6.9-20.9-20.1h50.8v-3.9c0-19.4-11.1-30.5-30-30.5s-30.8,11.1-30.8,30.5v2.1c0,19.4,11.1,30.5,30.8,30.5s27.3-9.6,29.1-20.7h-10.1c-2.2,6.3-7.2,12-19,12s-20.3-6.9-20.9-20.1h50.8v-3.9c0-19.4-11.1-30.5-30-30.5s-30.8,11.1-30.8,30.5v2.1c0,19.4,11.1,30.5,30.8,30.5s27.3-9.6,29.1-20.7M172.3,90.6h-10.1c-2.2,6.3-7.2,12-19,12s-20.3-6.9-20.9-20.1h50.8v-3.9c0-19.4-11.1-30.5-30-30.5s-30.8,11.1-30.8,30.5v2.1c0,19.4,11.1,30.5,30.8,30.5s27.3-9.6,29.1-20.7"/>
      <path class="st1" d="M122.5,74.6c1.1-12,8.5-18.2,20.5-18.2s18.8,6.2,20,18.2h-40.5c1.1-12,8.5-18.2,20.5-18.2s18.8,6.2,20,18.2h-40.5M122.5,74.6c1.1-12,8.5-18.2,20.5-18.2s18.8,6.2,20,18.2h-40.5"/>
      <path class="st11" d="M-5.2,156.3c1.1-12,8.5-18.2,20.5-18.2s18.8,6.2,20,18.2H-5.2ZM44.6,172.3h-10.1c-2.2,6.3-7.2,12.1-19.1,12.1s-20.3-6.9-20.9-20.1h50.8v-3.9c0-19.4-11.1-30.5-30-30.5s-30.8,11.1-30.8,30.5v2.1c0,19.4,11.1,30.5,30.8,30.5s27.3-9.6,29.1-20.7"/>
      <path class="st1" d="M44.6,172.3h-10.1c-2.2,6.3-7.2,12-19,12s-20.3-6.9-20.9-20.1h50.8v-3.9c0-19.4-11.1-30.5-30-30.5s-30.8,11.1-30.8,30.5v2.1c0,19.4,11.1,30.5,30.8,30.5s27.3-9.6,29.1-20.7h-10.1c-2.2,6.3-7.2,12-19,12s-20.3-6.9-20.9-20.1h50.8v-3.9c0-19.4-11.1-30.5-30-30.5s-30.8,11.1-30.8,30.5v2.1c0,19.4,11.1,30.5,30.8,30.5s27.3-9.6,29.1-20.7M44.6,172.3h-10.1c-2.2,6.3-7.2,12-19,12s-20.3-6.9-20.9-20.1h50.8v-3.9c0-19.4-11.1-30.5-30-30.5s-30.8,11.1-30.8,30.5v2.1c0,19.4,11.1,30.5,30.8,30.5s27.3-9.6,29.1-20.7"/>
      <path class="st1" d="M-5.2,156.3c1.1-12,8.5-18.2,20.5-18.2s18.8,6.2,20,18.2H-5.2c1.1-12,8.5-18.2,20.5-18.2s18.8,6.2,20,18.2H-5.2M-5.2,156.3c1.1-12,8.5-18.2,20.5-18.2s18.8,6.2,20,18.2H-5.2"/>
      <path class="st11" d="M367,229.5c1.1-12,8.5-18.2,20.5-18.2s18.8,6.2,20,18.2h-40.5ZM416.8,245.5h-10.1c-2.2,6.3-7.2,12.1-19,12.1s-20.3-6.9-20.9-20.1h50.8v-3.9c0-19.4-11.1-30.5-30-30.5s-30.8,11.1-30.8,30.5v2.1c0,19.4,11.1,30.5,30.8,30.5s27.3-9.6,29.1-20.7M296.6,204.2l-.9,26.1c-.7,21.3-5.4,25.9-12.3,25.9h-1.7v8.8h2.3c13.3,0,20.2-6.2,21-33.7l.6-18.5h30.1v52.2h9.8v-60.8h-48.9ZM237.7,258c-8.7,0-12.3-3.3-12.3-8.5s2.8-7.3,11-9.1l10.6-2.2c9.5-2,14.9-6.3,16.8-10.1v7c0,12.2-11.4,22.8-26.1,22.8M247.4,203c-18.8,0-27.5,8.3-29.7,22.1h10.1c2.2-8.7,8.3-13.5,19.1-13.5s15.3,4.5,15.3,10.4-3.3,8.3-17.3,9.8l-10.4,1.1c-13.4,1.5-18.9,7.3-18.9,16.6s6.5,16.5,18.9,16.5,24.8-7.7,29.6-18.9v17.8h9.5v-39.1c0-15.4-8.8-22.8-26-22.8M193.8,204.2v24.9h-36.4v-24.9h-9.8v60.8h9.8v-27.3h36.4v27.3h9.8v-60.8h-9.8,0ZM107.3,266.1c18.8,0,28.1-9.8,29.8-23.3h-10.1c-2.3,9-8.1,14.7-19.9,14.7s-20.4-6.9-21.2-19.7h27v-8.5h-26.7c1.4-11.6,8.7-17.7,20.7-17.7s17.1,5.9,19.1,13.1h10c-1.4-12.2-10.4-21.7-28.8-21.7s-31,11.1-31,30.5v2.1c0,19.4,11.1,30.5,31.2,30.5M60.1,193.7c4.9,0,7-2.1,7-6.9s-2.1-6.8-7-6.8-7,2.1-7,6.8,2.1,6.9,7,6.9M55.3,265h9.8v-60.8h-9.8v60.8ZM14.1,257.5c-13.3,0-20.9-7.6-20.9-21.6v-2.1c0-14,7.6-21.6,20.9-21.6s20.9,7.6,20.9,21.6v2.1c0,14-7.6,21.6-20.9,21.6M14.2,266.1c19.5,0,30.6-11.1,30.6-30.5v-2.1c0-18.8-10.4-29.3-28.2-29.3s-21.6,5.5-24.9,16.1c.5-20.7,6.7-26.7,21.7-27.8l17.3-1.1c4.8-.3,8.4-1.1,10-2.2v-9.4h-.3c-1.7,1.5-5,2.3-10.3,2.6l-17.7,1.1c-20.2,1.3-30,11.2-30,41.8v3.1c0,26.6,11.1,37.6,31.8,37.6"/>
      <path class="st1" d="M.3,263.9c4,1.5,8.6,2.2,13.9,2.2,19.5,0,30.6-11.1,30.6-30.5v-2.1c0-18.8-10.4-29.3-28.2-29.3s-21.6,5.5-24.9,16.1c.5-20.7,6.7-26.7,21.7-27.8l17.3-1.1c4.8-.3,8.4-1.1,10-2.2v-9.4h-.3c-1.7,1.5-5,2.3-10.3,2.6l-17.7,1.1c-5.5.3-10.3,1.3-14.2,3.2M-16.6,210.7c-.6,4.3-1,9.1-1,14.6v3.1c0,5.3.4,10,1.3,14.1"/>
      <path class="st1" d="M14.1,257.5c-13.3,0-20.9-7.6-20.9-21.6v-2.1c0-14,7.6-21.6,20.9-21.6s20.9,7.6,20.9,21.6v2.1c0,14-7.6,21.6-20.9,21.6s-20.9-7.6-20.9-21.6v-2.1c0-14,7.6-21.6,20.9-21.6s20.9,7.6,20.9,21.6v2.1c0,14-7.6,21.6-20.9,21.6M14.1,257.5c-13.3,0-20.9-7.6-20.9-21.6v-2.1c0-14,7.6-21.6,20.9-21.6s20.9,7.6,20.9,21.6v2.1c0,14-7.6,21.6-20.9,21.6"/>
      <path class="st1" d="M55.3,249.8v15.2h9.8v-15.2M65,219.4v-15.2h-9.8v15.2"/>
      <path class="st1" d="M60.1,193.7c4.9,0,7-2.1,7-6.9s-2.1-6.8-7-6.8-7,2.1-7,6.8,2.1,6.9,7,6.9,7-2.1,7-6.9-2.1-6.8-7-6.8-7,2.1-7,6.8,2.1,6.9,7,6.9M60.1,193.7c4.9,0,7-2.1,7-6.9s-2.1-6.8-7-6.8-7,2.1-7,6.8,2.1,6.9,7,6.9"/>
      <path class="st1" d="M107.3,266.1c18.8,0,28.1-9.8,29.8-23.3h-10.1c-2.3,9-8.1,14.7-19.9,14.7s-20.4-6.9-21.2-19.7h27v-8.5h-26.7c1.4-11.6,8.7-17.7,20.7-17.7s17.1,5.9,19,13.1h10c-1.4-12.2-10.4-21.7-28.8-21.7s-31,11.1-31,30.5v2.1c0,19.4,11.1,30.5,31.2,30.5s28.1-9.8,29.8-23.3h-10.1c-2.3,9-8.1,14.7-19.9,14.7s-20.4-6.9-21.2-19.7h27v-8.5h-26.7c1.4-11.6,8.7-17.7,20.7-17.7s17.1,5.9,19,13.1h10c-1.4-12.2-10.4-21.7-28.8-21.7s-31,11.1-31,30.5v2.1c0,19.4,11.1,30.5,31.2,30.5M107.3,266.1c18.8,0,28.1-9.8,29.8-23.3h-10.1c-2.3,9-8.1,14.7-19.9,14.7s-20.4-6.9-21.2-19.7h27v-8.5h-26.7c1.4-11.6,8.7-17.7,20.7-17.7s17.1,5.9,19,13.1h10c-1.4-12.2-10.4-21.7-28.8-21.7s-31,11.1-31,30.5v2.1c0,19.4,11.1,30.5,31.2,30.5"/>
      <path class="st1" d="M203.6,219.4v-15.2h-9.8v24.9h-36.4v-24.9h-9.8v15.2M147.7,249.8v15.2h9.8v-27.3h36.4v27.3h9.8v-15.2"/>
      <path class="st1" d="M247.4,203c-18.8,0-27.5,8.3-29.7,22.1h10.1c2.2-8.7,8.3-13.5,19.1-13.5s15.3,4.5,15.3,10.4-3.3,8.3-17.3,9.8l-10.4,1.1c-13.4,1.5-18.9,7.3-18.9,16.6s6.5,16.5,18.9,16.5,24.8-7.7,29.6-18.9v17.8h9.5v-39.1c0-15.4-8.8-22.8-26.1-22.8s-27.5,8.3-29.7,22.1h10.1c2.2-8.7,8.3-13.5,19.1-13.5s15.3,4.5,15.3,10.4-3.3,8.3-17.3,9.8l-10.4,1.1c-13.4,1.5-18.9,7.3-18.9,16.6s6.5,16.5,18.9,16.5,24.8-7.7,29.6-18.9v17.8h9.5v-39.1c0-15.4-8.8-22.8-26.1-22.8M247.4,203c-18.8,0-27.5,8.3-29.7,22.1h10.1c2.2-8.7,8.3-13.5,19.1-13.5s15.3,4.5,15.3,10.4-3.3,8.3-17.3,9.8l-10.4,1.1c-13.4,1.5-18.9,7.3-18.9,16.6s6.5,16.5,18.9,16.5,24.8-7.7,29.6-18.9v17.8h9.5v-39.1c0-15.4-8.8-22.8-26.1-22.8"/>
      <path class="st1" d="M237.7,258c-8.7,0-12.3-3.3-12.3-8.5s2.8-7.3,11-9.1l10.6-2.2c9.5-2,14.9-6.3,16.8-10.1v7c0,12.2-11.4,22.8-26.1,22.8s-12.3-3.3-12.3-8.5,2.8-7.3,11-9.1l10.6-2.2c9.5-2,14.9-6.3,16.8-10.1v7c0,12.2-11.4,22.8-26.1,22.8M237.7,258c-8.7,0-12.3-3.3-12.3-8.5s2.8-7.3,11-9.1l10.6-2.2c9.5-2,14.9-6.3,16.8-10.1v7c0,12.2-11.4,22.8-26.1,22.8"/>
      <path class="st1" d="M345.4,219.4v-15.2h-48.8l-.9,26.1c-.7,21.3-5.4,25.9-12.3,25.9h-1.7v8.8h2.3c13.3,0,20.2-6.2,21-33.7l.6-18.5h30.1v52.2h9.8v-15.2"/>
      <path class="st1" d="M416.8,245.5h-10.1c-2.2,6.3-7.2,12-19,12s-20.3-6.9-20.9-20.1h50.8v-3.9c0-19.4-11.1-30.5-30-30.5s-30.8,11.1-30.8,30.5v2.1c0,19.4,11.1,30.5,30.8,30.5s27.3-9.6,29.1-20.7h-10.1c-2.2,6.3-7.2,12-19,12s-20.3-6.9-20.9-20.1h50.8v-3.9c0-19.4-11.1-30.5-30-30.5s-30.8,11.1-30.8,30.5v2.1c0,19.4,11.1,30.5,30.8,30.5s27.3-9.6,29.1-20.7M416.8,245.5h-10.1c-2.2,6.3-7.2,12-19,12s-20.3-6.9-20.9-20.1h50.8v-3.9c0-19.4-11.1-30.5-30-30.5s-30.8,11.1-30.8,30.5v2.1c0,19.4,11.1,30.5,30.8,30.5s27.3-9.6,29.1-20.7"/>
      <path class="st1" d="M367,229.5c1.1-12,8.5-18.2,20.5-18.2s18.8,6.2,20,18.2h-40.5c1.1-12,8.5-18.2,20.5-18.2s18.8,6.2,20,18.2h-40.5M367,229.5c1.1-12,8.5-18.2,20.5-18.2s18.8,6.2,20,18.2h-40.5"/>
      <path class="st11" d="M397.6,117.3c4.9,0,7-2.1,7-6.9s-2.1-6.8-7-6.8-7,2.1-7,6.8,2.1,6.9,7,6.9M392.7,188.6h9.8v-60.8h-9.8v60.8ZM351.6,181.2c-13.3,0-20.9-7.6-20.9-21.6v-2.1c0-14,7.6-21.6,20.9-21.6s20.9,7.6,20.9,21.6v2.1c0,14-7.6,21.6-20.9,21.6M351.7,189.8c19.5,0,30.6-11.1,30.6-30.5v-2.1c0-18.8-10.4-29.3-28.2-29.3s-21.6,5.5-24.9,16.1c.5-20.7,6.7-26.7,21.7-27.8l17.3-1.1c4.8-.3,8.4-1.1,10-2.2v-9.4h-.3c-1.7,1.5-5,2.3-10.3,2.6l-17.7,1.1c-20.2,1.3-30,11.2-30,41.8v3.1c0,26.6,11.1,37.6,31.8,37.6"/>
      <path class="st1" d="M337.8,187.5c4,1.5,8.6,2.2,13.9,2.2,19.5,0,30.6-11.1,30.6-30.5v-2.1c0-18.8-10.4-29.3-28.2-29.3s-21.6,5.5-24.9,16.1c.5-20.7,6.7-26.7,21.7-27.8l17.3-1.1c4.8-.3,8.4-1.1,10-2.2v-9.4h-.3c-1.7,1.5-5,2.3-10.3,2.6l-17.7,1.1c-5.5.3-10.3,1.3-14.2,3.2M320.9,134.4c-.6,4.3-1,9.1-1,14.6v3.1c0,5.3.4,10,1.3,14.1"/>
      <path class="st1" d="M351.6,181.2c-13.3,0-20.9-7.6-20.9-21.6v-2.1c0-14,7.6-21.6,20.9-21.6s20.9,7.6,20.9,21.6v2.1c0,14-7.6,21.6-20.9,21.6s-20.9-7.6-20.9-21.6v-2.1c0-14,7.6-21.6,20.9-21.6s20.9,7.6,20.9,21.6v2.1c0,14-7.6,21.6-20.9,21.6M351.6,181.2c-13.3,0-20.9-7.6-20.9-21.6v-2.1c0-14,7.6-21.6,20.9-21.6s20.9,7.6,20.9,21.6v2.1c0,14-7.6,21.6-20.9,21.6"/>
      <path class="st1" d="M392.7,173.4v15.2h9.8v-15.2M402.5,143v-15.2h-9.8v15.2"/>
      <path class="st1" d="M397.6,117.3c4.9,0,7-2.1,7-6.9s-2.1-6.8-7-6.8-7,2.1-7,6.8,2.1,6.9,7,6.9,7-2.1,7-6.9-2.1-6.8-7-6.8-7,2.1-7,6.8,2.1,6.9,7,6.9M397.6,117.3c4.9,0,7-2.1,7-6.9s-2.1-6.8-7-6.8-7,2.1-7,6.8,2.1,6.9,7,6.9"/>
      <path class="st1" d="M-558.1,306.9v3.1c0,5.3.4,10,1.3,14.1"/>
      <path class="st11" d="M342.5,77.8l-.9,26.1c-.7,21.3-5.4,25.9-12.3,25.9h-1.7v8.8h2.3c13.3,0,20.2-6.2,21-33.7l.6-18.5h30.1v52.2h9.8v-60.8h-48.9ZM283.6,131.6c-8.7,0-12.3-3.3-12.3-8.5s2.8-7.3,11-9.1l10.6-2.2c9.5-2,14.9-6.3,16.8-10.1v7c0,12.2-11.4,22.8-26.1,22.8M293.3,76.7c-18.8,0-27.5,8.3-29.7,22.1h10.1c2.2-8.7,8.3-13.5,19.1-13.5s15.3,4.5,15.3,10.4-3.3,8.3-17.3,9.8l-10.4,1.1c-13.4,1.5-18.9,7.3-18.9,16.6s6.5,16.5,18.9,16.5,24.8-7.7,29.6-18.9v17.8h9.5v-39.1c0-15.4-8.8-22.8-26-22.8M239.7,77.8v24.9h-36.4v-24.9h-9.8v60.8h9.8v-27.3h36.4v27.3h9.8v-60.8h-9.8,0ZM153.1,139.8c18.8,0,28.1-9.8,29.8-23.3h-10.1c-2.3,9-8.1,14.7-19.9,14.7s-20.4-6.9-21.2-19.7h27v-8.5h-26.7c1.4-11.6,8.7-17.7,20.7-17.7s17.1,5.9,19.1,13.1h10c-1.4-12.2-10.4-21.7-28.8-21.7s-31,11.1-31,30.5v2.1c0,19.4,11.1,30.5,31.2,30.5M106,67.4c4.9,0,7-2.1,7-6.9s-2.1-6.8-7-6.8-7,2.1-7,6.8,2.1,6.9,7,6.9M101.1,138.6h9.8v-60.8h-9.8v60.8ZM60,131.2c-13.3,0-20.9-7.6-20.9-21.6v-2.1c0-14,7.6-21.6,20.9-21.6s20.9,7.6,20.9,21.6v2.1c0,14-7.6,21.6-20.9,21.6M60.1,139.8c19.5,0,30.6-11.1,30.6-30.5v-2.1c0-18.8-10.4-29.3-28.2-29.3s-21.6,5.5-24.9,16.1c.5-20.7,6.7-26.7,21.7-27.8l17.3-1.1c4.8-.3,8.4-1.1,10-2.2v-9.4h-.3c-1.7,1.5-5,2.3-10.3,2.6l-17.7,1.1c-20.2,1.3-30,11.2-30,41.8v3.1c0,26.6,11.1,37.6,31.8,37.6"/>
      <path class="st1" d="M46.2,137.6c4,1.5,8.6,2.2,13.9,2.2,19.5,0,30.6-11.1,30.6-30.5v-2.1c0-18.8-10.4-29.3-28.2-29.3s-21.6,5.5-24.9,16.1c.5-20.7,6.7-26.7,21.7-27.8l17.3-1.1c4.8-.3,8.4-1.1,10-2.2v-9.4h-.3c-1.7,1.5-5,2.3-10.3,2.6l-17.7,1.1c-5.5.3-10.3,1.3-14.2,3.2M29.3,84.4c-.6,4.3-1,9.1-1,14.6v3.1c0,5.3.4,10,1.3,14.1"/>
      <path class="st1" d="M60,131.2c-13.3,0-20.9-7.6-20.9-21.6v-2.1c0-14,7.6-21.6,20.9-21.6s20.9,7.6,20.9,21.6v2.1c0,14-7.6,21.6-20.9,21.6s-20.9-7.6-20.9-21.6v-2.1c0-14,7.6-21.6,20.9-21.6s20.9,7.6,20.9,21.6v2.1c0,14-7.6,21.6-20.9,21.6M60,131.2c-13.3,0-20.9-7.6-20.9-21.6v-2.1c0-14,7.6-21.6,20.9-21.6s20.9,7.6,20.9,21.6v2.1c0,14-7.6,21.6-20.9,21.6"/>
      <path class="st1" d="M101.1,123.4v15.2h9.8v-15.2M110.9,93v-15.2h-9.8v15.2"/>
      <path class="st1" d="M106,67.4c4.9,0,7-2.1,7-6.9s-2.1-6.8-7-6.8-7,2.1-7,6.8,2.1,6.9,7,6.9,7-2.1,7-6.9-2.1-6.8-7-6.8-7,2.1-7,6.8,2.1,6.9,7,6.9M106,67.4c4.9,0,7-2.1,7-6.9s-2.1-6.8-7-6.8-7,2.1-7,6.8,2.1,6.9,7,6.9"/>
      <path class="st1" d="M153.1,139.8c18.8,0,28.1-9.8,29.8-23.3h-10.1c-2.3,9-8.1,14.7-19.9,14.7s-20.4-6.9-21.2-19.7h27v-8.5h-26.7c1.4-11.6,8.7-17.7,20.7-17.7s17.1,5.9,19,13.1h10c-1.4-12.2-10.4-21.7-28.8-21.7s-31,11.1-31,30.5v2.1c0,19.4,11.1,30.5,31.2,30.5s28.1-9.8,29.8-23.3h-10.1c-2.3,9-8.1,14.7-19.9,14.7s-20.4-6.9-21.2-19.7h27v-8.5h-26.7c1.4-11.6,8.7-17.7,20.7-17.7s17.1,5.9,19,13.1h10c-1.4-12.2-10.4-21.7-28.8-21.7s-31,11.1-31,30.5v2.1c0,19.4,11.1,30.5,31.2,30.5M153.1,139.8c18.8,0,28.1-9.8,29.8-23.3h-10.1c-2.3,9-8.1,14.7-19.9,14.7s-20.4-6.9-21.2-19.7h27v-8.5h-26.7c1.4-11.6,8.7-17.7,20.7-17.7s17.1,5.9,19,13.1h10c-1.4-12.2-10.4-21.7-28.8-21.7s-31,11.1-31,30.5v2.1c0,19.4,11.1,30.5,31.2,30.5"/>
      <path class="st1" d="M249.5,93v-15.2h-9.8v24.9h-36.4v-24.9h-9.8v15.2M193.6,123.4v15.2h9.8v-27.3h36.4v27.3h9.8v-15.2"/>
      <path class="st1" d="M293.3,76.7c-18.8,0-27.5,8.3-29.7,22.1h10.1c2.2-8.7,8.3-13.5,19.1-13.5s15.3,4.5,15.3,10.4-3.3,8.3-17.3,9.8l-10.4,1.1c-13.4,1.5-18.9,7.3-18.9,16.6s6.5,16.5,18.9,16.5,24.8-7.7,29.6-18.9v17.8h9.5v-39.1c0-15.4-8.8-22.8-26.1-22.8s-27.5,8.3-29.7,22.1h10.1c2.2-8.7,8.3-13.5,19.1-13.5s15.3,4.5,15.3,10.4-3.3,8.3-17.3,9.8l-10.4,1.1c-13.4,1.5-18.9,7.3-18.9,16.6s6.5,16.5,18.9,16.5,24.8-7.7,29.6-18.9v17.8h9.5v-39.1c0-15.4-8.8-22.8-26.1-22.8M293.3,76.7c-18.8,0-27.5,8.3-29.7,22.1h10.1c2.2-8.7,8.3-13.5,19.1-13.5s15.3,4.5,15.3,10.4-3.3,8.3-17.3,9.8l-10.4,1.1c-13.4,1.5-18.9,7.3-18.9,16.6s6.5,16.5,18.9,16.5,24.8-7.7,29.6-18.9v17.8h9.5v-39.1c0-15.4-8.8-22.8-26.1-22.8"/>
      <path class="st1" d="M283.6,131.6c-8.7,0-12.3-3.3-12.3-8.5s2.8-7.3,11-9.1l10.6-2.2c9.5-2,14.9-6.3,16.8-10.1v7c0,12.2-11.4,22.8-26.1,22.8s-12.3-3.3-12.3-8.5,2.8-7.3,11-9.1l10.6-2.2c9.5-2,14.9-6.3,16.8-10.1v7c0,12.2-11.4,22.8-26.1,22.8M283.6,131.6c-8.7,0-12.3-3.3-12.3-8.5s2.8-7.3,11-9.1l10.6-2.2c9.5-2,14.9-6.3,16.8-10.1v7c0,12.2-11.4,22.8-26.1,22.8"/>
      <path class="st1" d="M391.2,93v-15.2h-48.8l-.9,26.1c-.7,21.3-5.4,25.9-12.3,25.9h-1.7v8.8h2.3c13.3,0,20.2-6.2,21-33.7l.6-18.5h30.1v52.2h9.8v-15.2"/>
      <path class="st11" d="M360.7,139.8c18.8,0,28.1-9.8,29.8-23.3h-10.1c-2.3,9-8.1,14.7-19.9,14.7s-20.4-6.9-21.2-19.7h27v-8.5h-26.7c1.4-11.6,8.7-17.7,20.7-17.7s17.1,5.9,19,13.1h10c-1.4-12.2-10.4-21.7-28.8-21.7s-31,11.1-31,30.5v2.1c0,19.4,11.1,30.5,31.2,30.5M313.6,67.4c4.9,0,7-2.1,7-6.9s-2.1-6.8-7-6.8-7,2.1-7,6.8,2.1,6.9,7,6.9M308.7,138.6h9.8v-60.8h-9.8v60.8ZM267.6,131.2c-13.3,0-20.9-7.6-20.9-21.6v-2.1c0-14,7.6-21.6,20.9-21.6s20.9,7.6,20.9,21.6v2.1c0,14-7.6,21.6-20.9,21.6M267.7,139.8c19.5,0,30.6-11.1,30.6-30.5v-2.1c0-18.8-10.4-29.3-28.2-29.3s-21.6,5.5-24.9,16.1c.5-20.7,6.7-26.7,21.7-27.8l17.3-1.1c4.8-.3,8.4-1.1,10-2.2v-9.4h-.3c-1.7,1.5-5,2.3-10.3,2.6l-17.7,1.1c-20.2,1.3-30,11.2-30,41.8v3.1c0,26.6,11.1,37.6,31.8,37.6"/>
      <path class="st1" d="M253.8,137.6c4,1.5,8.6,2.2,13.9,2.2,19.5,0,30.6-11.1,30.6-30.5v-2.1c0-18.8-10.4-29.3-28.2-29.3s-21.6,5.5-24.9,16.1c.5-20.7,6.7-26.7,21.7-27.8l17.3-1.1c4.8-.3,8.4-1.1,10-2.2v-9.4h-.3c-1.7,1.5-5,2.3-10.3,2.6l-17.7,1.1c-5.5.3-10.3,1.3-14.2,3.2M236.9,84.4c-.6,4.3-1,9.1-1,14.6v3.1c0,5.3.4,10,1.3,14.1"/>
      <path class="st1" d="M267.6,131.2c-13.3,0-20.9-7.6-20.9-21.6v-2.1c0-14,7.6-21.6,20.9-21.6s20.9,7.6,20.9,21.6v2.1c0,14-7.6,21.6-20.9,21.6s-20.9-7.6-20.9-21.6v-2.1c0-14,7.6-21.6,20.9-21.6s20.9,7.6,20.9,21.6v2.1c0,14-7.6,21.6-20.9,21.6M267.6,131.2c-13.3,0-20.9-7.6-20.9-21.6v-2.1c0-14,7.6-21.6,20.9-21.6s20.9,7.6,20.9,21.6v2.1c0,14-7.6,21.6-20.9,21.6"/>
      <path class="st1" d="M308.7,123.4v15.2h9.8v-15.2M318.5,93v-15.2h-9.8v15.2"/>
      <path class="st1" d="M313.6,67.4c4.9,0,7-2.1,7-6.9s-2.1-6.8-7-6.8-7,2.1-7,6.8,2.1,6.9,7,6.9,7-2.1,7-6.9-2.1-6.8-7-6.8-7,2.1-7,6.8,2.1,6.9,7,6.9M313.6,67.4c4.9,0,7-2.1,7-6.9s-2.1-6.8-7-6.8-7,2.1-7,6.8,2.1,6.9,7,6.9"/>
      <path class="st1" d="M360.7,139.8c18.8,0,28.1-9.8,29.8-23.3h-10.1c-2.3,9-8.1,14.7-19.9,14.7s-20.4-6.9-21.2-19.7h27v-8.5h-26.7c1.4-11.6,8.7-17.7,20.7-17.7s17.1,5.9,19,13.1h10c-1.4-12.2-10.4-21.7-28.8-21.7s-31,11.1-31,30.5v2.1c0,19.4,11.1,30.5,31.2,30.5s28.1-9.8,29.8-23.3h-10.1c-2.3,9-8.1,14.7-19.9,14.7s-20.4-6.9-21.2-19.7h27v-8.5h-26.7c1.4-11.6,8.7-17.7,20.7-17.7s17.1,5.9,19,13.1h10c-1.4-12.2-10.4-21.7-28.8-21.7s-31,11.1-31,30.5v2.1c0,19.4,11.1,30.5,31.2,30.5M360.7,139.8c18.8,0,28.1-9.8,29.8-23.3h-10.1c-2.3,9-8.1,14.7-19.9,14.7s-20.4-6.9-21.2-19.7h27v-8.5h-26.7c1.4-11.6,8.7-17.7,20.7-17.7s17.1,5.9,19,13.1h10c-1.4-12.2-10.4-21.7-28.8-21.7s-31,11.1-31,30.5v2.1c0,19.4,11.1,30.5,31.2,30.5"/>
      <path class="st11" d="M376.3,602.7c-13.3,0-20.9-7.6-20.9-21.6v-2.1c0-14,7.6-21.6,20.9-21.6s20.9,7.6,20.9,21.6v2.1c0,14-7.6,21.6-20.9,21.6M376.4,611.4c19.5,0,30.6-11.1,30.6-30.5v-2.1c0-18.8-10.4-29.3-28.2-29.3s-21.6,5.5-24.9,16.1c.5-20.7,6.7-26.7,21.7-27.8l17.3-1.1c4.8-.3,8.4-1.1,10-2.2v-9.4h-.3c-1.7,1.5-5,2.3-10.3,2.6l-17.7,1.1c-20.2,1.3-30,11.2-30,41.8v3.1c0,26.6,11.1,37.6,31.8,37.6"/>
      <path class="st1" d="M362.5,609.1c4,1.5,8.6,2.2,13.9,2.2,19.5,0,30.6-11.1,30.6-30.5v-2.1c0-18.8-10.4-29.3-28.2-29.3s-21.6,5.5-24.9,16.1c.5-20.7,6.7-26.7,21.7-27.8l17.3-1.1c4.8-.3,8.4-1.1,10-2.2v-9.4h-.3c-1.7,1.5-5,2.3-10.3,2.6l-17.7,1.1c-5.5.3-10.3,1.3-14.2,3.2M345.6,556c-.6,4.3-1,9.1-1,14.6v3.1c0,5.3.4,10,1.3,14.1"/>
      <path class="st1" d="M376.3,602.7c-13.3,0-20.9-7.6-20.9-21.6v-2.1c0-14,7.6-21.6,20.9-21.6s20.9,7.6,20.9,21.6v2.1c0,14-7.6,21.6-20.9,21.6s-20.9-7.6-20.9-21.6v-2.1c0-14,7.6-21.6,20.9-21.6s20.9,7.6,20.9,21.6v2.1c0,14-7.6,21.6-20.9,21.6M376.3,602.7c-13.3,0-20.9-7.6-20.9-21.6v-2.1c0-14,7.6-21.6,20.9-21.6s20.9,7.6,20.9,21.6v2.1c0,14-7.6,21.6-20.9,21.6"/>
    </g>
  </g>
  <rect class="st12" x="-1" y="0" width="404" height="600"/>
  <g class="st10">
    <g>
      <path class="st5" d="M320.7,71.9v22.6h10.5v-17.1l16.6-17.2,21.9,34.3h12.4l-26.6-40.7,24.1-24.9h-13.5l-8.7,9.2M331.2,19.5V4.1h-10.5v22.6M339.9,56.4l-8.7,9.2v-15.3"/>
      <path class="st5" d="M445.4,46.1l7-17.2h-11.1l-5.4,13.4M407.2,78.8l7,16.6c-2.4,5.9-4.7,9.9-7,12.2-2.3,2.3-5.1,3.4-8.4,3.4s-4.8-.2-7.4-.6v8.8c2.6.7,5.2,1.1,7.8,1.1,4.1,0,7.6-.7,10.5-2.2s5.5-3.8,7.7-7.1c2.3-3.2,4.6-7.6,6.9-13.2l7-17.2M403.3,42.3l-5.5-13.4h-11.5l7,16.6M425.2,69.2l-5.4,13.4-5.5-13.4"/>
      <path class="st5" d="M461.6,78.1v16.4h10.5v-16.4M472.1,45.3v-16.4h-10.5v16.4"/>
      <path class="st5" d="M472.3,4.9c1.4,1.4,2,3.1,2,5.3s-.7,4-2,5.4c-1.4,1.4-3.2,2-5.5,2s-4.1-.7-5.5-2c-1.4-1.4-2-3.2-2-5.4s.7-3.9,2-5.3c1.4-1.4,3.2-2,5.5-2s4.1.7,5.5,2c1.4,1.3,2,3.1,2,5.3s-.7,4-2,5.4c-1.4,1.4-3.2,2-5.5,2s-4.1-.7-5.5-2c-1.4-1.4-2-3.2-2-5.4s.7-3.9,2-5.3c1.4-1.4,3.2-2,5.5-2s4.1.7,5.5,2M472.3,4.9c1.4,1.4,2,3.1,2,5.3s-.7,4-2,5.4c-1.4,1.4-3.2,2-5.5,2s-4.1-.7-5.5-2c-1.4-1.4-2-3.2-2-5.4s.7-3.9,2-5.3c1.4-1.4,3.2-2,5.5-2s4.1.7,5.5,2"/>
      <path class="st5" d="M519.1,66.6l-5.4,12.6-5.4-12.6M539.4,45.3l7.2-16.4h-11.3l-5.4,12.6M502.3,78.1l7.1,16.4h8.4l7.2-16.4M497.6,41.5l-5.4-12.6h-11.4l7.1,16.4"/>
      <path class="st11" d="M615.1,289.9h-10.5v90.3h10.5v-90.3h0ZM566.4,370.3c-4,2-8.7,3-14,3s-8.8-1-11.3-3-3.8-4.5-3.8-7.7c0-6.8,6-10.6,17.9-11.6l23.9-1.9c0,4.7-1.1,8.9-3.3,12.6s-5.4,6.5-9.4,8.5M582,319.6c-4.7-4.1-12.1-6.2-22.2-6.2s-16.7,2-21.6,6.1c-4.9,4-7.7,9.7-8.2,17.1h10.6c.6-4.6,2.4-8.1,5.5-10.5s7.8-3.6,14.2-3.6,11.1,1.3,14,3.9,4.3,6.7,4.3,12.3v2.4l-24.5,1.7c-9.9.7-17,2.8-21.2,6.2-4.2,3.4-6.4,8-6.4,13.7s2.1,10.2,6.3,13.7c4.2,3.4,10.4,5.1,18.6,5.1s14-1.9,19-5.6c5-3.8,8.3-8.4,9.8-13.8l2.1,18.2h6.8v-42.2c0-8.2-2.4-14.3-7.1-18.4M514.7,290.7c1.4,1.4,2,3.1,2,5.3s-.7,4-2,5.4c-1.4,1.4-3.2,2-5.5,2s-4.1-.7-5.5-2c-1.4-1.4-2-3.2-2-5.4s.7-3.9,2-5.3c1.4-1.4,3.2-2,5.5-2s4.1.7,5.5,2M514.5,314.7h-10.5v65.6h10.5v-65.6ZM482.3,321c-4.5-5-10.8-7.5-18.9-7.5s-11.9,1.6-16.3,4.9-7.5,8.2-9.3,14.8l-2-18.4h-6.8v65.6h10.5v-29.9c0-9.4,1.8-16.4,5.5-20.9s8.8-6.7,15.5-6.7,10.9,1.7,13.7,5c2.8,3.3,4.2,9.1,4.2,17.3v35.3h10.5v-36.8c0-10-2.2-17.5-6.7-22.5M407,321c-4.5-5-10.8-7.5-18.9-7.5s-11.9,1.6-16.3,4.9-7.5,8.2-9.3,14.8l-2-18.4h-6.8v65.6h10.5v-29.9c0-9.4,1.8-16.4,5.5-20.9s8.8-6.7,15.5-6.7,10.9,1.7,13.7,5c2.8,3.3,4.2,9.1,4.2,17.3v35.3h10.5v-36.8c0-10-2.2-17.5-6.7-22.5M287.3,342.2c1.5-13.3,8.9-19.9,22.3-19.9s11.3,1.7,14.9,5,5.6,8.3,6.1,14.9h-43.3ZM340.8,350.6c.3-1.9.5-4,.5-6.4,0-6.1-1.3-11.5-3.9-16.1s-6.3-8.2-11-10.8c-4.7-2.6-10.3-3.8-16.8-3.8s-12.6,1.3-17.6,4-8.8,6.5-11.5,11.4c-2.7,5-4,10.8-4,17.4v2.2c0,6.7,1.3,12.5,4,17.4,2.7,5,6.5,8.8,11.4,11.4s10.7,4,17.3,4,16.2-2.1,21.2-6.2c5.1-4.2,8.3-9.5,9.6-16h-10.8c-1.4,4-3.6,7.2-6.6,9.5s-7.4,3.5-13.2,3.5c-13.8,0-21.2-7.2-22.3-21.7h53.6v.2ZM264.8,290.7c1.4,1.4,2,3.1,2,5.3s-.7,4-2,5.4c-1.4,1.4-3.2,2-5.5,2s-4.1-.7-5.5-2c-1.4-1.4-2-3.2-2-5.4s.7-3.9,2-5.3c1.4-1.4,3.2-2,5.5-2s4.1.7,5.5,2M264.6,314.7h-10.5v65.6h10.5v-65.6ZM225.6,366.1c-3.8,4.1-9.3,6.1-16.5,6.1s-12.7-2.1-16.6-6.2c-3.9-4.2-5.8-10.3-5.8-18.3s1.9-14.5,5.8-18.7c3.9-4.2,9.4-6.3,16.6-6.3s12.8,2.1,16.6,6.2c3.8,4.2,5.7,10.4,5.7,18.7s-1.9,14.3-5.8,18.4M227.5,317.5c-4.5-2.7-9.5-4-15.2-4s-11.2,1.4-15.7,4.1c-4.5,2.8-7.9,6.7-10.1,11.7v-39.4h-10.5v90.3h6.8l2-18.2c2,6.1,5.4,10.9,10.2,14.3s10.6,5.1,17.3,5.1,10.7-1.3,15.2-4,8-6.5,10.6-11.5,3.8-10.8,3.8-17.4v-2.2c0-6.6-1.3-12.4-3.8-17.4-2.6-5-6.1-8.8-10.6-11.5"/>
      <path class="st4" d="M176.1,357.7v22.6h6.8l2-18.2c2,6.1,5.4,10.9,10.2,14.3s10.6,5.1,17.3,5.1,10.7-1.3,15.2-4,8-6.5,10.6-11.5,3.8-10.8,3.8-17.4v-2.2c0-6.6-1.3-12.4-3.8-17.4-2.6-5-6.1-8.8-10.6-11.5s-9.5-4-15.2-4-11.2,1.4-15.7,4.1c-4.5,2.8-7.9,6.7-10.1,11.7v-39.4h-10.5v22.6"/>
      <path class="st4" d="M225.6,366.1c-3.8,4.1-9.3,6.1-16.5,6.1s-12.7-2.1-16.6-6.2c-3.9-4.2-5.8-10.2-5.8-18.3s1.9-14.5,5.8-18.7c3.9-4.2,9.4-6.3,16.6-6.3s12.8,2.1,16.6,6.2c3.8,4.2,5.7,10.4,5.7,18.7s-1.9,14.3-5.8,18.4-9.3,6.1-16.5,6.1-12.7-2.1-16.6-6.2c-3.9-4.2-5.8-10.2-5.8-18.3s1.9-14.5,5.8-18.7c3.9-4.2,9.4-6.3,16.6-6.3s12.8,2.1,16.6,6.2c3.8,4.2,5.7,10.4,5.7,18.7s-1.9,14.3-5.8,18.4M225.6,366.1c-3.8,4.1-9.3,6.1-16.5,6.1s-12.7-2.1-16.6-6.2c-3.9-4.2-5.8-10.2-5.8-18.3s1.9-14.5,5.8-18.7c3.9-4.2,9.4-6.3,16.6-6.3s12.8,2.1,16.6,6.2c3.8,4.2,5.7,10.4,5.7,18.7s-1.9,14.3-5.8,18.4"/>
      <path class="st4" d="M254.1,363.9v16.4h10.5v-16.4M264.6,331.1v-16.4h-10.5v16.4"/>
      <path class="st4" d="M264.8,290.7c1.4,1.4,2,3.1,2,5.3s-.7,4-2,5.4c-1.4,1.4-3.2,2-5.5,2s-4.1-.7-5.5-2c-1.4-1.4-2-3.2-2-5.4s.7-3.9,2-5.3c1.4-1.4,3.2-2,5.5-2s4.1.7,5.5,2,2,3.1,2,5.3-.7,4-2,5.4c-1.4,1.4-3.2,2-5.5,2s-4.1-.7-5.5-2c-1.4-1.4-2-3.2-2-5.4s.7-3.9,2-5.3c1.4-1.4,3.2-2,5.5-2s4.1.7,5.5,2M264.8,290.7c1.4,1.4,2,3.1,2,5.3s-.7,4-2,5.4c-1.4,1.4-3.2,2-5.5,2s-4.1-.7-5.5-2c-1.4-1.4-2-3.2-2-5.4s.7-3.9,2-5.3c1.4-1.4,3.2-2,5.5-2s4.1.7,5.5,2"/>
      <path class="st4" d="M327.4,350.6h13.4c.3-1.9.5-4,.5-6.4,0-6.1-1.3-11.5-3.9-16.1s-6.3-8.2-11-10.8c-4.7-2.6-10.3-3.8-16.8-3.8s-12.6,1.3-17.6,4-8.8,6.5-11.5,11.4c-2.7,5-4,10.8-4,17.4v2.2c0,6.7,1.3,12.5,4,17.4,2.7,5,6.5,8.8,11.4,11.4,5,2.7,10.7,4,17.3,4s16.1-2.1,21.2-6.2c5.1-4.2,8.3-9.5,9.6-16h-10.8c-1.4,4-3.6,7.2-6.6,9.5s-7.4,3.5-13.2,3.5c-13.8,0-21.2-7.2-22.3-21.7h13.4"/>
      <path class="st4" d="M287.3,342.2c1.5-13.3,8.9-19.9,22.3-19.9s11.3,1.7,14.9,5,5.6,8.3,6.1,14.9h-43.3c1.5-13.3,8.9-19.9,22.3-19.9s11.3,1.7,14.9,5,5.6,8.3,6.1,14.9h-43.3M287.3,342.2c1.5-13.3,8.9-19.9,22.3-19.9s11.3,1.7,14.9,5,5.6,8.3,6.1,14.9h-43.3"/>
      <path class="st4" d="M353.6,363.9v16.4h10.5v-29.9c0-9.4,1.8-16.4,5.5-20.9s8.8-6.7,15.5-6.7,10.9,1.7,13.7,5,4.2,9.1,4.2,17.3v35.3h10.5v-36.8c0-10-2.2-17.5-6.7-22.5s-10.8-7.5-18.9-7.5-11.9,1.6-16.3,4.9-7.5,8.2-9.3,14.8l-2-18.4h-6.8v16.4"/>
      <path class="st4" d="M428.9,363.9v16.4h10.5v-29.9c0-9.4,1.8-16.4,5.5-20.9s8.8-6.7,15.5-6.7,10.9,1.7,13.7,5c2.8,3.3,4.2,9.1,4.2,17.3v35.3h10.5v-36.8c0-10-2.2-17.5-6.7-22.5s-10.8-7.5-18.9-7.5-11.9,1.6-16.3,4.9-7.5,8.2-9.3,14.8l-2-18.4h-6.8v16.4"/>
      <path class="st4" d="M504,363.9v16.4h10.5v-16.4M514.5,331.1v-16.4h-10.5v16.4"/>
      <path class="st4" d="M514.7,290.7c1.4,1.4,2,3.1,2,5.3s-.7,4-2,5.4c-1.4,1.4-3.2,2-5.5,2s-4.1-.7-5.5-2c-1.4-1.4-2-3.2-2-5.4s.7-3.9,2-5.3c1.4-1.4,3.2-2,5.5-2s4.1.7,5.5,2,2,3.1,2,5.3-.7,4-2,5.4c-1.4,1.4-3.2,2-5.5,2s-4.1-.7-5.5-2c-1.4-1.4-2-3.2-2-5.4s.7-3.9,2-5.3c1.4-1.4,3.2-2,5.5-2s4.1.7,5.5,2M514.7,290.7c1.4,1.4,2,3.1,2,5.3s-.7,4-2,5.4c-1.4,1.4-3.2,2-5.5,2s-4.1-.7-5.5-2c-1.4-1.4-2-3.2-2-5.4s.7-3.9,2-5.3c1.4-1.4,3.2-2,5.5-2s4.1.7,5.5,2"/>
      <path class="st4" d="M582,319.6c-4.7-4.1-12.1-6.2-22.2-6.2s-16.7,2-21.6,6.1c-4.9,4-7.7,9.7-8.2,17.1h10.6c.6-4.6,2.4-8.1,5.5-10.5s7.8-3.6,14.2-3.6,11.1,1.3,14,3.9,4.3,6.7,4.3,12.3v2.4l-24.5,1.7c-9.9.7-17,2.8-21.2,6.2-4.2,3.4-6.4,8-6.4,13.7s2.1,10.3,6.3,13.7c4.2,3.4,10.4,5.1,18.6,5.1s14-1.9,19-5.6c5-3.8,8.3-8.4,9.8-13.8l2.1,18.2h6.8v-42.2c0-8.2-2.4-14.3-7.1-18.4s-12.1-6.2-22.2-6.2-16.7,2-21.6,6.1c-4.9,4-7.7,9.7-8.2,17.1h10.6c.6-4.6,2.4-8.1,5.5-10.5s7.8-3.6,14.2-3.6,11.1,1.3,14,3.9,4.3,6.7,4.3,12.3v2.4l-24.5,1.7c-9.9.7-17,2.8-21.2,6.2-4.2,3.4-6.4,8-6.4,13.7s2.1,10.3,6.3,13.7c4.2,3.4,10.4,5.1,18.6,5.1s14-1.9,19-5.6c5-3.8,8.3-8.4,9.8-13.8l2.1,18.2h6.8v-42.2c0-8.2-2.4-14.3-7.1-18.4M582,319.6c-4.7-4.1-12.1-6.2-22.2-6.2s-16.7,2-21.6,6.1c-4.9,4-7.7,9.7-8.2,17.1h10.6c.6-4.6,2.4-8.1,5.5-10.5s7.8-3.6,14.2-3.6,11.1,1.3,14,3.9,4.3,6.7,4.3,12.3v2.4l-24.5,1.7c-9.9.7-17,2.8-21.2,6.2-4.2,3.4-6.4,8-6.4,13.7s2.1,10.3,6.3,13.7c4.2,3.4,10.4,5.1,18.6,5.1s14-1.9,19-5.6c5-3.8,8.3-8.4,9.8-13.8l2.1,18.2h6.8v-42.2c0-8.2-2.4-14.3-7.1-18.4"/>
      <path class="st4" d="M566.4,370.3c-4,2-8.7,3-14,3s-8.8-1-11.3-3-3.8-4.5-3.8-7.7c0-6.8,6-10.6,17.9-11.6l23.9-1.9c0,4.7-1.1,8.9-3.3,12.6s-5.4,6.5-9.4,8.5-8.7,3-14,3-8.8-1-11.3-3-3.8-4.5-3.8-7.7c0-6.8,6-10.6,17.9-11.6l23.9-1.9c0,4.7-1.1,8.9-3.3,12.6s-5.4,6.5-9.4,8.5M566.4,370.3c-4,2-8.7,3-14,3s-8.8-1-11.3-3-3.8-4.5-3.8-7.7c0-6.8,6-10.6,17.9-11.6l23.9-1.9c0,4.7-1.1,8.9-3.3,12.6s-5.4,6.5-9.4,8.5"/>
      <path class="st4" d="M615.1,312.5v-22.6h-10.5v22.6M604.5,357.7v22.6h10.5v-22.6"/>
      <path class="st11" d="M683,99.5h-10.5v90.3h10.5v-90.3ZM634.3,179.9c-4,2-8.7,3-14,3s-8.8-1-11.3-3-3.8-4.5-3.8-7.7c0-6.8,6-10.6,17.9-11.6l23.9-1.9c0,4.7-1.1,8.9-3.3,12.6-2.2,3.7-5.4,6.5-9.4,8.5M649.9,129.2c-4.7-4.1-12.1-6.2-22.2-6.2s-16.7,2-21.6,6.1c-4.9,4-7.7,9.7-8.2,17.1h10.6c.6-4.6,2.4-8.1,5.5-10.5s7.8-3.6,14.2-3.6,11.1,1.3,14,3.9c2.9,2.6,4.3,6.7,4.3,12.3v2.4l-24.5,1.7c-9.9.7-17,2.8-21.2,6.2s-6.4,8-6.4,13.7,2.1,10.2,6.3,13.7c4.2,3.4,10.4,5.1,18.6,5.1s14-1.9,19-5.6c5-3.8,8.3-8.4,9.8-13.8l2.1,18.2h6.8v-42.2c0-8.2-2.4-14.3-7.1-18.4M582.6,100.3c1.4,1.4,2,3.1,2,5.3s-.7,4-2,5.4c-1.4,1.4-3.2,2-5.5,2s-4.1-.7-5.5-2c-1.4-1.4-2-3.2-2-5.4s.7-3.9,2-5.3c1.4-1.4,3.2-2,5.5-2s4.1.7,5.5,2M582.4,124.3h-10.5v65.6h10.5s0-65.6,0-65.6ZM550.2,130.6c-4.5-5-10.8-7.5-18.9-7.5s-11.9,1.6-16.3,4.9c-4.4,3.3-7.5,8.2-9.3,14.8l-2-18.4h-6.8v65.6h10.5v-29.9c0-9.4,1.8-16.4,5.5-20.9s8.8-6.7,15.5-6.7,10.9,1.7,13.7,5,4.2,9.1,4.2,17.3v35.3h10.5v-36.8c0-10-2.2-17.5-6.7-22.5M474.9,130.6c-4.5-5-10.8-7.5-18.9-7.5s-11.9,1.6-16.3,4.9c-4.4,3.3-7.5,8.2-9.3,14.8l-2-18.4h-6.8v65.6h10.5v-29.9c0-9.4,1.8-16.4,5.5-20.9s8.8-6.7,15.5-6.7,10.9,1.7,13.7,5c2.8,3.3,4.2,9.1,4.2,17.3v35.3h10.5v-36.8c0-10-2.2-17.5-6.7-22.5M355.2,151.7c1.5-13.3,8.9-19.9,22.3-19.9s11.3,1.7,14.9,5,5.6,8.3,6.1,14.9h-43.3ZM408.7,160.1c.3-1.9.5-4,.5-6.4,0-6.1-1.3-11.5-3.9-16.1s-6.3-8.2-11-10.8c-4.7-2.6-10.3-3.8-16.8-3.8s-12.6,1.3-17.6,4-8.8,6.5-11.5,11.4c-2.7,5-4,10.8-4,17.4v2.2c0,6.7,1.3,12.5,4,17.4,2.7,5,6.5,8.8,11.4,11.4s10.7,4,17.3,4,16.2-2.1,21.2-6.2c5.1-4.2,8.3-9.5,9.6-16h-10.8c-1.4,4-3.6,7.2-6.6,9.5s-7.4,3.5-13.2,3.5c-13.8,0-21.2-7.2-22.3-21.7h53.6v.2ZM332.7,100.3c1.4,1.4,2,3.1,2,5.3s-.7,4-2,5.4c-1.4,1.4-3.2,2-5.5,2s-4.1-.7-5.5-2c-1.4-1.4-2-3.2-2-5.4s.7-3.9,2-5.3c1.4-1.4,3.2-2,5.5-2s4.1.7,5.5,2M332.5,124.3h-10.5v65.6h10.5s0-65.6,0-65.6ZM293.5,175.7c-3.8,4.1-9.3,6.1-16.5,6.1s-12.7-2.1-16.6-6.2c-3.9-4.2-5.8-10.3-5.8-18.3s1.9-14.5,5.8-18.7,9.4-6.3,16.6-6.3,12.8,2.1,16.6,6.2c3.8,4.2,5.7,10.4,5.7,18.7s-1.9,14.3-5.8,18.4M295.5,127c-4.5-2.7-9.5-4-15.2-4s-11.2,1.4-15.7,4.1c-4.5,2.8-7.9,6.7-10.1,11.7v-39.4h-10.5v90.3h6.8l2-18.2c2,6.1,5.4,10.9,10.2,14.3,4.8,3.4,10.6,5.1,17.3,5.1s10.7-1.3,15.2-4,8-6.5,10.6-11.5,3.8-10.8,3.8-17.4v-2.2c0-6.6-1.3-12.4-3.8-17.4-2.6-5-6.1-8.8-10.6-11.5"/>
      <path class="st4" d="M244,167.3v22.6h6.8l2-18.2c2,6.1,5.4,10.9,10.2,14.3,4.8,3.4,10.6,5.1,17.3,5.1s10.7-1.3,15.2-4,8-6.5,10.6-11.5,3.8-10.8,3.8-17.4v-2.2c0-6.6-1.3-12.4-3.8-17.4-2.6-5-6.1-8.8-10.6-11.5s-9.5-4-15.2-4-11.2,1.4-15.7,4.1c-4.5,2.8-7.9,6.7-10.1,11.7v-39.4h-10.5v22.6"/>
      <path class="st4" d="M293.5,175.7c-3.8,4.1-9.3,6.1-16.5,6.1s-12.7-2.1-16.6-6.2c-3.9-4.2-5.8-10.2-5.8-18.3s1.9-14.5,5.8-18.7,9.4-6.3,16.6-6.3,12.8,2.1,16.6,6.2,5.7,10.4,5.7,18.7-1.9,14.3-5.8,18.4-9.3,6.1-16.5,6.1-12.7-2.1-16.6-6.2c-3.9-4.2-5.8-10.2-5.8-18.3s1.9-14.5,5.8-18.7,9.4-6.3,16.6-6.3,12.8,2.1,16.6,6.2,5.7,10.4,5.7,18.7-1.9,14.3-5.8,18.4M293.5,175.7c-3.8,4.1-9.3,6.1-16.5,6.1s-12.7-2.1-16.6-6.2c-3.9-4.2-5.8-10.2-5.8-18.3s1.9-14.5,5.8-18.7,9.4-6.3,16.6-6.3,12.8,2.1,16.6,6.2,5.7,10.4,5.7,18.7-1.9,14.3-5.8,18.4"/>
      <path class="st4" d="M322,173.4v16.4h10.5v-16.4M332.5,140.7v-16.4h-10.5v16.4"/>
      <path class="st4" d="M332.7,100.3c1.4,1.4,2,3.1,2,5.3s-.7,4-2,5.4c-1.4,1.4-3.2,2-5.5,2s-4.1-.7-5.5-2c-1.4-1.4-2-3.2-2-5.4s.7-3.9,2-5.3c1.4-1.4,3.2-2,5.5-2s4.1.7,5.5,2,2,3.1,2,5.3-.7,4-2,5.4c-1.4,1.4-3.2,2-5.5,2s-4.1-.7-5.5-2c-1.4-1.4-2-3.2-2-5.4s.7-3.9,2-5.3c1.4-1.4,3.2-2,5.5-2s4.1.7,5.5,2M332.7,100.3c1.4,1.4,2,3.1,2,5.3s-.7,4-2,5.4c-1.4,1.4-3.2,2-5.5,2s-4.1-.7-5.5-2c-1.4-1.4-2-3.2-2-5.4s.7-3.9,2-5.3c1.4-1.4,3.2-2,5.5-2s4.1.7,5.5,2"/>
      <path class="st4" d="M395.3,160.1h13.4c.3-1.9.5-4,.5-6.4,0-6.1-1.3-11.5-3.9-16.1s-6.3-8.2-11-10.8c-4.7-2.6-10.3-3.8-16.8-3.8s-12.6,1.3-17.6,4-8.8,6.5-11.5,11.4c-2.7,5-4,10.8-4,17.4v2.2c0,6.7,1.3,12.5,4,17.4,2.7,5,6.5,8.8,11.4,11.4,5,2.7,10.7,4,17.3,4s16.1-2.1,21.2-6.2c5.1-4.2,8.3-9.5,9.6-16h-10.8c-1.4,4-3.6,7.2-6.6,9.5s-7.4,3.5-13.2,3.5c-13.8,0-21.2-7.2-22.3-21.7h13.4"/>
      <path class="st4" d="M355.2,151.7c1.5-13.3,8.9-19.9,22.3-19.9s11.3,1.7,14.9,5,5.6,8.3,6.1,14.9h-43.3c1.5-13.3,8.9-19.9,22.3-19.9s11.3,1.7,14.9,5,5.6,8.3,6.1,14.9h-43.3M355.2,151.7c1.5-13.3,8.9-19.9,22.3-19.9s11.3,1.7,14.9,5,5.6,8.3,6.1,14.9h-43.3"/>
      <path class="st4" d="M421.6,173.4v16.4h10.5v-29.9c0-9.4,1.8-16.4,5.5-20.9s8.8-6.7,15.5-6.7,10.9,1.7,13.7,5c2.8,3.3,4.2,9.1,4.2,17.3v35.3h10.5v-36.8c0-10-2.2-17.5-6.7-22.5s-10.8-7.5-18.9-7.5-11.9,1.6-16.3,4.9c-4.4,3.3-7.5,8.2-9.3,14.8l-2-18.4h-6.8v16.4"/>
      <path class="st4" d="M496.9,173.4v16.4h10.5v-29.9c0-9.4,1.8-16.4,5.5-20.9,3.7-4.5,8.8-6.7,15.5-6.7s10.9,1.7,13.7,5,4.2,9.1,4.2,17.3v35.3h10.5v-36.8c0-10-2.2-17.5-6.7-22.5s-10.8-7.5-18.9-7.5-11.9,1.6-16.3,4.9c-4.4,3.3-7.5,8.2-9.3,14.8l-2-18.4h-6.8v16.4"/>
      <path class="st4" d="M571.9,173.4v16.4h10.5v-16.4M582.4,140.7v-16.4h-10.5v16.4"/>
      <path class="st4" d="M582.6,100.3c1.4,1.4,2,3.1,2,5.3s-.7,4-2,5.4c-1.4,1.4-3.2,2-5.5,2s-4.1-.7-5.5-2c-1.4-1.4-2-3.2-2-5.4s.7-3.9,2-5.3c1.4-1.4,3.2-2,5.5-2s4.1.7,5.5,2,2,3.1,2,5.3-.7,4-2,5.4c-1.4,1.4-3.2,2-5.5,2s-4.1-.7-5.5-2c-1.4-1.4-2-3.2-2-5.4s.7-3.9,2-5.3c1.4-1.4,3.2-2,5.5-2s4.1.7,5.5,2M582.6,100.3c1.4,1.4,2,3.1,2,5.3s-.7,4-2,5.4c-1.4,1.4-3.2,2-5.5,2s-4.1-.7-5.5-2c-1.4-1.4-2-3.2-2-5.4s.7-3.9,2-5.3c1.4-1.4,3.2-2,5.5-2s4.1.7,5.5,2"/>
      <path class="st4" d="M649.9,129.2c-4.7-4.1-12.1-6.2-22.2-6.2s-16.7,2-21.6,6.1c-4.9,4-7.7,9.7-8.2,17.1h10.6c.6-4.6,2.4-8.1,5.5-10.5s7.8-3.6,14.2-3.6,11.1,1.3,14,3.9c2.9,2.6,4.3,6.7,4.3,12.3v2.4l-24.5,1.7c-9.9.7-17,2.8-21.2,6.2s-6.4,8-6.4,13.7,2.1,10.3,6.3,13.7,10.4,5.1,18.6,5.1,14-1.9,19-5.6c5-3.8,8.3-8.4,9.8-13.8l2.1,18.2h6.8v-42.2c0-8.2-2.4-14.3-7.1-18.4s-12.1-6.2-22.2-6.2-16.7,2-21.6,6.1c-4.9,4-7.7,9.7-8.2,17.1h10.6c.6-4.6,2.4-8.1,5.5-10.5s7.8-3.6,14.2-3.6,11.1,1.3,14,3.9c2.9,2.6,4.3,6.7,4.3,12.3v2.4l-24.5,1.7c-9.9.7-17,2.8-21.2,6.2s-6.4,8-6.4,13.7,2.1,10.3,6.3,13.7,10.4,5.1,18.6,5.1,14-1.9,19-5.6c5-3.8,8.3-8.4,9.8-13.8l2.1,18.2h6.8v-42.2c0-8.2-2.4-14.3-7.1-18.4M649.9,129.2c-4.7-4.1-12.1-6.2-22.2-6.2s-16.7,2-21.6,6.1c-4.9,4-7.7,9.7-8.2,17.1h10.6c.6-4.6,2.4-8.1,5.5-10.5s7.8-3.6,14.2-3.6,11.1,1.3,14,3.9c2.9,2.6,4.3,6.7,4.3,12.3v2.4l-24.5,1.7c-9.9.7-17,2.8-21.2,6.2s-6.4,8-6.4,13.7,2.1,10.3,6.3,13.7,10.4,5.1,18.6,5.1,14-1.9,19-5.6c5-3.8,8.3-8.4,9.8-13.8l2.1,18.2h6.8v-42.2c0-8.2-2.4-14.3-7.1-18.4"/>
      <path class="st4" d="M634.3,179.9c-4,2-8.7,3-14,3s-8.8-1-11.3-3-3.8-4.5-3.8-7.7c0-6.8,6-10.6,17.9-11.6l23.9-1.9c0,4.7-1.1,8.9-3.3,12.6-2.2,3.7-5.4,6.5-9.4,8.5s-8.7,3-14,3-8.8-1-11.3-3-3.8-4.5-3.8-7.7c0-6.8,6-10.6,17.9-11.6l23.9-1.9c0,4.7-1.1,8.9-3.3,12.6-2.2,3.7-5.4,6.5-9.4,8.5M634.3,179.9c-4,2-8.7,3-14,3s-8.8-1-11.3-3-3.8-4.5-3.8-7.7c0-6.8,6-10.6,17.9-11.6l23.9-1.9c0,4.7-1.1,8.9-3.3,12.6-2.2,3.7-5.4,6.5-9.4,8.5"/>
      <path class="st4" d="M683,122.1v-22.6h-10.5v22.6M672.5,167.3v22.6h10.5v-22.6"/>
      <path class="st11" d="M597.9,103.1c1.1-12,8.5-18.2,20.5-18.2s18.8,6.2,20,18.2c0,0-40.5,0-40.5,0ZM647.7,119h-10.1c-2.2,6.3-7.2,12.1-19.1,12.1s-20.3-6.9-20.9-20.1h50.8v-3.9c0-19.4-11.1-30.5-30-30.5s-30.8,11.1-30.8,30.5v2.1c0,19.4,11.1,30.5,30.8,30.5s27.3-9.6,29.1-20.7M527.5,77.7l-.9,26.1c-.7,21.3-5.4,25.9-12.3,25.9h-1.7v8.8h2.3c13.3,0,20.2-6.2,21-33.7l.6-18.5h30.1v52.2h9.8v-60.8h-48.9ZM468.6,131.5c-8.7,0-12.3-3.3-12.3-8.5s2.8-7.3,11-9.1l10.6-2.2c9.5-2,14.9-6.3,16.8-10.1v7c0,12.2-11.4,22.8-26.1,22.8M478.4,76.6c-18.8,0-27.5,8.3-29.7,22.1h10.1c2.2-8.7,8.3-13.5,19.1-13.5s15.3,4.5,15.3,10.4-3.3,8.3-17.3,9.8l-10.4,1.1c-13.4,1.5-18.9,7.3-18.9,16.6s6.5,16.5,18.9,16.5,24.8-7.7,29.6-18.9v17.8h9.5v-39.1c0-15.4-8.8-22.8-26-22.8M424.8,77.7v24.9h-36.4v-24.9h-9.8v60.8h9.8v-27.3h36.4v27.3h9.8v-60.8h-9.8ZM338.2,139.7c18.8,0,28.1-9.8,29.8-23.3h-10.1c-2.3,9-8.1,14.7-19.9,14.7s-20.4-6.9-21.2-19.7h27v-8.5h-26.7c1.4-11.6,8.7-17.7,20.7-17.7s17.1,5.9,19.1,13.1h10c-1.4-12.2-10.4-21.7-28.8-21.7s-31,11.1-31,30.5v2.1c0,19.4,11.1,30.5,31.2,30.5M291,67.3c4.9,0,7-2.1,7-6.9s-2.1-6.8-7-6.8-7,2.1-7,6.8,2.1,6.9,7,6.9M286.2,138.5h9.8v-60.8h-9.8v60.8ZM245.1,131.1c-13.3,0-20.9-7.6-20.9-21.6v-2.1c0-14,7.6-21.6,20.9-21.6s20.9,7.6,20.9,21.6v2.1c0,14-7.6,21.6-20.9,21.6M245.2,139.7c19.5,0,30.6-11.1,30.6-30.5v-2.1c0-18.8-10.4-29.3-28.2-29.3s-21.6,5.5-24.9,16.1c.5-20.7,6.7-26.7,21.7-27.8l17.3-1.1c4.8-.3,8.4-1.1,10-2.2v-9.4h-.3c-1.7,1.5-5,2.3-10.3,2.6l-17.7,1.1c-20.2,1.3-30,11.2-30,41.8v3.1c0,26.6,11.1,37.6,31.8,37.6"/>
      <path class="st6" d="M231.3,137.5c4,1.5,8.6,2.2,13.9,2.2,19.5,0,30.6-11.1,30.6-30.5v-2.1c0-18.8-10.4-29.3-28.2-29.3s-21.6,5.5-24.9,16.1c.5-20.7,6.7-26.7,21.7-27.8l17.3-1.1c4.8-.3,8.4-1.1,10-2.2v-9.4h-.3c-1.7,1.5-5,2.3-10.3,2.6l-17.7,1.1c-5.5.3-10.3,1.3-14.2,3.2M214.3,84.3c-.6,4.3-1,9.1-1,14.6v3.1c0,5.3.4,10,1.3,14.1"/>
      <path class="st6" d="M245.1,131.1c-13.3,0-20.9-7.6-20.9-21.6v-2.1c0-14,7.6-21.6,20.9-21.6s20.9,7.6,20.9,21.6v2.1c0,14-7.6,21.6-20.9,21.6s-20.9-7.6-20.9-21.6v-2.1c0-14,7.6-21.6,20.9-21.6s20.9,7.6,20.9,21.6v2.1c0,14-7.6,21.6-20.9,21.6M245.1,131.1c-13.3,0-20.9-7.6-20.9-21.6v-2.1c0-14,7.6-21.6,20.9-21.6s20.9,7.6,20.9,21.6v2.1c0,14-7.6,21.6-20.9,21.6"/>
      <path class="st6" d="M286.2,123.3v15.2h9.8v-15.2M295.9,92.9v-15.2h-9.8v15.2"/>
      <path class="st6" d="M291,67.3c4.9,0,7-2.1,7-6.9s-2.1-6.8-7-6.8-7,2.1-7,6.8,2.1,6.9,7,6.9,7-2.1,7-6.9-2.1-6.8-7-6.8-7,2.1-7,6.8,2.1,6.9,7,6.9M291,67.3c4.9,0,7-2.1,7-6.9s-2.1-6.8-7-6.8-7,2.1-7,6.8,2.1,6.9,7,6.9"/>
      <path class="st6" d="M338.2,139.7c18.8,0,28.1-9.8,29.8-23.3h-10.1c-2.3,9-8.1,14.7-19.9,14.7s-20.4-6.9-21.2-19.7h27v-8.5h-26.7c1.4-11.6,8.7-17.7,20.7-17.7s17.1,5.9,19,13.1h10c-1.4-12.2-10.4-21.7-28.8-21.7s-31,11.1-31,30.5v2.1c0,19.4,11.1,30.5,31.2,30.5s28.1-9.8,29.8-23.3h-10.1c-2.3,9-8.1,14.7-19.9,14.7s-20.4-6.9-21.2-19.7h27v-8.5h-26.7c1.4-11.6,8.7-17.7,20.7-17.7s17.1,5.9,19,13.1h10c-1.4-12.2-10.4-21.7-28.8-21.7s-31,11.1-31,30.5v2.1c0,19.4,11.1,30.5,31.2,30.5M338.2,139.7c18.8,0,28.1-9.8,29.8-23.3h-10.1c-2.3,9-8.1,14.7-19.9,14.7s-20.4-6.9-21.2-19.7h27v-8.5h-26.7c1.4-11.6,8.7-17.7,20.7-17.7s17.1,5.9,19,13.1h10c-1.4-12.2-10.4-21.7-28.8-21.7s-31,11.1-31,30.5v2.1c0,19.4,11.1,30.5,31.2,30.5"/>
      <path class="st6" d="M434.5,92.9v-15.2h-9.8v24.9h-36.4v-24.9h-9.8v15.2M378.6,123.3v15.2h9.8v-27.3h36.4v27.3h9.8v-15.2"/>
      <path class="st6" d="M478.4,76.6c-18.8,0-27.5,8.3-29.7,22.1h10.1c2.2-8.7,8.3-13.5,19.1-13.5s15.3,4.5,15.3,10.4-3.3,8.3-17.3,9.8l-10.4,1.1c-13.4,1.5-18.9,7.3-18.9,16.6s6.5,16.5,18.9,16.5,24.8-7.7,29.6-18.9v17.8h9.5v-39.1c0-15.4-8.8-22.8-26.1-22.8s-27.5,8.3-29.7,22.1h10.1c2.2-8.7,8.3-13.5,19.1-13.5s15.3,4.5,15.3,10.4-3.3,8.3-17.3,9.8l-10.4,1.1c-13.4,1.5-18.9,7.3-18.9,16.6s6.5,16.5,18.9,16.5,24.8-7.7,29.6-18.9v17.8h9.5v-39.1c0-15.4-8.8-22.8-26.1-22.8M478.4,76.6c-18.8,0-27.5,8.3-29.7,22.1h10.1c2.2-8.7,8.3-13.5,19.1-13.5s15.3,4.5,15.3,10.4-3.3,8.3-17.3,9.8l-10.4,1.1c-13.4,1.5-18.9,7.3-18.9,16.6s6.5,16.5,18.9,16.5,24.8-7.7,29.6-18.9v17.8h9.5v-39.1c0-15.4-8.8-22.8-26.1-22.8"/>
      <path class="st6" d="M468.6,131.5c-8.7,0-12.3-3.3-12.3-8.5s2.8-7.3,11-9.1l10.6-2.2c9.5-2,14.9-6.3,16.8-10.1v7c0,12.2-11.4,22.8-26.1,22.8s-12.3-3.3-12.3-8.5,2.8-7.3,11-9.1l10.6-2.2c9.5-2,14.9-6.3,16.8-10.1v7c0,12.2-11.4,22.8-26.1,22.8M468.6,131.5c-8.7,0-12.3-3.3-12.3-8.5s2.8-7.3,11-9.1l10.6-2.2c9.5-2,14.9-6.3,16.8-10.1v7c0,12.2-11.4,22.8-26.1,22.8"/>
      <path class="st6" d="M576.3,92.9v-15.2h-48.8l-.9,26.1c-.7,21.3-5.4,25.9-12.3,25.9h-1.7v8.8h2.3c13.3,0,20.2-6.2,21-33.7l.6-18.5h30.1v52.2h9.8v-15.2"/>
      <path class="st6" d="M647.7,119h-10.1c-2.2,6.3-7.2,12-19,12s-20.3-6.9-20.9-20.1h50.8v-3.9c0-19.4-11.1-30.5-30-30.5s-30.8,11.1-30.8,30.5v2.1c0,19.4,11.1,30.5,30.8,30.5s27.3-9.6,29.1-20.7h-10.1c-2.2,6.3-7.2,12-19,12s-20.3-6.9-20.9-20.1h50.8v-3.9c0-19.4-11.1-30.5-30-30.5s-30.8,11.1-30.8,30.5v2.1c0,19.4,11.1,30.5,30.8,30.5s27.3-9.6,29.1-20.7M647.7,119h-10.1c-2.2,6.3-7.2,12-19,12s-20.3-6.9-20.9-20.1h50.8v-3.9c0-19.4-11.1-30.5-30-30.5s-30.8,11.1-30.8,30.5v2.1c0,19.4,11.1,30.5,30.8,30.5s27.3-9.6,29.1-20.7"/>
      <path class="st6" d="M597.9,103.1c1.1-12,8.5-18.2,20.5-18.2s18.8,6.2,20,18.2h-40.5c1.1-12,8.5-18.2,20.5-18.2s18.8,6.2,20,18.2h-40.5M597.9,103.1c1.1-12,8.5-18.2,20.5-18.2s18.8,6.2,20,18.2h-40.5"/>
      <path class="st11" d="M475,134.6c1.1-12,8.5-18.2,20.5-18.2s18.8,6.2,20,18.2h-40.5ZM524.8,150.6h-10.1c-2.2,6.3-7.2,12.1-19,12.1s-20.3-6.9-20.9-20.1h50.8v-3.9c0-19.4-11.1-30.5-30-30.5s-30.8,11.1-30.8,30.5v2.1c0,19.4,11.1,30.5,30.8,30.5s27.3-9.6,29.1-20.7M404.6,109.3l-.9,26.1c-.7,21.3-5.4,25.9-12.3,25.9h-1.7v8.8h2.3c13.3,0,20.2-6.2,21-33.7l.6-18.5h30.1v52.2h9.8v-60.8h-48.9ZM345.7,163.1c-8.7,0-12.3-3.3-12.3-8.5s2.8-7.3,11-9.1l10.6-2.2c9.5-2,14.9-6.3,16.8-10.1v7c0,12.2-11.4,22.8-26.1,22.8M355.5,108.1c-18.8,0-27.5,8.3-29.7,22.1h10.1c2.2-8.7,8.3-13.5,19.1-13.5s15.3,4.5,15.3,10.4-3.3,8.3-17.3,9.8l-10.4,1.1c-13.4,1.5-18.9,7.3-18.9,16.6s6.5,16.5,18.9,16.5,24.8-7.7,29.6-18.9v17.8h9.5v-39.1c0-15.4-8.8-22.8-26-22.8M301.8,109.3v24.9h-36.4v-24.9h-9.8v60.8h9.8v-27.3h36.4v27.3h9.8v-60.8h-9.8ZM215.3,171.2c18.8,0,28.1-9.8,29.8-23.3h-10.1c-2.3,9-8.1,14.7-19.9,14.7s-20.4-6.9-21.2-19.7h27v-8.5h-26.7c1.4-11.6,8.7-17.7,20.7-17.7s17.1,5.9,19.1,13.1h10c-1.4-12.2-10.4-21.7-28.8-21.7s-31,11.1-31,30.5v2.1c0,19.4,11.1,30.5,31.2,30.5M168.1,98.8c4.9,0,7-2.1,7-6.9s-2.1-6.8-7-6.8-7,2.1-7,6.8,2.1,6.9,7,6.9M163.3,170.1h9.8v-60.8h-9.8v60.8ZM122.1,162.6c-13.3,0-20.9-7.6-20.9-21.6v-2.1c0-14,7.6-21.6,20.9-21.6s20.9,7.6,20.9,21.6v2.1c0,14-7.6,21.6-20.9,21.6M122.2,171.2c19.5,0,30.6-11.1,30.6-30.5v-2.1c0-18.8-10.4-29.3-28.2-29.3s-21.6,5.5-24.9,16.1c.5-20.7,6.7-26.7,21.7-27.8l17.3-1.1c4.8-.3,8.4-1.1,10-2.2v-9.4h-.3c-1.7,1.5-5,2.3-10.3,2.6l-17.7,1.1c-20.2,1.3-30,11.2-30,41.8v3.1c0,26.6,11.1,37.6,31.8,37.6"/>
      <path class="st6" d="M108.3,169c4,1.5,8.6,2.2,13.9,2.2,19.5,0,30.6-11.1,30.6-30.5v-2.1c0-18.8-10.4-29.3-28.2-29.3s-21.6,5.5-24.9,16.1c.5-20.7,6.7-26.7,21.7-27.8l17.3-1.1c4.8-.3,8.4-1.1,10-2.2v-9.4h-.3c-1.7,1.5-5,2.3-10.3,2.6l-17.7,1.1c-5.5.3-10.3,1.3-14.2,3.2M91.4,115.9c-.6,4.3-1,9.1-1,14.6v3.1c0,5.3.4,10,1.3,14.1"/>
      <path class="st6" d="M122.1,162.6c-13.3,0-20.9-7.6-20.9-21.6v-2.1c0-14,7.6-21.6,20.9-21.6s20.9,7.6,20.9,21.6v2.1c0,14-7.6,21.6-20.9,21.6s-20.9-7.6-20.9-21.6v-2.1c0-14,7.6-21.6,20.9-21.6s20.9,7.6,20.9,21.6v2.1c0,14-7.6,21.6-20.9,21.6M122.1,162.6c-13.3,0-20.9-7.6-20.9-21.6v-2.1c0-14,7.6-21.6,20.9-21.6s20.9,7.6,20.9,21.6v2.1c0,14-7.6,21.6-20.9,21.6"/>
      <path class="st6" d="M163.3,154.9v15.2h9.8v-15.2M173,124.5v-15.2h-9.8v15.2"/>
      <path class="st6" d="M168.1,98.8c4.9,0,7-2.1,7-6.9s-2.1-6.8-7-6.8-7,2.1-7,6.8,2.1,6.9,7,6.9,7-2.1,7-6.9-2.1-6.8-7-6.8-7,2.1-7,6.8,2.1,6.9,7,6.9M168.1,98.8c4.9,0,7-2.1,7-6.9s-2.1-6.8-7-6.8-7,2.1-7,6.8,2.1,6.9,7,6.9"/>
      <path class="st6" d="M215.3,171.2c18.8,0,28.1-9.8,29.8-23.3h-10.1c-2.3,9-8.1,14.7-19.9,14.7s-20.4-6.9-21.2-19.7h27v-8.5h-26.7c1.4-11.6,8.7-17.7,20.7-17.7s17.1,5.9,19,13.1h10c-1.4-12.2-10.4-21.7-28.8-21.7s-31,11.1-31,30.5v2.1c0,19.4,11.1,30.5,31.2,30.5s28.1-9.8,29.8-23.3h-10.1c-2.3,9-8.1,14.7-19.9,14.7s-20.4-6.9-21.2-19.7h27v-8.5h-26.7c1.4-11.6,8.7-17.7,20.7-17.7s17.1,5.9,19,13.1h10c-1.4-12.2-10.4-21.7-28.8-21.7s-31,11.1-31,30.5v2.1c0,19.4,11.1,30.5,31.2,30.5M215.3,171.2c18.8,0,28.1-9.8,29.8-23.3h-10.1c-2.3,9-8.1,14.7-19.9,14.7s-20.4-6.9-21.2-19.7h27v-8.5h-26.7c1.4-11.6,8.7-17.7,20.7-17.7s17.1,5.9,19,13.1h10c-1.4-12.2-10.4-21.7-28.8-21.7s-31,11.1-31,30.5v2.1c0,19.4,11.1,30.5,31.2,30.5"/>
      <path class="st6" d="M311.6,124.5v-15.2h-9.8v24.9h-36.4v-24.9h-9.8v15.2M255.7,154.9v15.2h9.8v-27.3h36.4v27.3h9.8v-15.2"/>
      <path class="st6" d="M355.5,108.1c-18.8,0-27.5,8.3-29.7,22.1h10.1c2.2-8.7,8.3-13.5,19.1-13.5s15.3,4.5,15.3,10.4-3.3,8.3-17.3,9.8l-10.4,1.1c-13.4,1.5-18.9,7.3-18.9,16.6s6.5,16.5,18.9,16.5,24.8-7.7,29.6-18.9v17.8h9.5v-39.1c0-15.4-8.8-22.8-26.1-22.8s-27.5,8.3-29.7,22.1h10.1c2.2-8.7,8.3-13.5,19.1-13.5s15.3,4.5,15.3,10.4-3.3,8.3-17.3,9.8l-10.4,1.1c-13.4,1.5-18.9,7.3-18.9,16.6s6.5,16.5,18.9,16.5,24.8-7.7,29.6-18.9v17.8h9.5v-39.1c0-15.4-8.8-22.8-26.1-22.8M355.5,108.1c-18.8,0-27.5,8.3-29.7,22.1h10.1c2.2-8.7,8.3-13.5,19.1-13.5s15.3,4.5,15.3,10.4-3.3,8.3-17.3,9.8l-10.4,1.1c-13.4,1.5-18.9,7.3-18.9,16.6s6.5,16.5,18.9,16.5,24.8-7.7,29.6-18.9v17.8h9.5v-39.1c0-15.4-8.8-22.8-26.1-22.8"/>
      <path class="st6" d="M345.7,163.1c-8.7,0-12.3-3.3-12.3-8.5s2.8-7.3,11-9.1l10.6-2.2c9.5-2,14.9-6.3,16.8-10.1v7c0,12.2-11.4,22.8-26.1,22.8s-12.3-3.3-12.3-8.5,2.8-7.3,11-9.1l10.6-2.2c9.5-2,14.9-6.3,16.8-10.1v7c0,12.2-11.4,22.8-26.1,22.8M345.7,163.1c-8.7,0-12.3-3.3-12.3-8.5s2.8-7.3,11-9.1l10.6-2.2c9.5-2,14.9-6.3,16.8-10.1v7c0,12.2-11.4,22.8-26.1,22.8"/>
      <path class="st6" d="M453.4,124.5v-15.2h-48.8l-.9,26.1c-.7,21.3-5.4,25.9-12.3,25.9h-1.7v8.8h2.3c13.3,0,20.2-6.2,21-33.7l.6-18.5h30.1v52.2h9.8v-15.2"/>
      <path class="st6" d="M524.8,150.6h-10.1c-2.2,6.3-7.2,12-19,12s-20.3-6.9-20.9-20.1h50.8v-3.9c0-19.4-11.1-30.5-30-30.5s-30.8,11.1-30.8,30.5v2.1c0,19.4,11.1,30.5,30.8,30.5s27.3-9.6,29.1-20.7h-10.1c-2.2,6.3-7.2,12-19,12s-20.3-6.9-20.9-20.1h50.8v-3.9c0-19.4-11.1-30.5-30-30.5s-30.8,11.1-30.8,30.5v2.1c0,19.4,11.1,30.5,30.8,30.5s27.3-9.6,29.1-20.7M524.8,150.6h-10.1c-2.2,6.3-7.2,12-19,12s-20.3-6.9-20.9-20.1h50.8v-3.9c0-19.4-11.1-30.5-30-30.5s-30.8,11.1-30.8,30.5v2.1c0,19.4,11.1,30.5,30.8,30.5s27.3-9.6,29.1-20.7"/>
      <path class="st6" d="M475,134.6c1.1-12,8.5-18.2,20.5-18.2s18.8,6.2,20,18.2h-40.5c1.1-12,8.5-18.2,20.5-18.2s18.8,6.2,20,18.2h-40.5M475,134.6c1.1-12,8.5-18.2,20.5-18.2s18.8,6.2,20,18.2h-40.5"/>
    </g>
  </g>
</svg>