<?xml version="1.0" encoding="UTF-8"?>
<svg id="Ebene_1" xmlns="http://www.w3.org/2000/svg" xmlns:xlink="http://www.w3.org/1999/xlink" version="1.1" viewBox="0 0 400 791">
  <!-- Generator: Adobe Illustrator 29.6.1, SVG Export Plug-In . SVG Version: 2.1.1 Build 9)  -->
  <defs>
    <style>
      .st0, .st1, .st2, .st3, .st4, .st5, .st6, .st7, .st8, .st9, .st10, .st11, .st12, .st13, .st14, .st15, .st16, .st17, .st18 {
        fill: none;
      }

      .st1 {
        stroke-dasharray: 1.6 1.6;
      }

      .st1, .st2, .st3, .st4, .st5, .st6, .st7, .st8, .st9, .st10, .st11, .st12, .st13, .st14, .st15, .st16, .st17, .st18 {
        stroke: #e96322;
      }

      .st1, .st2, .st4, .st7, .st8, .st9, .st10, .st11, .st12, .st13, .st14, .st15, .st16, .st17, .st18 {
        stroke-width: 14px;
      }

      .st2 {
        stroke-dasharray: 1.1 1.1;
      }

      .st3 {
        stroke-width: 9.1px;
      }

      .st5 {
        stroke-width: 10.7px;
      }

      .st6 {
        stroke-width: 9.5px;
      }

      .st7 {
        stroke-dasharray: 1 1;
      }

      .st8 {
        stroke-dasharray: 1.4 1.4;
      }

      .st9 {
        stroke-dasharray: 10.5 10.5;
      }

      .st19, .st20 {
        isolation: isolate;
      }

      .st10 {
        stroke-dasharray: .8 .8;
      }

      .st20 {
        fill: #010101;
        font-family: ArialMT-Condensed, 'Arial MT';
        font-size: 12px;
      }

      .st21 {
        clip-path: url(#clippath-1);
      }

      .st22 {
        fill: #fff;
      }

      .st11 {
        stroke-dasharray: 0 0;
      }

      .st12 {
        stroke-dasharray: 7.8 7.8;
      }

      .st13 {
        stroke-dasharray: .3 .3;
      }

      .st14 {
        stroke-dasharray: 12.9 12.9;
      }

      .st15 {
        stroke-dasharray: 2.4 2.4;
      }

      .st16 {
        stroke-dasharray: 2.3 2.3;
      }

      .st23 {
        fill: #e96322;
      }

      .st24 {
        clip-path: url(#clippath);
      }

      .st17 {
        stroke-dasharray: 2.1 2.1;
      }

      .st18 {
        stroke-dasharray: 7.4 7.4;
      }
    </style>
    <clipPath id="clippath">
      <rect class="st0" y="0" width="400" height="1000"/>
    </clipPath>
    <clipPath id="clippath-1">
      <rect class="st0" y="0" width="400" height="1000"/>
    </clipPath>
  </defs>
  <rect class="st23" y="0" width="400" height="791"/>
  <g class="st24">
    <g>
      <path class="st22" d="M365.6,64.4h-8.1v69.6h8.1v-69.6ZM328.1,126.2c-3.1,1.6-6.7,2.3-10.8,2.3s-6.8-.8-8.7-2.3c-1.9-1.5-2.9-3.5-2.9-5.9,0-5.2,4.6-8.2,13.8-9l18.4-1.4c0,3.6-.9,6.8-2.6,9.7-1.7,2.8-4.1,5-7.2,6.6M340.1,87.2c-3.7-3.2-9.4-4.8-17.1-4.8s-12.8,1.6-16.6,4.7c-3.8,3.1-5.9,7.5-6.3,13.1h8.2c.4-3.6,1.9-6.3,4.2-8.1,2.4-1.8,6-2.8,10.9-2.8s8.5,1,10.8,3c2.2,2,3.3,5.2,3.3,9.5v1.8l-18.9,1.3c-7.6.6-13.1,2.2-16.3,4.8-3.3,2.6-4.9,6.1-4.9,10.6s1.6,7.9,4.9,10.5c3.2,2.6,8,4,14.3,4s10.8-1.4,14.6-4.3c3.8-2.9,6.4-6.4,7.6-10.6l1.6,14h5.2v-32.5c0-6.3-1.8-11-5.5-14.2M288.3,65c1,1,1.6,2.4,1.6,4s-.5,3.1-1.6,4.1c-1,1-2.5,1.6-4.2,1.6s-3.2-.5-4.2-1.6c-1-1-1.6-2.4-1.6-4.1s.5-3,1.6-4c1-1,2.5-1.6,4.2-1.6s3.2.5,4.2,1.6M288.1,83.4h-8.1v50.5h8.1s0-50.5,0-50.5ZM263.3,88.3c-3.4-3.9-8.3-5.8-14.6-5.8s-9.1,1.3-12.5,3.8-5.8,6.3-7.2,11.4l-1.5-14.2h-5.2v50.5h8.1v-23.1c0-7.2,1.4-12.6,4.2-16.1s6.8-5.2,12-5.2,8.4,1.3,10.6,3.9c2.2,2.6,3.2,7,3.2,13.3v27.2h8.1v-28.3c0-7.7-1.7-13.5-5.1-17.3M205.3,88.3c-3.4-3.9-8.3-5.8-14.6-5.8s-9.1,1.3-12.5,3.8-5.8,6.3-7.2,11.4l-1.5-14.2h-5.2v50.5h8.1v-23.1c0-7.2,1.4-12.6,4.2-16.1s6.8-5.2,12-5.2,8.4,1.3,10.6,3.9,3.2,7,3.2,13.3v27.2h8.1v-28.3c0-7.7-1.7-13.5-5.1-17.3M113.2,104.6c1.1-10.2,6.9-15.3,17.2-15.3s8.7,1.3,11.5,3.9,4.3,6.4,4.7,11.5h-33.4,0ZM154.4,111c.3-1.5.4-3.1.4-5,0-4.7-1-8.8-3-12.4s-4.8-6.3-8.5-8.3-8-3-12.9-3-9.7,1-13.6,3.1c-3.8,2.1-6.8,5-8.9,8.8s-3.1,8.3-3.1,13.4v1.7c0,5.1,1,9.6,3.1,13.4s5,6.8,8.8,8.8c3.8,2.1,8.3,3.1,13.3,3.1s12.4-1.6,16.3-4.8c3.9-3.2,6.4-7.3,7.4-12.3h-8.3c-1.1,3.1-2.8,5.6-5.1,7.3-2.3,1.8-5.7,2.7-10.1,2.7-10.6,0-16.3-5.6-17.2-16.7h41.3v.2ZM95.8,65c1,1,1.6,2.4,1.6,4s-.5,3.1-1.6,4.1c-1,1-2.5,1.6-4.2,1.6s-3.2-.5-4.2-1.6c-1-1-1.6-2.4-1.6-4.1s.5-3,1.6-4c1-1,2.5-1.6,4.2-1.6s3.2.5,4.2,1.6M95.7,83.4h-8.1v50.5h8.1s0-50.5,0-50.5ZM65.6,123c-3,3.1-7.2,4.7-12.7,4.7s-9.8-1.6-12.8-4.8c-3-3.2-4.5-7.9-4.5-14.1s1.5-11.1,4.5-14.4c3-3.2,7.2-4.9,12.8-4.9s9.8,1.6,12.8,4.8c2.9,3.2,4.4,8,4.4,14.4s-1.5,11-4.4,14.2M67.2,85.6c-3.5-2.1-7.4-3.1-11.7-3.1s-8.6,1.1-12.1,3.2-6.1,5.1-7.8,9v-30.3h-8.1v69.6h5.2l1.5-14c1.5,4.7,4.1,8.4,7.9,11,3.7,2.6,8.1,4,13.3,4s8.2-1,11.7-3.1c3.5-2.1,6.2-5,8.1-8.9,2-3.8,3-8.3,3-13.4v-1.7c0-5.1-1-9.5-3-13.4-2-3.8-4.7-6.8-8.1-8.9"/>
      <path class="st3" d="M27.6,116.5v17.4h5.2l1.5-14c1.5,4.7,4.1,8.4,7.9,11,3.7,2.6,8.1,4,13.3,4s8.2-1,11.7-3.1c3.5-2.1,6.2-5,8.1-8.9,2-3.8,3-8.3,3-13.4v-1.7c0-5.1-1-9.5-3-13.4-2-3.8-4.7-6.8-8.1-8.9-3.5-2.1-7.4-3.1-11.7-3.1s-8.6,1.1-12.1,3.2-6,5.1-7.8,9v-30.3h-8.1v17.4"/>
      <path class="st3" d="M65.6,123c-3,3.1-7.2,4.7-12.7,4.7s-9.8-1.6-12.8-4.8c-3-3.2-4.5-7.9-4.5-14.1s1.5-11.1,4.5-14.4c3-3.2,7.2-4.9,12.8-4.9s9.8,1.6,12.8,4.8c2.9,3.2,4.4,8,4.4,14.4s-1.5,11-4.4,14.2c-3,3.1-7.2,4.7-12.7,4.7s-9.8-1.6-12.8-4.8c-3-3.2-4.5-7.9-4.5-14.1s1.5-11.1,4.5-14.4c3-3.2,7.2-4.9,12.8-4.9s9.8,1.6,12.8,4.8c2.9,3.2,4.4,8,4.4,14.4s-1.5,11-4.4,14.2M65.6,123c-3,3.1-7.2,4.7-12.7,4.7s-9.8-1.6-12.8-4.8c-3-3.2-4.5-7.9-4.5-14.1s1.5-11.1,4.5-14.4c3-3.2,7.2-4.9,12.8-4.9s9.8,1.6,12.8,4.8c2.9,3.2,4.4,8,4.4,14.4s-1.5,11-4.4,14.2"/>
      <path class="st3" d="M87.6,121.3v12.6h8.1v-12.6M95.7,96v-12.6h-8.1v12.6"/>
      <path class="st3" d="M95.8,65c1,1,1.6,2.4,1.6,4s-.5,3.1-1.6,4.1c-1,1-2.5,1.6-4.2,1.6s-3.2-.5-4.2-1.6c-1-1-1.6-2.4-1.6-4.1s.5-3,1.6-4c1-1,2.5-1.6,4.2-1.6s3.2.5,4.2,1.6,1.6,2.4,1.6,4-.5,3.1-1.6,4.1c-1,1-2.5,1.6-4.2,1.6s-3.2-.5-4.2-1.6c-1-1-1.6-2.4-1.6-4.1s.5-3,1.6-4c1-1,2.5-1.6,4.2-1.6s3.2.5,4.2,1.6M95.8,65c1,1,1.6,2.4,1.6,4s-.5,3.1-1.6,4.1c-1,1-2.5,1.6-4.2,1.6s-3.2-.5-4.2-1.6c-1-1-1.6-2.4-1.6-4.1s.5-3,1.6-4c1-1,2.5-1.6,4.2-1.6s3.2.5,4.2,1.6"/>
      <path class="st3" d="M144,111h10.3c.3-1.5.4-3.1.4-5,0-4.7-1-8.8-3-12.4s-4.8-6.3-8.5-8.3-8-3-12.9-3-9.7,1-13.6,3.1c-3.8,2.1-6.8,5-8.9,8.8s-3.1,8.3-3.1,13.4v1.7c0,5.1,1,9.6,3.1,13.4s5,6.7,8.8,8.8,8.3,3.1,13.3,3.1,12.4-1.6,16.3-4.8c3.9-3.2,6.4-7.3,7.4-12.3h-8.3c-1.1,3.1-2.8,5.6-5.1,7.3-2.3,1.8-5.7,2.7-10.1,2.7-10.6,0-16.3-5.6-17.2-16.7h10.3"/>
      <path class="st3" d="M113.2,104.6c1.1-10.2,6.9-15.3,17.2-15.3s8.7,1.3,11.5,3.9,4.3,6.4,4.7,11.5h-33.4c1.1-10.2,6.9-15.3,17.2-15.3s8.7,1.3,11.5,3.9,4.3,6.4,4.7,11.5h-33.4M113.2,104.6c1.1-10.2,6.9-15.3,17.2-15.3s8.7,1.3,11.5,3.9,4.3,6.4,4.7,11.5h-33.4"/>
      <path class="st3" d="M164.3,121.3v12.6h8.1v-23.1c0-7.2,1.4-12.6,4.2-16.1s6.8-5.2,12-5.2,8.4,1.3,10.6,3.9,3.2,7,3.2,13.3v27.2h8.1v-28.3c0-7.7-1.7-13.5-5.1-17.3s-8.3-5.8-14.6-5.8-9.1,1.3-12.5,3.8-5.8,6.3-7.2,11.4l-1.5-14.2h-5.2v12.6"/>
      <path class="st3" d="M222.2,121.3v12.6h8.1v-23.1c0-7.2,1.4-12.6,4.2-16.1s6.8-5.2,12-5.2,8.4,1.3,10.6,3.9,3.2,7,3.2,13.3v27.2h8.1v-28.3c0-7.7-1.7-13.5-5.1-17.3s-8.3-5.8-14.6-5.8-9.1,1.3-12.5,3.8-5.8,6.3-7.2,11.4l-1.5-14.2h-5.2v12.6"/>
      <path class="st3" d="M280,121.3v12.6h8.1v-12.6M288.1,96v-12.6h-8.1v12.6"/>
      <path class="st3" d="M288.3,65c1,1,1.6,2.4,1.6,4s-.5,3.1-1.6,4.1c-1,1-2.5,1.6-4.2,1.6s-3.2-.5-4.2-1.6c-1-1-1.6-2.4-1.6-4.1s.5-3,1.6-4c1-1,2.5-1.6,4.2-1.6s3.2.5,4.2,1.6,1.6,2.4,1.6,4-.5,3.1-1.6,4.1c-1,1-2.5,1.6-4.2,1.6s-3.2-.5-4.2-1.6c-1-1-1.6-2.4-1.6-4.1s.5-3,1.6-4c1-1,2.5-1.6,4.2-1.6s3.2.5,4.2,1.6M288.3,65c1,1,1.6,2.4,1.6,4s-.5,3.1-1.6,4.1c-1,1-2.5,1.6-4.2,1.6s-3.2-.5-4.2-1.6c-1-1-1.6-2.4-1.6-4.1s.5-3,1.6-4c1-1,2.5-1.6,4.2-1.6s3.2.5,4.2,1.6"/>
      <path class="st3" d="M340.1,87.2c-3.7-3.2-9.4-4.8-17.1-4.8s-12.8,1.6-16.6,4.7c-3.8,3.1-5.9,7.5-6.3,13.1h8.2c.4-3.6,1.9-6.3,4.2-8.1,2.4-1.8,6-2.8,10.9-2.8s8.5,1,10.8,3c2.2,2,3.3,5.2,3.3,9.5v1.8l-18.9,1.3c-7.6.6-13.1,2.2-16.3,4.8-3.3,2.6-4.9,6.1-4.9,10.6s1.6,7.9,4.9,10.5c3.2,2.6,8,4,14.3,4s10.8-1.4,14.6-4.3c3.8-2.9,6.4-6.4,7.6-10.6l1.6,14h5.2v-32.5c0-6.3-1.8-11-5.5-14.2s-9.4-4.8-17.1-4.8-12.8,1.6-16.6,4.7c-3.8,3.1-5.9,7.5-6.3,13.1h8.2c.4-3.6,1.9-6.3,4.2-8.1,2.4-1.8,6-2.8,10.9-2.8s8.5,1,10.8,3c2.2,2,3.3,5.2,3.3,9.5v1.8l-18.9,1.3c-7.6.6-13.1,2.2-16.3,4.8-3.3,2.6-4.9,6.1-4.9,10.6s1.6,7.9,4.9,10.5c3.2,2.6,8,4,14.3,4s10.8-1.4,14.6-4.3c3.8-2.9,6.4-6.4,7.6-10.6l1.6,14h5.2v-32.5c0-6.3-1.8-11-5.5-14.2M340.1,87.2c-3.7-3.2-9.4-4.8-17.1-4.8s-12.8,1.6-16.6,4.7c-3.8,3.1-5.9,7.5-6.3,13.1h8.2c.4-3.6,1.9-6.3,4.2-8.1,2.4-1.8,6-2.8,10.9-2.8s8.5,1,10.8,3c2.2,2,3.3,5.2,3.3,9.5v1.8l-18.9,1.3c-7.6.6-13.1,2.2-16.3,4.8-3.3,2.6-4.9,6.1-4.9,10.6s1.6,7.9,4.9,10.5c3.2,2.6,8,4,14.3,4s10.8-1.4,14.6-4.3c3.8-2.9,6.4-6.4,7.6-10.6l1.6,14h5.2v-32.5c0-6.3-1.8-11-5.5-14.2"/>
      <path class="st3" d="M328.1,126.2c-3.1,1.6-6.7,2.3-10.8,2.3s-6.8-.8-8.7-2.3c-1.9-1.5-2.9-3.5-2.9-5.9,0-5.2,4.6-8.2,13.8-9l18.4-1.4c0,3.6-.9,6.8-2.6,9.7-1.7,2.8-4.1,5-7.2,6.6s-6.7,2.3-10.8,2.3-6.8-.8-8.7-2.3c-1.9-1.5-2.9-3.5-2.9-5.9,0-5.2,4.6-8.2,13.8-9l18.4-1.4c0,3.6-.9,6.8-2.6,9.7-1.7,2.8-4.1,5-7.2,6.6M328.1,126.2c-3.1,1.6-6.7,2.3-10.8,2.3s-6.8-.8-8.7-2.3c-1.9-1.5-2.9-3.5-2.9-5.9,0-5.2,4.6-8.2,13.8-9l18.4-1.4c0,3.6-.9,6.8-2.6,9.7-1.7,2.8-4.1,5-7.2,6.6"/>
      <path class="st3" d="M365.6,81.7v-17.4h-8.1v17.4M357.5,116.5v17.4h8.1v-17.4"/>
      <path class="st22" d="M421.7,205.5l-16.6,41.4-16.9-41.4h-8.9l21.4,51.3c-1.8,4.5-3.6,7.6-5.4,9.4s-3.9,2.6-6.4,2.6-3.7-.2-5.7-.5v6.8c2,.6,4,.9,6,.9,3.2,0,5.9-.6,8.1-1.7s4.2-3,6-5.4c1.7-2.5,3.5-5.9,5.3-10.2l21.6-53.1h-8.6.1ZM376,256l-20.5-31.3,18.6-19.2h-10.4l-26.9,28.2v-47.3h-8.1v69.6h8.1v-13.2l12.8-13.2,16.9,26.4h9.5Z"/>
      <path class="st6" d="M328.8,238.6v17.4h8.1v-13.2l12.8-13.2,16.9,26.4h9.5l-20.5-31.3,18.6-19.2h-10.4l-6.7,7.1M336.9,198.3v-11.8h-8.1v17.4M343.6,226.7l-6.7,7.1v-11.8"/>
      <path class="st6" d="M424.9,218.8l5.4-13.3h-8.6l-4.1,10.3M395.5,244l5.4,12.8c-1.8,4.5-3.6,7.6-5.4,9.4s-3.9,2.6-6.4,2.6-3.7-.2-5.7-.5v6.8c2,.6,4,.9,6,.9,3.2,0,5.9-.6,8.1-1.7s4.2-3,6-5.4c1.7-2.5,3.5-5.9,5.3-10.2l5.4-13.3M392.5,215.9l-4.2-10.3h-8.9l5.4,12.8M409.2,236.5l-4.1,10.3-4.2-10.3"/>
      <path class="st22" d="M40.8,193h-8.1v69.6h8.1s0-69.6,0-69.6ZM3.3,254.9c-3.1,1.6-6.7,2.3-10.8,2.3s-6.8-.8-8.7-2.3c-1.9-1.5-2.9-3.5-2.9-5.9,0-5.2,4.6-8.2,13.8-9l18.4-1.4c0,3.6-.9,6.8-2.6,9.7-1.7,2.8-4.1,5-7.2,6.6M15.4,215.9c-3.7-3.2-9.4-4.8-17.1-4.8s-12.8,1.6-16.6,4.7c-3.8,3.1-5.9,7.5-6.3,13.1h8.2c.4-3.6,1.9-6.3,4.2-8.1,2.4-1.8,6-2.8,10.9-2.8s8.5,1,10.8,3c2.2,2,3.3,5.2,3.3,9.5v1.8l-18.9,1.3c-7.6.6-13.1,2.2-16.3,4.8-3.3,2.6-4.9,6.1-4.9,10.6s1.6,7.9,4.9,10.5c3.2,2.6,8,4,14.3,4s10.8-1.4,14.6-4.3,6.4-6.4,7.6-10.6l1.6,14h5.2v-32.5c0-6.3-1.8-11-5.5-14.2"/>
      <path class="st3" d="M15.4,215.9c-3.7-3.2-9.4-4.8-17.1-4.8s-12.8,1.6-16.6,4.7c-3.8,3.1-5.9,7.5-6.3,13.1h8.2c.4-3.6,1.9-6.3,4.2-8.1,2.4-1.8,6-2.8,10.9-2.8s8.5,1,10.8,3c2.2,2,3.3,5.2,3.3,9.5v1.8l-18.9,1.3c-7.6.6-13.1,2.2-16.3,4.8-3.3,2.6-4.9,6.1-4.9,10.6s1.6,7.9,4.9,10.5c3.2,2.6,8,4,14.3,4s10.8-1.4,14.6-4.3,6.4-6.4,7.6-10.6l1.6,14h5.2v-32.5c0-6.3-1.8-11-5.5-14.2s-9.4-4.8-17.1-4.8-12.8,1.6-16.6,4.7c-3.8,3.1-5.9,7.5-6.3,13.1h8.2c.4-3.6,1.9-6.3,4.2-8.1,2.4-1.8,6-2.8,10.9-2.8s8.5,1,10.8,3c2.2,2,3.3,5.2,3.3,9.5v1.8l-18.9,1.3c-7.6.6-13.1,2.2-16.3,4.8-3.3,2.6-4.9,6.1-4.9,10.6s1.6,7.9,4.9,10.5c3.2,2.6,8,4,14.3,4s10.8-1.4,14.6-4.3,6.4-6.4,7.6-10.6l1.6,14h5.2v-32.5c0-6.3-1.8-11-5.5-14.2M15.4,215.9c-3.7-3.2-9.4-4.8-17.1-4.8s-12.8,1.6-16.6,4.7c-3.8,3.1-5.9,7.5-6.3,13.1h8.2c.4-3.6,1.9-6.3,4.2-8.1,2.4-1.8,6-2.8,10.9-2.8s8.5,1,10.8,3c2.2,2,3.3,5.2,3.3,9.5v1.8l-18.9,1.3c-7.6.6-13.1,2.2-16.3,4.8-3.3,2.6-4.9,6.1-4.9,10.6s1.6,7.9,4.9,10.5c3.2,2.6,8,4,14.3,4s10.8-1.4,14.6-4.3,6.4-6.4,7.6-10.6l1.6,14h5.2v-32.5c0-6.3-1.8-11-5.5-14.2"/>
      <path class="st3" d="M3.3,254.9c-3.1,1.6-6.7,2.3-10.8,2.3s-6.8-.8-8.7-2.3c-1.9-1.5-2.9-3.5-2.9-5.9,0-5.2,4.6-8.2,13.8-9l18.4-1.4c0,3.6-.9,6.8-2.6,9.7-1.7,2.8-4.1,5-7.2,6.6s-6.7,2.3-10.8,2.3-6.8-.8-8.7-2.3c-1.9-1.5-2.9-3.5-2.9-5.9,0-5.2,4.6-8.2,13.8-9l18.4-1.4c0,3.6-.9,6.8-2.6,9.7-1.7,2.8-4.1,5-7.2,6.6M3.3,254.9c-3.1,1.6-6.7,2.3-10.8,2.3s-6.8-.8-8.7-2.3c-1.9-1.5-2.9-3.5-2.9-5.9,0-5.2,4.6-8.2,13.8-9l18.4-1.4c0,3.6-.9,6.8-2.6,9.7-1.7,2.8-4.1,5-7.2,6.6"/>
      <path class="st3" d="M40.8,210.4v-17.4h-8.1v17.4M32.7,245.2v17.4h8.1v-17.4"/>
      <path class="st22" d="M311.3,34.5c.9-9.3,6.5-14,15.8-14s14.5,4.8,15.4,14h-31.2,0ZM349.7,46.8h-7.8c-1.7,4.9-5.6,9.3-14.7,9.3s-15.6-5.3-16.1-15.5h39.1v-3c0-14.9-8.6-23.5-23.1-23.5s-23.7,8.6-23.7,23.5v1.6c0,14.9,8.6,23.5,23.7,23.5s21-7.4,22.4-15.9M257.1,14.9l-.7,20.1c-.5,16.4-4.2,20-9.5,20h-1.3v6.8h1.8c10.3,0,15.6-4.8,16.2-26l.4-14.2h23.2v40.2h7.5V14.9h-37.6ZM211.8,56.4c-6.7,0-9.5-2.6-9.5-6.5s2.1-5.7,8.5-7l8.1-1.7c7.3-1.5,11.5-4.9,12.9-7.8v5.4c0,9.4-8.7,17.6-20.1,17.6M219.3,14.1c-14.5,0-21.2,6.4-22.9,17.1h7.8c1.7-6.7,6.4-10.4,14.7-10.4s11.8,3.4,11.8,8-2.6,6.4-13.3,7.5l-8,.9c-10.3,1.1-14.6,5.7-14.6,12.8s5,12.7,14.6,12.7,19.1-5.9,22.8-14.6v13.7h7.3v-30.1c0-11.8-6.8-17.6-20.1-17.6M178,14.9v19.2h-28V14.9h-7.5v46.8h7.5v-21h28v21h7.5V14.9h-7.5ZM111.3,62.7c14.5,0,21.7-7.5,23-17.9h-7.8c-1.8,6.9-6.3,11.3-15.3,11.3s-15.7-5.3-16.3-15.2h20.8v-6.5h-20.6c1.1-8.9,6.7-13.6,15.9-13.6s13.2,4.5,14.7,10.1h7.7c-1.1-9.4-8-16.7-22.2-16.7s-23.9,8.6-23.9,23.5v1.6c0,14.9,8.6,23.5,24,23.5M75,6.9c3.8,0,5.4-1.6,5.4-5.3s-1.6-5.2-5.4-5.2-5.4,1.6-5.4,5.2,1.6,5.3,5.4,5.3M71.3,61.8h7.5V14.9h-7.5v46.8h0ZM39.6,56c-10.3,0-16.1-5.8-16.1-16.6v-1.6c0-10.8,5.8-16.6,16.1-16.6s16.1,5.8,16.1,16.6v1.6c0,10.8-5.8,16.6-16.1,16.6M39.7,62.7c15,0,23.6-8.6,23.6-23.5v-1.6c0-14.5-8-22.5-21.7-22.5s-16.6,4.2-19.2,12.4c.4-15.9,5.1-20.6,16.7-21.4l13.3-.9c3.7-.3,6.5-.9,7.7-1.7V-3.8h-.3c-1.3,1.1-3.9,1.8-8,2l-13.6.9C22.7,0,15.2,7.8,15.2,31.3v2.4c0,20.5,8.6,29,24.5,29"/>
      <path class="st5" d="M29,60.9c3.1,1.2,6.7,1.7,10.7,1.7,15,0,23.6-8.6,23.6-23.5v-1.6c0-14.5-8-22.5-21.7-22.5s-16.6,4.2-19.2,12.4c.4-15.9,5.1-20.6,16.7-21.4l13.3-.9c3.7-.3,6.5-.9,7.7-1.7V-3.8h-.3c-1.3,1.1-3.9,1.8-8,2l-13.6.9c-4.2.3-7.9,1-11,2.5M16,20c-.5,3.3-.7,7-.7,11.3v2.4c0,4.1.3,7.7,1,10.8"/>
      <path class="st5" d="M39.6,56c-10.2,0-16.1-5.8-16.1-16.6v-1.6c0-10.8,5.8-16.6,16.1-16.6s16.1,5.8,16.1,16.6v1.6c0,10.8-5.8,16.6-16.1,16.6s-16.1-5.8-16.1-16.6v-1.6c0-10.8,5.8-16.6,16.1-16.6s16.1,5.8,16.1,16.6v1.6c0,10.8-5.8,16.6-16.1,16.6M39.6,56c-10.2,0-16.1-5.8-16.1-16.6v-1.6c0-10.8,5.8-16.6,16.1-16.6s16.1,5.8,16.1,16.6v1.6c0,10.8-5.8,16.6-16.1,16.6"/>
      <path class="st5" d="M71.3,50.1v11.7h7.5v-11.7M78.8,26.6v-11.7h-7.5v11.7"/>
      <path class="st5" d="M75,6.9c3.8,0,5.4-1.6,5.4-5.3s-1.6-5.2-5.4-5.2-5.4,1.6-5.4,5.2,1.6,5.3,5.4,5.3,5.4-1.6,5.4-5.3-1.6-5.2-5.4-5.2-5.4,1.6-5.4,5.2,1.6,5.3,5.4,5.3M75,6.9c3.8,0,5.4-1.6,5.4-5.3s-1.6-5.2-5.4-5.2-5.4,1.6-5.4,5.2,1.6,5.3,5.4,5.3"/>
      <path class="st5" d="M111.3,62.7c14.5,0,21.6-7.5,23-17.9h-7.8c-1.8,6.9-6.3,11.3-15.3,11.3s-15.7-5.3-16.3-15.2h20.8v-6.5h-20.6c1.1-8.9,6.7-13.6,15.9-13.6s13.2,4.5,14.7,10.1h7.7c-1.1-9.4-8-16.7-22.2-16.7s-23.9,8.6-23.9,23.5v1.6c0,14.9,8.6,23.5,24,23.5s21.6-7.5,23-17.9h-7.8c-1.8,6.9-6.3,11.3-15.3,11.3s-15.7-5.3-16.3-15.2h20.8v-6.5h-20.6c1.1-8.9,6.7-13.6,15.9-13.6s13.2,4.5,14.7,10.1h7.7c-1.1-9.4-8-16.7-22.2-16.7s-23.9,8.6-23.9,23.5v1.6c0,14.9,8.6,23.5,24,23.5M111.3,62.7c14.5,0,21.6-7.5,23-17.9h-7.8c-1.8,6.9-6.3,11.3-15.3,11.3s-15.7-5.3-16.3-15.2h20.8v-6.5h-20.6c1.1-8.9,6.7-13.6,15.9-13.6s13.2,4.5,14.7,10.1h7.7c-1.1-9.4-8-16.7-22.2-16.7s-23.9,8.6-23.9,23.5v1.6c0,14.9,8.6,23.5,24,23.5"/>
      <path class="st5" d="M185.5,26.6v-11.7h-7.5v19.2h-28V14.9h-7.5v11.7M142.5,50.1v11.7h7.5v-21h28v21h7.5v-11.7"/>
      <path class="st5" d="M219.3,14.1c-14.5,0-21.2,6.4-22.9,17.1h7.8c1.7-6.7,6.4-10.4,14.7-10.4s11.8,3.4,11.8,8-2.6,6.4-13.3,7.5l-8,.9c-10.3,1.1-14.6,5.7-14.6,12.8s5,12.7,14.6,12.7,19.1-5.9,22.8-14.6v13.7h7.3v-30.1c0-11.8-6.8-17.6-20.1-17.6s-21.2,6.4-22.9,17.1h7.8c1.7-6.7,6.4-10.4,14.7-10.4s11.8,3.4,11.8,8-2.6,6.4-13.3,7.5l-8,.9c-10.3,1.1-14.6,5.7-14.6,12.8s5,12.7,14.6,12.7,19.1-5.9,22.8-14.6v13.7h7.3v-30.1c0-11.8-6.8-17.6-20.1-17.6M219.3,14.1c-14.5,0-21.2,6.4-22.9,17.1h7.8c1.7-6.7,6.4-10.4,14.7-10.4s11.8,3.4,11.8,8-2.6,6.4-13.3,7.5l-8,.9c-10.3,1.1-14.6,5.7-14.6,12.8s5,12.7,14.6,12.7,19.1-5.9,22.8-14.6v13.7h7.3v-30.1c0-11.8-6.8-17.6-20.1-17.6"/>
      <path class="st5" d="M211.8,56.4c-6.7,0-9.5-2.6-9.5-6.5s2.1-5.7,8.5-7l8.1-1.7c7.3-1.5,11.5-4.9,12.9-7.8v5.4c0,9.4-8.7,17.6-20.1,17.6s-9.5-2.6-9.5-6.5,2.1-5.7,8.5-7l8.1-1.7c7.3-1.5,11.5-4.9,12.9-7.8v5.4c0,9.4-8.7,17.6-20.1,17.6M211.8,56.4c-6.7,0-9.5-2.6-9.5-6.5s2.1-5.7,8.5-7l8.1-1.7c7.3-1.5,11.5-4.9,12.9-7.8v5.4c0,9.4-8.7,17.6-20.1,17.6"/>
      <path class="st5" d="M294.7,26.6v-11.7h-37.6l-.7,20.1c-.5,16.4-4.2,20-9.5,20h-1.3v6.8h1.8c10.3,0,15.6-4.8,16.2-26l.4-14.2h23.2v40.2h7.5v-11.7"/>
      <path class="st5" d="M349.7,46.8h-7.8c-1.7,4.9-5.6,9.3-14.7,9.3s-15.6-5.3-16.1-15.5h39.1v-3c0-14.9-8.6-23.5-23.1-23.5s-23.7,8.6-23.7,23.5v1.6c0,14.9,8.6,23.5,23.7,23.5s21-7.4,22.4-15.9h-7.8c-1.7,4.9-5.6,9.3-14.7,9.3s-15.6-5.3-16.1-15.5h39.1v-3c0-14.9-8.6-23.5-23.1-23.5s-23.7,8.6-23.7,23.5v1.6c0,14.9,8.6,23.5,23.7,23.5s21-7.4,22.4-15.9M349.7,46.8h-7.8c-1.7,4.9-5.6,9.3-14.7,9.3s-15.6-5.3-16.1-15.5h39.1v-3c0-14.9-8.6-23.5-23.1-23.5s-23.7,8.6-23.7,23.5v1.6c0,14.9,8.6,23.5,23.7,23.5s21-7.4,22.4-15.9"/>
      <path class="st5" d="M311.3,34.5c.9-9.3,6.5-14,15.8-14s14.5,4.8,15.4,14h-31.2c.9-9.3,6.5-14,15.8-14s14.5,4.8,15.4,14h-31.2M311.3,34.5c.9-9.3,6.5-14,15.8-14s14.5,4.8,15.4,14h-31.2"/>
      <path class="st22" d="M412.4,250.9v19.2h-28v-19.2h-7.5v46.8h7.5v-21h28v21h7.5v-46.8h-7.5ZM345.8,298.6c14.5,0,21.7-7.5,23-17.9h-7.8c-1.8,6.9-6.3,11.3-15.3,11.3s-15.7-5.3-16.3-15.2h20.8v-6.5h-20.6c1.1-8.9,6.7-13.6,15.9-13.6s13.2,4.5,14.7,10.1h7.7c-1.1-9.4-8-16.7-22.2-16.7s-23.9,8.6-23.9,23.5v1.6c0,14.9,8.6,23.5,24,23.5M309.4,242.8c3.8,0,5.4-1.6,5.4-5.3s-1.6-5.2-5.4-5.2-5.4,1.6-5.4,5.2,1.6,5.3,5.4,5.3M305.7,297.7h7.5v-46.8h-7.5v46.8ZM274,292c-10.3,0-16.1-5.8-16.1-16.6v-1.6c0-10.8,5.8-16.6,16.1-16.6s16.1,5.8,16.1,16.6v1.6c0,10.8-5.8,16.6-16.1,16.6M274.1,298.6c15,0,23.6-8.6,23.6-23.5v-1.6c0-14.5-8-22.5-21.7-22.5s-16.6,4.2-19.2,12.4c.4-15.9,5.1-20.6,16.7-21.4l13.3-.9c3.7-.3,6.4-.9,7.7-1.7v-7.2h-.3c-1.3,1.1-3.9,1.8-8,2l-13.6.9c-15.6,1-23.1,8.7-23.1,32.2v2.4c0,20.5,8.6,29,24.5,29"/>
      <path class="st5" d="M263.4,296.9c3.1,1.2,6.7,1.7,10.7,1.7,15,0,23.6-8.6,23.6-23.5v-1.6c0-14.5-8-22.5-21.7-22.5s-16.6,4.2-19.2,12.4c.4-15.9,5.1-20.6,16.7-21.4l13.3-.9c3.7-.3,6.5-.9,7.7-1.7v-7.2h-.3c-1.3,1.1-3.9,1.8-8,2l-13.6.9c-4.2.3-7.9,1-11,2.5M250.4,256c-.5,3.3-.7,7-.7,11.3v2.4c0,4.1.3,7.7,1,10.8"/>
      <path class="st5" d="M274,292c-10.2,0-16.1-5.8-16.1-16.6v-1.6c0-10.8,5.8-16.6,16.1-16.6s16.1,5.8,16.1,16.6v1.6c0,10.8-5.8,16.6-16.1,16.6s-16.1-5.8-16.1-16.6v-1.6c0-10.8,5.8-16.6,16.1-16.6s16.1,5.8,16.1,16.6v1.6c0,10.8-5.8,16.6-16.1,16.6M274,292c-10.2,0-16.1-5.8-16.1-16.6v-1.6c0-10.8,5.8-16.6,16.1-16.6s16.1,5.8,16.1,16.6v1.6c0,10.8-5.8,16.6-16.1,16.6"/>
      <path class="st5" d="M305.7,286v11.7h7.5v-11.7M313.2,262.6v-11.7h-7.5v11.7"/>
      <path class="st5" d="M309.4,242.8c3.8,0,5.4-1.6,5.4-5.3s-1.6-5.2-5.4-5.2-5.4,1.6-5.4,5.2,1.6,5.3,5.4,5.3,5.4-1.6,5.4-5.3-1.6-5.2-5.4-5.2-5.4,1.6-5.4,5.2,1.6,5.3,5.4,5.3M309.4,242.8c3.8,0,5.4-1.6,5.4-5.3s-1.6-5.2-5.4-5.2-5.4,1.6-5.4,5.2,1.6,5.3,5.4,5.3"/>
      <path class="st5" d="M345.8,298.6c14.5,0,21.6-7.5,23-17.9h-7.8c-1.8,6.9-6.3,11.3-15.3,11.3s-15.7-5.3-16.3-15.2h20.8v-6.5h-20.6c1.1-8.9,6.7-13.6,15.9-13.6s13.2,4.5,14.7,10.1h7.7c-1.1-9.4-8-16.7-22.2-16.7s-23.9,8.6-23.9,23.5v1.6c0,14.9,8.6,23.5,24,23.5s21.6-7.5,23-17.9h-7.8c-1.8,6.9-6.3,11.3-15.3,11.3s-15.7-5.3-16.3-15.2h20.8v-6.5h-20.6c1.1-8.9,6.7-13.6,15.9-13.6s13.2,4.5,14.7,10.1h7.7c-1.1-9.4-8-16.7-22.2-16.7s-23.9,8.6-23.9,23.5v1.6c0,14.9,8.6,23.5,24,23.5M345.8,298.6c14.5,0,21.6-7.5,23-17.9h-7.8c-1.8,6.9-6.3,11.3-15.3,11.3s-15.7-5.3-16.3-15.2h20.8v-6.5h-20.6c1.1-8.9,6.7-13.6,15.9-13.6s13.2,4.5,14.7,10.1h7.7c-1.1-9.4-8-16.7-22.2-16.7s-23.9,8.6-23.9,23.5v1.6c0,14.9,8.6,23.5,24,23.5"/>
      <path class="st5" d="M419.9,262.6v-11.7h-7.5v19.2h-28v-19.2h-7.5v11.7M376.9,286v11.7h7.5v-21h28v21h7.5v-11.7"/>
      <path class="st22" d="M307.8,270.4c.9-9.3,6.5-14,15.8-14s14.5,4.8,15.4,14h-31.2,0ZM346.2,282.7h-7.8c-1.7,4.9-5.6,9.3-14.7,9.3s-15.6-5.3-16.1-15.5h39.1v-3c0-14.9-8.6-23.5-23.1-23.5s-23.7,8.6-23.7,23.5v1.6c0,14.9,8.6,23.5,23.7,23.5s21-7.4,22.4-15.9M253.6,250.9l-.7,20.1c-.5,16.4-4.2,20-9.5,20h-1.3v6.8h1.8c10.3,0,15.6-4.8,16.2-26l.4-14.2h23.2v40.2h7.5v-46.8h-37.6ZM208.3,292.3c-6.7,0-9.5-2.6-9.5-6.5s2.1-5.7,8.5-7l8.1-1.7c7.3-1.5,11.5-4.9,12.9-7.8v5.4c0,9.4-8.7,17.6-20.1,17.6M215.8,250c-14.5,0-21.2,6.4-22.9,17.1h7.8c1.7-6.7,6.4-10.4,14.7-10.4s11.8,3.4,11.8,8-2.6,6.4-13.3,7.5l-8,.9c-10.3,1.1-14.6,5.7-14.6,12.8s5,12.7,14.6,12.7,19.1-5.9,22.8-14.6v13.7h7.3v-30.1c0-11.8-6.8-17.6-20.1-17.6M174.5,250.9v19.2h-28v-19.2h-7.5v46.8h7.5v-21h28v21h7.5v-46.8h-7.5ZM107.8,298.6c14.5,0,21.7-7.5,23-17.9h-7.8c-1.8,6.9-6.3,11.3-15.3,11.3s-15.7-5.3-16.3-15.2h20.8v-6.5h-20.6c1.1-8.9,6.7-13.6,15.9-13.6s13.2,4.5,14.7,10.1h7.7c-1.1-9.4-8-16.7-22.2-16.7s-23.9,8.6-23.9,23.5v1.6c0,14.9,8.6,23.5,24,23.5M71.5,242.8c3.8,0,5.4-1.6,5.4-5.3s-1.6-5.2-5.4-5.2-5.4,1.6-5.4,5.2,1.6,5.3,5.4,5.3M67.8,297.7h7.5v-46.8h-7.5v46.8ZM36.1,292c-10.3,0-16.1-5.8-16.1-16.6v-1.6c0-10.8,5.8-16.6,16.1-16.6s16.1,5.8,16.1,16.6v1.6c0,10.8-5.8,16.6-16.1,16.6M36.2,298.6c15,0,23.6-8.6,23.6-23.5v-1.6c0-14.5-8-22.5-21.7-22.5s-16.6,4.2-19.2,12.4c.4-15.9,5.1-20.6,16.7-21.4l13.3-.9c3.7-.3,6.4-.9,7.7-1.7v-7.2h-.3c-1.3,1.1-3.9,1.8-8,2l-13.6.9c-15.6,1-23.1,8.7-23.1,32.2v2.4c0,20.5,8.6,29,24.5,29"/>
      <path class="st5" d="M25.5,296.9c3.1,1.2,6.7,1.7,10.7,1.7,15,0,23.6-8.6,23.6-23.5v-1.6c0-14.5-8-22.5-21.7-22.5s-16.6,4.2-19.2,12.4c.4-15.9,5.1-20.6,16.7-21.4l13.3-.9c3.7-.3,6.5-.9,7.7-1.7v-7.2h-.3c-1.3,1.1-3.9,1.8-8,2l-13.6.9c-4.2.3-7.9,1-11,2.5M12.5,256c-.5,3.3-.7,7-.7,11.3v2.4c0,4.1.3,7.7,1,10.8"/>
      <path class="st5" d="M36.1,292c-10.2,0-16.1-5.8-16.1-16.6v-1.6c0-10.8,5.8-16.6,16.1-16.6s16.1,5.8,16.1,16.6v1.6c0,10.8-5.8,16.6-16.1,16.6s-16.1-5.8-16.1-16.6v-1.6c0-10.8,5.8-16.6,16.1-16.6s16.1,5.8,16.1,16.6v1.6c0,10.8-5.8,16.6-16.1,16.6M36.1,292c-10.2,0-16.1-5.8-16.1-16.6v-1.6c0-10.8,5.8-16.6,16.1-16.6s16.1,5.8,16.1,16.6v1.6c0,10.8-5.8,16.6-16.1,16.6"/>
      <path class="st5" d="M67.8,286v11.7h7.5v-11.7M75.3,262.6v-11.7h-7.5v11.7"/>
      <path class="st5" d="M71.5,242.8c3.8,0,5.4-1.6,5.4-5.3s-1.6-5.2-5.4-5.2-5.4,1.6-5.4,5.2,1.6,5.3,5.4,5.3,5.4-1.6,5.4-5.3-1.6-5.2-5.4-5.2-5.4,1.6-5.4,5.2,1.6,5.3,5.4,5.3M71.5,242.8c3.8,0,5.4-1.6,5.4-5.3s-1.6-5.2-5.4-5.2-5.4,1.6-5.4,5.2,1.6,5.3,5.4,5.3"/>
      <path class="st5" d="M107.8,298.6c14.5,0,21.6-7.5,23-17.9h-7.8c-1.8,6.9-6.3,11.3-15.3,11.3s-15.7-5.3-16.3-15.2h20.8v-6.5h-20.6c1.1-8.9,6.7-13.6,15.9-13.6s13.2,4.5,14.7,10.1h7.7c-1.1-9.4-8-16.7-22.2-16.7s-23.9,8.6-23.9,23.5v1.6c0,14.9,8.6,23.5,24,23.5s21.6-7.5,23-17.9h-7.8c-1.8,6.9-6.3,11.3-15.3,11.3s-15.7-5.3-16.3-15.2h20.8v-6.5h-20.6c1.1-8.9,6.7-13.6,15.9-13.6s13.2,4.5,14.7,10.1h7.7c-1.1-9.4-8-16.7-22.2-16.7s-23.9,8.6-23.9,23.5v1.6c0,14.9,8.6,23.5,24,23.5M107.8,298.6c14.5,0,21.6-7.5,23-17.9h-7.8c-1.8,6.9-6.3,11.3-15.3,11.3s-15.7-5.3-16.3-15.2h20.8v-6.5h-20.6c1.1-8.9,6.7-13.6,15.9-13.6s13.2,4.5,14.7,10.1h7.7c-1.1-9.4-8-16.7-22.2-16.7s-23.9,8.6-23.9,23.5v1.6c0,14.9,8.6,23.5,24,23.5"/>
      <path class="st5" d="M181.4,262.6v-11.7h-7.4v19.2h-27.6v-19.2h-7.4v11.7M139,286v11.7h7.4v-21h27.6v21h7.4v-11.7"/>
      <path class="st5" d="M215.8,250c-14.5,0-21.2,6.4-22.9,17.1h7.8c1.7-6.7,6.4-10.4,14.7-10.4s11.8,3.4,11.8,8-2.6,6.4-13.3,7.5l-8,.9c-10.3,1.1-14.6,5.7-14.6,12.8s5,12.7,14.6,12.7,19.1-5.9,22.8-14.6v13.7h7.3v-30.1c0-11.8-6.8-17.6-20.1-17.6s-21.2,6.4-22.9,17.1h7.8c1.7-6.7,6.4-10.4,14.7-10.4s11.8,3.4,11.8,8-2.6,6.4-13.3,7.5l-8,.9c-10.3,1.1-14.6,5.7-14.6,12.8s5,12.7,14.6,12.7,19.1-5.9,22.8-14.6v13.7h7.3v-30.1c0-11.8-6.8-17.6-20.1-17.6M215.8,250c-14.5,0-21.2,6.4-22.9,17.1h7.8c1.7-6.7,6.4-10.4,14.7-10.4s11.8,3.4,11.8,8-2.6,6.4-13.3,7.5l-8,.9c-10.3,1.1-14.6,5.7-14.6,12.8s5,12.7,14.6,12.7,19.1-5.9,22.8-14.6v13.7h7.3v-30.1c0-11.8-6.8-17.6-20.1-17.6"/>
      <path class="st5" d="M208.3,292.3c-6.7,0-9.5-2.6-9.5-6.5s2.1-5.7,8.5-7l8.1-1.7c7.3-1.5,11.5-4.9,12.9-7.8v5.4c0,9.4-8.7,17.6-20.1,17.6s-9.5-2.6-9.5-6.5,2.1-5.7,8.5-7l8.1-1.7c7.3-1.5,11.5-4.9,12.9-7.8v5.4c0,9.4-8.7,17.6-20.1,17.6M208.3,292.3c-6.7,0-9.5-2.6-9.5-6.5s2.1-5.7,8.5-7l8.1-1.7c7.3-1.5,11.5-4.9,12.9-7.8v5.4c0,9.4-8.7,17.6-20.1,17.6"/>
      <path class="st5" d="M291.2,262.6v-11.7h-37.6l-.7,20.1c-.5,16.4-4.2,20-9.5,20h-1.3v6.8h1.8c10.3,0,15.6-4.8,16.2-26l.4-14.2h23.2v40.2h7.5v-11.7"/>
      <path class="st5" d="M346.2,282.7h-7.8c-1.7,4.9-5.6,9.3-14.7,9.3s-15.6-5.3-16.1-15.5h39.1v-3c0-14.9-8.6-23.5-23.1-23.5s-23.7,8.6-23.7,23.5v1.6c0,14.9,8.6,23.5,23.7,23.5s21-7.4,22.4-15.9h-7.8c-1.7,4.9-5.6,9.3-14.7,9.3s-15.6-5.3-16.1-15.5h39.1v-3c0-14.9-8.6-23.5-23.1-23.5s-23.7,8.6-23.7,23.5v1.6c0,14.9,8.6,23.5,23.7,23.5s21-7.4,22.4-15.9M346.2,282.7h-7.8c-1.7,4.9-5.6,9.3-14.7,9.3s-15.6-5.3-16.1-15.5h39.1v-3c0-14.9-8.6-23.5-23.1-23.5s-23.7,8.6-23.7,23.5v1.6c0,14.9,8.6,23.5,23.7,23.5s21-7.4,22.4-15.9"/>
      <path class="st5" d="M307.8,270.4c.9-9.3,6.5-14,15.8-14s14.5,4.8,15.4,14h-31.2c.9-9.3,6.5-14,15.8-14s14.5,4.8,15.4,14h-31.2M307.8,270.4c.9-9.3,6.5-14,15.8-14s14.5,4.8,15.4,14h-31.2"/>
      <line class="st12" x1="239" y1="260.5" x2="227.3" y2="260.5"/>
      <path class="st17" d="M218.8,211c-1.1.2-2.1.5-3.1.9"/>
      <path class="st8" d="M203.9,222.6c-.3.6-.5,1.3-.7,1.9"/>
      <line class="st11" x1="209" y1="232.1" x2="209.2" y2="232.1"/>
      <path class="st1" d="M214.5,242.6c-.7.3-1.5.7-2.1,1.1"/>
      <path class="st2" d="M202.4,255.5c-.2.5-.3,1.1-.4,1.6"/>
      <line class="st14" x1="221.1" y1="272.6" x2="240.4" y2="272.6"/>
      <path class="st4" d="M246.9,272.6h7v-12.1h-7M201.9,257.7c-.4,2.1-.6,4.4-.6,7v8h7M211.6,244.1c-2.2,1.3-4,2.7-5.4,4.3-1.5,1.7-2.6,3.7-3.4,6M209.2,232.1h7c.2-3.4,1.3-6,3.1-7.6,1.9-1.7,4.7-2.5,8.6-2.5s6.1.7,7.8,2,2.6,3.1,2.6,5.4-.4,2.9-1.2,4-2.4,2.2-4.6,3.2-5.6,2.1-9.9,3.2c-2.4.6-4.7,1.3-6.7,2.1M203,225.2c-.6,2.1-.9,4.4-1,6.9h7M214.7,212.3c-2.3.9-4.3,2.1-6,3.6-1.8,1.6-3.2,3.4-4.3,5.5M223.4,260.5h-7c.1-1.9.6-3.5,1.4-4.8.8-1.3,2.3-2.5,4.4-3.6,2.1-1.1,5-2.2,8.9-3.2,5.2-1.5,9.3-3.1,12.4-4.9,3.1-1.8,5.4-3.9,6.8-6.4,1.4-2.5,2.1-5.5,2.1-9s-.9-6.6-2.7-9.4c-1.8-2.8-4.6-5-8.3-6.6s-8.2-2.4-13.5-2.4-4.8.2-7,.5"/>
      <line class="st10" x1="273.3" y1="231.6" x2="273.4" y2="230.3"/>
      <line class="st9" x1="291.8" y1="211.2" x2="276" y2="211.2"/>
      <line class="st18" x1="262.1" y1="225.5" x2="260.9" y2="236.6"/>
      <line class="st13" x1="266.9" y1="247.3" x2="267.3" y2="247.3"/>
      <line class="st13" x1="266.7" y1="253.3" x2="266.3" y2="253.3"/>
      <path class="st7" d="M261,261.1c.2.5.4.9.7,1.3"/>
      <path class="st16" d="M274.7,272.3c1.1.3,2.2.6,3.4.8"/>
      <path class="st15" d="M295.4,272.7c1.2-.3,2.3-.6,3.4-1"/>
      <path class="st1" d="M310.7,260.6c.3-.7.6-1.5.8-2.2"/>
    </g>
  </g>
  <g class="st21">
    <g>
      <g class="st19">
        <text class="st20" transform="translate(19.9 1011.8)"><tspan x="0" y="0">e</tspan></text>
        <text class="st20" transform="translate(26.3 1011.8)"><tspan x="0" y="0">x</tspan></text>
        <text class="st20" transform="translate(33.7 1011.8)"><tspan x="0" y="0">p</tspan></text>
        <text class="st20" transform="translate(41.4 1011.8)"><tspan x="0" y="0">erien</tspan></text>
        <text class="st20" transform="translate(70.6 1011.8)"><tspan x="0" y="0">c</tspan></text>
        <text class="st20" transform="translate(76.8 1011.8)"><tspan x="0" y="0">e</tspan></text>
        <text class="st20" transform="translate(83.5 1011.8)"><tspan x="0" y="0">s of </tspan></text>
        <text class="st20" transform="translate(109 1011.8)"><tspan x="0" y="0">c</tspan></text>
        <text class="st20" transform="translate(115.3 1011.8)"><tspan x="0" y="0">olonial violen</tspan></text>
        <text class="st20" transform="translate(193 1011.8)"><tspan x="0" y="0">c</tspan></text>
        <text class="st20" transform="translate(199.2 1011.8)"><tspan x="0" y="0">e</tspan></text>
        <text class="st20" transform="translate(205.8 1011.8)"><tspan x="0" y="0">, e</tspan></text>
        <text class="st20" transform="translate(220.1 1011.8)"><tspan x="0" y="0">r</tspan></text>
        <text class="st20" transform="translate(224.8 1011.8)"><tspan x="0" y="0">asu</tspan></text>
        <text class="st20" transform="translate(245 1011.8)"><tspan x="0" y="0">r</tspan></text>
        <text class="st20" transform="translate(249.9 1011.8)"><tspan x="0" y="0">e and </tspan></text>
        <text class="st20" transform="translate(285.8 1011.8)"><tspan x="0" y="0">g</tspan></text>
        <text class="st20" transform="translate(293.2 1011.8)"><tspan x="0" y="0">en</tspan></text>
        <text class="st20" transform="translate(307.3 1011.8)"><tspan x="0" y="0">o</tspan></text>
        <text class="st20" transform="translate(314.8 1011.8)"><tspan x="0" y="0">cide</tspan></text>
      </g>
      <g class="st19">
        <text class="st20" transform="translate(19.9 1026.8)"><tspan x="0" y="0">t</tspan></text>
        <text class="st20" transform="translate(24.4 1026.8)"><tspan x="0" y="0">h</tspan></text>
        <text class="st20" transform="translate(31.8 1026.8)"><tspan x="0" y="0">a</tspan></text>
        <text class="st20" transform="translate(38.3 1026.8)"><tspan x="0" y="0">t n</tspan></text>
        <text class="st20" transform="translate(54 1026.8)"><tspan x="0" y="0">o</tspan></text>
        <text class="st20" transform="translate(61.3 1026.8)"><tspan x="0" y="0">t only d</tspan></text>
        <text class="st20" transform="translate(105.5 1026.8)"><tspan x="0" y="0">e</tspan></text>
        <text class="st20" transform="translate(112.2 1026.8)"><tspan x="0" y="0">f</tspan></text>
        <text class="st20" transform="translate(116.7 1026.8)"><tspan x="0" y="0">ine the hi</tspan></text>
        <text class="st20" transform="translate(171.5 1026.8)"><tspan x="0" y="0">s</tspan></text>
        <text class="st20" transform="translate(177.5 1026.8)"><tspan x="0" y="0">t</tspan></text>
        <text class="st20" transform="translate(181.9 1026.8)"><tspan x="0" y="0">ory of Ea</tspan></text>
        <text class="st20" transform="translate(232.9 1026.8)"><tspan x="0" y="0">s</tspan></text>
        <text class="st20" transform="translate(238.9 1026.8)"><tspan x="0" y="0">t</tspan></text>
        <text class="st20" transform="translate(243.3 1026.8)"><tspan x="0" y="0">ern Eu</tspan></text>
        <text class="st20" transform="translate(280.1 1026.8)"><tspan x="0" y="0">r</tspan></text>
        <text class="st20" transform="translate(285 1026.8)"><tspan x="0" y="0">o</tspan></text>
        <text class="st20" transform="translate(292.4 1026.8)"><tspan x="0" y="0">p</tspan></text>
        <text class="st20" transform="translate(300 1026.8)"><tspan x="0" y="0">e</tspan></text>
        <text class="st20" transform="translate(306.6 1026.8)"><tspan x="0" y="0">, but</tspan></text>
      </g>
      <g class="st19">
        <text class="st20" transform="translate(19.9 1041.8)"><tspan x="0" y="0">m</tspan></text>
        <text class="st20" transform="translate(31 1041.8)"><tspan x="0" y="0">a</tspan></text>
        <text class="st20" transform="translate(37.7 1041.8)"><tspan x="0" y="0">n</tspan></text>
        <text class="st20" transform="translate(44.9 1041.8)"><tspan x="0" y="0">y </tspan></text>
        <text class="st20" transform="translate(55 1041.8)"><tspan x="0" y="0">r</tspan></text>
        <text class="st20" transform="translate(59.8 1041.8)"><tspan x="0" y="0">egions in the </tspan></text>
        <text class="st20" transform="translate(139.3 1041.8)"><tspan x="0" y="0">w</tspan></text>
        <text class="st20" transform="translate(148.5 1041.8)"><tspan x="0" y="0">orld including th</tspan></text>
        <text class="st20" transform="translate(245.2 1041.8)"><tspan x="0" y="0">o</tspan></text>
        <text class="st20" transform="translate(252.6 1041.8)"><tspan x="0" y="0">se neigh</tspan></text>
        <text class="st20" transform="translate(301.8 1041.8)"><tspan x="0" y="0">b</tspan></text>
        <text class="st20" transform="translate(309.4 1041.8)"><tspan x="0" y="0">ouring</tspan></text>
      </g>
      <g class="st19">
        <text class="st20" transform="translate(19.9 1056.8)"><tspan x="0" y="0">Uk</tspan></text>
        <text class="st20" transform="translate(35.2 1056.8)"><tspan x="0" y="0">r</tspan></text>
        <text class="st20" transform="translate(40 1056.8)"><tspan x="0" y="0">ain</tspan></text>
        <text class="st20" transform="translate(57.5 1056.8)"><tspan x="0" y="0">e</tspan></text>
        <text class="st20" transform="translate(64.1 1056.8)"><tspan x="0" y="0">. N</tspan></text>
        <text class="st20" transform="translate(80.6 1056.8)"><tspan x="0" y="0">o</tspan></text>
        <text class="st20" transform="translate(87.9 1056.8)"><tspan x="0" y="0">t limi</tspan></text>
        <text class="st20" transform="translate(117.8 1056.8)"><tspan x="0" y="0">t</tspan></text>
        <text class="st20" transform="translate(122.1 1056.8)"><tspan x="0" y="0">e</tspan></text>
        <text class="st20" transform="translate(128.9 1056.8)"><tspan x="0" y="0">d me</tspan></text>
        <text class="st20" transform="translate(158.2 1056.8)"><tspan x="0" y="0">r</tspan></text>
        <text class="st20" transform="translate(163.1 1056.8)"><tspan x="0" y="0">ely </tspan></text>
        <text class="st20" transform="translate(183.3 1056.8)"><tspan x="0" y="0">t</tspan></text>
        <text class="st20" transform="translate(187.7 1056.8)"><tspan x="0" y="0">o </tspan></text>
        <text class="st20" transform="translate(198.8 1056.8)"><tspan x="0" y="0">C</tspan></text>
        <text class="st20" transform="translate(207.2 1056.8)"><tspan x="0" y="0">e</tspan></text>
        <text class="st20" transform="translate(213.9 1056.8)"><tspan x="0" y="0">n</tspan></text>
        <text class="st20" transform="translate(221.3 1056.8)"><tspan x="0" y="0">t</tspan></text>
        <text class="st20" transform="translate(225.8 1056.8)"><tspan x="0" y="0">r</tspan></text>
        <text class="st20" transform="translate(230.5 1056.8)"><tspan x="0" y="0">al Ea</tspan></text>
        <text class="st20" transform="translate(257.5 1056.8)"><tspan x="0" y="0">s</tspan></text>
        <text class="st20" transform="translate(263.5 1056.8)"><tspan x="0" y="0">t</tspan></text>
        <text class="st20" transform="translate(267.9 1056.8)"><tspan x="0" y="0">ern Eu</tspan></text>
        <text class="st20" transform="translate(304.7 1056.8)"><tspan x="0" y="0">r</tspan></text>
        <text class="st20" transform="translate(309.6 1056.8)"><tspan x="0" y="0">o</tspan></text>
        <text class="st20" transform="translate(317 1056.8)"><tspan x="0" y="0">p</tspan></text>
        <text class="st20" transform="translate(324.6 1056.8)"><tspan x="0" y="0">e</tspan></text>
      </g>
      <g class="st19">
        <text class="st20" transform="translate(19.9 1071.8)"><tspan x="0" y="0">but unde</tspan></text>
        <text class="st20" transform="translate(72.3 1071.8)"><tspan x="0" y="0">r</tspan></text>
        <text class="st20" transform="translate(77.2 1071.8)"><tspan x="0" y="0">s</tspan></text>
        <text class="st20" transform="translate(83.2 1071.8)"><tspan x="0" y="0">t</tspan></text>
        <text class="st20" transform="translate(87.6 1071.8)"><tspan x="0" y="0">oo</tspan></text>
        <text class="st20" transform="translate(102.6 1071.8)"><tspan x="0" y="0">d </tspan></text>
        <text class="st20" transform="translate(113.9 1071.8)"><tspan x="0" y="0">t</tspan></text>
        <text class="st20" transform="translate(118.3 1071.8)"><tspan x="0" y="0">o</tspan></text>
        <text class="st20" transform="translate(125.7 1071.8)"><tspan x="0" y="0">g</tspan></text>
        <text class="st20" transform="translate(133 1071.8)"><tspan x="0" y="0">e</tspan></text>
        <text class="st20" transform="translate(139.7 1071.8)"><tspan x="0" y="0">ther with Eu</tspan></text>
        <text class="st20" transform="translate(209.4 1071.8)"><tspan x="0" y="0">r</tspan></text>
        <text class="st20" transform="translate(214.3 1071.8)"><tspan x="0" y="0">o</tspan></text>
        <text class="st20" transform="translate(221.6 1071.8)"><tspan x="0" y="0">p</tspan></text>
        <text class="st20" transform="translate(229.3 1071.8)"><tspan x="0" y="0">e</tspan></text>
        <text class="st20" transform="translate(235.6 1071.8)"><tspan x="0" y="0">’s </tspan></text>
        <text class="st20" transform="translate(249.3 1071.8)"><tspan x="0" y="0">p</tspan></text>
        <text class="st20" transform="translate(256.9 1071.8)"><tspan x="0" y="0">o</tspan></text>
        <text class="st20" transform="translate(264.4 1071.8)"><tspan x="0" y="0">s</tspan></text>
        <text class="st20" transform="translate(270.4 1071.8)"><tspan x="0" y="0">t-</tspan></text>
        <text class="st20" transform="translate(281.8 1071.8)"><tspan x="0" y="0">S</tspan></text>
        <text class="st20" transform="translate(288.3 1071.8)"><tspan x="0" y="0">o</tspan></text>
        <text class="st20" transform="translate(295.5 1071.8)"><tspan x="0" y="0">vi</tspan></text>
        <text class="st20" transform="translate(305.2 1071.8)"><tspan x="0" y="0">e</tspan></text>
        <text class="st20" transform="translate(311.8 1071.8)"><tspan x="0" y="0">t Ea</tspan></text>
        <text class="st20" transform="translate(333.2 1071.8)"><tspan x="0" y="0">s</tspan></text>
        <text class="st20" transform="translate(339.3 1071.8)"><tspan x="0" y="0">t,</tspan></text>
      </g>
    </g>
  </g>
</svg>