<?xml version="1.0" encoding="UTF-8"?>
<svg id="Ebene_1" xmlns="http://www.w3.org/2000/svg" xmlns:xlink="http://www.w3.org/1999/xlink" version="1.1" viewBox="0 0 1166 794.6">
  <!-- Generator: Adobe Illustrator 29.6.1, SVG Export Plug-In . SVG Version: 2.1.1 Build 9)  -->
  <defs>
    <style>
      .st0 {
        fill: none;
      }

      .st1 {
        fill: #b9c7c9;
      }

      .st2 {
        fill: #343434;
      }

      .st3 {
        fill: #333;
      }

      .st4 {
        clip-path: url(#clippath);
      }
    </style>
    <clipPath id="clippath">
      <rect class="st0" x="80.1" y="0" width="1004.8" height="794.6"/>
    </clipPath>
  </defs>
  <g class="st4">
    <g>
      <path class="st2" d="M410.9,720.5c0,.5,0,1.1.2,1.7,0,.3.3.6.6.6s.6,0,.9-.3c.4-.3.7-.7.5-1.2-.3-.7-.7-1.4-1.1-2.1,0,0-.3-.2-.4,0-.1,0-.2.2-.3.3-.1.3-.2.6-.3,1M300.7,626.3v-.5s-.2-.2-.3-.2c-3.4-.4-6.7.2-9.9,1.1-1.1.3-1.8,1.2-2,2.4-.1.6.5,1.3,1.1,1.1h.5c3.3-1.1,6.6-2.2,9.9-3.4.3,0,.5-.4.7-.6M258.5,665.8c-.8-2.2-1.6-4.4-2.9-6.5-.2-.3-.8-.6-1.2-.7h-1.4c-.5,0-1.2.8-1,1.3.5,1.2,1,2.4,1.5,3.5.5,1.2,1.1,2.3,1.6,3.4.3.7,1.2.8,2.1.4.3,0,.6-.3.8-.5s.3-.5.4-.9M245.5,658.5h-.9c-.9,0-1.5.9-1.1,1.6,1.6,3.1,3.3,6.1,5,9.2.1.3.3.6.6.7.2.2.5.3.8.4,1.3.2,2.5-1.3,1.9-2.4-1.3-2.7-2.6-5.4-4-8.1-.5-.9-1.3-1.4-2.3-1.4M405.2,604.8s-.2.3-.2.4c.2,3.1.5,6.3,1.1,9.4.1.6.5,1.1,1.1,1.4,2.4,1.1,2.9.9,3.9-1.6.6-1.5,1.2-2.9,1.7-4.4.5-1.4.3-2.1-1-2.7-1.9-.9-3.8-1.7-5.6-2.5h-.9M300.2,726.1h9.1c.6,0,1.3,0,1.9-.3.4,0,.8-.6.9-1,.4-3.2.3-6.3,0-9.5,0-.6-.8-1.1-1.4-.9-.5,0-1,0-1.4.2-4.5,1.4-9,3-13.4,5-1.3.6-2.6,1.3-3.8,2-.8.5-1.6,1-2.4,1.6-.3.2-.5.4-.6.7-.2.4-.4.9-.3,1.3,0,.5.5.8,1,.8h10.5M336.5,706.5c-.1.8-.4,1.6-.4,2.4v14.8c0,.5,0,1,.2,1.4s.6.8.9,1c.4.2.9.2,1.4.2h20.1c.5,0,1.1-.7,1.2-1.3,0-.6.2-1.3.2-1.9v-14.8c0-8.4-1-7.3,7.4-7.3h34c1.3,0,2.5,0,3.8-.2.3,0,.9-.7.8-1-.2-1.1-.4-2.2-.7-3.2-.1-.3-.7-.7-1.1-.7h-2.4c-2.7.4-5.3.9-8,1.3-4.2.7-8.5,1.3-12.7,2-.4-.5-.8-.8-.9-1.2-.3-1.4-.5-2.8-.7-4.2-.4-2.7-.7-5.4-1-8.1,0-.4-.8-.7-1.2-.4-.7.4-1.3.9-2,1.4-5.6,4.3-11.6,7.9-17.9,11.1-5.6,2.8-11.3,5.2-17.1,7.5-1.3.5-2.7,1-4.1,1.6M407.2,629.1c0,.3,0,.5-.4.6-.4,0-.6-.2-.3-.5.1,0,.5,0,.7-.2v-1.3c0-.4-.2-.5-.5-.2v.4l.6,1.2M519.4,564.2c-1.3,0-2.6-.2-3.8-.4-8.4-1.6-16.8-2-25.3-1.5-10.3.6-20.3,2.5-29.8,6.5-13.8,5.7-24.9,14.8-33.2,27.3-5.6,8.5-9.6,17.7-12.2,27.5-2.1,7.6-3.3,15.3-4,23.1-1,10.4-.9,20.8-.6,31.1.4,11.7,2,23.2,5.5,34.5,2.5,8,5.8,15.6,10.3,22.6,7.7,12.2,18.1,21.4,31.2,27.5,1.3.6,2.7,1,3.8,2.1,0,.4,0,.9-.1,1.4-2.1,6.7-4.2,13.4-6.4,20.1-.2.6-.4,1.2-.6,1.8-.2.5-1.1.9-1.6.7-2.1-.7-4.2-1.5-6.3-2.3-.4-.2-.7-.7-1-1,2.9-7.6,6.3-15,9.1-22.4-1.4-1.7-3.2-2-4.8-2.8-1.3-.7-2-.4-2.7.9-3,5.6-6,11.3-9,16.9-.5,1-1.1,1.9-1.8,2.8-.1.2-.6.3-.8.2-.7-.2-1.5-.5-2.2-.9-6.4-3.6-12.3-8-17.8-12.9-.9-.9-1.9-1.7-2.9-2.5h-.4c-.4,0-.6.2-.6.6,0,1.1-.2,2.2-.2,3.3v20.1c0,2.1-.5,2.6-2.5,2.7h-43.6c-1.1,0-2.2,0-3.3-.2-.4,0-.7-.5-1-.9-.2-.2-.2-.6-.2-.9v-19.7c0-.3,0-.7.2-.9.2-.4.6-.9.9-.9.9-.2,1.9-.2,2.9-.2h19.6c.6,0,1.2-.6,1.3-1.2,0-.5.1-1,.1-1.4v-16.3c0-.5,0-1-.1-1.4,0-.6-.7-1.2-1.2-1.3-.5,0-.9-.2-1.4-.2h-133.4c-1.2,0-1.9-.7-1.8-1.7.5-8,1.8-15.9,5.1-23.3,2.4-5.4,5.9-9.9,10.3-13.7,3.5-3.1,7.4-5.6,11.5-7.7,6.2-3.3,12.8-5.9,19.4-8.3,7.1-2.5,14.3-4.6,21.5-6.8,8.9-2.7,17.6-5.8,26-9.6,5.2-2.4,10.3-5.1,15.1-8.2,3.9-2.6,7.5-5.4,10.8-8.8,6.7-6.8,10.9-14.9,12.7-24.3,1.7-9.1,1.6-18.1-.8-27.1-3.3-12.4-10.2-22.3-20.6-29.7-7.7-5.5-16.1-9-25.2-11.3-7.9-1.9-16-2.9-24.2-3-6.6,0-13.1,0-19.6,1-8.1,1.1-16,3-23.5,6.2-15,6.5-25.9,17.3-33.1,31.9-3.2,6.7-5.3,13.7-6.6,20.9-.6,3.3-1.1,6.6-1.2,10v1.4c0,1.1.6,1.7,1.8,1.7h19.1c.8,0,1.6,0,2.4-.2.4,0,.9-.5.9-.9.4-2,.7-4.1,1.1-6.1.9-5.5,2.3-10.9,4.6-16.1.5-1,.9-2.1,1.4-3,5-9.8,12.7-16.7,23-20.7,5.9-2.2,12-3.5,18.2-4s12.5-.5,18.7,0c6.7.6,13.3,1.9,19.5,4.7,4.3,1.9,8.1,4.5,11.4,7.9,5.6,5.7,8.6,12.6,8.8,20.6.1,3.8,0,7.7-1,11.4-1.5,5.5-4.1,10.4-8.3,14.3s-5.9,4.9-9.2,6.8c-4.5,2.7-9.3,4.9-14.2,6.9-9.3,3.8-18.9,6.9-28.6,9.7-7.5,2.2-15,4.6-22.2,7.6-4.9,2-9.6,4.3-14.2,6.9-3.9,2.2-7.6,4.7-11.1,7.5-10.8,8.7-18,19.8-21.5,33.2-1.7,6.7-2.8,13.5-3,20.3-.2,7.5-.1,15-.2,22.5v1c0,1,.7,1.6,1.9,1.7h11.5c.6,0,1.3,0,1.9.2.4,0,.7.6.9.9.2.4.2.9.2,1.4v19.7c0,.6-.6,1.3-1.2,1.3h-48c-.8,0-1.5-.7-1.5-1.6v-49.4c0-6.2.4-12.5,1.1-18.7.4-3.8,1-7.6,2-11.3.2-.8,1-1.3,1.8-1.1,2,.4,4.1.8,6.1,1.3,4.5,1.1,9,2.2,13.5,3.2.9.2,1.9.2,2.8.3.2,0,.5-.4.5-.6,0-.3-.1-.7-.4-.8-.4-.3-.8-.4-1.3-.6-6.2-1.6-12.4-3.2-18.5-4.8-.9-.2-1.8-.6-2.7-.9-.5-.2-.7-.9-.4-1.1.3-.3.9-.7,1.2-.6,2.8.7,5.6,1.4,8.3,2.2,3.7,1,7.4,2.1,11.1,3.1.9.2,1.9.4,2.8.6.5,0,1-.3,1-.7s-.3-.9-.8-1.1c-3.5-1.1-7-2.2-10.5-3.3-3.2-1-6.4-2-9.6-3-.6-.2-1.2-.4-1.7-.8-.4-.2-.7-.7-.5-1.2.2-.6.3-1.2.5-1.8,4.9-14.2,12.8-26.4,24.1-36.3.8-.7,1.6-1.5,2.3-2.3.2-.2,0-.7-.3-.8-.9-.2-1.9-.3-2.8-.3h-22.1c-1.4,0-2.9,0-4.3-.2-.6,0-1.2-.7-1.2-1.3v-2.9c.3-9.4.4-18.9.9-28.3.4-7.8,1.9-15.5,4.1-23.1.2-.6.5-1.2.9-1.7,0-.2.6-.4.8-.4.6,0,1.3.2,1.9.4,5.8,1.9,11.6,3.7,17.3,5.6.8.2,1.5.5,2.3.7h1.4c.3,0,.9-.7.8-1.1,0-.3-.1-.7-.3-.8-.7-.4-1.4-.8-2.1-1.1-5.2-2-10.5-3.9-15.7-5.8-1.2-.4-2.4-.9-3.6-1.4-1-.4-1.3-1.4-.8-2.4.3-.6,1-1,1.5-.9.8.2,1.5.5,2.2.8,5.9,2.4,11.8,4.8,17.8,7.2.6.2,1.2.5,1.8.5s.9-.4,1.1-.8c.2-.4.2-1.1,0-1.3-.7-.6-1.6-1.1-2.4-1.5-5.6-2.6-11.3-5.2-17-7.9-.9-.4-1.8-.7-2.4-1.8.4-.9.7-2,1.2-2.9,6.9-13.2,16.5-23.9,28.8-32.2,5.7-3.8,11.8-7,18.3-9.5.4-.2.9-.3,1.4-.5.6-.2,1.4.2,1.6.7.5,1.2,1,2.4,1.4,3.6,1.9,5.3,3.8,10.5,5.7,15.8.3.7.6,1.5.9,2.2.2.5,1.1.9,1.6.7.9-.3,1.8-.6,2.7-1,.4-.2.7-.6.6-1.2-.1-.6-.2-1.3-.4-1.9-1.8-6.3-3.7-12.6-5.5-18.9-.2-.7-.4-1.5-.5-2.2,1.3-1,2.7-1.3,4.1-1.6,1.2-.2,1.9.2,2.2,1.2.4,1.4.7,2.8,1,4.2,1.3,5.3,2.5,10.6,3.8,15.8.1.6.3,1.2.6,1.8.1.3.4.5.7.6,1.5.4,2.8,0,4.1-.8.2,0,.4-.6.4-.8-.3-2.2-.7-4.4-1.1-6.6-.8-4.2-1.6-8.5-2.4-12.7-.2-1.3-.3-2.5-.4-3.8,0-.2.3-.7.5-.7,1.4-.4,2.8-.8,4.2-1,9.8-1.3,19.7-1.9,29.7-1.5,6.2.2,12.5.5,18.6,1.4,14.8,2.1,29,6.4,42,14,9.1,5.3,17,11.9,23.5,20.2,2.4,3,4.5,6.2,6.4,9.6.4.7.8,1.3,1.4,2,.1.2.6.2.9,0,.3,0,.5-.3.7-.6.9-1.2,1.7-2.3,2.5-3.5,8.1-11.1,18.1-20.2,29.9-27.3,1.1-.7,2.2-1.2,3.4-1.8.5-.3,1.4,0,1.7.4.6,1,1.2,1.9,1.7,2.9,2.6,4.9,5.2,9.9,7.8,14.8.4.8.9,1.7,1.5,2.4.2.3.9.6,1.2.5,2-.6,3.9-1.4,5.6-2.8-1.1-4.1-3-7.8-4.5-11.6-1.4-3.7-3.1-7.3-4.5-11,.3-.4.4-.8.7-.9,2.1-1.2,4.4-1.9,6.7-2.5.8-.2,1.6.2,1.8,1.1,1.6,5.2,3.3,10.4,4.9,15.5.5,1.7,1,3.4,1.6,5,.2.6.6,1.1.8,1.6,2.3,0,4.2-.7,6.2-1.5.2,0,.5-.5.4-.8-.2-1.4-.4-2.8-.7-4.2-1.3-5.8-2.6-11.5-3.9-17.3-.1-.5-.2-.9-.2-1.4s.2-.7.4-.8c.7-.4,1.4-.7,2.2-.9,6-1,12-2,18.1-2.3,7.2-.3,14.4-.3,21.6,0,5.6.3,11.1,1.2,16.6,2.3.5,0,.9.3,1.3.5s.8.6.7,1.1c0,.8-.2,1.6-.4,2.4-1.3,5.9-2.7,11.8-4,17.8-.3,1.2-.4,2.5-.6,3.8h0"/>
      <path class="st2" d="M512.7,665.3c-.2-4.7-.3-9.5-.6-14.3-.3-4.6-1.1-9.2-2.8-13.6-.6-1.6-1.3-3.3-2.3-4.7-1.9-2.9-4.5-4.9-8-5.6-3.3-.7-6.6-.7-10,0-3.7.8-6.4,2.8-8.4,5.9-1,1.6-1.8,3.4-2.4,5.2-1.6,4.7-2.4,9.6-2.7,14.6-.5,8.3-.4,16.6,0,24.9.3,5.1,1.1,10.2,2.8,15,.7,2,1.5,3.9,2.7,5.6,1.9,2.7,4.4,4.5,7.8,5.2,3.2.7,6.3.7,9.5.2,4.5-.8,7.6-3.3,9.6-7.2.9-1.8,1.7-3.8,2.2-5.8,1.1-3.7,1.8-7.5,2-11.3.2-4.6.4-9.3.6-14M557.8,666.6c.2,6.6,0,13.7-.8,20.7-.9,8.6-2.6,17-5.7,25.1-2.3,6-5.4,11.6-9.5,16.5-8.2,9.9-18.7,15.8-31.2,18.2-7.3,1.4-14.6,1.5-22,.8-4.9-.4-9.8-1.5-14.5-3.2-11.6-4.2-20.5-11.6-26.9-22-3.7-6-6.2-12.6-8-19.4-1.6-6.4-2.6-12.8-3.1-19.4-.8-8.8-.7-17.6-.5-26.3.2-9.6,1.2-19.1,3.6-28.5,1.7-6.5,4-12.8,7.5-18.6,8.5-14.1,20.9-22.5,37.1-25.4,7.1-1.3,14.3-1.3,21.5-.7,4.6.4,9.2,1.4,13.5,3,11.4,4.1,20.3,11.2,26.9,21.4,3.8,6,6.4,12.5,8.3,19.3,1.7,6.2,2.7,12.5,3.3,18.9s.8,12.8.7,19.6"/>
      <path class="st2" d="M577.4,714.7c-.3-1.1,0-2.2.2-3.3,1.2-4,2.2-8,2.9-12.1.4-2.7,1-5.3,1.3-8,.6-5.6,1.2-11.1,1.2-16.7s0-12.1,0-18.2c-.3-12.5-2-24.8-5.7-36.8-2.4-7.7-5.7-14.9-9.9-21.7-6.4-10.2-14.7-18.5-25.1-24.5-.7-.4-1.3-.8-1.9-1.2,0-1.4.9-2.2,1.4-3.1,2.7-5.2,5.5-10.4,8.3-15.7.5-1,1.1-2,1.6-2.9.3-.5,1.2-.8,1.7-.5,1,.5,2,1,2.9,1.6,17.6,10.5,30.9,25,40,43.4.3.7.6,1.4.8,2.1-.6,1.1-1.5,1.4-2.4,1.8-5.5,2.5-11,5.1-16.5,7.6-.9.4-1.7.8-2.6,1.3-.5.2-.8,1.2-.6,1.7.4,1,.8,2.1,1.2,3.1,2.1,5.3,1.3,4.7,6.3,3.1,5.6-1.8,11.2-3.8,16.8-5.7.6-.2,1.2-.4,1.8-.5.5,0,.9.2,1.2.7.3.6.6,1.1.7,1.8.6,1.8,1.1,3.7,1.6,5.5.6,2.1.4,2.9-1.9,3.4-5.1,1.2-10.2,2.5-15.4,3.7-1.2.3-2.5.7-3.7.9-2.7.5-2.9,1.4-2.5,3.6.3,1.7.7,3.4,1.1,5.2,0,.5.9,1.2,1.4,1.1,1,0,1.9,0,2.9-.2,4.7-.8,9.4-1.6,14.2-2.4,1.9-.3,3.8-.5,5.7-.8.5,0,1.3.6,1.4,1.1.3,1.9.7,3.8.9,5.7.4,5.4,1.2,10.8,1.1,16.2v21.1c0,7.2-.8,14.3-1.9,21.5,0,.9-.8,1.5-1.6,1.3-3.9-.6-7.9-1.2-11.8-1.8-2.7-.4-5.3-.9-8-1.3-.9,0-1.9-.2-2.8,0-.4,0-1,.4-1.1.8-.5,2.2-1,4.4-1.4,6.5-.2,1,.4,1.8,1.5,2.1,5.6,1.4,11.2,2.7,16.7,4.1,1.5.4,3.1.8,4.6,1.2.5,0,1.1,1,1,1.5-.7,3.1-1.4,6.2-2.8,9.1,0,.2-.5.4-.8.4-.5,0-1,0-1.4-.2-5.6-1.9-11.2-3.8-16.8-5.7-1.2-.4-2.4-.8-3.6-1.2-.9-.3-1.5,0-2.2.6h0"/>
      <path class="st2" d="M574,722.6h.6c6.8,3.1,13.6,6.3,20.4,9.4.4.2.8.4,1.3.7.7.4.9,1,.7,1.6-.2.4-.4.9-.6,1.3-9.2,18.6-22.7,33.4-40.7,43.9-.4.2-.8.5-1.3.7-1.9,1-2.4.9-3.4-1-3.2-6.1-6.4-12.1-9.6-18.2-.3-.6,0-1.3.5-1.7s1.1-.7,1.6-1c11-6.7,19.5-15.9,25.8-27,1.2-2.1,2.2-4.2,3.3-6.4.4-.8.8-1.7,1.4-2.3"/>
      <path class="st2" d="M463.3,790.6c1-4.4,1.9-8.9,2.9-13.4.6-2.8,1.3-5.6,1.9-8.4.2-.8.5-1.5,1.4-1.9,1.9.5,3.9,1,6,1.4,10.9,2,21.8,2.8,32.9,1.4,2.5-.3,5.1-.7,7.6-1.1.8,0,1.6,0,2.4-.2.5,0,.9.3,1.1.7.3.6.5,1.2.6,1.8,1.4,6.1,2.8,12.1,4.2,18.2,0,.3,0,.6,0,.9,0,.6-.3,1.3-.9,1.5-2.9,1-5.9,1.3-8.9,1.7-11.1,1.6-22.3,1.6-33.5.9-5.1-.3-10.1-1.2-15.2-2.1-.9-.2-1.9-.4-2.6-1.4"/>
      <path class="st2" d="M274.9,767.6h10.5c.9,0,1.5.7,1.6,1.4v19.6c0,.5,0,1-.2,1.4s-.6.7-1,.9-.9.2-1.4.2h-20c-.6,0-1.2-.6-1.3-1.2,0-.5-.2-.9-.2-1.4v-18.2c0-.6.2-1.3.3-1.9,0-.3.4-.6.6-.6.6,0,1.3-.2,1.9-.2h9.2Z"/>
      <path class="st2" d="M323.6,767.6h10.5c.6,0,1.2.6,1.3,1.2,0,.6.1,1.3.1,1.9v17.2c0,.8-.1,1.6-.3,2.3,0,.3-.4.5-.6.6-.3,0-.6.2-.9.2h-20.1c-.3,0-.7,0-.9-.2-.4-.2-.8-.6-.9-.9-.2-.4-.2-.9-.2-1.4v-18.6c0-.5,0-1,.2-1.4s.6-.8.9-.9c.9-.2,1.9-.2,2.8-.2h8.1"/>
      <path class="st2" d="M533.8,569.4c-2-1.4-4.4-1.8-6.5-2.8-.3-.2-.5-.7-.7-1.2,0,0,0-.3,0-.4,2.1-6.7,4.2-13.3,6.4-20,.2-.8.5-1.5.9-2.2.2-.4.7-.8,1.2-.6,2.5.6,4.9,1.3,7.1,2.7.2,0,.4.6.3.8,0,.6-.3,1.2-.5,1.8-2.3,5.7-4.7,11.5-7.1,17.2-.6,1.5-1.2,2.9-1.2,4.6h0,0Z"/>
      <path class="st2" d="M527.3,766.7c.3-.4.4-.9.8-1.1,1.4-.7,2.9-1.2,4.4-1.8.8-.3,1.5,0,1.9.9,0,0,.2.3.2.4,2.6,6.3,5.2,12.6,7.8,18.9.3.6,0,1.5-.4,1.7-2.3,1.2-4.6,2.1-7.1,2.6-.3,0-.7,0-.8-.3-.3-.5-.6-1.1-.8-1.7-1.9-5.9-3.7-11.8-5.6-17.7-.2-.6-.3-1.2-.4-1.9"/>
      <path class="st2" d="M633.1,678.7c-2-3.7-4-7.5-6-11.3-.5-.9,0-1.7,1.1-2.2.5-.2.9,0,1.3.3,0,0,.2.2.3.4,1.7,3.4,3.4,6.8,5.1,10.2.7,1.5.3,2-1.7,2.5"/>
      <path class="st2" d="M635.2,662.2c.2.2.6.4.7.7,1.5,3.5,3,6.9,4.5,10.4.2.6-.5,1.6-1.3,1.7-.3,0-.6,0-.9-.2-.2-.2-.4-.5-.6-.7-1.5-3.1-2.9-6.3-4.4-9.5-.5-1-.2-1.6,1-2.2.3,0,.6,0,.9-.2"/>
      <path class="st2" d="M599.6,601.9s0,.3-.2.3h-1.8s-.4-.5-.3-.7c0-.2.5-.4.7-.4.4,0,.9.2,1.3.4,0,0,.2.2.2.4"/>
      <path class="st1" d="M726.7,748.7h-14.4v-51h14.4v51ZM698,748.7h-14.4v-51h14.4v51Z"/>
      <path class="st1" d="M652.9,587.3l-14.4-48.9c2.1-.6,4.3-1.2,6.5-1.7l11.6,49.7c-1.3.3-2.5.6-3.7,1h0Z"/>
      <path class="st1" d="M625.5,611.3l-47.9-17.6c.4-1.2.9-2.4,1.4-3.6l47.1,19.6c-.2.5-.4,1-.6,1.5h0Z"/>
      <path class="st1" d="M644.9,689.4l-22.7-45.7c1.3-.6,2.5-1.2,3.9-1.8l21.3,46.3c-.8.4-1.6.8-2.4,1.2h0Z"/>
      <path class="st1" d="M621.9,716l-49.4-12.9c.2-.8.4-1.6.7-2.4l49,14c0,.4-.2.8-.3,1.3h0Z"/>
      <path class="st1" d="M730,788.4h-11v-51h11v51ZM707.9,788.4h-11v-51h11v51ZM685.9,788.4h-11v-51h11v51ZM663.8,788.4h-11v-51h11v51ZM641.7,788.4h-11v-51h11v51Z"/>
      <path class="st1" d="M792.1,788.4h-51v-90.7h51v90.7ZM619.6,788.4h-51v-51.7c0-11.2,1.1-21.7,3.3-31.1l46.8,11c.2-1.4.4-2.7.7-4.1l-45.5-14.2c3.8-12.1,9.6-22.7,17.2-31.4,3.5-4,7.5-7.8,12-11.3h-32.7l.6-26.1c.3-11.6,2.1-22.5,5.3-32.4l23,7.5h19.8l-38.6-18c5.1-11,12.3-20.6,21.4-28.6,8.5-7.5,18.6-13.4,30.2-17.6l14,38.9c3.8-2.1,8-3.7,12.5-5l-7.1-39.1c9.2-1.7,19.3-2.5,29.9-2.5,20.9,0,39.2,3.3,54.5,9.9,16.7,7.2,29.6,17.6,38.3,30.9,8.7,13.3,13.1,28.3,13.1,44.7s-3.5,30.2-10.4,42.3-17.6,22.4-31.7,30.5c-12.1,7-27.3,13-46.4,18.4h-.2c-13.5,3.8-20.5,6.8-24.1,8.6-3.1,1.6-4.4,2.8-4.8,3.2,0,.3-.4,1.2-.6,2.8v24.6h-49.6v39.7h0ZM623.7,655.7l14.1,26c2.3-1.9,4.8-3.7,7.5-5.4l-8.7-20.6h-12.9,0ZM670.3,624.3c-.3.3-.8,1.5-1.2,3.6,7.2-2.2,12-3.9,15.2-5.3h-2.8c-6.9,0-10.3,1.2-11.1,1.7h-.1ZM691.6,624h0Z"/>
      <rect class="st1" x="830.1" y="602.3" width="1" height="51" transform="translate(112.8 1382) rotate(-83.5)"/>
      <path class="st1" d="M909.8,625.9h-12.8v-51h12.8v51ZM884.2,625.9h-12.8v-51h12.8v51Z"/>
      <path class="st1" d="M911.6,587.4h-10.9v-51h10.9v51ZM889.8,587.4h-10.9v-51h10.9v51ZM868,587.4h-10.9v-51h10.9v51ZM846.1,587.4h-10.9v-51h10.9v51Z"/>
      <path class="st1" d="M815.2,644l-50.7-5.7,1.5-13.5,50.7,5.7-1.5,13.5ZM818.3,617l-50.7-5.7,1.5-13.5,50.7,5.7-1.5,13.5Z"/>
      <path class="st1" d="M767.9,738.7c-.3-.6-.6-1.3-.9-1.9l46.3-21.5c0,.3.3.6.4.9l-45.8,22.5Z"/>
      <path class="st1" d="M835.8,788.4c-2.4-.5-4.8-1.1-7.1-1.7l13.4-49.2c1.4.4,2.8.7,4.3,1l-10.7,49.9h0Z"/>
      <path class="st1" d="M909.6,787.9l-12.1-49.6c1.4-.4,2.9-.7,4.2-1.2l15.1,48.7c-2.4.7-4.8,1.4-7.3,2h0Z"/>
      <path class="st1" d="M976.7,732.6l-47.2-19.3c.3-.7.5-1.3.8-2l48.1,16.9c-.5,1.5-1.1,2.9-1.7,4.4h0Z"/>
      <path class="st1" d="M872.3,792c-10.5,0-20.4-.7-29.5-2.2l6.3-39c-5.1-1.4-9.8-3.3-14.1-5.7l-13.5,39.5c-11.5-3.9-21.7-9.5-30.3-16.6-9.4-7.8-17-17-22.4-27.3l29.1-15.3h-10.2l-21.6,9.4c-3.9-9-6.4-18.8-7.3-29.2h-1.7l1.1-9.8-1.2-21.4h3.6l2.5-22.5,23.9,2.7h25.8l-11-3.2,2.9-25.3,10.2,1.2c.8-.9,1.7-1.9,2.5-2.8l-12.4-1.4,3.9-34.2-38.3-4.3,5.4-48h48.3v38.6h34.4v24.4c9.3-2.7,19.5-4,30.4-4s23.1,1.7,33.4,5.1v-64h51v89.6h-12.1c4.2,4.8,7.9,10.1,11,15.8,7.8,14.3,11.8,31,11.8,49.6s-1.5,22.5-4.5,32.5l-44.3-13.2c-.7,2.4-1.5,4.6-2.3,6.8l41.6,19.6c-5.1,10.7-12.1,20.3-21,28.4-8.4,7.6-18.3,13.7-29.6,18l-15-38.6c-4.3,2.5-9,4.5-14,6l7.1,38.7c-9.2,1.7-19.3,2.6-30,2.6v-.5h0ZM857.1,691.1l.7,6c.2,1.6.5,2.2,1.8,3.2,1.4,1.1,5.7,2.4,13.1,2.4s9.4-.4,12.1-2.9c.6-.6,2.4-2.2,2.4-8.2s-1.6-7.3-2.2-7.9c-1.7-1.6-4.8-2.4-9.2-2.4s-9.3.8-11.9,2.3c-2.2,1.3-4.5,3.9-6.6,7.5h-.2,0Z"/>
      <path class="st2" d="M602.3,705.7c-.2-.6,0-1.1.5-1.1s.9,0,1.4.2c2.9.9,5.8,1.8,8.7,2.6.6.2,1.2.4,1.8.5,1.2.3,1.9,0,2.5-.9.4-.5.7-1.1,1-1.6,4.5-7.1,10.4-12.9,17.2-17.8,5.9-4.2,12.2-7.5,18.8-10.5,9.5-4.3,19.3-7.6,29.3-10.5,9.5-2.8,18.9-5.8,28.1-9.6,4.9-2,9.7-4.2,14.3-6.8,3.6-2.1,7-4.4,10.2-7.1,6.8-5.8,11-13.2,12.4-22.1,1-6.1,1.1-12.1,0-18.1-1.3-6.4-4-12.1-8.2-17.1-5.5-6.5-12.3-11.1-20.2-14.1-5.4-2-11-3.3-16.7-4.1-7.5-1.1-15-1.1-22.5-.8-5.3.2-10.5,1-15.7,2.1-.8.2-1.5.4-2.3.7-.7.2-.8.8-1,1.5,0,.4-.3,1-.6,1.2-.8.5-1.7,1-2.7.8-.4,0-.8-.5-1.1-.9-.5-.6-1.1-.6-1.7-.4-.5,0-.9.4-1.3.6-.8.3-1.3.9-1.3,1.8s-.7,1.7-1.6,2.1c-.8.3-1.5.6-2.2-.2-.5-.6-1.1-.6-1.7-.4-.6.2-1.1.6-1.7.9-8.1,5-14.2,11.9-18.6,20.3-3.4,6.6-5.5,13.6-6.8,20.9-.3,1.6-.6,3.1-.7,4.7-.5,5.5,0,4.8-5.8,4.9h-2.9c-.6,0-1.1-.6-1.1-1.3,0-1,0-1.9.2-2.9.8-6.5,2-12.9,4.1-19.2.2-.4.3-.9.3-1.4s-.3-1-.6-1.2c-1.3-.7-2.6-1.2-3.9-1.8-.9-.4-1.8-.7-2.6-1.1-.7-.3-1-.9-.7-1.5.3-.7.9-1,1.5-.7,1.3.6,2.6,1.2,3.9,1.7,1,.4,2,.9,3.1,1.3.4-.3.9-.6,1.1-.9.5-1,.9-2,1.4-3,5.7-11.6,13.9-21,25.3-27.4.7-.4,1.3-.8,2-1.3.2-.2.3-.6.3-.9,0-.8-.4-1.5-.5-2.3,0-.3,0-.7.4-.8,1.1-.6,2.2-1.3,3.6-1.1,1.3,1.9,3,2.4,4.9,1.6.3,0,.6-.3,1-.5.2-.8.4-1.7.6-2.7.7-.7,1.7-.7,2.7-.8.9,0,1.5.2,2,1,.2.3.5.4.8.8.6,0,1.4-.3,2.1-.4,10.2-2.2,20.6-2.6,31-2.3,8.5.3,16.9,1.5,25,4.1,7.7,2.4,14.8,5.9,21.2,10.9,8.9,7,14.7,15.9,17.3,26.9,1.4,5.8,1.7,11.7,1.1,17.6-.4,4.1-1.1,8.2-2.5,12.2-2.1,6.3-5.4,11.9-10.1,16.7-3.6,3.7-7.7,6.8-12,9.5-5.6,3.5-11.5,6.3-17.5,8.8-9.9,4.1-20.1,7.4-30.3,10.5-8.4,2.5-16.8,5.3-24.9,8.6-4.3,1.8-8.5,3.7-12.6,5.9-4.2,2.3-8.2,4.9-11.9,8-8.2,6.9-13.7,15.5-16.7,25.8-1.6,5.5-2.7,11.2-3.2,16.9-.3,3.5-.6,7-.8,10.5,0,.6,0,1.3.2,1.9,0,.3.4.6.7.6,1.9.4,3.8.4,5.7,0,.3,0,.6-.4.6-.7.2-.8.2-1.6.3-2.4v-1.9c0-1.1.7-1.6,1.9-1.7h20.6c.6,0,1.3.7,1.3,1.2,0,1.4,0,2.9.2,4.3,0,.5.7,1.2,1.3,1.2h21.5c.5,0,1.3-.7,1.3-1.2,0-.8,0-1.6.2-2.4,0-.8,0-1.7.2-2.4.9-2.1.8-4.4.8-6.6v-15.8c0-1,0-1.9.3-2.8,0-.4.4-.8,1-.9h21.1c.6,0,1.2.7,1.2,1.3,0,4.3.4,8.6-.2,12.9,0,.8-.2,1.6-.2,2.4v12.9c0,.6.2,1.3.4,1.8,0,.3.4.5.7.6s.6.2.9.2h21.1c.6,0,1.2-.7,1.2-1.3,0-3.3.4-6.7.4-10v-19.7c0-.6.7-1.1,1.3-1.2h21.1c.4.2.9.5,1,.9.2,1.1.2,2.2.2,3.3v23.5c0,3,1.5,4.5,4.5,4.5h12.4c.6,0,1.3.6,1.3,1.2v6.2c0,.6-.7,1.1-1.3,1.1h-152.9c-.6,0-1.1-.6-1.2-1.3v-15.3c.3-8.3,1.5-16.5,3.9-24.5.7-2.4,1.7-4.8,2.5-7.2.3-.8,0-1.5-1-1.8-.6-.2-1.2-.3-1.8-.5-2.8-.7-5.6-1.3-8.4-2-.3,0-.6-.2-.9-.4-.2-.2-.4-.6-.3-.8,0-.2.5-.4.8-.4.5,0,1,0,1.4.2,2.8.7,5.6,1.5,8.3,2.2.8.2,1.6.3,2.4.3s.6-.3.6-.5,0-.7-.3-.8c-.4-.3-.8-.5-1.3-.6-3.1-.9-6.2-1.7-9.2-2.6-.6-.2-1.2-.4-1.8-.6"/>
      <path class="st2" d="M940.5,720.9c-.4.6-.9,1-1.2,1.6-.7,1.6-1.4,3.2-2.1,4.8-5.3,11-13,19.6-23.5,25.9-1,.6-1.9,1.1-2.9,1.7-.6.4-.8,1-.8,1.6s-.3.9-.7,1.2c-1.3.7-2.6,1.5-4.1,1.1-2.4-.7-4.3.5-6.2,1.5-.7,1.1-1.8,1.2-2.9,1.4-.5,0-1,.3-1.4.2-2.7,0-5.4.7-8,1.1-4.3.7-8.5,1.3-12.8,1.5-6.1.2-12.2.3-18.2,0-9.6-.6-19.1-2.1-28.1-5.5-14.6-5.4-25.9-14.9-33.5-28.7-.7-1.3-1.3-2.6-1.9-3.8-.7-1.3-.9-1.4-2.7-1.1-.4,0-.7,0-.8-.2,0-.2.2-.5.3-.8,0,0,.3-.2.4-.3.7-.5,1.1-1.1.9-2-.3-.9-.6-1.8-.9-2.7-1.6-4.9-2.8-9.8-3.3-14.9,0-.3.5-1.1.8-1.1,2.5-.2,5.1-.3,7.6,0,0,0,.3,0,.6.3.3,1.4.6,3,.9,4.6.8,4.6,2.1,9,4,13.3,5.5,12.3,14.4,21.4,26.5,27.2.3,0,.6.2.9.3.5.2,1.2-.2,1.6-.8.8-1.4.8-3.1,2-4.3,1.2-.4,2.1.4,2.9,1.1.3.2.5.8.6,1.2,0,.6-.2,1.3-.3,1.9-.2,1.1-1.1,2.2-.2,3.2,1,1,2.5,1.2,4,1.2s.6-.3.7-.5c.4-1.1.6-2.1.9-3.2.2-.6.9-1.1,1.5-.9.8.2,1.6.4,2.3.7.4.2.6.7.8,1.1v.9c-.5,3.7.2,3.6,3.5,4.1,8.4,1.2,16.9,1.4,25.4.9,5.1-.3,10.2-1,15.2-2,.8-.2,1.5-.4,2.3-.7.4-.2.7-.6.7-1.1v-2.6c.9-1.2,2.1-1.1,3.1-1.6.5-.2,1.2.2,1.5.9.3.6.5,1.2.7,1.8.3.6,1,.8,1.6.6.7-.3,1.5-.6,2.2-.9.8-.4,1.2-1.1,1-1.9-.2-.8-.4-1.5-.5-2.3,0-.3,0-.7.4-.8.6-.5,1.3-.9,2-1.2.7-.4,1.5,0,1.9.8s.6,1.8,1.9,2.2c.7-.4,1.6-.8,2.4-1.3,10.2-6.5,17.1-15.6,21.2-27,.4-1.1.2-1.8-.6-2.5-.2-.2-.4-.5-.6-.7-.2-.3,0-1.1.4-1.2.6-.2,1.2-.2,1.8-.4.4,0,.7-.9.5-1.2-.3-.5-.7-1-1.1-1.5-.4-.6-.3-1.2.4-1.6,0,0,.3,0,.4-.2,1.2,0,1.6-.9,1.8-1.9.6-3.8,1.2-7.6,1.4-11.4.2-6.4,0-12.8-.9-19.1-1-6-2.6-11.9-5.2-17.4-5.7-12.1-14.8-20.7-27.1-25.9-6.5-2.8-13.3-4.3-20.4-5.1-4.9-.5-9.9-.9-14.8-.7-9,.3-17.9,1.3-26.5,3.9-12.1,3.6-22.3,10.2-30.6,19.7-3.7,4.2-7,8.8-9.8,13.6-.7,1.2-1.5,2.4-2.3,3.7-2.7.6-5.4.3-8.1.2-.6,0-1.1-.6-1.1-1.3.2-1.9.3-3.8.5-5.7.2-2.4.5-4.8.8-7.2,0-1.4-.4-1.9-2-2.1-.8,0-1.6,0-2.4-.3-.3,0-.6-.4-.6-.7,0-.5-.2-1,0-1.4.7-6.2,1.4-12.4,2.1-18.6,0-.3.3-.5.5-.8h1.9c3.3.6,3.7,0,4-2.9.6-4.9,1.2-9.8,1.8-14.7,0-1.1.2-2.2.2-3.3s-.5-1.2-1.1-1.3c-1.1-.2-2.2-.3-3.3-.5-.6,0-1.1-.7-1.1-1.4v-1.4c.7-6,1.4-12.1,2.1-18.1,0-.8.9-1.3,1.7-1.3s2.2.2,3.3.3c.7,0,1.3-.4,1.4-1,.2-1.1.5-2.2.6-3.3.4-2.9.7-5.7,1.1-8.6.4-3.5.8-7,1.2-10.5,0-.5,0-1,.3-1.4.2-.4.6-.8,1-.9.8-.2,1.6-.2,2.4-.2h125.2c1,0,1.9,0,2.9.2.6,0,.9.5,1,.9.4,2.2.3,4.5,0,6.7,0,.3-.6.7-1,.8-.8.2-1.6.2-2.4.2h-8.6c-.8,0-1.6,0-2.4.2-.6,0-1.2.7-1.2,1.3v24.4c0,.9.2,1.9-.6,2.8-2.3.2-4.3-1-6.5-1.4-2.4-.4-4.7-1.1-7-1.5-2.2-.4-4.4-.4-6.6-1.4,0-1.2-.2-2.3-.2-3.4v-13.9c0-.8,0-1.6-.3-2.4,0-.3-.4-.6-.6-.6-.6-.2-1.2-.3-1.9-.3h-7.2c-.9,0-1.4-.7-1.5-1.6,0-.3,0-.6-.2-.9-.2-.7-.7-1-1.4-1.1h-28.8c-.5,0-1,0-1.4.2s-.8.6-1,.9c-.2.4-.2.9-.3,1.4-.2.7-.6,1.1-1.3,1.2h-29.8c-.7,0-1.1-.4-1.3-1.2,0-.5-.2-.9-.3-1.4,0-.6-.6-.9-1-.9-3-.3-6-.4-9,0-.9,1.7-1,3.5-1.2,5.2-.9,7.6-1.8,15.2-2.7,22.8-.8,6.7-1.5,13.3-2.3,20-.8,6.5-1.6,13-2.4,19.5-.4,3.3-.8,6.7-1.2,10v1.9c0,.3.2.6.4.7h.9c.3,0,.5-.4.7-.7.3-.4.6-.8.9-1.1,10-13.2,23.3-21.7,39.2-26,5.9-1.6,11.9-2.5,17.9-3,7.4-.6,14.7-.5,22,.3,9,.9,17.7,3,25.8,7,17.7,8.6,29.1,22.5,34.3,41.5,1.8,6.5,2.5,13.2,2.8,19.9.2,7.4-.2,14.7-1.6,21.9,0,.6,0,1.3-.2,1.9,0,.5.5,1.3,1.1,1.5,1.5.5,3.1.9,4.6,1.4.4,0,.9.4,1.3.6.5.2.7,1,.4,1.7-.2.7-.9,1.2-1.4,1-1.8-.6-3.6-1.2-5.5-1.7-.4,0-1,0-1.3.2s-.5.8-.7,1.2c-.2.5,0,1,.5,1.2,1.9.9,3.8,1.7,5.6,2.6.2,0,.5.5.5.8s-.2.9-.4,1.3c-.2.4-.7.7-1.2.5-.8-.2-1.5-.6-2.2-.8-1.2-.5-2.3-1-3.6-1.5"/>
    </g>
  </g>
  <path class="st3" d="M362.1,382.6h19.6c1.3,0,2.5,0,3.8-.1.2,0,.6-.3.7-.5,0-.2,0-.7-.1-.9-1.7-2.2-3.9-3.7-6.3-5-3.2-1.6-6.5-2.5-10-2.9-4.8-.6-9.5-.6-14.3-.1-3.2.3-6.3,1.1-9.3,2.2s-5.8,2.7-8.1,4.9c-.3.3-.6.7-.8,1.1,0,.1-.1.4,0,.4.2.2.4.6.6.6,1.1.1,2.2.2,3.3.2h21M707.7,432.3c-1.2-.4-2.2.3-3.2.6-2.6.6-5.2,1.4-7.9,2-7.3,1.6-14.6,3.1-22,4.6-3.9.8-7.8,1.6-11.6,2.8-1.7.6-3.3,1.2-4.8,2.1-.6.4-.8.9-.9,1.6,0,1,.3,2,1.2,2.4,2,1,4.2,1.5,6.5,1.6,2.9,0,5.7.2,8.6,0,10.7-.6,20.2-4.2,28.5-11,1.8-1.5,3.4-3.3,5.1-5,.4-.4.8-1,.6-1.7M1022,383h22.5c.9,0,1.9-.1,2.8-.3,0,0,.4-.6.3-.8-.3-.6-.6-1.1-1-1.6-3.1-3.7-7.2-5.7-11.8-7-3.6-1-7.2-1.3-10.9-1.3s-8.9.1-13.3,1.2c-5.1,1.3-9.6,3.5-13.1,7.5-.3.4-.6.8-.8,1.2,0,.2.2.7.3.8.9.2,1.9.3,2.8.3h22M665.9,390.7c2.6-.3,5.3-.7,8-1,6.2-.7,12.4-1.3,18.6-2.1,4.4-.6,8.8-1.4,13.1-2.9,1.7-.6,3.3-1.3,4.8-2,.9-.4,1.3-1.4,1.2-2.4-.3-1.9-1.2-3.2-2.8-4.2-2.5-1.5-5.3-2.3-8.1-2.7-5.9-.9-11.8-.9-17.7,0-1.9.3-3.7.8-5.6,1.4-7.3,2.3-11.8,7.4-14,14.6v.5c0,.4,0,.6.5.7.6,0,1.3.1,2,.2M362.3,434.5h-24.9c-1,0-1.9,0-2.9.1-.6,0-1,.9-.6,1.5,2.1,3.9,5.3,6.8,9.1,8.9,2.7,1.5,5.6,2.4,8.5,3,5.7,1.3,11.4,1.3,17.2.8,3.7-.3,7.2-1.1,10.7-2.6,4.7-2,8.3-5.3,10.8-9.8.2-.3.3-.6.3-.9s-.2-.8-.4-.8c-.9-.2-1.9-.3-2.8-.3h-24.9M994.2,433.8c-.5.7-.3,1.3,0,1.9,2.2,4.2,5.5,7.4,9.7,9.6,2.6,1.3,5.3,2.1,8.1,2.8,4.7,1.1,9.5,1,14.3.9,3.1,0,6-.6,9-1.3,2-.5,3.9-1.3,5.8-2.2,4.5-2.2,7.7-5.6,9.8-10.1.4-.9,0-1.7-.8-1.7h-53.6c-.8,0-1.6,0-2.3.1M221.9,313.4c-1.9.9-3.7,2.2-5.6,3.4-3.1,2-6.4,3.5-10,4.6-4.6,1.4-9.3,2.3-14,2.8-4.6.5-9.2,1.1-13.8,1.1s-1.3.1-1.9.2c-.3,0-.5.3-.4.7,0,.1.2.3.3.4l4.5,1.5c11.1,3.6,20.9,9.4,29.1,17.8,4.7,4.8,8.6,10.2,11.8,16.2.6,1.1,1.3,2.2,1.9,3.3h.4c.1,0,.3-.2.3-.3,0-1.1.2-2.2.2-3.3v-37.6c.6-.7,1.2-.8,1.8-.9.5,0,1,0,1.4-.2.2,0,.4-.6.3-.7-2.2-2.7-4.2-5.6-6-8.6,0-.1-.3-.2-.6-.3M916.4,410.8v31.1c0,1.3,0,2.5.2,3.8,0,.4.5.8.9.9.6.2,1.3.2,1.9.2h17.2c.5,0,.9,0,1.4-.1.3,0,1-.7.9-1-.3-1.2-.6-2.5-.9-3.7-2.1-8.1-3.2-16.3-3.4-24.6v-12.9c0-5.1.7-10.2,1.5-15.2.6-3.6,1.5-7.2,2.4-10.7.2-.8.4-1.5.6-2.3,0-.4-.4-1-.8-1h-21.1c-.3.3-.8.7-.8,1,0,1.3-.2,2.5-.2,3.8v30.6M392.8,428.8c.4-.4.8-.6.9-1,.9-3.4,1.8-6.8,2.7-10.2.2-.8.4-1.5.8-2.2.2-.4.7-.7,1.1-.8,1.3-.1,2.5-.1,3.8-.1h47.5c.3,0,.6,0,.9.2.2.1.6.4.6.7v2.9c-.3,2.9-.6,5.7-1,8.6-.6,4-1.1,7.9-1.8,11.8-.3,1.7-.7,3.4-1.1,5.1-.1.5-.2.9-.3,1.4-.2.9.4,1.6,1.3,1.6h12.9c4.5,0,4.4-.1,4.4-4.6v-65.7c0-.8-.7-1.5-1.6-1.5h-18.2c-.2,0-.5.3-.7.5v.5c1.6,8,2.2,16.1,3.2,24.2v1.4c0,.9-.5,1.6-1.3,1.7-.6,0-1.3.1-1.9.1h-47c-.9,0-1.9-.2-2.9-.3-.3-.8-.5-1.6-.9-2.2-.5-.7,0-2-1.3-2.2,0,.5-.2,1-.2,1.4v27.3c0,.3.2.6.3,1.1M228.1,375.5c-.4,1.3.3,2.5.6,3.7,2.3,8.7,3.6,17.5,3.6,26.5v11.5c-.1,8.5-1.3,16.9-3.5,25.1-.3,1.1-.5,2.2-.8,3.3,0,.4.4,1.1.7,1.1.9,0,1.9.2,2.8.2h42.7c1,0,1.9,0,2.9-.1.6,0,1.1-.8,1-1.4-.5-2-1.1-4-1.6-6-1.7-7-2.5-14.2-2.8-21.3-.2-4.8-.2-9.6,0-14.4.3-7,1.1-14,2.7-20.9.5-2.2,1.1-4.3,1.6-6.5,0-.4-.3-1-.7-1-.8,0-1.6-.2-2.4-.2h-42.7c-1.4,0-2.9-.3-4.3.4M110.8,412.4c0,2.3.3,6,.6,9.6.4,4.5,1.6,8.8,3.6,12.8,2.5,5.1,6.4,8.7,11.5,11,2.2,1,4.5,1.7,6.8,2.2,5.5,1.2,11.1,1.2,16.7.8,3.8-.3,7.5-1.2,11.1-2.7,5.7-2.4,9.8-6.4,12.5-12,1.5-3.2,2.5-6.6,3-10.1,1.2-8.3,1.2-16.5,0-24.8-.5-3.3-1.4-6.5-2.8-9.6-2.7-6-7-10.2-13.1-12.6-1-.4-2.1-.8-3.2-1.1-6.4-1.7-12.9-2.2-19.4-1.4-3.5.4-6.9,1.1-10.2,2.4-6.1,2.4-10.5,6.5-13.2,12.5-.9,2-1.6,4.2-2.2,6.3-1.3,5-1.4,10.1-1.6,16.5M100,284.7c.3-.8.7-1.2,1.3-1.5,4.5-2,9.2-3.6,14-4.8,6.2-1.5,12.5-2.7,18.9-3.1,9.6-.6,19.1-1.3,28.7-1.9,7.8-.5,15.6-1.2,23.4-1.7.8,0,1.6-.1,2.4-.2,3.9-.5,7.5-1.6,10.2-4.6.2-.2.5-.4,1-.7.7,0,1.6-.1,2.6-.1h16.3c.8,0,1.6,0,2.4.1.6,0,1.2.6,1.2,1.3,0,1.4,0,2.9.1,4.3v8.6c0,.4.2.7.5.6.3,0,.6-.2.8-.4.5-.6.9-1.3,1.4-1.9,4-5.6,9.4-9,16-10.7,3-.8,6-1.1,9-1.2,4.2,0,8.3,0,12.4,1.1,10.4,2.5,19.3,10.1,21.3,23.8.6,4.3.7,8.6.1,12.9-.7,5.8-2.7,11.2-6.4,15.8-.6.7-1.2,1.5-1.7,2.3,0,.1.2.7.3.7.8.2,1.6.3,2.3.4.3,0,.5.4.6.6.2.4.3.9.3,1.4v41.2c0,.6,0,1.3.6,1.7.3.2.7-.1,1.2-1.1.3-.6.5-1.2.8-1.7,9-19.2,23.8-32.2,43.7-39.3,7.4-2.6,15-4.2,22.9-5.1,6.2-.7,12.4-.9,18.7-.7,11.6.5,22.9,2.3,33.7,6.6,5.1,2,9.9,4.4,14.5,7.5,10.5,7,18.5,16.1,23.9,27.5.6,1.3.9,2.8,2,3.8h.4c.1-.3.3-.6.3-.9v-36c0-1.4,0-2.9.1-4.3,0-.6.6-1.3,1.2-1.3,1,0,1.9-.1,2.9-.1h48.9c.9,0,1.5.6,1.6,1.4v55.5c0,.8.7,1.5,1.5,1.5h50.5c1.1,0,2.2,0,3.3-.1.6,0,1.1-.6,1.2-1.3v-53.2c0-1,0-1.9.2-2.9,0-.4.5-.8.9-.9.6-.2,1.3-.2,1.9-.2h45.9c.6,0,1.3,0,1.9.2.3,0,.5.4.7.6,0,.3.2.6.2.9v45.6c0,4.6.2,4.5-4.4,4.5h-13.8c-.9,0-1.5.7-1.6,1.4v65.7q0,4.5,4.5,4.6h8c.8,0,1.6,0,2.4-.2.4,0,.9-.4.9-1,0-1,.2-1.9.2-2.9.3-4.5,1-8.9,2.2-13.2,2.5-8.5,7-15.7,13.5-21.7.8-.7,1.8-1.3,2.2-2.4,0-.1,0-.4,0-.4-.4-.1-.9-.3-1.4-.3h-9.6c-1,0-1.9,0-2.9-.1-.5,0-1.1-.9-1-1.4,1.5-9.5,2.5-19,5-28.3,1.1-4,2.5-7.9,4.2-11.7,7-15.5,18.2-26.9,33.6-34,7.1-3.3,14.7-5.4,22.4-6.8,9.7-1.7,19.4-2.2,29.1-1.8,9.5.4,18.8,1.7,27.8,4.7,2.7.9,5.4,1.9,8,3.1,15.9,7.5,26.5,19.6,31.8,36.4,1.6,5,2.6,10.2,3.1,15.5.4,4.6.6,9.2.6,13.9v46c0,1.4,0,2.9.2,4.3,0,.6.7,1.2,1.3,1.2h7.2c1.7-.2,3.1-.9,3.9-2.4.8-1.4,1.5-2.8,2.1-4.3,1.3-2.9,2-6.1,2.6-9.2,1-5.5,1.8-11,2.2-16.6.6-7.7.8-15.3,1-23,.4-12.6,1-25.2,1.4-37.9.2-5.1.3-10.2.4-15.3,0-3.7.3-7.3.5-11,0-.8.2-1.6.3-2.3.5-.2,1-.4,1.4-.4h138.6c1.6,0,3.2.1,4.8.2.2,0,.5.4.7.6,0,.3.2.6.2.9v43.6c0,1.3,0,2.5.2,3.8,0,0,.2.2.3.2h.4c.6-1.3,1.3-2.6,1.8-3.9,2.9-6.8,6.6-13.1,11.3-18.8,9.1-11.2,20.7-18.9,34.2-23.7,7.3-2.6,14.7-4.2,22.4-5,5.7-.6,11.5-.9,17.2-.7,10.1.4,20,1.9,29.6,5.3,22.7,8,38.1,23.4,46.4,45.9,2.6,7.1,4.2,14.4,5.1,21.9.9,7,.8,14,.8,21.1s-.3,3.3.2,4.8c.6,1.9.4,3.7,0,5.6-.3,1.9-.2,3.8-.3,5.7,0,1.1,0,2.3-.9,3.1-.4,1.6-.8,3.1-1,4.7-1.1,7-3.1,13.7-6.1,20.1-5.9,12.5-14.8,22.3-26.5,29.5-8.2,5.1-17.2,8.5-26.6,10.5-10.7,2.3-21.5,2.9-32.4,2.3-8.3-.4-16.5-1.7-24.5-4.1-4.6-1.4-9.1-3.1-13.4-5.2-16.4-8.2-28.2-20.7-35.4-37.5-.6-1.5-1.3-2.9-1.9-4.4,0-.1-.2-.2-.4-.2-.3,0-.5.2-.5.6v43.6c0,1.3,0,2.5-.3,3.8,0,.2-.4.5-.6.7-.3.1-.6.2-.9.2h-48.5c-4.6,0-4.5,0-4.5-4.5v-117.1c0-1-.8-1.7-1.9-1.7h-31.2c-9,0-2.2,0-3.4,0s-1,0-1.4.1c-.6,0-1.2.6-1.3,1.2,0,.8-.2,1.6-.2,2.4-.2,6.2-.6,12.5-.6,18.7s-.5,16-1.2,23.9c-.9,11.2-2.4,22.2-5.6,33-1.3,4.3-2.8,8.5-4.7,12.5-1.6,3.3-3.4,6.5-5.5,9.5-6.8,9.6-16,16-27.3,19.2-6.4,1.8-12.9,2.4-19.4,2.7h-61.8c-2.5,0-2.9-.4-2.9-2.7v-7.2c0-.9,0-1.9-.2-2.8-.4-.1-.8-.3-1-.2-.7.3-1.4.7-2.1,1.1-9.6,6-19.9,10.2-30.9,12.5-8.2,1.7-16.5,2.2-24.8,1.8-6.3-.3-12.4-1.3-18.4-3.2-3.8-1.2-7.5-2.7-11-4.7-8.1-4.6-14.5-10.9-19.1-19-.5-1-1.1-1.9-1.7-2.8,0-.1-.6,0-1,0v23.5c0,.9,0,1.9-.3,2.8,0,.3-.4.5-.6.6-.3.1-.6.2-.9.2h-47.4c-2.1,0-2.5-.5-2.5-2.6v-55.6c0-1.6,0-3.2,0-4.8,0-.6-.6-1.2-1.3-1.2s-1-.1-1.4-.1h-48.1c-1.4,0-2.9,0-4.3.1-.8,0-1.4.7-1.4,1.6v60.9c0,1-.8,1.7-1.9,1.7h-50.9c-1.1,0-1.9-.7-1.9-1.7v-33.6c0-1.1,0-2.2-.2-3.3,0,0-.2-.2-.3-.2h-.4c-.1,0-.3.2-.4.3-.3.5-.7,1.1-1,1.7-8.8,16.1-22.1,27.1-39.3,33.4-6.3,2.3-12.8,3.9-19.5,4.9-10.5,1.6-21.1,1.6-31.6.6-10.7-1-21.1-3.6-30.9-8.1-16.5-7.6-28.6-19.6-36.4-36-.5-1.1-1.1-2.2-1.7-3.4h-.4c-.1,0-.3.2-.4.3,0,1.3-.2,2.5-.2,3.8v34c0,11.3,0,2.2,0,3.4,0,3.9-.2,4-4.1,4h-47c-.9,0-1.9-.1-2.8-.3-.3,0-.6-.4-.7-.6-.2-.4-.2-.9-.3-1.4v-38.9c0-.3-.2-.6-.5-.7-.3-.2-.6,0-.8.3-.7,1.3-1.3,2.5-2,3.8-3.6,6.5-7.9,12.4-13.2,17.5-8.3,8.1-18,13.8-28.9,17.5-8.4,2.9-17,4.5-25.8,5-7.2.5-14.4.4-21.6-.2-8.2-.7-16.1-2.3-23.9-4.9-.4-.2-.9-.4-1.2-.7s-.4-.6-.4-.8c0-.8.3-1.6.6-2.3,1.6-4.2,3.1-8.4,4.7-12.6.4-1,.8-2.1,1.2-3.1.2-.6,0-1.3-.6-1.7-.6-.3-1.1-.6-1.7-.9-14.2-7.4-23.4-19-28.1-34.2-.8-2.6-1.3-5.3-2-7.9,0-.5-.2-.9-.3-1.4-.3-1.2-.9-1.7-2-1.5-2.7.5-5.3,1-8,1.6-3.6.8-7.2,1.6-10.8,2.3-.5,0-1,.2-1.4,0-.4,0-.8-.4-1.2-.7-.2-.2-.2-.6-.3-.9-.6-3.3-1.3-6.6-1.6-9.9-.6-5.2-1.3-10.5-1.2-15.8,0-9.9,0-19.8,0-29.7,0-7.2.9-14.3,1.9-21.5,0-.9.8-1.5,1.6-1.4,2.1.2,4.1.5,6.2.8,3,.4,6,.9,9,1.4,1.1.2,2.2.2,3.3.2s.9-.3,1.1-.8c.3-1.1.6-2.2.7-3.3,1-6.2,2.6-12.2,4.9-18,1.3-3.4,2.9-6.7,4.9-9.9,4.4-7.2,10.2-13.1,17.5-17.4,1-.6,1.9-1.1,2.9-1.7.5-.3.7-1.1.4-1.7-.4-.9-.8-1.7-1.2-2.6-1.9-4-3.9-8.1-5.8-12.1-.5-1-.9-2-1.3-2.9"/>
  <path class="st3" d="M349.6,51.8c-1.4,1.3-2.6,2.5-3.6,3.9-.1.2,0,.6,0,.9,0,0,.3.2.4.2,2.2.3,4.4.4,6.6,0,.2,0,.5-.6.4-.7-1-1.6-2.3-2.9-3.9-4.3M1066.9,184.4c3.7,0,7.3-.3,10.9-1.1,9.8-2.2,18.2-6.7,25-14.1.5-.6,1-1.2,1.4-1.9,0-.2,0-.5,0-.8,0,0-.3-.2-.4-.2-3.4.9-6.8,1.9-10.2,2.6-7.8,1.7-15.6,3.2-23.4,4.9-3.6.8-7.2,1.4-10.7,2.7-1.7.6-3.3,1.2-4.8,2.2-1.2.8-1.2,3,0,3.7.7.4,1.4.7,2.2.9,3.2,1.1,6.6,1,9.9,1.1M458.5,118.1h21.1c3.8-.2,5-1.6,4.9-5.5v-.5c-.2-2-1.3-3.3-3.2-3.5-1.3-.2-2.5-.2-3.8-.2h-37.9c-.8,0-1.6,0-2.4.2-.6,0-1.2.7-1.2,1.3v7.2c0,.3.5.8.9.9.9.2,1.9.2,2.9.2h18.7M1087.3,106.6h-2.8c-4,.3-7.9,1-11.7,2.4-6.8,2.7-10.8,7.7-12.8,14.6,0,.4.3,1.1.7,1,1.6,0,3.2,0,4.8-.3,1.3,0,2.5-.4,3.8-.5,6.3-.7,12.7-1.3,19-2.2,4.4-.6,8.8-1.4,13.1-2.8,2-.6,3.9-1.3,5.7-2.4.9-.5,1.2-1.4,1.1-2.5-.2-1.9-1.2-3.3-2.8-4.2-2.1-1.3-4.3-2-6.7-2.4-3.5-.7-6.9-1.1-11.5-.9M459.9,181.6h19.1c1.6,0,3.2,0,4.8-.2.9-.1,1.8-.5,2.7-.9,1.1-.5,1.8-1.4,1.9-2.6.2-1.4.2-2.9.2-4.3,0-2.2-1.2-3.6-3.3-4.2-.9-.3-1.9-.5-2.8-.6-1.1-.1-2.2,0-3.3,0h-41.6c-.8,0-1.6.7-1.6,1.5v9.6c0,.9.7,1.6,1.5,1.6,1.3,0,2.5.1,3.8.1h18.7M777.2,161.2h-21.5c-.8,0-1.5.6-1.5,1.5v16.8c0,.8.7,1.5,1.5,1.6h41.6c1.1-.1,2.2-.3,3.3-.6,2.3-.6,3.8-2.2,4.6-4.5,1-3,.9-6,.3-9-.7-2.9-2.3-5.2-6.7-5.8-1.3-.2-2.5-.1-3.8-.1h-17.7M652.8,145.4c.9-.8,1.8-.8,2.8-.8h48.9c.5,0,.9.1,1.4.2.6,0,1.1.7,1.1,1.3v1.4c-.2,2.5-.5,5.1-.8,7.6-.5,5.1-.8,10.2-1.8,15.2l-1.5,7.5c0,.5-.2.9-.3,1.4-.2.8.4,1.6,1.3,1.6h14.9c3.3,0,3.5-.3,3.5-3.6v-63.3c0-1.3,0-2.6-.2-3.8,0-.4-.6-.8-1-.9-.8-.2-1.6-.3-2.4-.3h-15.3c-.3,0-.6,0-.9.2-.3,0-.8.7-.7,1.1.6,3.8,1.5,7.5,1.8,11.3.5,6.2,1,12.4,1.5,18.6v.5c0,1.2-.4,1.8-1.6,1.9h-50.3c-1,0-1.5-.4-1.8-1.3-.2-.6-.4-1.2-.5-1.8-.5-2.4-.8-4.7-1.3-7.1-.7-3.8-1.5-7.5-3-11.1-3-7.4-8.3-11.9-16-13.8-.5,0-.9-.2-1.4-.3-6.7-1.3-13.4-1.2-20,0-10.5,2.1-17.5,8.1-20.6,18.4,0,.3-.2.6-.2.9-1.1,4-1.8,8.1-1.8,12.3v11c0,3.4.5,6.7,1.2,10,.6,3,1.5,5.9,2.9,8.6,1.5,3,3.5,5.7,6.1,7.9s5.6,3.7,8.8,4.7c8.6,2.6,17.3,2.7,26,.6,6-1.4,10.8-4.7,13.9-10.2,1-1.8,1.9-3.7,2.6-5.6,1.3-3.3,2-6.7,2.7-10.2.7-3.6,1.2-7.2,2.2-10.6M350,11.4c.6-.6,1.3-1.3,1.9-2,3.4-3.7,7.6-6.3,12.5-7.7,8.2-2.4,16.4-2.4,24.6.2,9.4,3.1,15.3,9.6,18,19,.8,2.8,1.1,5.6,1.2,8.5.1,3.8,0,7.7-.8,11.4-1.1,5.1-3.3,9.7-6.9,13.5-.4.5-.8,1-1.2,1.5v.4c.2.2.4.5.6.6.5,0,.9,0,1.4,0h76.7c4.5,0,9,0,13.4.7,9.5,1.1,18.4,4.1,26.3,9.5,9.7,6.6,16.3,15.6,19.7,26.9.5,1.5.8,3.1,1.3,4.6,0,.2.5.4.7.5,0,0,.3,0,.4-.2.4-.7.8-1.3,1.2-2.1,9.7-18.7,24.8-31,44.7-37.5,8.3-2.7,16.7-4.2,25.4-4.7,6.6-.4,13.1-.4,19.7.2,11.6.9,22.7,3.5,33.2,8.6,14.8,7.2,25.8,18.1,32.7,33.1.5,1,1,2,1.6,2.9,0,0,.5,0,1,0v-40.7c0-.8.7-1.4,1.6-1.5h48.5c1.1,0,2.2,0,3.3.2.6,0,1.2.7,1.2,1.3v50.3c0,.8.7,1.4,1.6,1.4h43.2c5.8,0,11.5.7,17.1,2,5,1.2,9.8,2.9,14.4,5.3,14.9,7.8,24.2,20.1,28.3,36.3,1.3,5.3,2.1,10.7,2,16.1,0,3,0,6.1,0,9.1,0,1.1.6,1.8,1.8,1.8h11.1c1.2,0,1.8-.6,1.9-1.7v-68.2c0-1.4-.6-2-2.1-2h-14.9c-1.4,0-2.9,0-4.3,0-.8,0-1.5-.8-1.5-1.6v-45.6c0-1.1,0-2.2.2-3.3,0-.6.7-1.2,1.2-1.3.3,0,.6,0,.9,0h48c4.5,0,4.6,0,4.6,4.5v42.2c0,1.6,0,3.2.2,4.8,0,0,0,.3.2.4.3,0,.7.2.8,0,1.2-1,2.4-2.1,3.5-3.2,15.2-14.9,30.3-29.8,45.5-44.7,4.7-4.6,3-3.8,9.6-3.8h62.4c1.4,0,2.9,0,4.3.2,0,0,.3.2.3.3,0,.3.2.7,0,.9-1.1,1.2-2.2,2.3-3.4,3.4-19.9,19-39.7,38-59.6,57-1.3,1.2-2.6,2.3-3.7,3.7,0,1.8,1.2,3,2,4.4,7.1,12.7,14.3,25.3,21.5,38,1.9,3.3,3.8,6.7,5.7,10,.2.4.7.6,1,.9,0,0,.4,0,.4-.2.2-.6.4-1.2.5-1.8.3-3.7,1.1-7.3,2.1-10.8,2.4-7.8,6.5-14.5,12.4-20.2,1-1,2.1-2,3.1-3,0,0,.2-.4,0-.4-.2-.2-.4-.6-.7-.6-.8-.1-1.6-.2-2.4-.2h-8.6c-.8,0-1.6,0-2.4-.2-.6,0-1.1-.7-1-1.4.4-3.2.8-6.3,1.3-9.5.8-5.2,1.5-10.4,2.8-15.6,1.1-4.5,2.5-8.9,4.3-13.2,7.4-17.5,19.9-29.9,37.4-37.1,7.4-3.1,15.2-4.9,23.1-6,10.5-1.5,21.1-1.5,31.6-.7,9.6.7,19,2.8,27.8,6.7,12.6,5.5,22.4,14,28.9,26.2,2.9,5.4,4.9,11.1,6.2,17.1,1.3,6,1.9,12,1.9,18.1v104.5c0,5.8.5,5.5-5.4,5.5h-43.7c-1.3,0-2.6,0-3.8-.1-.6,0-1.2-.7-1.2-1.3,0-1.4,0-2.9-.2-4.3,0-2.1,0-4.2,0-6.2,0-.3-.2-.6-.4-.8,0-.1-.3-.2-.4-.1-.7.3-1.5.6-2.1,1-4.6,2.9-9.4,5.4-14.4,7.5-9.2,3.8-18.8,6-28.8,6.7-5.9.4-11.8.3-17.7-.3-5.1-.5-10.1-1.6-14.9-3.3-1.2-.4-2.4-.9-3.6-1.3-.7-.2-1,0-1.1,1,0,.4-.2.9-.3,1.4-1.2,0-2.3.1-3.4.1h-56.1c-1.4,0-2.4-.5-3.1-1.8-.8-1.4-1.6-2.8-2.3-4.2-11.3-20.2-22.6-40.5-33.9-60.7-.6-1.1-1.3-2.2-1.9-3.3-.3-.5-1.1-.6-1.7-.1-.2.2-.5.4-.7.6-5.4,5.3-10.7,10.6-16.1,15.8-1.4,1.3-2,2.8-1.9,4.7v46.5c0,1.8-.6,2.4-2.2,2.4h-47.5c-14.9,0-1.3,0-1.9,0-2.6,0-3.2-.3-3.2-3.4v-19.2c0-.9-.2-1.9-.3-2.8,0,0-.2-.2-.3-.2s-.4-.1-.4,0c-.5.6-1.1,1.2-1.5,1.8-8.8,12.1-20.9,19-35.3,22.2-5.5,1.2-11.1,1.7-16.7,1.7h-96.4c-1.7,0-2-.9-2-2.1v-35.5c0-1,0-1.9-.2-2.9,0,0-.2-.2-.4-.2h-.4c-.2.2-.5.4-.6.7-.4.7-.7,1.4-1,2.2-7.7,15.6-19.7,26.6-35.7,33.2-7,2.9-14.2,4.7-21.7,5.8-11,1.6-22,1.9-33,.7-11.4-1.2-22.3-4-32.6-9.2-12.3-6.2-22.1-15.1-29.4-26.8-.7-1.1-1.4-2.1-2.1-3.2,0-.1-.7-.1-.7,0-.4.7-.7,1.4-1,2.2-5.9,15.1-16.7,25-31.7,30.6-5.3,2-10.7,3.2-16.3,3.7-4.1.4-8.3.6-12.4.6h-95.9c-2.7,0-3-.3-3-3.1v-45.1c0-.9.1-1.9.3-2.8,0-.2.4-.6.6-.6.8-.2,1.6-.3,2.4-.3h16.8c2.5,0,2.8-.4,2.9-2.7v-67.6c0-.8-.8-1.4-1.6-1.5h-17.2c-1,0-1.9,0-2.9-.2-.4,0-.9-.4-1-.9,0-1.4-.2-2.9-.2-4.3v-38.3c0-1.6-1.6-2.4-3.1-1.6-.3,0-.6.5-.6.7-.1,1.4-.2,2.9-.2,4.3v38.8c0,.5-.7,1.3-1.2,1.3-1,0-1.9.2-2.9.2h-48.4c-1.5,0-2.1-.6-2.1-2v-41.7c0-1.5-.9-2.1-2.6-1.7-.3,0-.6.3-.7.6-.2.8-.3,1.6-.3,2.3v39.8c0,2.3-.4,2.6-2.9,2.7h-15.8c-1,0-1.9,0-2.9.2-.5,0-1.2.7-1.3,1.3,0,.8-.1,1.6-.1,2.4v64.3c0,1,.1,1.9.3,2.8,0,.2.4.6.6.6.8.2,1.6.3,2.3.3h17.3c1.8,0,2.3.5,2.4,2.2v45.1c0,1.1,0,2.2-.2,3.3,0,.6-.7,1.1-1.3,1.2-.6,0-1.3.1-1.9.1h-45.5c-1.4,0-2.9,0-4.3-.1-.8,0-1.4-.8-1.5-1.6v-97.4c-.9-.8-1.7-1.6-2.6-2.2-4-2.9-8-5.8-12-8.7-1-.7-2-1.6-2.9-2.3,0-1.3.7-2,1.2-2.7,2.9-4,5.8-8,8.7-12,.6-.8,1.2-1.5,1.1-2.7-2.1-1.9-4.5-3.4-6.8-5.1s-4.7-3.2-6.9-5.2c.2-.6.3-1,.5-1.4.6-.9,1.3-1.8,1.9-2.7,6.8-9.3,13.5-18.6,20.3-27.9.8-1,1.5-2,2.4-3,.3-.3.8-.6,1.3-.6.8,0,1.6,0,2.4,0h17.7c1,0,1.8-.4,2.4-1.3.6-.8,1.2-1.5,1.9-2.1.3-.3.6-.2.7,0,0,0,.1.3.2.4.2.9-.2,2.1.9,2.6,1,.5,2.2.5,3.2,0,.2,0,.4-.6.3-.7-.6-.8-1.2-1.5-1.8-2.2-3.7-4.2-5.7-9.2-6.6-14.6-.9-5.1-.8-10.2.1-15.3,2.4-13,11.1-20.5,21.8-22.8,6.2-1.3,12.4-1.3,18.5,0s11.4,4.1,15.6,8.7c.5.6,1.1,1.1,1.7,1.6,0,0,.3,0,.6.1"/>
  <path class="st3" d="M114.3,122.3c-.2,1.3.5,2.1.9,2.9,2.6,4.6,5.2,9.2,7.8,13.8,9.2,16.3,18.4,32.5,27.7,48.8.7,1.2,1.5,2.4,2.3,3.6,0,.1.3.2.4.2s.3-.2.3-.3c.1-.6.3-1.2.4-1.8,0-2.2,0-4.5.1-6.7,0-.8.7-1.6,1.5-1.6,1.3,0,2.6-.1,3.8-.1h13.4c1,0,1.9,0,2.8-.2.4,0,.8-.6.9-.9.2-.6.2-1.2.2-1.9v-66.6c0-1.6-.6-2.2-2.4-2.2h-18.2c-1.4,0-2.1-.7-2.1-2v-18.7c0-.8-.2-1.6-.3-2.3,0-.4-.4-.5-.8-.3-.7.4-1.3.9-1.9,1.4-11.8,11.3-23.6,22.5-35.4,33.8-.6.5-1.1,1.2-1.5,1.6M226.3,169.2c.1,1.1-.4,1.7-.9,2.4-3,4.1-6,8.3-9,12.4-.6.8-1.3,1.5-1.3,2.7,4.3,3.6,9.2,6.6,13.5,10.2.3.9-.1,1.4-.5,1.9-.6.9-1.3,1.8-2,2.7-6.6,9-13.2,18.1-19.7,27.1-.8,1-1.5,2.1-2.3,3.1-.6.8-1.4,1.2-2.5,1.2h-17.3c-4.1,0-3.4-.1-5.6,2.6-.2.2-.5.4-.7.7-.3.3-1,0-1.1-.4-.1-.6-.2-1.3-.4-1.9-.1-.4-.4-.9-1-.9-1.6,0-3.2-.2-4.8-.2h-56.6c-.7,0-1.3-.4-1.6-.9-.8-1.3-1.6-2.7-2.4-4.1-11.1-19.8-22.1-39.6-33.2-59.4-.9-1.5-1.7-3.1-2.6-4.6-.3-.5-.8-1-1.2-1.5-.6.5-1.2.8-1.6,1.2-5.5,5.4-10.9,10.8-16.4,16.1-.2.2-.4.5-.7.7-.6.6-.9,1.3-.9,2.1v47.9c0,2.1-.5,2.5-2.6,2.5H2.5c-.8,0-1.6,0-2.4-.1-.6,0-1.2-.7-1.2-1.3s0-.6-.1-.9v-45c0-4.6,0-4.5,4.4-4.5h14.4c1,0,1.9-.1,2.9-.2.5,0,1.1-.7,1.2-1.3v-64.8c0-1.4,0-2.9-.1-4.3,0-.5-.8-1.2-1.3-1.2-1.1,0-2.2,0-3.3-.2H2.6c-.9,0-1.9-.2-2.8-.3-.2,0-.5-.4-.6-.6-.1-.3-.2-.6-.2-.9v-45.5c0-4.5,0-4.6,4.4-4.6h48.4c1.1,0,1.9.7,1.9,1.7v49.3c0,.3.2.6.4.7s.7,0,.8,0c1.2-1.1,2.4-2.1,3.5-3.2,15.1-14.9,30.3-29.8,45.4-44.7,4.5-4.4,3.1-3.8,9.1-3.8h89.7c6.4,0,6-.4,6,5.9v92.1c0,1,.5,1.8,1.3,2.4,4.4,3.2,8.8,6.4,13.2,9.6,1,.7,2,1.6,2.9,2.2"/>
</svg>