<?xml version="1.0" encoding="UTF-8"?>
<svg id="Ebene_1" xmlns="http://www.w3.org/2000/svg" xmlns:xlink="http://www.w3.org/1999/xlink" version="1.1" viewBox="0 0 1004.8 794.6">
  <!-- Generator: Adobe Illustrator 29.5.1, SVG Export Plug-In . SVG Version: 2.1.0 Build 141)  -->
  <defs>
    <style>
      .st0 {
        fill: none;
      }

      .st1 {
        fill: #e96322;
      }

      .st2 {
        clip-path: url(#clippath);
      }

      .st3 {
        fill: #343434;
      }
    </style>
    <clipPath id="clippath">
      <rect class="st0" y="0" width="1004.8" height="794.6"/>
    </clipPath>
  </defs>
  <g class="st2">
    <path class="st3" d="M330.8,720.5c0,.5,0,1.1.2,1.7,0,.3.3.6.6.6.3,0,.6,0,.9-.3.4-.3.7-.7.5-1.2-.3-.7-.7-1.4-1.1-2.1,0-.1-.3-.2-.4-.1-.1,0-.2.2-.3.3-.1.3-.2.6-.3,1M220.6,626.3c0-.2,0-.3,0-.5,0-.1-.2-.2-.3-.2-3.4-.4-6.7.2-9.9,1.1-1.1.3-1.8,1.2-2,2.4-.1.6.5,1.3,1.1,1.1.2,0,.3,0,.5,0,3.3-1.1,6.6-2.2,9.9-3.4.3,0,.5-.4.7-.6M178.4,665.8c-.8-2.2-1.6-4.4-2.9-6.5-.2-.3-.8-.6-1.2-.7-.4-.1-.9,0-1.4,0-.7,0-1.2.8-1,1.3.5,1.2,1,2.4,1.5,3.5.5,1.2,1.1,2.3,1.6,3.4.3.7,1.2.8,2.1.4.3-.1.6-.3.8-.5.2-.2.3-.5.4-.9M165.4,658.5c-.3,0-.6,0-.9,0-.9,0-1.5.9-1.1,1.6,1.6,3.1,3.3,6.1,5,9.2.1.3.3.6.6.7.2.2.5.3.8.4,1.3.2,2.5-1.3,1.9-2.4-1.3-2.7-2.6-5.4-4-8.1-.5-.9-1.3-1.4-2.3-1.4M325.1,604.8c0,.1-.2.3-.2.4.2,3.1.5,6.3,1.1,9.4.1.6.5,1.1,1.1,1.4,2.4,1.1,2.9.9,3.9-1.6.6-1.5,1.2-2.9,1.7-4.4.5-1.4.3-2.1-1-2.7-1.9-.9-3.8-1.7-5.6-2.5-.3-.1-.6,0-.9,0M220.1,726.1s0,0,0,0c3,0,6,0,9.1,0,.6,0,1.3,0,1.9-.3.4-.1.8-.6.9-1,.4-3.2.3-6.3,0-9.5,0-.6-.8-1.1-1.4-.9-.5,0-1,.1-1.4.2-4.5,1.4-9,3-13.4,5-1.3.6-2.6,1.3-3.8,2-.8.5-1.6,1-2.4,1.6-.3.2-.5.4-.6.7-.2.4-.4.9-.3,1.3,0,.5.5.8,1,.8,3.5,0,7,0,10.5,0M256.4,706.5c-.1.8-.4,1.6-.4,2.4,0,4.9,0,9.9,0,14.8,0,.5,0,1,.2,1.4.2.4.6.8.9,1,.4.2.9.2,1.4.2,6.2,0,12.4,0,18.7,0,.5,0,.9,0,1.4-.1.5,0,1.1-.7,1.2-1.3,0-.6.2-1.3.2-1.9,0-4.9,0-9.9,0-14.8,0-8.4-1-7.3,7.4-7.3,11.3,0,22.7,0,34,0,1.3,0,2.5-.1,3.8-.2.3,0,.9-.7.8-1-.2-1.1-.4-2.2-.7-3.2-.1-.3-.7-.7-1.1-.7-.8,0-1.6,0-2.4.1-2.7.4-5.3.9-8,1.3-4.2.7-8.5,1.3-12.7,2-.4-.5-.8-.8-.9-1.2-.3-1.4-.5-2.8-.7-4.2-.4-2.7-.7-5.4-1-8.1,0-.4-.8-.7-1.2-.4-.7.4-1.3.9-2,1.4-5.6,4.3-11.6,7.9-17.9,11.1-5.6,2.8-11.3,5.2-17.1,7.5-1.3.5-2.7,1-4.1,1.6M327.1,629.1c0,.3,0,.5-.4.6-.4,0-.6-.2-.3-.5.1-.1.5,0,.7-.2,0-.4,0-.9,0-1.3,0-.4-.2-.5-.5-.2,0,0,0,.3,0,.4.2.4.4.8.6,1.2M439.3,564.2c-1.3-.1-2.6-.2-3.8-.4-8.4-1.6-16.8-2-25.3-1.5-10.3.6-20.3,2.5-29.8,6.5-13.8,5.7-24.9,14.8-33.2,27.3-5.6,8.5-9.6,17.7-12.2,27.5-2.1,7.6-3.3,15.3-4,23.1-1,10.4-.9,20.8-.6,31.1.4,11.7,2,23.2,5.5,34.5,2.5,8,5.8,15.6,10.3,22.6,7.7,12.2,18.1,21.4,31.2,27.5,1.3.6,2.7,1,3.8,2.1,0,.4,0,.9-.1,1.4-2.1,6.7-4.2,13.4-6.4,20.1-.2.6-.4,1.2-.6,1.8-.2.5-1.1.9-1.6.7-2.1-.7-4.2-1.5-6.3-2.3-.4-.2-.7-.7-1-1,2.9-7.6,6.3-15,9.1-22.4-1.4-1.7-3.2-2-4.8-2.8-1.3-.7-2-.4-2.7.9-3,5.6-6,11.3-9,16.9-.5,1-1.1,1.9-1.8,2.8-.1.2-.6.3-.8.2-.7-.2-1.5-.5-2.2-.9-6.4-3.6-12.3-8-17.8-12.9-.9-.9-1.9-1.7-2.9-2.5,0,0-.3,0-.4,0-.4,0-.6.2-.6.6,0,1.1-.2,2.2-.2,3.3,0,5.4,0,10.9,0,16.3,0,1.3,0,2.6,0,3.8,0,2.1-.5,2.6-2.5,2.7-1.3,0-2.6,0-3.8,0-7.4,0-14.7,0-22.1,0s-11.8,0-17.7,0c-1.1,0-2.2,0-3.3-.2-.4,0-.7-.5-1-.9-.2-.2-.2-.6-.2-.9,0-6.6,0-13.1,0-19.7,0-.3,0-.7.2-.9.2-.4.6-.9.9-.9.9-.2,1.9-.2,2.9-.2,5.3,0,10.6,0,15.8,0,1.3,0,2.6,0,3.8-.1.6,0,1.2-.6,1.3-1.2,0-.5.1-1,.1-1.4,0-5.4,0-10.9,0-16.3,0-.5,0-1-.1-1.4,0-.6-.7-1.2-1.2-1.3-.5,0-.9-.2-1.4-.2-1.6,0-3.2,0-4.8,0-41.1,0-82.2,0-123.3,0-1.8,0-3.5,0-5.3,0-1.2,0-1.9-.7-1.8-1.7.5-8,1.8-15.9,5.1-23.3,2.4-5.4,5.9-9.9,10.3-13.7,3.5-3.1,7.4-5.6,11.5-7.7,6.2-3.3,12.8-5.9,19.4-8.3,7.1-2.5,14.3-4.6,21.5-6.8,8.9-2.7,17.6-5.8,26-9.6,5.2-2.4,10.3-5.1,15.1-8.2,3.9-2.6,7.5-5.4,10.8-8.8,6.7-6.8,10.9-14.9,12.7-24.3,1.7-9.1,1.6-18.1-.8-27.1-3.3-12.4-10.2-22.3-20.6-29.7-7.7-5.5-16.1-9-25.2-11.3-7.9-1.9-16-2.9-24.2-3-6.6,0-13.1.1-19.6,1-8.1,1.1-16,3-23.5,6.2-15,6.5-25.9,17.3-33.1,31.9-3.2,6.7-5.3,13.7-6.6,20.9-.6,3.3-1.1,6.6-1.2,10,0,.5,0,1,0,1.4,0,1.1.6,1.7,1.8,1.7.5,0,1,0,1.4,0,5.9,0,11.8,0,17.7,0,.8,0,1.6,0,2.4-.2.4,0,.9-.5.9-.9.4-2,.7-4.1,1.1-6.1.9-5.5,2.3-10.9,4.6-16.1.5-1,.9-2.1,1.4-3,5-9.8,12.7-16.7,23-20.7,5.9-2.2,12-3.5,18.2-4,6.2-.5,12.5-.5,18.7,0,6.7.6,13.3,1.9,19.5,4.7,4.3,1.9,8.1,4.5,11.4,7.9,5.6,5.7,8.6,12.6,8.8,20.6.1,3.8,0,7.7-1,11.4-1.5,5.5-4.1,10.4-8.3,14.3-2.8,2.6-5.9,4.9-9.2,6.8-4.5,2.7-9.3,4.9-14.2,6.9-9.3,3.8-18.9,6.9-28.6,9.7-7.5,2.2-15,4.6-22.2,7.6-4.9,2-9.6,4.3-14.2,6.9-3.9,2.2-7.6,4.7-11.1,7.5-10.8,8.7-18,19.8-21.5,33.2-1.7,6.7-2.8,13.5-3,20.3-.2,7.5-.1,15-.2,22.5,0,.3,0,.6,0,1,0,1,.7,1.6,1.9,1.7,1.3,0,2.6,0,3.8,0,2.6,0,5.1,0,7.7,0,.6,0,1.3,0,1.9.2.4.1.7.6.9.9.2.4.2.9.2,1.4,0,6.2,0,12.5,0,18.7,0,.3,0,.6,0,1,0,.6-.6,1.3-1.2,1.3-.8,0-1.6.1-2.4.1-14.4,0-28.8,0-43.2,0-.8,0-1.6,0-2.4-.1-.8,0-1.5-.7-1.5-1.6,0-1.1,0-2.2,0-3.4,0-15.3,0-30.7,0-46,0-6.2.4-12.5,1.1-18.7.4-3.8,1-7.6,2-11.3.2-.8,1-1.3,1.8-1.1,2,.4,4.1.8,6.1,1.3,4.5,1.1,9,2.2,13.5,3.2.9.2,1.9.2,2.8.3.2,0,.5-.4.5-.6,0-.3-.1-.7-.4-.8-.4-.3-.8-.4-1.3-.6-6.2-1.6-12.4-3.2-18.5-4.8-.9-.2-1.8-.6-2.7-.9-.5-.2-.7-.9-.4-1.1.3-.3.9-.7,1.2-.6,2.8.7,5.6,1.4,8.3,2.2,3.7,1,7.4,2.1,11.1,3.1.9.2,1.9.4,2.8.6.5,0,1-.3,1-.7,0-.5-.3-.9-.8-1.1-3.5-1.1-7-2.2-10.5-3.3-3.2-1-6.4-2-9.6-3-.6-.2-1.2-.4-1.7-.8-.4-.2-.7-.7-.5-1.2.2-.6.3-1.2.5-1.8,4.9-14.2,12.8-26.4,24.1-36.3.8-.7,1.6-1.5,2.3-2.3.2-.2,0-.7-.3-.8-.9-.2-1.9-.3-2.8-.3-7.4,0-14.7,0-22.1,0-1.4,0-2.9-.1-4.3-.2-.6,0-1.2-.7-1.2-1.3,0-1-.1-1.9,0-2.9.3-9.4.4-18.9.9-28.3.4-7.8,1.9-15.5,4.1-23.1.2-.6.5-1.2.9-1.7.1-.2.6-.4.8-.4.6,0,1.3.2,1.9.4,5.8,1.9,11.6,3.7,17.3,5.6.8.2,1.5.5,2.3.7.5,0,.9,0,1.4,0,.3,0,.9-.7.8-1.1,0-.3-.1-.7-.3-.8-.7-.4-1.4-.8-2.1-1.1-5.2-2-10.5-3.9-15.7-5.8-1.2-.4-2.4-.9-3.6-1.4-1-.4-1.3-1.4-.8-2.4.3-.6,1-1,1.5-.9.8.2,1.5.5,2.2.8,5.9,2.4,11.8,4.8,17.8,7.2.6.2,1.2.5,1.8.5.4,0,.9-.4,1.1-.8.2-.4.2-1.1,0-1.3-.7-.6-1.6-1.1-2.4-1.5-5.6-2.6-11.3-5.2-17-7.9-.9-.4-1.8-.7-2.4-1.8.4-.9.7-2,1.2-2.9,6.9-13.2,16.5-23.9,28.8-32.2,5.7-3.8,11.8-7,18.3-9.5.4-.2.9-.3,1.4-.5.6-.2,1.4.2,1.6.7.5,1.2,1,2.4,1.4,3.6,1.9,5.3,3.8,10.5,5.7,15.8.3.7.6,1.5.9,2.2.2.5,1.1.9,1.6.7.9-.3,1.8-.6,2.7-1,.4-.2.7-.6.6-1.2-.1-.6-.2-1.3-.4-1.9-1.8-6.3-3.7-12.6-5.5-18.9-.2-.7-.4-1.5-.5-2.2,1.3-1,2.7-1.3,4.1-1.6,1.2-.2,1.9.2,2.2,1.2.4,1.4.7,2.8,1,4.2,1.3,5.3,2.5,10.6,3.8,15.8.1.6.3,1.2.6,1.8.1.3.4.5.7.6,1.5.4,2.8,0,4.1-.8.2-.1.4-.6.4-.8-.3-2.2-.7-4.4-1.1-6.6-.8-4.2-1.6-8.5-2.4-12.7-.2-1.3-.3-2.5-.4-3.8,0-.2.3-.7.5-.7,1.4-.4,2.8-.8,4.2-1,9.8-1.3,19.7-1.9,29.7-1.5,6.2.2,12.5.5,18.6,1.4,14.8,2.1,29,6.4,42,14,9.1,5.3,17,11.9,23.5,20.2,2.4,3,4.5,6.2,6.4,9.6.4.7.8,1.3,1.4,2,.1.2.6.2.9.1.3,0,.5-.3.7-.6.9-1.2,1.7-2.3,2.5-3.5,8.1-11.1,18.1-20.2,29.9-27.3,1.1-.7,2.2-1.2,3.4-1.8.5-.3,1.4,0,1.7.4.6,1,1.2,1.9,1.7,2.9,2.6,4.9,5.2,9.9,7.8,14.8.4.8.9,1.7,1.5,2.4.2.3.9.6,1.2.5,2-.6,3.9-1.4,5.6-2.8-1.1-4.1-3-7.8-4.5-11.6-1.4-3.7-3.1-7.3-4.5-11,.3-.4.4-.8.7-.9,2.1-1.2,4.4-1.9,6.7-2.5.8-.2,1.6.2,1.8,1.1,1.6,5.2,3.3,10.4,4.9,15.5.5,1.7,1,3.4,1.6,5,.2.6.6,1.1.8,1.6,2.3,0,4.2-.7,6.2-1.5.2,0,.5-.5.4-.8-.2-1.4-.4-2.8-.7-4.2-1.3-5.8-2.6-11.5-3.9-17.3-.1-.5-.2-.9-.2-1.4,0-.3.2-.7.4-.8.7-.4,1.4-.7,2.2-.9,6-1,12-2,18.1-2.3,7.2-.3,14.4-.3,21.6.1,5.6.3,11.1,1.2,16.6,2.3.5,0,.9.3,1.3.5.4.2.8.6.7,1.1,0,.8-.2,1.6-.4,2.4-1.3,5.9-2.7,11.8-4,17.8-.3,1.2-.4,2.5-.6,3.8h.1"/>
    <path class="st3" d="M432.6,665.3c-.2-4.7-.3-9.5-.6-14.3-.3-4.6-1.1-9.2-2.8-13.6-.6-1.6-1.3-3.3-2.3-4.7-1.9-2.9-4.5-4.9-8-5.6-3.3-.7-6.6-.7-10,0-3.7.8-6.4,2.8-8.4,5.9-1,1.6-1.8,3.4-2.4,5.2-1.6,4.7-2.4,9.6-2.7,14.6-.5,8.3-.4,16.6,0,24.9.3,5.1,1.1,10.2,2.8,15,.7,2,1.5,3.9,2.7,5.6,1.9,2.7,4.4,4.5,7.8,5.2,3.2.7,6.3.7,9.5.2,4.5-.8,7.6-3.3,9.6-7.2.9-1.8,1.7-3.8,2.2-5.8,1.1-3.7,1.8-7.5,2-11.3.2-4.6.4-9.3.6-14M477.7,666.6c.2,6.6-.1,13.7-.8,20.7-.9,8.6-2.6,17-5.7,25.1-2.3,6-5.4,11.6-9.5,16.5-8.2,9.9-18.7,15.8-31.2,18.2-7.3,1.4-14.6,1.5-22,.8-4.9-.4-9.8-1.5-14.5-3.2-11.6-4.2-20.5-11.6-26.9-22-3.7-6-6.2-12.6-8-19.4-1.6-6.4-2.6-12.8-3.1-19.4-.8-8.8-.7-17.6-.5-26.3.2-9.6,1.2-19.1,3.6-28.5,1.7-6.5,4-12.8,7.5-18.6,8.5-14.1,20.9-22.5,37.1-25.4,7.1-1.3,14.3-1.3,21.5-.7,4.6.4,9.2,1.4,13.5,3,11.4,4.1,20.3,11.2,26.9,21.4,3.8,6,6.4,12.5,8.3,19.3,1.7,6.2,2.7,12.5,3.3,18.9.6,6.4.8,12.8.7,19.6"/>
    <path class="st3" d="M497.3,714.7c-.3-1.1-.1-2.2.2-3.3,1.2-4,2.2-8,2.9-12.1.4-2.7,1-5.3,1.3-8,.6-5.6,1.2-11.1,1.2-16.7,0-6.1.1-12.1,0-18.2-.3-12.5-2-24.8-5.7-36.8-2.4-7.7-5.7-14.9-9.9-21.7-6.4-10.2-14.7-18.5-25.1-24.5-.7-.4-1.3-.8-1.9-1.2,0-1.4.9-2.2,1.4-3.1,2.7-5.2,5.5-10.4,8.3-15.7.5-1,1.1-2,1.6-2.9.3-.5,1.2-.8,1.7-.5,1,.5,2,1,2.9,1.6,17.6,10.5,30.9,25,40,43.4.3.7.6,1.4.8,2.1-.6,1.1-1.5,1.4-2.4,1.8-5.5,2.5-11,5.1-16.5,7.6-.9.4-1.7.8-2.6,1.3-.5.2-.8,1.2-.6,1.7.4,1,.8,2.1,1.2,3.1,2.1,5.3,1.3,4.7,6.3,3.1,5.6-1.8,11.2-3.8,16.8-5.7.6-.2,1.2-.4,1.8-.5.5,0,.9.2,1.2.7.3.6.6,1.1.7,1.8.6,1.8,1.1,3.7,1.6,5.5.6,2.1.4,2.9-1.9,3.4-5.1,1.2-10.2,2.5-15.4,3.7-1.2.3-2.5.7-3.7.9-2.7.5-2.9,1.4-2.5,3.6.3,1.7.7,3.4,1.1,5.2.1.5.9,1.2,1.4,1.1,1,0,1.9,0,2.9-.2,4.7-.8,9.4-1.6,14.2-2.4,1.9-.3,3.8-.5,5.7-.8.5,0,1.3.6,1.4,1.1.3,1.9.7,3.8.9,5.7.4,5.4,1.2,10.8,1.1,16.2,0,7,0,14.1,0,21.1-.1,7.2-.8,14.3-1.9,21.5-.1.9-.8,1.5-1.6,1.3-3.9-.6-7.9-1.2-11.8-1.8-2.7-.4-5.3-.9-8-1.3-.9-.1-1.9-.2-2.8,0-.4,0-1,.4-1.1.8-.5,2.2-1,4.4-1.4,6.5-.2,1,.4,1.8,1.5,2.1,5.6,1.4,11.2,2.7,16.7,4.1,1.5.4,3.1.8,4.6,1.2.5.1,1.1,1,1,1.5-.7,3.1-1.4,6.2-2.8,9.1-.1.2-.5.4-.8.4-.5,0-1,0-1.4-.2-5.6-1.9-11.2-3.8-16.8-5.7-1.2-.4-2.4-.8-3.6-1.2-.9-.3-1.5,0-2.2.6,0,0,.1.1.1.1"/>
    <path class="st3" d="M493.9,722.6c.3,0,.5,0,.6,0,6.8,3.1,13.6,6.3,20.4,9.4.4.2.8.4,1.3.7.7.4.9,1,.7,1.6-.2.4-.4.9-.6,1.3-9.2,18.6-22.7,33.4-40.7,43.9-.4.2-.8.5-1.3.7-1.9,1-2.4.9-3.4-1-3.2-6.1-6.4-12.1-9.6-18.2-.3-.6,0-1.3.5-1.7.5-.4,1.1-.7,1.6-1,11-6.7,19.5-15.9,25.8-27,1.2-2.1,2.2-4.2,3.3-6.4.4-.8.8-1.7,1.4-2.3"/>
    <path class="st3" d="M383.2,790.6c1-4.4,1.9-8.9,2.9-13.4.6-2.8,1.3-5.6,1.9-8.4.2-.8.5-1.5,1.4-1.9,1.9.5,3.9,1,6,1.4,10.9,2,21.8,2.8,32.9,1.4,2.5-.3,5.1-.7,7.6-1.1.8-.1,1.6-.1,2.4-.2.5,0,.9.3,1.1.7.3.6.5,1.2.6,1.8,1.4,6.1,2.8,12.1,4.2,18.2,0,.3,0,.6.1.9,0,.6-.3,1.3-.9,1.5-2.9,1-5.9,1.3-8.9,1.7-11.1,1.6-22.3,1.6-33.5.9-5.1-.3-10.1-1.2-15.2-2.1-.9-.2-1.9-.4-2.6-1.4"/>
    <path class="st3" d="M194.8,767.6c3.5,0,7,0,10.5,0,.9,0,1.5.7,1.6,1.4,0,.3,0,.6,0,.9,0,6.2,0,12.4,0,18.7,0,.5,0,1-.2,1.4-.2.4-.6.7-1,.9-.4.2-.9.2-1.4.2-6.4,0-12.8,0-19.1,0-.3,0-.6,0-.9,0-.6,0-1.2-.6-1.3-1.2,0-.5-.2-.9-.2-1.4,0-6.1,0-12.1,0-18.2,0-.6.2-1.3.3-1.9,0-.3.4-.6.6-.6.6-.1,1.3-.2,1.9-.2,3,0,6.1,0,9.1,0h0Z"/>
    <path class="st3" d="M243.5,767.6c3.5,0,7,0,10.5,0,.6,0,1.2.6,1.3,1.2,0,.6.1,1.3.1,1.9,0,5.7,0,11.5,0,17.2,0,.8-.1,1.6-.3,2.3,0,.3-.4.5-.6.6-.3.1-.6.2-.9.2-6.7,0-13.4,0-20.1,0-.3,0-.7,0-.9-.2-.4-.2-.8-.6-.9-.9-.2-.4-.2-.9-.2-1.4,0-6.2,0-12.4,0-18.6,0-.5,0-1,.2-1.4.2-.4.6-.8.9-.9.9-.2,1.9-.2,2.8-.2,2.7,0,5.4,0,8.1,0h0"/>
    <path class="st3" d="M453.7,569.4c-2-1.4-4.4-1.8-6.5-2.8-.3-.2-.5-.7-.7-1.2,0-.1,0-.3.1-.4,2.1-6.7,4.2-13.3,6.4-20,.2-.8.5-1.5.9-2.2.2-.4.7-.8,1.2-.6,2.5.6,4.9,1.3,7.1,2.7.2.1.4.6.3.8-.1.6-.3,1.2-.5,1.8-2.3,5.7-4.7,11.5-7.1,17.2-.6,1.5-1.2,2.9-1.2,4.6h.1Z"/>
    <path class="st3" d="M447.2,766.7c.3-.4.4-.9.8-1.1,1.4-.7,2.9-1.2,4.4-1.8.8-.3,1.5,0,1.9.9,0,.1.2.3.2.4,2.6,6.3,5.2,12.6,7.8,18.9.3.6,0,1.5-.4,1.7-2.3,1.2-4.6,2.1-7.1,2.6-.3,0-.7-.1-.8-.3-.3-.5-.6-1.1-.8-1.7-1.9-5.9-3.7-11.8-5.6-17.7-.2-.6-.3-1.2-.4-1.9"/>
    <path class="st3" d="M310.9,382.1c7.5,0,15,0,22.5,0,1.4,0,2.9,0,4.3-.1.7,0,1.1-.8.7-1.4-1.9-3.3-4.7-5.6-7.9-7.4-2.7-1.4-5.6-2.4-8.6-2.9-7-1.3-14-1.3-20.9,0-2.7.5-5.2,1.4-7.7,2.5-3.4,1.6-6.3,3.8-8.6,6.7-.3.4-.5.8-.7,1.2-.2.3.2,1.1.6,1.1,1.1,0,2.2.2,3.3.2,7.7,0,15.3,0,23,0M281.7,432c-.4,1.6-.4,1.5-.2,1.9,1.7,3.7,4.2,6.8,7.5,9.1,2.5,1.8,5.2,3.1,8.1,4,7.5,2.2,15.1,2.4,22.8,1.5,2.4-.3,4.7-.8,7-1.5,6.2-2.1,10.9-5.8,14-11.7,1.7-3.3.7-3.5-2.3-3.5-18,0-36.1,0-54.1,0-.9,0-1.9.1-2.8.2M394.5,373.2c.5-1.9.3-3.8.3-5.7,0-13.4,0-26.9,0-40.3,0-1.4,0-2.9.2-4.3,0-.6.7-1.2,1.2-1.3.8,0,1.6-.1,2.4-.1,15.4,0,30.7,0,46.1,0,1.1,0,2.2.2,3.4.3.2,1.7.4,3.3.5,4.8.3,0,.7.3.9.2,1.2-.4,2.4-1,3.5-1.5,7.9-3.3,16.1-5.3,24.6-6,3.8-.3,7.6-.7,11.5-.6,8.5.2,16.9,1.1,25.1,3.5,6,1.8,11.7,4.3,16.9,7.8,9.2,6.1,15.9,14.2,20.5,24.2,2.9,6.1,4.7,12.5,5.9,19.2,1.2,6.9,1.7,14,1.7,21,0,32.5,0,64.9,0,97.4,0,1.3,0,2.6,0,3.8,0,1.4-.7,2-2.1,2-1.3,0-2.6,0-3.8,0-14.1,0-28.1,0-42.2,0-6.5,0-6,.6-6-5.8,0-28.1,0-56.3,0-84.4,0-4.8,0-9.6,0-14.4,0-2.9-.4-5.8-1.1-8.5-.5-1.7-1-3.4-1.7-5-1.5-3.5-4.2-6-7.8-7.4-2.6-1-5.2-1.6-7.9-1.8-4.9-.3-9.9-.4-14.8.7-1.6.4-3.1.7-4.6,1.2-8.7,3-14.2,8.9-16.6,17.8-.7,2.8-1.3,5.6-1.3,8.5,0,2.2,0,4.5,0,6.7,0,28.6,0,57.2,0,85.8,0,7.2.8,6.5-6.3,6.5-14.1,0-28.1,0-42.2,0-1.4,0-2.9,0-4.3-.1-.6,0-1.2-.7-1.2-1.3,0-.6-.1-1.3-.2-1.9,0-1.8,0-3.5,0-5.3,0-11.8,0-23.7,0-35.5,0-.9.2-1.9-.4-2.8,0,0-.4,0-.5,0-.2.2-.4.4-.6.7-.3.7-.6,1.5-.9,2.2-7,17-18.9,29.4-35.4,37.4-8.1,3.9-16.7,6.4-25.6,7.8-7,1.1-14,1.7-21,1.5-11.6-.2-22.9-1.7-33.9-5.5-8.7-3-16.7-7.2-23.9-12.9-9.8-7.9-17-17.7-22-29.2-.4-1-.8-2.1-1.2-3.1-.6-1.5-1.4-2.8-2.3-4.1h.1c.1-.3.4-.8.3-1.2-.3-1.6-.8-3.1-1.2-4.6-1.4-5.4-2.2-10.9-2.7-16.5-.5-5.7-.7-11.5-.6-17.2.2-7.8.9-15.6,2.6-23.3,1.7-7.7,4.3-15,8.1-21.9,9-16.7,22.6-28.3,40.2-35.3,8.8-3.5,18-5.5,27.5-6.2,4-.3,8-.7,12-.6,11.2.3,22.3,1.7,32.9,5.5,21.5,7.6,36.7,21.9,45.5,43,.7,1.8,1.4,3.6,2.1,5.3,0,.2.5.3.7.5-.4,1.1,0,2.2.3,3.3,2.1,7.2,3.3,14.6,3.7,22.1.4,5.4.3,10.8.4,16.3,0,1.6-.2,3.2.2,4.8.3,1.5.2,2.8,0,4.3,0,1-.2,1.9-.2,2.9-.1,2.2.3,4.5-1.3,6.4-.2.2-.2.6-.2.9-.6,3.4-1.3,6.9-1.9,10.3-.2.9.3,1.6,1.3,1.6,6.5,0,13.1,0,19.6,0,.3,0,.7,0,.9-.2.3-.2.6-.4.6-.7.1-1.3.2-2.5.2-3.8,0-11,0-22,0-33,0-3.4,0-6.7,0-10.1.1-7.2,1.4-14.3,3.9-21.1.3-.7.5-1.5.8-2.3.3-.8-.2-1.5-1.2-1.5-1,0-1.9,0-2.9,0-8.1,0-16.3,0-24.4,0"/>
    <path class="st3" d="M846.6,450c10.9,0,20.6-2.7,29.4-8.6,3.9-2.6,7.3-5.7,10.1-9.4.3-.4.6-.8.8-1.2,0-.2,0-.5,0-.8,0,0-.3-.2-.4-.2-.5,0-1,.1-1.4.3-4.7,1.6-9.5,2.7-14.4,3.7-7.7,1.5-15.3,3.1-23,4.8-3.3.7-6.6,1.4-9.7,2.7-1.3.5-2.6,1.2-3.8,1.9-1.5.8-1.5,4.1.3,4.9.7.3,1.4.7,2.2.9,3.4,1.1,6.9,1.1,10,1.1M889.7,379.6c.2-2.4-.8-4.3-2.8-5.7-2.2-1.4-4.6-2.1-7.1-2.7-5.7-1.3-11.4-1.2-17.2-.7-3.7.3-7.2,1.1-10.7,2.6-4.6,1.9-8.1,5.1-10.5,9.4-1.1,2-2,4-2.6,6.2-.2.8.4,1.6,1.3,1.5,3.3-.3,6.7-.7,10-1.1,4.1-.5,8.2-1,12.4-1.4,4.8-.4,9.5-1.2,14.2-2.1,3.1-.6,6.2-1.4,9.2-2.7,1-.4,2-1,2.9-1.6.5-.3.8-.9.8-1.6M782.3,470.5c0,1.2,0,2.5,0,3.8,0,6.1,0,12.1,0,18.2,0,1.3,0,2.6-.1,3.8,0,.6-.6,1.3-1.2,1.3-.8,0-1.6.1-2.4.1-15.5,0-31,0-46.5,0-.9,0-1.9-.1-2.8-.2-.2,0-.5-.4-.6-.6-.1-.3-.2-.6-.2-.9,0-.8,0-1.6,0-2.4,0-14.4,0-28.8,0-43.2,0-1,0-1.9,0-2.9,0-.9.6-1.4,1.6-1.4,1.4,0,2.9,0,4.3,0,13.1,0,26.2,0,39.3,0,1.3,0,2.6,0,3.8-.2.2,0,.6-.4.7-.6.2-1.1.3-2.2.3-3.3.3-4.8,1.1-9.5,2.6-14.1,2.7-8.4,7.4-15.5,14-21.4,1-.8,1.9-1.7,2.9-2.5,0,0,0-.3,0-.4,0-.4-.2-.6-.6-.6-.8,0-1.6-.1-2.4-.1-2.6,0-5.1,0-7.7,0-1.1,0-2.2,0-3.4,0-2.2,0-2.6-.6-2.3-2.5.2-1.4.4-2.8.7-4.3.9-5.5,1.8-11,2.8-16.5,1.3-6.9,3.6-13.6,6.7-19.9,6.9-14,17.4-24.4,31.3-31.2,6.5-3.2,13.3-5.4,20.4-6.8,11.8-2.3,23.7-3.1,35.8-2.2,7,.5,14,1.4,20.8,3.2,4.5,1.2,8.8,2.8,13,4.8,15.5,7.5,25.9,19.5,31.1,35.9,1.7,5.2,2.7,10.5,3.2,15.9.4,4.5.6,8.9.6,13.4,0,33.1,0,66.2,0,99.3,0,1.6,0,3.2-.2,4.8,0,.6-.7,1.2-1.3,1.2-1,0-1.9.1-2.9.1-15,0-30.1,0-45.1,0-1,0-1.9,0-2.9-.1-.6,0-1.2-.7-1.2-1.3,0-1.3-.1-2.6-.1-3.8,0-2.6,0-5.1,0-7.7,0-.9-.9-1.2-1.7-.7-.4.2-.8.5-1.2.8-.8.5-1.6,1.1-2.4,1.6-10.3,6.4-21.5,10.5-33.4,12.6-9.4,1.6-18.8,1.9-28.2.7-7.2-.9-14.1-2.8-20.6-6-9.4-4.7-16.9-11.5-21.9-20.8-.5-.8-1-1.6-1.5-2.4,0-.1-.6,0-.9,0"/>
    <path class="st3" d="M123.1,409.8c0-2.7,0-5.4-.2-8.1-.3-4.6-1.2-9.2-2.8-13.5-3.1-8.2-8.8-13.5-17.2-16-7.2-2.1-14.5-2.3-21.8-1.4-2.5.3-5,.9-7.5,1.7-7.5,2.6-12.9,7.4-16,14.8-1.4,3.3-2.2,6.6-2.8,10.1-.9,6-.9,12.1-.6,18.2.2,4.6.9,9.2,2.3,13.7,3.1,9.8,9.7,15.9,19.6,18.5.5.1.9.2,1.4.3,5.8,1.3,11.7,1.3,17.6.8,3.7-.3,7.2-1.2,10.7-2.6,6.2-2.5,10.7-6.8,13.5-12.9,1.3-2.9,2.2-6,2.8-9.1,1-4.7,1-9.5,1-14.3M31.1,369.9c-.3-.2-.5-.5-.7-.5-1.5-.4-3.1-.8-4.7-1.1-2-.5-2.5-.9-2.5-2.9,0-1.3,0-2.6,0-3.8,0-8,0-16,0-24,0-1.3,0-2.6,0-3.8,0-.8-.7-1.5-1.5-1.5-1.1,0-2.2,0-3.4-.1-4.2,0-8.3,0-12.5,0-1.3,0-2.6,0-3.8,0-1.4,0-1.9-.6-1.9-2.1,0-.6,0-1.3,0-1.9,0-19,0-38,0-57.1,0-1.1.1-2.2.2-3.3,0-.2.4-.6.6-.7.4-.2.9-.2,1.4-.2,16.5,0,32.9,0,49.4,0,.5,0,1,0,1.4.2.3,0,.6.4.7.6.2.4.2.9.2,1.4,0,1.4,0,2.9,0,4.3,0,16.6,0,33.2,0,49.9,0,1.6-.1,3.2.2,4.8.5,0,1,.2,1.4,0,1-.4,2-.9,3-1.4,8.9-4.2,18.3-6.5,28.1-7.4,6.7-.6,13.4-.5,20.1.2,18.2,2.1,34.2,8.9,47.2,22.1,7.5,7.6,12.9,16.6,16.7,26.6,3.2,8.4,5,17.1,6,26.1.7,6.9.8,13.7.7,20.6-.2,10.3-1.6,20.4-4.6,30.2-2.8,9.1-6.8,17.6-12.5,25.2-9.9,13.3-23,22-38.8,26.6-11,3.2-22.2,4.1-33.7,3.2-11.1-.9-21.7-3.6-31.6-8.8-.4-.2-.9-.4-1.3-.6-.4-.2-1,.2-1.1.6,0,.2,0,.3,0,.5,0,.3,0,.6,0,1,0,5.3,0,5-4.9,5-14.6,0-29.1,0-43.6,0-1.3,0-2.6,0-3.8-.2-.4,0-.7-.5-1-.9-.2-.2-.2-.6-.2-.9,0-1.1,0-2.2,0-3.4,0-18.2,0-36.4,0-54.7,0-5.9-.4-5.4,5.4-5.5,5.1,0,10.2,0,15.3,0,1.1,0,2.2-.1,3.3-.2.3,0,.9-.7.8-1,0-.5,0-1-.1-1.4-1.1-5.7-1.6-11.4-1.6-17.2,0-2.6,0-5.1,0-7.7.3-11.3,2.3-22.2,7.2-32.5.3-.6.5-1.2.7-1.8,0-.1,0-.3,0-.5"/>
    <path class="st3" d="M589.5,373.3c-1.4,0-3,0-4.6,0-6.4,0-12.8,0-19.2,0-1,0-1.9-.1-2.9-.2-.6,0-.8-.6-.9-1-.1-.9-.2-1.9-.2-2.9,0-14.5,0-29.1,0-43.6,0-.8,0-1.6,0-2.4,0-.9.7-1.6,1.5-1.6,1.4,0,2.9,0,4.3,0,13.9,0,27.8,0,41.7,0,1.1,0,2.2,0,3.4,0,.5,0,1,0,1.4.1.5.1.9.4,1,.9.2,1.3.2,2.5.4,3.8,0,.2.5.5.7.5.6-.1,1.2-.3,1.8-.5,7.2-3.4,14.7-5.5,22.5-6.5,6.8-.9,13.7-1.4,20.6-.8,5.6.4,11.1,1,16.6,2.4,5.6,1.4,11,3.3,16.1,6.1,12.1,6.6,20.6,16.5,26,29.1,2.4,5.6,4,11.5,5,17.5,1.1,6.5,1.6,13,1.6,19.6,0,32.9,0,65.9,0,98.8,0,1.3,0,2.6-.1,3.8,0,.6-.6,1.2-1.2,1.3-.8,0-1.6.2-2.4.2-15.7,0-31.3,0-47,0-3.3,0-3.5-.2-3.5-3.5,0-1.3,0-2.6,0-3.8,0-30.4,0-60.7,0-91.1,0-2.9,0-5.8-.2-8.6-.1-3.1-.9-6-1.8-8.9-1.9-5.7-5.8-9.1-11.5-10.4-8.1-1.8-16.2-1.6-24.1,1-8.7,2.8-14.4,8.7-16.8,17.5-.8,2.8-1.3,5.6-1.4,8.5,0,2.1,0,4.2,0,6.2,0,28.9,0,57.9,0,86.8,0,7.2.8,6.4-6.4,6.4-13.9,0-27.8,0-41.7,0-1.3,0-2.6,0-3.8,0-1.7,0-2.2-.6-2.2-2.4,0-1,0-1.9,0-2.9,0-13.7,0-27.5,0-41.2,0-1.3,0-2.6.2-3.8,0-.6.6-1.2,1.2-1.3,1.1,0,2.2-.1,3.3-.1,5.1,0,10.2,0,15.4,0,.8,0,1.6-.1,2.4-.3.3,0,.5-.4.7-.6.2-.3.2-.6.2-.9,0-1.4,0-2.9,0-4.3,0-12.6,0-25.3,0-37.9,0-4.2.1-8.3.8-12.4.8-4.9,2.1-9.7,3.8-14.3.2-.6.3-1.2-.3-1.9"/>
    <path class="st3" d="M430.4,107.4c-.7-.4-1.4-.7-2.3-1.2-1.4.6-2.9,1.2-4.3,1.8-4.4,1.9-8.8,3.8-13.2,5.6-.4.2-.9.4-1.3.5-.6.2-1.4,0-1.7-.6-.5-1-1-2-1.4-3-2.6-6-5.2-12-7.7-18.1-.4-.9-.8-1.7-1.3-2.7-.5.2-1,.3-1.4.5-.8.6-1.4,1.3-2.1,1.9-9.6,8.9-19.3,17.8-28.9,26.7-.9.9-1.8,1.8-2.6,2.6-.1,1.4.7,2.3,1.2,3.3,5.7,10.3,11.5,20.7,17.3,31,13.5,24.1,26.9,48.3,40.4,72.4.8,1.4,1.5,2.8,2.2,4.3.3.5-.3,1.3-.9,1.4-1.1,0-2.2.1-3.3.1-17.4,0-34.9,0-52.3,0-1.4,0-2.9.2-4.2-.3-1.3-1.3-2-3-2.8-4.5-11.7-21.3-23.4-42.6-35.1-63.9-.8-1.4-1.5-2.8-2.4-4.2-.2-.4-.7-.6-1.2-.9-.5.4-1.1.8-1.5,1.2-5.7,5.4-11.4,10.8-17,16.2-.2.2-.4.5-.7.7-.9.8-1.2,1.8-1.2,3,0,1.3,0,2.6,0,3.8,0,14.4,0,28.8,0,43.2,0,1.4,0,2.9-.2,4.3,0,.6-.7,1.2-1.3,1.2-.6,0-1.3.1-1.9.1-15.8,0-31.7,0-47.5,0-.6,0-1.3,0-1.9-.2-.4-.1-.8-.5-1-.9-.2-.4-.2-.9-.2-1.4,0-1.1,0-2.2,0-3.4,0-18.1,0-36.1,0-54.2,0-5.8-.5-5.5,5.4-5.5,4.5,0,9,0,13.4,0,1,0,1.9,0,2.9-.1.8,0,1.4-.7,1.4-1.6,0-1.6,0-3.2,0-4.8,0-13.6,0-27.2,0-40.8,0-1.4,0-2.9,0-4.3,0-1.4.4-2.2,2.4-2.2,6.4,0,12.8,0,19.2,0,1.4,0,2.9,0,4.3-.1.6,0,1.2-.4,1.7-.7,1-.8,1.9-1.7,2.8-2.6,17.5-16.6,35-33.3,52.5-49.9,1.2-1.1,2.3-2.2,3.6-3.3,1.1,0,2.2-.1,3.3-.1,26.2,0,52.5,0,78.7,0,1.3,0,2.5,0,3.8.2.4.8.9,1.4,1.2,2.2,4.7,11.4,9.4,22.7,14.1,34.1.2.4.3.9.3,1.4,0,.3-.2.6-.4.8-.4.3-.8.5-1.2.7-8.3,3.4-16.5,6.8-24.8,10.2-.3.1-.6.1-.9.2"/>
    <path class="st3" d="M651.3,57.9c.4.8.9,1.5,1.2,2.2,4.6,11.2,9.3,22.4,13.9,33.7.2.4.3.9.5,1.3.1.4-.2,1-.5,1.2-.4.2-.8.5-1.3.6-8,3.3-15.9,6.6-23.9,9.9-.9.4-1.8.7-2.7.2-.5-.2-.9-.1-1.4,0-1.2.5-2.4.9-3.6,1.4-4.6,1.9-9.1,3.9-13.7,5.8-.4.2-.9.4-1.3.6-.6.2-1.3-.1-1.6-.7-1.2-2.6-2.3-5.3-3.5-7.9-.3-.6-.6-1.1-1-1.6,0,0-.3,0-.4,0-.1,0-.3.1-.3.2,0,.8-.1,1.6-.2,2.4,0,.6-.2,1.2-.3,1.7-4.2.5-26.2.7-50.5.4-.9,0-1.9-.2-3-.2-.1-1.7-.3-3.3-.4-4.8,0-.1-.2-.3-.3-.3-.3,0-.8,0-.8.2-1.1,2.5-2.2,5-3.3,7.4-1.1,2.5-2.2,5-3.3,7.5-.2.5-1.1.8-1.7.6-1.9-.8-3.8-1.6-5.7-2.4-6-2.6-12-5.2-18.1-7.7-1-.4-2.1-.7-2.9-1.8.2-.8.5-1.8.7-2.7-.3-.8-1-1.2-1.8-1.5-4.7-2-9.4-3.9-14.1-5.9-1-.4-2.1-.9-3-1.4-.3-.2-.6-.8-.6-1.2.1-.8.5-1.5.8-2.3,1.2-2.8,2.4-5.6,3.5-8.4,3.1-7.5,6.3-15,9.4-22.5.4-1,.8-2.1,1.3-3.1.4-.8,1.1-1.2,1.9-1.2,1.4,0,2.9,0,4.3,0,11.4,0,22.7,0,34.1,0,1.3,0,2.6,0,3.8-.2.2,0,.3-.5.5-.8-.5-.6-1.1-1.2-1.6-1.7-3.6-3.6-5.9-7.9-7.1-12.9-1.8-7.1-1.8-14.2.2-21.3,3.1-10.9,10.5-17.3,21.4-19.7,6.3-1.4,12.7-1.4,19,0,11.3,2.6,18.6,9.5,21.3,20.9,1.6,6.6,1.5,13.3,0,19.9-1.1,4.8-3.3,9-6.6,12.6-.7.7-1.3,1.4-1.9,2.1,0,0,0,.3,0,.4,0,.4.3.5.7.6,1,0,1.9,0,2.9,0,9.6,0,19.2,0,28.8,0,3.2,0,6.4,0,9.6,0,.9,0,1.9.1,2.8.2"/>
    <path class="st3" d="M451,215.2c-3.1-7.2-6-14.1-9-21-.9-2.2-1.9-4.4-2.8-6.6-.6-1.5-.4-1.9,1-2.6,5.1-2.2,10.3-4.4,15.4-6.6.9-.4,1.8-.7,2.4-1.7-.2-.6-.4-1.4-.7-2.1-.8-2.1-1.7-4.1-2.5-6.2-1.1-2.8-1.1-2.9,1.8-4.1,5.6-2.3,11.2-4.6,16.8-6.9,1.5-.6,2.9-1.2,3.9-2.6.5-.7,4.4-.7,5,0,1.1,1.6,2.8,2,4.4,2.7,5.3,2.2,10.6,4.4,15.9,6.7.9.4,1.7.8,2.5,1.3.2.1.4.6.4.8-.2.9-.5,1.8-.9,2.7-3,7.2-6,14.4-9.1,21.6-.4.9-.7,1.8-1,2.7,0,.2.1.7.3.8.6.4,1.3.9,2.1,1.2,4.1,1.8,8.2,3.5,12.3,5.3,1,.4,2.1.9,3,1.4.4.2.6.7,1,1.1-.4,1.1-.8,2.1-1.2,3.1-5.3,12.5-10.7,24.9-16,37.4-1.8,4.1-3.7,8.1-5.9,12-2.9,5.2-6.3,10-10.4,14.3-7.7,8.1-17.2,13.2-27.9,15.9-7,1.8-14.1,2.7-21.3,2.8-11.3.2-22.7,0-34,0-.5,0-1,0-1.4,0-.6,0-1.3-.6-1.3-1.2,0-.8-.2-1.6-.2-2.4,0-15,0-30,0-45,0-3,0-3.6,3.5-3.6,8.3,0,16.6,0,24.9,0,2.6,0,5.1-.2,7.7-.3.8,0,1.6-.1,2.4-.3,6-1,10.7-4.1,13.7-9.4,2-3.5,3.5-7.2,5.1-11.1"/>
    <path class="st3" d="M755.2,373.3c-7.3,0-14.7,0-22,0-1.3,0-2.6,0-3.8-.2-.4,0-.8-.5-.9-.9-.2-.8-.2-1.6-.2-2.4,0-15,0-30,0-45,0-.8.1-1.6.3-2.4,0-.3.4-.6.6-.7.9-.2,1.9-.2,2.8-.3.3,0,.6-.2.7-.4.1-.2,0-.6-.1-.8-.4-.5-.9-.9-1.3-1.4-4.5-4.7-6.9-10.3-7.8-16.6-.9-5.9-.7-11.8,1-17.6,3.2-11.1,10.7-17.4,21.8-19.8,6-1.3,12.1-1.3,18.1,0,11.5,2.5,19,9.3,21.8,20.9,1.7,6.9,1.5,14-.3,20.9-1.3,5.1-3.9,9.4-7.7,13-.3.3-.5.8-.7,1.2,0,0,0,.3.2.4,1.1.1,2.2.3,3.3.4.7,0,1.2.6,1.2,1.2,0,.8.1,1.6.1,2.4,0,14.7,0,29.4,0,44.1,0,.6,0,1.3,0,1.9,0,1.5-.5,2-2,2-1.3,0-2.6,0-3.8,0-7,0-14.1,0-21.1,0"/>
    <path class="st3" d="M200.5,373.3c-7.5,0-15,0-22.5,0-1.1,0-2.2,0-3.3-.2-.4,0-.9-.4-.9-1,0-1-.2-1.9-.2-2.9,0-14.5,0-29.1,0-43.6,0-1,0-1.9.2-2.9,0-.6.6-1.1,1.3-1.2.9-.1,1.9-.2,2.8-.3.2,0,.4-.6.3-.7-.5-.6-1-1.2-1.6-1.8-3.4-3.5-5.7-7.7-6.9-12.4-1.9-7.3-2-14.5.1-21.8,3.2-11.1,10.8-17.4,21.9-19.7,6-1.3,12.1-1.2,18.1,0,11.5,2.5,19,9.4,21.8,21,1.6,6.8,1.5,13.6-.2,20.4-1.1,4.6-3.3,8.6-6.5,12.1-.7.7-1.3,1.4-1.9,2.1,0,.1.1.7.3.7.9.2,1.9.2,2.8.3,1.2.1,1.6.6,1.7,1.9,0,1,0,1.9,0,2.9,0,14.2,0,28.4,0,42.7,0,1.1,0,2.2-.2,3.3,0,.3-.4.6-.6.7-.8.2-1.6.3-2.4.3-5.1,0-10.2,0-15.3,0-2.9,0-5.8,0-8.6,0"/>
    <path class="st3" d="M686.8,154.3c1.2,0,2.3,0,3.4,0,.4,0,1.1.2,1.3.5.9,1.3,2.2,1.8,3.5,2.3,5.6,2.3,11.2,4.7,16.8,7,.9.4,1.7.8,2.5,1.3.2.1.4.6.3.8-.4,1.2-.9,2.4-1.3,3.6-1.2,3-2.4,5.9-3.6,8.9-.1.3.2,1,.5,1.2.8.5,1.7.9,2.6,1.3,3.2,1.4,6.5,2.7,9.7,4.2,2,.9,4.4,1.2,5.8,3.1-.3,2.1-1.4,3.9-2.2,5.8-5,11.7-10.1,23.5-15.1,35.2-.6,1.4-1,3.1-2.3,4.1-3.9.3-36.3.3-40.2,0-1.2-.9-1.6-2.4-2.1-3.7-3.7-8.5-7.3-17-10.9-25.5-1.9-4.4-3.8-8.8-5.7-13.2-.3-.7-.6-1.5-.8-2.2,0-.4.2-1,.6-1.2.8-.5,1.7-.9,2.6-1.3,4.3-1.8,8.5-3.6,12.8-5.5.9-.4,1.8-.8,2.5-1.3.3-.2.6-.8.5-1.2-.1-.8-.5-1.5-.8-2.2-1.3-3.1-2.5-6.2-3.8-9.3-.3-.9,0-1.6.8-2,2-.9,4.1-1.8,6.2-2.6,4.3-1.8,8.6-3.5,12.8-5.3,1.5-.6,2.8-1.4,3.7-2.8"/>
    <path class="st3" d="M1004.8,299.3c0,9.3,0,18.5,0,27.8,0,1.3,0,2.6-.2,3.8,0,.4-.5.8-.9,1-.4.2-.9.2-1.4.2-1.1,0-2.2,0-3.4,0-14.2,0-28.4,0-42.7,0-1.3,0-2.6,0-3.8,0-1.1,0-1.6-.7-1.7-1.9,0-.5,0-1,0-1.4,0-.8,0-1.6,0-2.4,0-18,0-36.1,0-54.1,0-6-.5-5.5,5.3-5.5,14.5,0,29.1,0,43.6,0,1.1,0,2.2,0,3.4,0,1.1,0,1.7.7,1.7,1.9,0,1.3,0,2.6,0,3.8,0,8.9,0,17.9,0,26.8"/>
    <path class="st3" d="M1004.8,465.2c0,9.4,0,18.8,0,28.3,0,1.1-.1,2.2-.3,3.3,0,.2-.4.5-.6.7-.3.1-.6.2-.9.2-1.1,0-2.2,0-3.4,0-14.5,0-29.1,0-43.6,0-1.3,0-2.6,0-3.8-.1-.6,0-1.2-.6-1.2-1.3,0-.5-.1-.9-.1-1.4,0-1,0-1.9,0-2.9,0-18,0-36.1,0-54.1,0-1.4,0-2.9.1-4.3,0-.6.7-1.2,1.2-1.2.6,0,1.3-.1,1.9-.1,1.1,0,2.2,0,3.4,0,13.7,0,27.5,0,41.2,0,1.6,0,3.2,0,4.8.2.6,0,1.2.6,1.3,1.2,0,.8.1,1.6.1,2.4,0,3.2,0,6.4,0,9.6,0,6.5,0,13.1,0,19.6"/>
    <path class="st3" d="M246.6,35c0-8.8,0-17.6,0-26.4,0-1.4,0-2.9,0-4.3,0-.9.6-1.4,1.6-1.4,1.1,0,2.2,0,3.4,0,14.7,0,29.4,0,44.1,0,1.1,0,2.2,0,3.4,0,.8,0,1.4.7,1.4,1.6,0,.6,0,1.3,0,1.9,0,13.4,0,26.8,0,40.3,0,.8,0,1.6-.2,2.4,0,.4-.5.9-.9,1-.9.2-1.9.3-2.8.3-4.3,0-8.6,0-12.9,0-1.3,0-2.6,0-3.8,0-2,0-2.5.5-2.5,2.6,0,4,0,8,0,12,0,.8,0,1.6-.2,2.4,0,.2-.4.5-.7.6-.4.2-.9.2-1.4.2-8.8,0-17.6,0-26.4,0-.3,0-.7,0-.9-.1-.4-.2-.9-.6-.9-.9-.2-1.3-.2-2.5-.2-3.8,0-9.4,0-18.9,0-28.3"/>
    <path class="st3" d="M726.9,57.9c.5,0,1-.3,1.5-.3,18.1,0,36.1,0,54.2,0,.5,0,.9.2,1.5.3,0,.5.1,1,0,1.4-.3.9-.7,1.8-1,2.7-7.1,16.4-14.1,32.9-21.2,49.3-.4,1-.9,2-1.4,3-.3.5-1.1.9-1.6.6-1-.4-2.1-.9-3.1-1.3-4.4-1.9-8.8-3.8-13.2-5.7-1-.5-2.1-.8-3.2-.6-.8.2-1.6-.2-2.3-.5-8.1-3.4-16.2-6.8-24.3-10.2-.3-.1-.6-.3-.8-.5-.4-.3-.6-.7-.5-1.2.1-.5.3-.9.5-1.3,4.6-11.1,9.2-22.1,13.8-33.2.4-.9.9-1.7,1.3-2.5"/>
    <path class="st3" d="M584.4,182.1c6.9,0,13.7,0,20.6,0,1.3,0,2.6,0,3.8,0,2.1,0,2.5.5,2.5,2.6,0,.8,0,1.6,0,2.4,0,13.9,0,27.8,0,41.6,0,1.3,0,2.5-.2,3.8,0,.6-.7,1.1-1.3,1.2-.8,0-1.6.1-2.4.1-2.6,0-5.1,0-7.7,0-12.3,0-24.6,0-36.9,0-1.4,0-2.9,0-4.3-.1-.5,0-1.2-.8-1.2-1.3,0-.5-.1-1-.1-1.4,0-1.3,0-2.6,0-3.8,0-12.8,0-25.5,0-38.3,0-1.4,0-2.9,0-4.3,0-2,.5-2.4,2.6-2.4,1.3,0,2.6,0,3.8,0,6.9,0,13.7,0,20.6,0"/>
    <path class="st3" d="M227.1,445.6c.2.4.5.9.5,1.3,0,1.9,0,3.8,0,5.7,0,13.1,0,26.2,0,39.3,0,1.4,0,2.9-.1,4.3,0,.8-.7,1.4-1.6,1.5-1.1,0-2.2,0-3.4,0-14.7,0-29.4,0-44.1,0-1.1,0-2.2,0-3.4,0-.8,0-1.5-.7-1.5-1.6,0-1,0-1.9,0-2.9,0-14.2,0-28.4,0-42.6,0-1.1,0-2.2.1-3.3,0-.6.7-1.1,1.3-1.2,1.4,0,2.9,0,4.3,0,9.3,0,18.5,0,27.8,0s11.2,0,16.8,0c1.1,0,2.2-.1,3.3-.2,0,0-.1-.1-.1-.1"/>
    <path class="st3" d="M553,678.7c-2-3.7-4-7.5-6-11.3-.5-.9,0-1.7,1.1-2.2.5-.2.9,0,1.3.3.1.1.2.2.3.4,1.7,3.4,3.4,6.8,5.1,10.2.7,1.5.3,2-1.7,2.5"/>
    <path class="st3" d="M555.1,662.2c.2.2.6.4.7.7,1.5,3.5,3,6.9,4.5,10.4.2.6-.5,1.6-1.3,1.7-.3,0-.6,0-.9-.2-.2-.2-.4-.5-.6-.7-1.5-3.1-2.9-6.3-4.4-9.5-.5-1-.2-1.6,1-2.2.3-.1.6-.1.9-.2"/>
    <path class="st3" d="M519.5,601.9c0,.1-.1.3-.2.3-.6,0-1.2.1-1.8,0-.1,0-.4-.5-.3-.7.1-.2.5-.4.7-.4.4,0,.9.2,1.3.4.1,0,.2.2.2.4"/>
    <path class="st1" d="M646.6,748.7h-14.4v-51h14.4v51ZM617.9,748.7h-14.4v-51h14.4v51Z"/>
    <path class="st1" d="M572.8,587.3l-14.4-48.9c2.1-.6,4.3-1.2,6.5-1.7l11.6,49.7c-1.3.3-2.5.6-3.7,1Z"/>
    <path class="st1" d="M545.4,611.3l-47.9-17.6c.4-1.2.9-2.4,1.4-3.6l47.1,19.6c-.2.5-.4,1-.6,1.5Z"/>
    <path class="st1" d="M564.8,689.4l-22.7-45.7c1.3-.6,2.5-1.2,3.9-1.8l21.3,46.3c-.8.4-1.6.8-2.4,1.2Z"/>
    <path class="st1" d="M541.8,716l-49.4-12.9c.2-.8.4-1.6.7-2.4l49,14c-.1.4-.2.8-.3,1.3Z"/>
    <path class="st1" d="M649.9,788.4h-11v-51h11v51ZM627.8,788.4h-11v-51h11v51ZM605.8,788.4h-11v-51h11v51ZM583.7,788.4h-11v-51h11v51ZM561.6,788.4h-11v-51h11v51Z"/>
    <path class="st1" d="M712,788.4h-51v-90.7h51v90.7ZM539.5,788.4h-51v-51.7c0-11.2,1.1-21.7,3.3-31.1l46.8,11c.2-1.4.4-2.7.7-4.1l-45.5-14.2c3.8-12.1,9.6-22.7,17.2-31.4,3.5-4,7.5-7.8,12-11.3h-32.7l.6-26.1c.3-11.6,2.1-22.5,5.3-32.4l23,7.5h19.8l-38.6-18c5.1-11,12.3-20.6,21.4-28.6,8.5-7.5,18.6-13.4,30.2-17.6l14,38.9c3.8-2.1,8-3.7,12.5-5l-7.1-39.1c9.2-1.7,19.3-2.5,29.9-2.5,20.9,0,39.2,3.3,54.5,9.9,16.7,7.2,29.6,17.6,38.3,30.9,8.7,13.3,13.1,28.3,13.1,44.7s-3.5,30.2-10.4,42.3c-6.9,12.1-17.6,22.4-31.7,30.5-12.1,7-27.3,13-46.4,18.4h-.2c-13.5,3.8-20.5,6.8-24.1,8.6-3.1,1.6-4.4,2.8-4.8,3.2-.1.3-.4,1.2-.6,2.8v24.6h-49.6v39.7ZM543.6,655.7l14.1,26c2.3-1.9,4.8-3.7,7.5-5.4l-8.7-20.6h-12.8ZM590.2,624.3c-.3.3-.8,1.5-1.2,3.6,7.2-2.2,12-3.9,15.2-5.3-.8,0-1.8,0-2.8,0-6.9,0-10.3,1.2-11.1,1.7ZM611.5,624h0Z"/>
    <rect class="st1" x="749.6" y="601.8" width="1" height="51" transform="translate(42.4 1302.1) rotate(-83.5)"/>
    <path class="st1" d="M829.7,625.9h-12.8v-51h12.8v51ZM804.1,625.9h-12.8v-51h12.8v51Z"/>
    <path class="st1" d="M831.5,587.4h-10.9v-51h10.9v51ZM809.7,587.4h-10.9v-51h10.9v51ZM787.9,587.4h-10.9v-51h10.9v51ZM766,587.4h-10.9v-51h10.9v51Z"/>
    <path class="st1" d="M735.1,644l-50.7-5.7,1.5-13.5,50.7,5.7-1.5,13.5ZM738.2,617l-50.7-5.7,1.5-13.5,50.7,5.7-1.5,13.5Z"/>
    <path class="st1" d="M687.8,738.7c-.3-.6-.6-1.3-.9-1.9l46.3-21.5c.1.3.3.6.4.9l-45.8,22.5Z"/>
    <path class="st1" d="M755.7,788.4c-2.4-.5-4.8-1.1-7.1-1.7l13.4-49.2c1.4.4,2.8.7,4.3,1l-10.7,49.9Z"/>
    <path class="st1" d="M829.5,787.9l-12.1-49.6c1.4-.4,2.9-.7,4.2-1.2l15.1,48.7c-2.4.7-4.8,1.4-7.3,2Z"/>
    <path class="st1" d="M896.6,732.6l-47.2-19.3c.3-.7.5-1.3.8-2l48.1,16.9c-.5,1.5-1.1,2.9-1.7,4.4Z"/>
    <path class="st1" d="M792.2,792c-10.5,0-20.4-.7-29.5-2.2l6.3-39c-5.1-1.4-9.8-3.3-14.1-5.7l-13.5,39.5c-11.5-3.9-21.7-9.5-30.3-16.6-9.4-7.8-17-17-22.4-27.3l29.1-15.3h-10.2l-21.6,9.4c-3.9-9-6.4-18.8-7.3-29.2h-1.7l1.1-9.8-1.2-21.4h3.6l2.5-22.5,23.9,2.7h25.8l-11-3.2,2.9-25.3,10.2,1.2c.8-.9,1.7-1.9,2.5-2.8l-12.4-1.4,3.9-34.2-38.3-4.3,5.4-48h48.3v38.6h34.4v24.4c9.3-2.7,19.5-4,30.4-4s23.1,1.7,33.4,5.1v-64h51v89.6h-12.1c4.2,4.8,7.9,10.1,11,15.8,7.8,14.3,11.8,31,11.8,49.6s-1.5,22.5-4.5,32.5l-44.3-13.2c-.7,2.4-1.5,4.6-2.3,6.8l41.6,19.6c-5.1,10.7-12.1,20.3-21,28.4-8.4,7.6-18.3,13.7-29.6,18l-15-38.6c-4.3,2.5-9,4.5-14,6l7.1,38.7c-9.2,1.7-19.3,2.6-30,2.6ZM777,691.1l.7,6c.2,1.6.5,2.2,1.8,3.2,1.4,1.1,5.7,2.4,13.1,2.4s9.4-.4,12.1-2.9c.6-.6,2.4-2.2,2.4-8.2s-1.6-7.3-2.2-7.9c-1.7-1.6-4.8-2.4-9.2-2.4s-9.3.8-11.9,2.3c-2.2,1.3-4.5,3.9-6.6,7.5Z"/>
    <path class="st3" d="M522.2,705.7c-.2-.6,0-1.1.5-1.1.4,0,.9.1,1.4.2,2.9.9,5.8,1.8,8.7,2.6.6.2,1.2.4,1.8.5,1.2.3,1.9,0,2.5-.9.4-.5.7-1.1,1-1.6,4.5-7.1,10.4-12.9,17.2-17.8,5.9-4.2,12.2-7.5,18.8-10.5,9.5-4.3,19.3-7.6,29.3-10.5,9.5-2.8,18.9-5.8,28.1-9.6,4.9-2,9.7-4.2,14.3-6.8,3.6-2.1,7-4.4,10.2-7.1,6.8-5.8,11-13.2,12.4-22.1,1-6.1,1.1-12.1,0-18.1-1.3-6.4-4-12.1-8.2-17.1-5.5-6.5-12.3-11.1-20.2-14.1-5.4-2-11-3.3-16.7-4.1-7.5-1.1-15-1.1-22.5-.8-5.3.2-10.5,1-15.7,2.1-.8.2-1.5.4-2.3.7-.7.2-.8.8-1,1.5,0,.4-.3,1-.6,1.2-.8.5-1.7,1-2.7.8-.4-.1-.8-.5-1.1-.9-.5-.6-1.1-.6-1.7-.4-.5.1-.9.4-1.3.6-.8.3-1.3.9-1.3,1.8,0,1.1-.7,1.7-1.6,2.1-.8.3-1.5.6-2.2-.2-.5-.6-1.1-.6-1.7-.4-.6.2-1.1.6-1.7.9-8.1,5-14.2,11.9-18.6,20.3-3.4,6.6-5.5,13.6-6.8,20.9-.3,1.6-.6,3.1-.7,4.7-.5,5.5,0,4.8-5.8,4.9-1,0-1.9,0-2.9-.1-.6,0-1.1-.6-1.1-1.3,0-1,0-1.9.2-2.9.8-6.5,2-12.9,4.1-19.2.2-.4.3-.9.3-1.4,0-.4-.3-1-.6-1.2-1.3-.7-2.6-1.2-3.9-1.8-.9-.4-1.8-.7-2.6-1.1-.7-.3-1-.9-.7-1.5.3-.7.9-1,1.5-.7,1.3.6,2.6,1.2,3.9,1.7,1,.4,2,.9,3.1,1.3.4-.3.9-.6,1.1-.9.5-1,.9-2,1.4-3,5.7-11.6,13.9-21,25.3-27.4.7-.4,1.3-.8,2-1.3.2-.2.3-.6.3-.9-.1-.8-.4-1.5-.5-2.3,0-.3.1-.7.4-.8,1.1-.6,2.2-1.3,3.6-1.1q2,2.8,4.9,1.6c.3-.1.6-.3,1-.5.2-.8.4-1.7.6-2.7.7-.7,1.7-.7,2.7-.8.9-.1,1.5.2,2,1,.2.3.5.4.8.8.6-.1,1.4-.3,2.1-.4,10.2-2.2,20.6-2.6,31-2.3,8.5.3,16.9,1.5,25,4.1,7.7,2.4,14.8,5.9,21.2,10.9,8.9,7,14.7,15.9,17.3,26.9,1.4,5.8,1.7,11.7,1.1,17.6-.4,4.1-1.1,8.2-2.5,12.2-2.1,6.3-5.4,11.9-10.1,16.7-3.6,3.7-7.7,6.8-12,9.5-5.6,3.5-11.5,6.3-17.5,8.8-9.9,4.1-20.1,7.4-30.3,10.5-8.4,2.5-16.8,5.3-24.9,8.6-4.3,1.8-8.5,3.7-12.6,5.9-4.2,2.3-8.2,4.9-11.9,8-8.2,6.9-13.7,15.5-16.7,25.8-1.6,5.5-2.7,11.2-3.2,16.9-.3,3.5-.6,7-.8,10.5,0,.6,0,1.3.2,1.9,0,.3.4.6.7.6,1.9.4,3.8.4,5.7,0,.3,0,.6-.4.6-.7.2-.8.2-1.6.3-2.4,0-.6,0-1.3,0-1.9,0-1.1.7-1.6,1.9-1.7.3,0,.6,0,1,0,6.1,0,12.2,0,18.2,0,.5,0,1,0,1.4.1.6,0,1.3.7,1.3,1.2,0,1.4.1,2.9.2,4.3,0,.5.7,1.2,1.3,1.2.5,0,1,.1,1.4.1,6.2,0,12.5,0,18.7,0,.5,0,1,0,1.4,0,.5,0,1.3-.7,1.3-1.2,0-.8.1-1.6.2-2.4,0-.8,0-1.7.2-2.4.9-2.1.8-4.4.8-6.6,0-5.3,0-10.5,0-15.8,0-1,0-1.9.3-2.8,0-.4.4-.8,1-.9.3,0,.6-.1.9-.1,6.4,0,12.8,0,19.2,0,.3,0,.6,0,1,.1.6,0,1.2.7,1.2,1.3.1,4.3.4,8.6-.2,12.9-.1.8-.2,1.6-.2,2.4,0,4.3,0,8.6,0,12.9,0,.6.2,1.3.4,1.8,0,.3.4.5.7.6.3.1.6.2.9.2,6.9,0,13.7,0,20.6,0,.2,0,.3,0,.5,0,.6,0,1.2-.7,1.2-1.3.1-3.3.4-6.7.4-10,0-5.6,0-11.2,0-16.8,0-1,0-1.9.1-2.9,0-.6.7-1.1,1.3-1.2.3,0,.6,0,1,0,6.4,0,12.8,0,19.2,0,.3,0,.7,0,.9.1.4.2.9.5,1,.9.2,1.1.2,2.2.2,3.3,0,7.2,0,14.4,0,21.6,0,.6,0,1.3,0,1.9q0,4.5,4.5,4.5c3.7,0,7.4,0,11,0,.5,0,1,0,1.4.1.6,0,1.3.6,1.3,1.2,0,2.1,0,4.1,0,6.2,0,.6-.7,1.1-1.3,1.1-1.3,0-2.6,0-3.8,0-48.4,0-96.9,0-145.3,0-1.3,0-2.6,0-3.8-.1-.6,0-1.1-.6-1.2-1.3,0-.6-.1-1.3-.1-1.9,0-4.5,0-9,.1-13.4.3-8.3,1.5-16.5,3.9-24.5.7-2.4,1.7-4.8,2.5-7.2.3-.8-.1-1.5-1-1.8-.6-.2-1.2-.3-1.8-.5-2.8-.7-5.6-1.3-8.4-2-.3,0-.6-.2-.9-.4-.2-.2-.4-.6-.3-.8,0-.2.5-.4.8-.4.5,0,1,0,1.4.2,2.8.7,5.6,1.5,8.3,2.2.8.2,1.6.3,2.4.3.2,0,.6-.3.6-.5,0-.2-.1-.7-.3-.8-.4-.3-.8-.5-1.3-.6-3.1-.9-6.2-1.7-9.2-2.6-.6-.2-1.2-.4-1.8-.6"/>
    <path class="st3" d="M860.4,720.9c-.4.6-.9,1-1.2,1.6-.7,1.6-1.4,3.2-2.1,4.8-5.3,11-13,19.6-23.5,25.9-1,.6-1.9,1.1-2.9,1.7-.6.4-.8,1-.8,1.6,0,.5-.3.9-.7,1.2-1.3.7-2.6,1.5-4.1,1.1-2.4-.7-4.3.5-6.2,1.5-.7,1.1-1.8,1.2-2.9,1.4-.5,0-1,.3-1.4.2-2.7-.1-5.4.7-8,1.1-4.3.7-8.5,1.3-12.8,1.5-6.1.2-12.2.3-18.2,0-9.6-.6-19.1-2.1-28.1-5.5-14.6-5.4-25.9-14.9-33.5-28.7-.7-1.3-1.3-2.6-1.9-3.8-.7-1.3-.9-1.4-2.7-1.1-.4,0-.7.1-.8-.2,0-.2.2-.5.3-.8,0-.1.3-.2.4-.3.7-.5,1.1-1.1.9-2-.3-.9-.6-1.8-.9-2.7-1.6-4.9-2.8-9.8-3.3-14.9,0-.3.5-1.1.8-1.1,2.5-.2,5.1-.3,7.6.1.1,0,.3.1.6.3.3,1.4.6,3,.9,4.6.8,4.6,2.1,9,4,13.3,5.5,12.3,14.4,21.4,26.5,27.2.3.1.6.2.9.3.5.2,1.2-.2,1.6-.8.8-1.4.8-3.1,2-4.3,1.2-.4,2.1.4,2.9,1.1.3.2.5.8.6,1.2,0,.6-.2,1.3-.3,1.9-.2,1.1-1.1,2.2-.2,3.2,1,1,2.5,1.2,4,1.2.2,0,.6-.3.7-.5.4-1.1.6-2.1.9-3.2.2-.6.9-1.1,1.5-.9.8.2,1.6.4,2.3.7.4.2.6.7.8,1.1.1.3,0,.6,0,.9-.5,3.7.2,3.6,3.5,4.1,8.4,1.2,16.9,1.4,25.4.9,5.1-.3,10.2-1,15.2-2,.8-.2,1.5-.4,2.3-.7.4-.2.7-.6.7-1.1,0-.9,0-1.9,0-2.6.9-1.2,2.1-1.1,3.1-1.6.5-.2,1.2.2,1.5.9.3.6.5,1.2.7,1.8.3.6,1,.8,1.6.6.7-.3,1.5-.6,2.2-.9.8-.4,1.2-1.1,1-1.9-.2-.8-.4-1.5-.5-2.3,0-.3.1-.7.4-.8.6-.5,1.3-.9,2-1.2.7-.4,1.5,0,1.9.8.4.8.6,1.8,1.9,2.2.7-.4,1.6-.8,2.4-1.3,10.2-6.5,17.1-15.6,21.2-27,.4-1.1.2-1.8-.6-2.5-.2-.2-.4-.5-.6-.7-.2-.3,0-1.1.4-1.2.6-.2,1.2-.2,1.8-.4.4,0,.7-.9.5-1.2-.3-.5-.7-1-1.1-1.5-.4-.6-.3-1.2.4-1.6.1,0,.3-.1.4-.2,1.2,0,1.6-.9,1.8-1.9.6-3.8,1.2-7.6,1.4-11.4.2-6.4.1-12.8-.9-19.1-1-6-2.6-11.9-5.2-17.4-5.7-12.1-14.8-20.7-27.1-25.9-6.5-2.8-13.3-4.3-20.4-5.1-4.9-.5-9.9-.9-14.8-.7-9,.3-17.9,1.3-26.5,3.9-12.1,3.6-22.3,10.2-30.6,19.7-3.7,4.2-7,8.8-9.8,13.6-.7,1.2-1.5,2.4-2.3,3.7-2.7.6-5.4.3-8.1.2-.6,0-1.1-.6-1.1-1.3.2-1.9.3-3.8.5-5.7.2-2.4.5-4.8.8-7.2.1-1.4-.4-1.9-2-2.1-.8,0-1.6-.1-2.4-.3-.3,0-.6-.4-.6-.7-.1-.5-.2-1-.1-1.4.7-6.2,1.4-12.4,2.1-18.6,0-.3.3-.5.5-.8.6,0,1.2-.1,1.9,0,3.3.6,3.7-.1,4-2.9.6-4.9,1.2-9.8,1.8-14.7.1-1.1.2-2.2.2-3.3,0-.6-.5-1.2-1.1-1.3-1.1-.2-2.2-.3-3.3-.5-.6-.1-1.1-.7-1.1-1.4,0-.5,0-1,0-1.4.7-6,1.4-12.1,2.1-18.1,0-.8.9-1.3,1.7-1.3,1.1,0,2.2.2,3.3.3.7,0,1.3-.4,1.4-1,.2-1.1.5-2.2.6-3.3.4-2.9.7-5.7,1.1-8.6.4-3.5.8-7,1.2-10.5,0-.5,0-1,.3-1.4.2-.4.6-.8,1-.9.8-.2,1.6-.2,2.4-.2,16.6,0,33.3,0,49.9,0,15.5,0,31,0,46.5,0,9.6,0,19.2,0,28.8,0,1,0,1.9,0,2.9.2.6,0,.9.5,1,.9.4,2.2.3,4.5,0,6.7,0,.3-.6.7-1,.8-.8.2-1.6.2-2.4.2-2.9,0-5.8,0-8.6,0-.8,0-1.6,0-2.4.2-.6,0-1.2.7-1.2,1.3,0,1.3-.1,2.6-.1,3.8,0,6.9,0,13.7,0,20.6,0,.9.2,1.9-.6,2.8-2.3.2-4.3-1-6.5-1.4-2.4-.4-4.7-1.1-7-1.5-2.2-.4-4.4-.4-6.6-1.4,0-1.2-.2-2.3-.2-3.4,0-4.6,0-9.3,0-13.9,0-.8-.1-1.6-.3-2.4,0-.3-.4-.6-.6-.6-.6-.2-1.2-.3-1.9-.3-1.9,0-3.8,0-5.8,0-.5,0-1,0-1.4-.1-.9-.1-1.4-.7-1.5-1.6,0-.3,0-.6-.2-.9-.2-.7-.7-1-1.4-1.1-.3,0-.6,0-1,0-9.3,0-18.5,0-27.8,0-.5,0-1,0-1.4.2-.4.2-.8.6-1,.9-.2.4-.2.9-.3,1.4-.2.7-.6,1.1-1.3,1.2-.3,0-.6.1-1,.1-9.3,0-18.5,0-27.8,0-.3,0-.6,0-1,0-.7,0-1.1-.4-1.3-1.2-.1-.5-.2-.9-.3-1.4-.1-.6-.6-.9-1-.9-3-.3-6-.4-9,.1-.9,1.7-1,3.5-1.2,5.2-.9,7.6-1.8,15.2-2.7,22.8-.8,6.7-1.5,13.3-2.3,20-.8,6.5-1.6,13-2.4,19.5-.4,3.3-.8,6.7-1.2,10,0,.6-.1,1.3,0,1.9,0,.3.2.6.4.7.2.1.6,0,.9-.1.3-.1.5-.4.7-.7.3-.4.6-.8.9-1.1,10-13.2,23.3-21.7,39.2-26,5.9-1.6,11.9-2.5,17.9-3,7.4-.6,14.7-.5,22,.3,9,.9,17.7,3,25.8,7,17.7,8.6,29.1,22.5,34.3,41.5,1.8,6.5,2.5,13.2,2.8,19.9.2,7.4-.2,14.7-1.6,21.9-.1.6-.1,1.3-.2,1.9,0,.5.5,1.3,1.1,1.5,1.5.5,3.1.9,4.6,1.4.4.1.9.4,1.3.6.5.2.7,1,.4,1.7-.2.7-.9,1.2-1.4,1-1.8-.6-3.6-1.2-5.5-1.7-.4-.1-1,0-1.3.2-.3.2-.5.8-.7,1.2-.2.5,0,1,.5,1.2,1.9.9,3.8,1.7,5.6,2.6.2.1.5.5.5.8,0,.4-.2.9-.4,1.3-.2.4-.7.7-1.2.5-.8-.2-1.5-.6-2.2-.8-1.2-.5-2.3-1-3.6-1.5"/>
  </g>
</svg>