<?xml version="1.0" encoding="UTF-8"?>
<svg id="Ebene_1" xmlns="http://www.w3.org/2000/svg" xmlns:xlink="http://www.w3.org/1999/xlink" version="1.1" viewBox="0 0 284.9 170.1">
  <!-- Generator: Adobe Illustrator 29.5.1, SVG Export Plug-In . SVG Version: 2.1.0 Build 141)  -->
  <defs>
    <style>
      .st0 {
        fill: none;
      }

      .st1 {
        fill: #1d1d1b;
      }

      .st2 {
        clip-path: url(#clippath);
      }
    </style>
    <clipPath id="clippath">
      <rect class="st0" width="284.9" height="170.1"/>
    </clipPath>
  </defs>
  <polygon class="st1" points="61.9 160.4 59.3 151.2 56.7 160.4 53.6 160.4 49.9 146.2 53.2 146.2 55.3 155 57.7 146.2 60.9 146.2 63.4 155 65.4 146.2 68.7 146.2 65 160.4 61.9 160.4"/>
  <polygon class="st1" points="29.5 0 21.3 41.2 13.1 0 0 0 0 100.3 12.1 100.3 12.1 60 21.3 102.8 30.5 60 30.5 100.3 42.6 100.3 42.6 0 29.5 0"/>
  <polygon class="st1" points="50.7 0 50.7 51.9 81.1 51.9 81.1 93.3 58 93.3 58 77.9 50.7 77.9 50.7 100.3 88.4 100.3 88.4 44.9 58 44.9 58 7 81.1 7 81.1 22.4 88.4 22.4 88.4 0 50.7 0"/>
  <polygon class="st1" points="277.6 0 277.6 93.3 257.5 93.3 126.3 0 96.5 0 96.5 100.3 103.8 100.3 103.8 7 123.7 7 255.1 100.3 284.9 100.3 284.9 0 277.6 0"/>
  <polygon class="st1" points="11.1 106.1 7.4 115.7 3.7 106.1 0 106.1 0 120.3 3.1 120.3 3.1 112.8 6 120.3 8.8 120.3 11.7 112.8 11.7 120.3 14.8 120.3 14.8 106.1 11.1 106.1"/>
  <g class="st2">
    <path class="st1" d="M24.3,120.7c2.8,0,6.2-1.6,6.2-6.4v-8.2h-3.3v8.4c0,2.3-1.4,3.2-2.9,3.2s-2.9-.9-2.9-3.2v-8.4h-3.3v8.2c0,4.8,3.3,6.4,6.2,6.4"/>
    <polygon class="st1" points="43.2 120.3 43.2 117.5 37.1 117.5 42.8 108.7 42.8 106.1 33.3 106.1 33.3 108.9 38.9 108.9 33.1 117.7 33.1 120.3 43.2 120.3"/>
    <polygon class="st1" points="55.1 120.3 55.1 117.5 49.3 117.5 49.3 114.5 54.6 114.5 54.6 111.7 49.3 111.7 49.3 108.9 55 108.9 55 106.1 46 106.1 46 120.3 55.1 120.3"/>
    <path class="st1" d="M64.1,120.7c2.8,0,6.2-1.6,6.2-6.4v-8.2h-3.3v8.4c0,2.3-1.4,3.2-2.9,3.2s-2.9-.9-2.9-3.2v-8.4h-3.3v8.2c0,4.8,3.3,6.4,6.2,6.4"/>
    <polygon class="st1" points="76.7 120.3 76.7 112.8 79.6 120.3 82.4 120.3 85.4 112.8 85.4 120.3 88.4 120.3 88.4 106.1 84.7 106.1 81 115.7 77.4 106.1 73.6 106.1 73.6 120.3 76.7 120.3"/>
    <path class="st1" d="M55.1,140.6c2.9,0,4.9-1.6,4.9-4.2,0-4.8-6.2-4.1-6.2-6.5s.6-1.3,1.5-1.3l3.9,1.3v-3.2c-1.4-.5-2.5-.8-4-.8-2.9,0-4.7,1.6-4.7,4,0,5,6.2,3.8,6.2,6.5s-.7,1.5-1.8,1.5l-4.2-1.5v3.3c1.2.5,2.8.9,4.4.9"/>
    <polygon class="st1" points="72.2 140.4 72.2 137.6 66.1 137.6 71.8 128.8 71.8 126.2 62.3 126.2 62.3 129 67.9 129 62.2 137.8 62.2 140.4 72.2 140.4"/>
    <polygon class="st1" points="80.7 140.4 80.7 129 84.3 129 84.3 126.2 73.9 126.2 73.9 129 77.5 129 77.5 140.4 80.7 140.4"/>
    <path class="st1" d="M92.8,140.7c2.8,0,6.2-1.6,6.2-6.4v-8.2h-3.3v8.4c0,2.3-1.4,3.2-2.9,3.2s-2.9-.9-2.9-3.2v-8.4h-3.3v8.2c0,4.8,3.3,6.4,6.2,6.4"/>
    <polygon class="st1" points="105.7 140.4 105.7 134.7 106.9 134.7 110.5 140.4 114.6 140.4 109.3 132.3 114.2 126.2 109.9 126.2 105.7 132 105.7 126.2 102.4 126.2 102.4 140.4 105.7 140.4"/>
    <rect class="st1" x="116.5" y="126.2" width="3.3" height="14.2"/>
    <polygon class="st1" points="132.9 140.4 132.9 131.3 139.1 140.4 142.4 140.4 142.4 126.2 139.2 126.2 139.2 135.2 133.1 126.2 129.7 126.2 129.7 140.4 132.9 140.4"/>
    <path class="st1" d="M152.9,137.8c-2.4,0-4.3-1.9-4.3-4.5s1.9-4.5,4.3-4.5,4.3,1.9,4.3,4.5-1.9,4.5-4.3,4.5M152.9,140.7c4.3,0,7.6-3,7.6-7.5s-3.3-7.5-7.6-7.5-7.6,3-7.6,7.5,3.3,7.5,7.6,7.5"/>
    <polygon class="st1" points="168.7 140.4 171.3 131.2 173.9 140.4 177 140.4 180.7 126.2 177.4 126.2 175.3 135 172.9 126.2 169.7 126.2 167.2 135 165.2 126.2 161.9 126.2 165.6 140.4 168.7 140.4"/>
    <path class="st1" d="M189.7,137.8c-2.4,0-4.3-1.9-4.3-4.5s1.9-4.5,4.3-4.5,4.3,1.9,4.3,4.5-1.9,4.5-4.3,4.5M189.7,140.7c4.3,0,7.6-3,7.6-7.5s-3.3-7.5-7.6-7.5-7.6,3-7.6,7.5,3.3,7.5,7.6,7.5"/>
    <path class="st1" d="M207,140.7c1.9,0,3.6-.4,4.8-1.2l-1.1-2.8c-.9.6-2.1,1-3.1,1-2.9,0-4.9-1.9-4.9-4.4s1.8-4.5,4.6-4.5l4.2,1.3v-3.4c-1.4-.5-2.8-.9-4.4-.9-4.3,0-7.7,3-7.7,7.5s3.3,7.5,7.7,7.5"/>
    <polygon class="st1" points="223.7 140.4 223.7 137.6 217.6 137.6 223.3 128.8 223.3 126.2 213.8 126.2 213.8 129 219.4 129 213.6 137.8 213.6 140.4 223.7 140.4"/>
    <polygon class="st1" points="235.6 140.4 235.6 137.6 229.8 137.6 229.8 134.6 235.1 134.6 235.1 131.8 229.8 131.8 229.8 129 235.5 129 235.5 126.2 226.5 126.2 226.5 140.4 235.6 140.4"/>
    <path class="st1" d="M242.7,140.6c2.9,0,4.9-1.6,4.9-4.2,0-4.8-6.2-4.1-6.2-6.5s.6-1.3,1.5-1.3l3.9,1.3v-3.2c-1.4-.5-2.5-.8-4-.8-2.9,0-4.7,1.6-4.7,4,0,5,6.2,3.8,6.2,6.5s-.7,1.5-1.8,1.5l-4.2-1.5v3.3c1.2.5,2.8.9,4.4.9"/>
    <polygon class="st1" points="253.7 140.4 253.7 131.3 259.9 140.4 263.3 140.4 263.3 126.2 260 126.2 260 135.2 253.9 126.2 250.5 126.2 250.5 140.4 253.7 140.4"/>
    <polygon class="st1" points="276 140.4 276 137.6 270.2 137.6 270.2 134.6 275.5 134.6 275.5 131.8 270.2 131.8 270.2 129 275.9 129 275.9 126.2 266.9 126.2 266.9 140.4 276 140.4"/>
    <path class="st1" d="M279.7,140.6c2.9,0,5.2-1.3,5.2-4.7v-9.8h-3.3v9.1c0,1.8-.6,2.5-2.1,2.5s-1.4-.2-1.6-.3v2.9c.5.1,1.1.2,1.8.2"/>
    <polygon class="st1" points="82.1 160.4 84.6 151.2 87.2 160.4 90.3 160.4 94.1 146.2 90.7 146.2 88.7 155.1 86.2 146.2 83.1 146.2 80.6 155.1 78.6 146.2 75.2 146.2 79 160.4 82.1 160.4"/>
    <path class="st1" d="M100.9,150.5l1.6,4.7h-3.3l1.6-4.7ZM97.4,160.4l.9-2.4h5.1l.9,2.4h3.7l-5.5-14.2h-3.4l-5.5,14.2h3.7Z"/>
    <path class="st1" d="M114.8,149c1,0,1.8.6,1.8,1.6s-.8,1.6-1.8,1.6h-1.8v-3.2h1.8ZM113.1,160.4v-6.2l3.8,6.2h4l-3.6-5.4-2-.5h0c3,0,4.6-1.8,4.6-4.2s-1.7-4.1-4.6-4.1h-5.6v14.2h3.3Z"/>
    <path class="st1" d="M127.4,160.7c2.9,0,4.9-1.6,4.9-4.2,0-4.8-6.2-4.1-6.2-6.5s.6-1.3,1.5-1.3l3.9,1.3v-3.2c-1.4-.5-2.5-.8-4-.8-2.9,0-4.7,1.6-4.7,4,0,5,6.2,3.8,6.2,6.5s-.7,1.5-1.8,1.5l-4.2-1.5v3.3c1.2.5,2.8.9,4.4.9"/>
    <polygon class="st1" points="144.1 160.4 144.1 157.6 137.9 157.6 143.7 148.8 143.7 146.2 134.2 146.2 134.2 149 139.8 149 134 157.8 134 160.4 144.1 160.4"/>
    <path class="st1" d="M152.5,150.5l1.6,4.7h-3.3l1.6-4.7ZM149.1,160.4l.9-2.4h5.1l.9,2.4h3.7l-5.5-14.2h-3.4l-5.5,14.2h3.7Z"/>
    <polygon class="st1" points="166.2 160.4 168.8 151.2 171.4 160.4 174.5 160.4 178.2 146.2 174.9 146.2 172.8 155.1 170.4 146.2 167.2 146.2 164.7 155.1 162.7 146.2 159.4 146.2 163.1 160.4 166.2 160.4"/>
    <rect class="st1" x="180.6" y="146.2" width="3.3" height="14.2"/>
    <polygon class="st1" points="196.6 160.4 196.6 157.6 190.8 157.6 190.8 154.6 196 154.6 196 151.8 190.8 151.8 190.8 149 196.5 149 196.5 146.2 187.5 146.2 187.5 160.4 196.6 160.4"/>
    <rect class="st1" x="50.7" y="166.2" width="145.9" height="3.8"/>
  </g>
</svg>