<?xml version="1.0" encoding="UTF-8"?>
<svg id="Ebene_1" xmlns="http://www.w3.org/2000/svg" xmlns:xlink="http://www.w3.org/1999/xlink" version="1.1" viewBox="0 0 442.4 169.2">
  <!-- Generator: Adobe Illustrator 29.4.0, SVG Export Plug-In . SVG Version: 2.1.0 Build 152)  -->
  <defs>
    <style>
      .st0 {
        fill: none;
      }

      .st1 {
        clip-path: url(#clippath);
      }
    </style>
    <clipPath id="clippath">
      <rect class="st0" y="0" width="442.4" height="169.2"/>
    </clipPath>
  </defs>
  <g class="st1">
    <g>
      <path d="M114.5,69c2.6-1.1,4.5-2.7,5.8-4.8,1.3-2.1,1.9-4.6,1.9-7.5,0-4.3-1.5-7.7-4.4-10.1-2.9-2.4-7.2-3.5-12.8-3.5h-17.4v27.5h17.4c3.7,0,6.9-.5,9.5-1.6"/>
      <path d="M296.3,33.1c-2.5-1.4-5.3-2.1-8.4-2.1s-6.4.9-9.2,2.6c-2.7,1.7-4.9,4.2-6.4,7.3s-2.2,6.7-2.2,10.7.8,7.8,2.2,10.9c1.5,3.1,3.6,5.6,6.4,7.4,2.7,1.8,5.8,2.6,9.2,2.6s5.9-.7,8.4-2.2,4.5-3.5,6.1-6.1c1.5-2.6,2.4-5.5,2.6-8.8v-7.5c-.2-3.3-1.1-6.2-2.6-8.8-1.5-2.5-3.6-4.5-6.1-6"/>
      <path d="M62.8,138.2c2.5,1.4,5.3,2.1,8.4,2.1s6.5-.9,9.2-2.6c2.7-1.7,4.8-4.2,6.3-7.3,1.5-3.1,2.2-6.7,2.2-10.7s-.8-7.8-2.2-10.9c-1.5-3.1-3.6-5.6-6.2-7.4s-5.6-2.6-9-2.6-6,.7-8.5,2.2-4.6,3.5-6.2,6.1c-1.6,2.6-2.5,5.5-2.7,8.8v7.5c.2,3.3,1.1,6.2,2.6,8.8,1.5,2.5,3.6,4.5,6.1,6"/>
      <path d="M112.9,31.7c2.2-.9,3.8-2.1,4.9-3.8,1.1-1.7,1.6-3.8,1.6-6.2,0-3.7-1.3-6.5-3.8-8.5s-6.1-3-10.6-3h-17.4v22.9h17.4c3.1,0,5.7-.4,7.9-1.3"/>
      <path d="M315.9,0v80.9h-10.9v-8.5c-1.6,2.8-4.2,5.1-7.6,6.9s-7.1,2.8-11,2.8-9.9-1.3-14.1-3.9-7.5-6.2-9.8-10.8c-2.4-4.6-3.5-9.8-3.5-15.6s1.2-11,3.5-15.6c2.4-4.6,5.6-8.2,9.8-10.8,4.2-2.6,8.9-3.9,14.1-3.9s7.6.9,11,2.7c3.4,1.8,6,4.1,7.6,6.9V0H109.7c3.5.3,6.6,1,9.5,2.2,3.9,1.6,6.9,3.9,9,7,2.1,3.1,3.1,6.8,3.1,11.2s-1,7.2-3.1,10.1c-2.1,2.9-4.8,5.1-8.2,6.6,4.4,1.6,7.9,4.1,10.4,7.5,2.5,3.4,3.8,7.6,3.8,12.5s-1.1,9.4-3.2,12.9c-2.1,3.5-5.2,6.2-9.3,8-4.1,1.8-8.9,2.8-14.6,2.8h-31.3V0h-13v37H0v53h30.2v79.2h13.1v-78.7h10.8v8.4c1.7-2.8,4.3-5.1,7.8-6.9s7.2-2.7,11.2-2.7,9.7,1.3,13.9,3.9c4.2,2.6,7.4,6.2,9.7,10.8,2.3,4.6,3.5,9.8,3.5,15.6s-1.2,11-3.5,15.6c-2.4,4.6-5.6,8.2-9.8,10.8-4.2,2.6-8.9,3.9-14.1,3.9s-7.5-.9-10.9-2.7-6-4.1-7.8-6.9v28.8h224.3v-67.9h164V0h-126.5ZM32.5,76.5h4v4.3H13v-4.2l12.8-11,1.1-1c1-1,1.9-1.9,2.6-2.8.7-.9,1.1-1.8,1.5-2.6.3-.9.5-1.8.5-2.7,0-1.9-.6-3.4-1.7-4.5s-2.7-1.7-4.6-1.7-4,.8-5.1,2.3c-1.2,1.5-1.6,3.6-1.5,6.2h-.2l-4.8-.7c-.2-2.3.2-4.4,1.2-6.3,1-1.8,2.3-3.3,4.1-4.3,1.8-1,3.9-1.6,6.2-1.6s4.3.4,6,1.3c1.7.9,3.1,2.1,4,3.7.9,1.6,1.4,3.4,1.4,5.5s-.3,2.8-.8,4.2-1.4,2.7-2.5,4.1-2.6,2.8-4.4,4.3l-8.8,7.5h12.5ZM62.7,80.9h-5.6v-5.4h5.6v5.4ZM62.8,50.9c-2.9,3-5.4,6.3-7.3,9.7-1.9,3.4-3.3,6.9-4.2,10.3s-1.2,6.8-1.1,10h-5c0-3.5.4-7,1.2-10.6.9-3.6,2.3-7,4.2-10.3s4.2-6.4,7-9.1h-18.9v-4.3h24.1v4.4h0ZM141.6,31.1v-8.5h10.9v36.3c0,3.1.6,5.6,1.7,7.6,1.1,2,2.7,3.5,4.6,4.5,1.9,1,4.2,1.5,6.9,1.5s4.9-.7,7.1-2c2.2-1.3,4-3.1,5.5-5.3,1.5-2.2,2.6-4.7,3.3-7.4V22.5h10.9v58.3h-10.9v-8.5c-2,2.8-4.6,5.2-7.8,7-3.1,1.8-6.6,2.7-10.3,2.7s-7.9-.8-11.2-2.5-5.9-4.1-7.8-7.2c-1.9-3.1-2.8-6.7-2.8-10.8v-30.4h0ZM128.6,101.3c-2.9,1.6-5.2,3.7-6.8,6.5-1.3,2.3-2.3,4.6-2.9,6.9v34.1h-10.8v-58.3h10.8v9.5c.7-1.3,1.5-2.4,2.4-3.5,1.8-2.2,4-3.9,6.5-5.2,2.5-1.3,5.2-1.9,7.9-1.9s2.8,0,3.5.2v10.6c-4.1-.7-7.6-.3-10.6,1.2M192.8,121.2h-43.9c.2,3.5.9,6.7,2.1,9.4,1.5,3.2,3.6,5.6,6.3,7.3s5.9,2.5,9.5,2.5,7.3-.9,9.8-2.6c2.5-1.8,4.3-4.5,5.3-8.3l10.8,3.1c-1.6,5.3-4.6,9.5-9.2,12.6-4.5,3.1-10.2,4.6-17,4.6s-10.5-1.3-14.8-3.9c-4.3-2.6-7.7-6.2-10.2-10.8-2.4-4.6-3.7-9.8-3.7-15.7s1.2-11.1,3.6-15.7c2.4-4.6,5.7-8.2,10-10.7s9.1-3.8,14.6-3.8,12.9,1.7,17,5.1,6.9,7.5,8.3,12.4c1.4,4.9,1.9,9.7,1.3,14.5M211.8,141.6v7.2h-10.8v-58.3h10.8v51.2h0ZM214.9,38.2c-1.5,2.2-2.6,4.7-3.3,7.4v35.3h-10.8V22.5h10.8v8.5c2-2.8,4.6-5.2,7.8-7,3.1-1.8,6.6-2.7,10.3-2.7s8,.8,11.3,2.5,5.8,4.1,7.7,7.2c1.9,3.1,2.8,6.7,2.8,10.8v38.9h-10.9v-36.3c0-2.8-.5-5.3-1.6-7.3s-2.6-3.6-4.6-4.7c-2-1.1-4.3-1.6-7-1.6s-4.9.7-7.1,2c-2.2,1.3-4,3.1-5.5,5.3M262.8,141.1c-1.9,2.7-4.5,4.8-7.8,6.4-3.3,1.6-7.1,2.4-11.4,2.4s-9-.8-12.6-2.4c-3.6-1.6-6.4-3.7-8.4-6.4s-3.3-5.6-3.7-8.8l10-3.5h.4c.4,2.4,1.2,4.5,2.4,6.3s2.9,3.2,4.9,4.1c2.1.9,4.4,1.4,6.9,1.4s4-.4,5.6-1.1c1.6-.7,2.9-1.7,3.8-3,.9-1.3,1.3-2.7,1.3-4.4s-.7-3.8-2-5-3.2-2.2-5.8-2.9l-11.1-2.6c-2.7-.7-5.1-1.6-7.2-2.6-2.1-1.1-3.9-2.7-5.3-4.8-1.4-2.1-2.1-4.8-2.1-8s.9-6,2.7-8.6,4.3-4.6,7.5-6.1,6.8-2.2,11-2.2,7.5.6,10.7,1.9c3.1,1.3,5.7,3.1,7.7,5.3,2,2.3,3.3,5,4,8l-10.1,3h-.4c-.5-3-1.9-5.3-4-7s-4.7-2.5-7.8-2.5-5.3.8-7.1,2.2c-1.8,1.5-2.8,3.2-2.8,5.2s.6,3.2,1.9,4.3c1.3,1.1,3.1,1.9,5.4,2.5l10,2.5c3.4.8,6.2,1.8,8.5,3,2.3,1.2,4.2,2.9,5.6,5.2,1.4,2.2,2.1,5.2,2.1,9s-.9,6.4-2.8,9.1M378.8,53.3h-43.9c.2,3.5.9,6.7,2.1,9.4,1.5,3.2,3.6,5.6,6.3,7.3,2.7,1.7,5.9,2.5,9.5,2.5s7.3-.9,9.8-2.6c2.5-1.8,4.3-4.5,5.3-8.3l10.8,3.1c-1.6,5.3-4.6,9.5-9.2,12.6-4.5,3.1-10.2,4.6-17,4.6s-10.5-1.3-14.8-3.9-7.7-6.2-10.2-10.8c-2.4-4.6-3.7-9.8-3.7-15.7s1.2-11.1,3.6-15.7c2.4-4.6,5.7-8.2,10-10.7s9.1-3.8,14.6-3.8,12.9,1.7,17,5.1,6.9,7.5,8.3,12.4,1.9,9.7,1.3,14.5M426.7,73.2c-1.9,2.7-4.5,4.8-7.8,6.4s-7.1,2.4-11.4,2.4-9-.8-12.6-2.4-6.4-3.7-8.4-6.4c-2-2.7-3.3-5.6-3.7-8.8l10-3.5h.5c.4,2.4,1.2,4.5,2.4,6.3,1.2,1.8,2.9,3.2,4.9,4.1,2.1.9,4.4,1.4,6.9,1.4s4-.4,5.6-1.1,2.9-1.7,3.8-3,1.3-2.7,1.3-4.4-.7-3.8-2-5-3.2-2.2-5.8-2.9l-11.1-2.6c-2.7-.7-5.1-1.6-7.2-2.6-2.1-1.1-3.9-2.7-5.3-4.8s-2.1-4.8-2.1-8,.9-6,2.7-8.6c1.8-2.6,4.3-4.6,7.5-6.1s6.8-2.2,11-2.2,7.5.6,10.7,1.9c3.1,1.3,5.7,3.1,7.7,5.3,2,2.3,3.3,5,4,8l-10.1,3h-.4c-.5-3-1.9-5.3-4-7s-4.7-2.5-7.8-2.5-5.3.8-7.1,2.2c-1.8,1.5-2.8,3.2-2.8,5.2s.6,3.2,1.9,4.3,3.1,1.9,5.4,2.5l10,2.5c3.4.8,6.2,1.8,8.5,3s4.2,2.9,5.6,5.2c1.4,2.2,2.1,5.2,2.1,9s-.9,6.4-2.8,9.1"/>
      <path d="M173.9,99.9c-2.2-1.3-4.8-1.9-7.8-1.9s-6.8.9-9.4,2.6c-2.6,1.8-4.6,4.3-5.9,7.5-.6,1.5-1.1,3.2-1.5,4.9h32c-.2-3-.9-5.6-2.2-7.9-1.3-2.2-3.1-4-5.3-5.3"/>
      <path d="M359.9,32c-2.2-1.3-4.8-1.9-7.8-1.9s-6.8.9-9.4,2.6c-2.6,1.8-4.6,4.3-5.9,7.5-.6,1.5-1.1,3.2-1.5,4.9h32c-.2-3-.9-5.6-2.2-7.9-1.3-2.2-3.1-4-5.3-5.3"/>
    </g>
  </g>
</svg>