<?xml version="1.0" encoding="UTF-8"?>
<svg id="Ebene_1" xmlns="http://www.w3.org/2000/svg" xmlns:xlink="http://www.w3.org/1999/xlink" version="1.1" viewBox="0 0 636 169.2">
  <!-- Generator: Adobe Illustrator 29.4.0, SVG Export Plug-In . SVG Version: 2.1.0 Build 152)  -->
  <defs>
    <style>
      .st0 {
        fill: none;
      }

      .st1 {
        clip-path: url(#clippath);
      }
    </style>
    <clipPath id="clippath">
      <rect class="st0" x="0" y="0" width="636" height="169.2"/>
    </clipPath>
  </defs>
  <g class="st1">
    <path d="M421.7,0v.3l-6.4,6.7-24.4,25.7,29.1,41,4.9,6.7v.4h-14.1l-.3-.4-4.9-6.7-22.8-32.4-11.5,12.1v27.5h-11.7V0h-13v37h-71.5v30.9h-36.9v13h-10.8v-13h-8.4v80.9h-10.9v-8.5c-1.6,2.8-4.2,5.1-7.6,6.9-3.4,1.8-7.1,2.8-11,2.8s-9.9-1.3-14.1-3.9c-4.2-2.6-7.5-6.2-9.8-10.8-2.4-4.6-3.5-9.8-3.5-15.6s1.2-11,3.5-15.6c2.4-4.6,5.6-8.2,9.8-10.8,4.2-2.6,8.9-3.9,14.1-3.9s7.6.9,11,2.7c3.4,1.8,6,4.1,7.6,6.9v-31H0v101.3h590.5v-67.9h45.5V0h-214.3ZM57.1,141.1c-1.9,2.7-4.5,4.8-7.8,6.4-3.3,1.6-7.1,2.4-11.4,2.4s-9-.8-12.6-2.4c-3.6-1.6-6.4-3.7-8.4-6.4-2-2.7-3.3-5.6-3.7-8.8l10-3.5h.4c.4,2.4,1.2,4.5,2.4,6.3,1.2,1.8,2.9,3.2,4.9,4.1,2.1.9,4.4,1.4,6.9,1.4s4-.4,5.6-1.1c1.6-.7,2.9-1.7,3.8-3,.9-1.3,1.3-2.7,1.3-4.4s-.7-3.8-2-5c-1.3-1.2-3.2-2.2-5.8-2.9l-11.1-2.6c-2.7-.7-5.1-1.6-7.2-2.6-2.1-1.1-3.9-2.7-5.3-4.8-1.4-2.1-2.1-4.8-2.1-8s.9-6,2.7-8.6c1.8-2.6,4.3-4.6,7.5-6.1,3.2-1.5,6.8-2.2,11-2.2s7.5.6,10.7,1.9c3.1,1.3,5.7,3.1,7.7,5.3,2,2.3,3.3,5,4,8l-10.1,3h-.5c-.5-3-1.9-5.3-4-7-2.1-1.7-4.7-2.5-7.8-2.5s-5.3.8-7.1,2.2c-1.8,1.5-2.8,3.2-2.8,5.2s.6,3.2,1.9,4.3c1.3,1.1,3.1,1.9,5.4,2.5l10,2.5c3.4.8,6.2,1.8,8.5,3,2.3,1.2,4.2,2.9,5.6,5.2,1.4,2.2,2.1,5.2,2.1,9s-.9,6.4-2.8,9.1M97.6,99.6h-15.3v31.6c0,3.1.8,5.4,2.3,6.9,1.5,1.5,3.5,2.2,5.8,2.2s2.4-.1,3.4-.3c1-.2,2-.7,3-1.3v9.3c-.8.5-1.9,1-3.5,1.3-1.6.4-3.1.6-4.7.6-5.2,0-9.3-1.5-12.4-4.6-3.1-3-4.7-7.5-4.7-13.4v-32.3h-10.5v-9.2c3.7,0,6.2-.3,7.6-.8,1.4-.6,2.3-1.7,2.7-3.4.4-1.7.6-4.8.6-9.3h10.3v13.6h15.3v9.2ZM154.4,141.6v7.2h-10.9v-8.5c-2,2.8-4.6,5.2-7.8,7-3.1,1.8-6.6,2.7-10.3,2.7s-7.9-.8-11.2-2.5c-3.3-1.7-5.9-4.1-7.8-7.2-1.9-3.1-2.8-6.7-2.8-10.8v-38.9h10.9v36.3c0,3.1.6,5.6,1.7,7.6,1.1,2,2.7,3.5,4.6,4.5,1.9,1,4.2,1.5,6.9,1.5s4.9-.7,7.1-2c2.2-1.3,4-3.1,5.5-5.3,1.5-2.2,2.6-4.7,3.3-7.4v-35.3h10.9v51.2ZM333.1,80.7v-24.6h4.6v4c.3-.5.6-1,1-1.5.8-.9,1.7-1.7,2.7-2.2,1.1-.5,2.2-.8,3.4-.8s1.2,0,1.5,0v4.5c-1.8-.3-3.2-.1-4.5.5-1.2.7-2.2,1.6-2.9,2.7-.6,1-1,1.9-1.2,2.9v14.5h-4.6v-.2ZM320.4,47.9h4.7v5.2h-4.7v-5.2ZM309.4,47.9h4.7v5.2h-4.7v-5.2ZM306.9,59.7v-3.6h4.6v15.4c0,1.3.2,2.4.7,3.2.5.9,1.1,1.5,2,1.9.8.4,1.8.6,2.9.6s2.1-.3,3-.8c.9-.6,1.7-1.3,2.3-2.2.6-.9,1.1-2,1.4-3.1v-15h4.6v24.8h-4.6v-3.6c-.9,1.2-2,2.2-3.3,3-1.3.8-2.8,1.1-4.4,1.1s-3.4-.4-4.8-1.1c-1.4-.7-2.5-1.7-3.3-3.1-.8-1.3-1.2-2.9-1.2-4.6v-12.9ZM238.2,141.6v7.2h-10.8v-58.3h10.8v51.2ZM301,121.2h-43.9c.2,3.5.9,6.7,2.1,9.4,1.5,3.2,3.6,5.6,6.3,7.3,2.7,1.7,5.9,2.5,9.5,2.5s7.3-.9,9.8-2.6c2.5-1.8,4.3-4.5,5.3-8.3l10.8,3.1c-1.6,5.3-4.6,9.5-9.2,12.6-4.5,3.1-10.2,4.6-17,4.6s-10.5-1.3-14.8-3.9c-4.3-2.6-7.7-6.2-10.2-10.8-2.4-4.6-3.7-9.8-3.7-15.7s1.2-11.1,3.6-15.7c2.4-4.6,5.7-8.2,10-10.7,4.3-2.5,9.1-3.8,14.6-3.8s12.9,1.7,17,5.1c4.1,3.4,6.9,7.5,8.3,12.4,1.4,4.9,1.9,9.7,1.3,14.5M303.3,50.2h-.2c-.4-.2-.7-.4-1.2-.5-.4,0-.9-.1-1.4-.1-1,0-1.8.3-2.5,1-.7.7-1,1.6-1,2.8v2.7h6.2v3.9h-6.2v20.9h-4.6v-20.9h-4.4v-3.9h4.4v-3c0-1.7.3-3.1,1-4.2.6-1.1,1.5-2,2.6-2.6,1.1-.6,2.4-.8,3.8-.8s1.3,0,1.9.2c.6.1,1.1.3,1.5.6v3.9ZM327.2,101.3c-2.9,1.6-5.2,3.7-6.8,6.5-1.3,2.3-2.3,4.6-2.9,6.9v34.1h-10.8v-58.3h10.8v9.5c.7-1.3,1.5-2.4,2.4-3.5,1.8-2.2,4-3.9,6.5-5.2,2.5-1.3,5.2-1.9,7.9-1.9s2.8,0,3.5.2v10.6c-4.1-.7-7.6-.3-10.6,1.2M391.4,121.2h-43.9c.2,3.5.9,6.7,2.1,9.4,1.5,3.2,3.6,5.6,6.3,7.3,2.7,1.7,5.9,2.5,9.5,2.5s7.3-.9,9.8-2.6c2.5-1.8,4.3-4.5,5.3-8.3l10.8,3.1c-1.6,5.3-4.6,9.5-9.2,12.6-4.5,3.1-10.2,4.6-17,4.6s-10.5-1.3-14.8-3.9c-4.3-2.6-7.7-6.2-10.2-10.8-2.4-4.6-3.7-9.8-3.7-15.7s1.2-11.1,3.6-15.7c2.4-4.6,5.7-8.2,10-10.7,4.3-2.5,9.1-3.8,14.6-3.8s12.9,1.7,17,5.1c4.1,3.4,6.9,7.5,8.3,12.4,1.4,4.9,1.9,9.7,1.3,14.5M450.4,141.6v7.2h-10.9v-36.3c0-2.8-.5-5.3-1.6-7.3-1.1-2-2.6-3.6-4.6-4.7-2-1.1-4.3-1.6-7-1.6s-4.9.7-7.1,2c-2.2,1.3-4,3.1-5.5,5.3-1.5,2.2-2.6,4.7-3.3,7.4v35.3h-10.8v-58.3h10.8v8.5c2-2.8,4.6-5.2,7.8-7,3.1-1.8,6.6-2.7,10.3-2.7s8,.8,11.3,2.5c3.3,1.7,5.8,4.1,7.7,7.2,1.9,3.1,2.8,6.7,2.8,10.8v31.7ZM446.1,82c-4.2,0-7.9-.8-11.2-2.5-3.3-1.7-5.9-4.1-7.8-7.2-1.9-3.1-2.8-6.7-2.8-10.8V22.5h10.9v36.3c0,3.1.6,5.6,1.7,7.6,1.1,2,2.7,3.5,4.6,4.5,1.9,1,4.2,1.5,6.9,1.5s4.9-.7,7.1-2c2.2-1.3,4-3.1,5.5-5.3,1.5-2.2,2.6-4.7,3.3-7.4V22.5h10.9v58.3h-10.9v-8.5c-2,2.8-4.6,5.2-7.8,7-3.1,1.8-6.6,2.7-10.3,2.7M514.7,141.6v7.2h-10.9v-8.5c-1.6,2.8-4.2,5.1-7.6,6.9-3.4,1.8-7.1,2.8-11,2.8s-9.9-1.3-14.1-3.9c-4.2-2.6-7.5-6.2-9.8-10.8-2.4-4.6-3.5-9.8-3.5-15.6s1.2-11,3.5-15.6c2.4-4.6,5.6-8.2,9.8-10.8,4.2-2.6,8.9-3.9,14.1-3.9s7.6.9,11,2.7c3.4,1.8,6,4.1,7.6,6.9v-32.3h10.9v75ZM517.2,32.6c-2-1.1-4.3-1.6-7-1.6s-4.9.7-7.1,2c-2.2,1.3-4,3.1-5.5,5.3-1.5,2.2-2.6,4.7-3.3,7.4v35.3h-10.8V22.5h10.8v8.5c2-2.8,4.6-5.2,7.8-7,3.1-1.8,6.6-2.7,10.3-2.7s8,.8,11.3,2.5c3.3,1.7,5.8,4.1,7.7,7.2s2.8,6.7,2.8,10.8v38.9h-10.9v-36.3c0-2.8-.5-5.3-1.6-7.3-1.1-2-2.6-3.6-4.6-4.7M577.3,121.2h-43.9c.2,3.5.9,6.7,2.1,9.4,1.5,3.2,3.6,5.6,6.3,7.3,2.7,1.7,5.9,2.5,9.5,2.5s7.3-.9,9.8-2.6c2.5-1.8,4.3-4.5,5.3-8.3l10.8,3.1c-1.6,5.3-4.6,9.5-9.2,12.6-4.5,3.1-10.2,4.6-17,4.6s-10.5-1.3-14.8-3.9c-4.3-2.6-7.7-6.2-10.2-10.8-2.4-4.6-3.7-9.8-3.7-15.7s1.2-11.1,3.6-15.7c2.4-4.6,5.7-8.2,10-10.7,4.3-2.5,9.1-3.8,14.6-3.8s12.9,1.7,17,5.1c4.1,3.4,6.9,7.5,8.3,12.4,1.4,4.9,1.9,9.7,1.3,14.5M584.6,73.2c-1.9,2.7-4.5,4.8-7.8,6.4-3.3,1.6-7.1,2.4-11.4,2.4s-9-.8-12.6-2.4c-3.6-1.6-6.4-3.7-8.4-6.4-2-2.7-3.3-5.6-3.7-8.8l10-3.5h.5c.4,2.4,1.2,4.5,2.4,6.3,1.2,1.8,2.9,3.2,4.9,4.1,2.1.9,4.4,1.4,6.9,1.4s4-.4,5.6-1.1c1.6-.7,2.9-1.7,3.8-3s1.3-2.7,1.3-4.4-.7-3.8-2-5c-1.3-1.2-3.2-2.2-5.8-2.9l-11.1-2.6c-2.7-.7-5.1-1.6-7.2-2.6-2.1-1.1-3.9-2.7-5.3-4.8-1.4-2.1-2.1-4.8-2.1-8s.9-6,2.7-8.6c1.8-2.6,4.3-4.6,7.5-6.1,3.2-1.5,6.8-2.2,11-2.2s7.5.6,10.7,1.9c3.1,1.3,5.7,3.1,7.7,5.3,2,2.3,3.3,5,4,8l-10.1,3h-.5c-.5-3-1.9-5.3-4-7-2.1-1.7-4.7-2.5-7.8-2.5s-5.3.8-7.1,2.2c-1.8,1.5-2.8,3.2-2.8,5.2s.6,3.2,1.9,4.3c1.3,1.1,3.1,1.9,5.4,2.5l10,2.5c3.4.8,6.2,1.8,8.5,3,2.3,1.2,4.2,2.9,5.6,5.2,1.4,2.2,2.1,5.2,2.1,9s-.9,6.4-2.8,9.1M625.1,31.7h-15.3v31.6c0,3.1.8,5.4,2.3,6.9,1.5,1.5,3.5,2.2,5.8,2.2s2.4-.1,3.4-.3c1-.2,2-.7,3-1.4v9.3c-.8.5-1.9,1-3.5,1.3-1.6.4-3.1.6-4.7.6-5.2,0-9.3-1.5-12.4-4.6-3.1-3-4.7-7.5-4.7-13.4V31.7h-10.5v-9.2c3.7,0,6.2-.3,7.6-.8,1.4-.6,2.3-1.7,2.7-3.4.4-1.7.6-4.8.6-9.3h10.3v13.6h15.3v9.2Z"/>
    <path d="M282.1,99.9c-2.2-1.3-4.8-1.9-7.8-1.9s-6.8.9-9.4,2.6c-2.6,1.8-4.6,4.3-5.9,7.5-.6,1.5-1.1,3.2-1.5,4.9h32c-.2-3-.9-5.6-2.2-7.9-1.3-2.2-3.1-4-5.3-5.3"/>
    <path d="M495.1,101c-2.5-1.4-5.3-2.1-8.4-2.1s-6.4.9-9.2,2.6c-2.7,1.7-4.9,4.2-6.4,7.3-1.5,3.1-2.2,6.7-2.2,10.7s.7,7.8,2.2,10.9c1.5,3.1,3.6,5.6,6.4,7.4,2.7,1.8,5.8,2.6,9.2,2.6s5.9-.7,8.4-2.2c2.5-1.5,4.5-3.5,6.1-6.1,1.5-2.6,2.4-5.5,2.6-8.8v-7.5c-.2-3.3-1.1-6.2-2.6-8.8-1.5-2.5-3.6-4.5-6.1-6"/>
    <path d="M372.5,99.9c-2.2-1.3-4.8-1.9-7.8-1.9s-6.8.9-9.4,2.6c-2.6,1.8-4.6,4.3-5.9,7.5-.6,1.5-1.1,3.2-1.5,4.9h32c-.2-3-.9-5.6-2.2-7.9-1.3-2.2-3.1-4-5.3-5.3"/>
    <polygon points="371.3 7 371.3 37.7 399.8 7 406 .3 406.2 0 371.3 0 371.3 .3 371.3 7"/>
    <path d="M558.4,99.9c-2.2-1.3-4.8-1.9-7.8-1.9s-6.8.9-9.4,2.6c-2.6,1.8-4.6,4.3-5.9,7.5-.6,1.5-1.1,3.2-1.5,4.9h32c-.2-3-.9-5.6-2.2-7.9-1.3-2.2-3.1-4-5.3-5.3"/>
    <path d="M199.4,101c-2.5-1.4-5.3-2.1-8.4-2.1s-6.4.9-9.2,2.6c-2.7,1.7-4.9,4.2-6.4,7.3-1.5,3.1-2.2,6.7-2.2,10.7s.8,7.8,2.2,10.9c1.5,3.1,3.6,5.6,6.4,7.4,2.7,1.8,5.8,2.6,9.2,2.6s5.9-.7,8.4-2.2c2.5-1.5,4.5-3.5,6.1-6.1,1.5-2.6,2.4-5.5,2.6-8.8v-7.5c-.2-3.3-1.1-6.2-2.6-8.8-1.5-2.5-3.6-4.5-6.1-6"/>
  </g>
</svg>